<svg width="136" height="159" viewBox="0 0 136 159" fill="none" xmlns="http://www.w3.org/2000/svg">
<path d="M58.6182 92.0274L7.06265 60.9986C4.39665 59.3941 1 61.3142 1 64.4258V121.758C1 123.191 1.76612 124.514 3.00853 125.227L54.5641 154.824C57.2307 156.355 60.5556 154.43 60.5556 151.355V95.4546C60.5556 94.0515 59.8204 92.7509 58.6182 92.0274Z" fill="#ECECE8" stroke="black"/>
<path d="M77.3818 92.0274L128.937 60.9986C131.603 59.3941 135 61.3142 135 64.4258V121.758C135 123.191 134.234 124.514 132.991 125.227L81.4359 154.824C78.7693 156.355 75.4444 154.43 75.4444 151.355V95.4546C75.4444 94.0515 76.1796 92.7509 77.3818 92.0274Z" fill="#ECECE8" stroke="black"/>
<path d="M120.191 46.9682L70.5881 17.3967C69.3365 16.6505 67.7781 16.644 66.5203 17.3797L15.963 46.9514C13.3331 48.4896 13.3199 52.286 15.9389 53.8426L66.496 83.8909C67.766 84.6457 69.3486 84.6391 70.6122 83.8736L120.215 53.8251C122.796 52.2619 122.783 48.5132 120.191 46.9682Z" fill="#ECECE8" stroke="black"/>
</svg>
