<svg width="120" height="123" viewBox="0 0 120 123" fill="none" xmlns="http://www.w3.org/2000/svg">
<path d="M39.1667 75H7.83333C3.5071 75 0 78.5817 0 83V115C0 119.418 3.5071 123 7.83333 123H39.1667C43.4929 123 47 119.418 47 115V83C47 78.5817 43.4929 75 39.1667 75Z" fill="#ACF300"/>
<path fill-rule="evenodd" clip-rule="evenodd" d="M20.0833 0C17.6743 0 15.3639 0.930654 13.6604 2.58722C11.957 4.2438 11 6.49059 11 8.83333V44.1667C11 46.5094 11.957 48.7562 13.6604 50.4128C15.3639 52.0694 17.6743 53 20.0833 53H56.4167C58.8257 53 61.1361 53.9306 62.8396 55.5872C64.543 57.2438 65.5 59.4906 65.5 61.8333V97.1667C65.5 99.5094 66.457 101.756 68.1604 103.413C69.8639 105.069 72.1743 106 74.5833 106H110.917C113.326 106 115.636 105.069 117.34 103.413C119.043 101.756 120 99.5094 120 97.1667V8.83333C120 6.49059 119.043 4.2438 117.34 2.58722C115.636 0.930654 113.326 0 110.917 0H20.0833Z" fill="#ECECE8"/>
</svg>
