<svg width="11" height="11" viewBox="0 0 11 11" fill="none" xmlns="http://www.w3.org/2000/svg">
<path d="M4.62427 4.03984V4.68638H4.17346V5.47659H4.62427V7.82563H5.55093V5.47659H6.17259C6.17259 5.47659 6.23117 5.09768 6.25935 4.68309H5.55451V4.14314C5.55451 4.06191 5.65559 3.95345 5.75577 3.95345H6.26024V3.13037H5.57374C4.60146 3.13037 4.62427 3.92152 4.62427 4.03984Z" fill="#929292"/>
<mask id="path-2-inside-1_220_68" fill="white">
<path d="M5.4778 9.86004C6.64004 9.86004 7.75468 9.39834 8.57651 8.57651C9.39834 7.75468 9.86004 6.64004 9.86004 5.4778C9.86004 4.31556 9.39834 3.20092 8.57651 2.37909C7.75468 1.55726 6.64004 1.09556 5.4778 1.09556C4.31556 1.09556 3.20092 1.55726 2.37909 2.37909C1.55726 3.20092 1.09556 4.31556 1.09556 5.4778C1.09556 6.64004 1.55726 7.75468 2.37909 8.57651C3.20092 9.39834 4.31556 9.86004 5.4778 9.86004ZM5.4778 10.9556C2.45241 10.9556 0 8.50319 0 5.4778C0 2.45241 2.45241 0 5.4778 0C8.50319 0 10.9556 2.45241 10.9556 5.4778C10.9556 8.50319 8.50319 10.9556 5.4778 10.9556Z"/>
</mask>
<path d="M5.4778 9.86004V15.86V9.86004ZM9.86004 5.4778H15.86H9.86004ZM5.4778 1.09556V-4.90444V1.09556ZM1.09556 5.4778H-4.90444H1.09556ZM5.4778 15.86C8.23134 15.86 10.8721 14.7662 12.8192 12.8192L4.33387 4.33387C4.63726 4.03048 5.04875 3.86004 5.4778 3.86004V15.86ZM12.8192 12.8192C14.7662 10.8721 15.86 8.23134 15.86 5.4778H3.86004C3.86004 5.04875 4.03048 4.63726 4.33387 4.33387L12.8192 12.8192ZM15.86 5.4778C15.86 2.72426 14.7662 0.0834964 12.8192 -1.86355L4.33387 6.62173C4.03048 6.31834 3.86004 5.90686 3.86004 5.4778H15.86ZM12.8192 -1.86355C10.8721 -3.8106 8.23134 -4.90444 5.4778 -4.90444V7.09556C5.04874 7.09556 4.63726 6.92512 4.33387 6.62173L12.8192 -1.86355ZM5.4778 -4.90444C2.72426 -4.90444 0.0834958 -3.8106 -1.86355 -1.86355L6.62173 6.62173C6.31834 6.92512 5.90686 7.09556 5.4778 7.09556V-4.90444ZM-1.86355 -1.86355C-3.8106 0.0834958 -4.90444 2.72426 -4.90444 5.4778H7.09556C7.09556 5.90686 6.92512 6.31834 6.62173 6.62173L-1.86355 -1.86355ZM-4.90444 5.4778C-4.90444 8.23134 -3.8106 10.8721 -1.86355 12.8192L6.62173 4.33387C6.92512 4.63726 7.09556 5.04874 7.09556 5.4778H-4.90444ZM-1.86355 12.8192C0.0834964 14.7662 2.72426 15.86 5.4778 15.86V3.86004C5.90686 3.86004 6.31834 4.03048 6.62173 4.33387L-1.86355 12.8192ZM5.4778 4.9556C5.76612 4.9556 6 5.18948 6 5.4778H-6C-6 11.8169 -0.861297 16.9556 5.4778 16.9556V4.9556ZM6 5.4778C6 5.76612 5.76612 6 5.4778 6V-6C-0.861297 -6 -6 -0.861297 -6 5.4778H6ZM5.4778 6C5.18948 6 4.9556 5.76612 4.9556 5.4778H16.9556C16.9556 -0.861297 11.8169 -6 5.4778 -6V6ZM4.9556 5.4778C4.9556 5.18948 5.18948 4.9556 5.4778 4.9556V16.9556C11.8169 16.9556 16.9556 11.8169 16.9556 5.4778H4.9556Z" fill="#929292" mask="url(#path-2-inside-1_220_68)"/>
</svg>
