<svg width="436" height="334" viewBox="0 0 436 334" fill="none" xmlns="http://www.w3.org/2000/svg">
<path d="M435.792 294.096H0V294.314H435.792V294.096Z" fill="#EBEBEB"/>
<path d="M68.3838 302.394H45.7227V302.612H68.3838V302.394Z" fill="#EBEBEB"/>
<path d="M174.691 300.032H127.538V300.25H174.691V300.032Z" fill="#EBEBEB"/>
<path d="M92.1969 310.491H69.2568V310.709H92.1969V310.491Z" fill="#EBEBEB"/>
<path d="M392.126 309.027H375.365V309.245H392.126V309.027Z" fill="#EBEBEB"/>
<path d="M367.599 309.027H341.199V309.245H367.599V309.027Z" fill="#EBEBEB"/>
<path d="M272.623 305.349H225.069V305.567H272.623V305.349Z" fill="#EBEBEB"/>
<path d="M206.566 255.224H38.2717C36.9533 255.222 35.6897 254.696 34.7583 253.763C33.8268 252.83 33.3037 251.566 33.3037 250.247V13.6732C33.3152 12.3623 33.8434 11.1089 34.7736 10.1853C35.7038 9.2616 36.9609 8.74224 38.2717 8.73999H206.566C207.886 8.73999 209.152 9.26432 210.085 10.1976C211.018 11.131 211.543 12.3968 211.543 13.7167V250.247C211.543 251.567 211.018 252.833 210.085 253.766C209.152 254.7 207.886 255.224 206.566 255.224ZM38.2717 8.91431C37.0111 8.91662 35.8029 9.41901 34.9124 10.3112C34.0218 11.2034 33.5216 12.4125 33.5216 13.6732V250.247C33.5216 251.508 34.0218 252.717 34.9124 253.609C35.8029 254.501 37.0111 255.004 38.2717 255.006H206.566C207.827 255.004 209.036 254.502 209.928 253.61C210.82 252.718 211.322 251.509 211.325 250.247V13.6732C211.322 12.4117 210.82 11.2026 209.928 10.3107C209.036 9.41873 207.827 8.91661 206.566 8.91431H38.2717Z" fill="#EBEBEB"/>
<path d="M395.097 255.224H226.794C225.475 255.222 224.21 254.697 223.278 253.764C222.345 252.831 221.82 251.566 221.817 250.247V13.6732C221.831 12.3615 222.361 11.1082 223.293 10.1847C224.224 9.26129 225.482 8.74221 226.794 8.73999H395.097C396.406 8.74453 397.661 9.2649 398.589 10.1883C399.518 11.1117 400.045 12.3638 400.056 13.6732V250.247C400.056 251.564 399.534 252.827 398.605 253.76C397.675 254.693 396.414 255.219 395.097 255.224ZM226.794 8.91431C225.533 8.91661 224.324 9.41873 223.432 10.3107C222.54 11.2026 222.038 12.4117 222.035 13.6732V250.247C222.038 251.509 222.54 252.718 223.432 253.61C224.324 254.502 225.533 255.004 226.794 255.006H395.097C396.358 255.004 397.567 254.502 398.459 253.61C399.351 252.718 399.853 251.509 399.856 250.247V13.6732C399.853 12.4117 399.351 11.2026 398.459 10.3107C397.567 9.41873 396.358 8.91661 395.097 8.91431H226.794Z" fill="#EBEBEB"/>
<path d="M189.309 28.2986H50.7441V158.077H189.309V28.2986Z" fill="#E6E6E6"/>
<path d="M194.285 28.2986H53.0713V158.077H194.285V28.2986Z" fill="#F0F0F0"/>
<path d="M189.309 158.077H50.7441V163.986H189.309V158.077Z" fill="#E6E6E6"/>
<path d="M202.573 158.077H61.3594V163.986H202.573V158.077Z" fill="#F0F0F0"/>
<path d="M187.312 151.113V35.271L60.0264 35.271V151.113H187.312Z" fill="#FAFAFA"/>
<path d="M73.3613 151.113L114.256 35.271H133.553L92.6669 151.113H73.3613Z" fill="white"/>
<path d="M63.2595 154.347C63.3913 154.347 63.5176 154.294 63.6108 154.201C63.704 154.108 63.7563 153.982 63.7563 153.85V39.8032C63.7563 39.6714 63.704 39.5451 63.6108 39.4519C63.5176 39.3587 63.3913 39.3064 63.2595 39.3064C63.1277 39.3064 63.0014 39.3587 62.9082 39.4519C62.815 39.5451 62.7627 39.6714 62.7627 39.8032V153.85C62.7627 153.982 62.815 154.108 62.9082 154.201C63.0014 154.294 63.1277 154.347 63.2595 154.347Z" fill="#E0E0E0"/>
<path d="M96.8154 151.113L137.701 35.271H145.232L104.337 151.113H96.8154Z" fill="white"/>
<path d="M187.312 151.104V35.2622H186.423V151.104H187.312Z" fill="#E6E6E6"/>
<path opacity="0.5" d="M195.932 49.504H57.3676L56.7227 37.9729H195.287L195.932 49.504Z" fill="#E6E6E6"/>
<path opacity="0.5" d="M195.932 61.2006H57.3676L56.7227 49.6782H195.287L195.932 61.2006Z" fill="#E6E6E6"/>
<path opacity="0.5" d="M195.932 72.8973H57.3676L56.7227 61.375H195.287L195.932 72.8973Z" fill="#E6E6E6"/>
<path opacity="0.5" d="M195.932 84.5939H57.3676L56.7227 73.0715H195.287L195.932 84.5939Z" fill="#E6E6E6"/>
<path opacity="0.5" d="M195.932 96.2992H57.3676L56.7227 84.7769H195.287L195.932 96.2992Z" fill="#E6E6E6"/>
<path opacity="0.5" d="M195.932 107.996H57.3676L56.7227 96.4736H195.287L195.932 107.996Z" fill="#E6E6E6"/>
<path d="M231.624 189.01H192.158V294.097H231.624V189.01Z" fill="#E6E6E6"/>
<path d="M225.635 294.097H231.623V279.785H219.368L225.635 294.097Z" fill="#F0F0F0"/>
<path d="M85.2925 189.01H45.8271V294.097H85.2925V189.01Z" fill="#E6E6E6"/>
<path d="M231.623 189.01H80.0723V285.311H231.623V189.01Z" fill="#F0F0F0"/>
<path d="M226.987 193.281H84.7188V219.689H226.987V193.281Z" fill="#E6E6E6"/>
<path d="M174.674 200.192H137.03C120.68 200.192 105.052 196.932 93.8086 191.18H217.896C206.653 196.932 191.025 200.192 174.674 200.192Z" fill="#F0F0F0"/>
<path d="M86.06 294.097H80.0723V279.785H92.3267L86.06 294.097Z" fill="#F0F0F0"/>
<path d="M226.987 223.951H84.7188V250.36H226.987V223.951Z" fill="#E6E6E6"/>
<path d="M174.674 230.872H137.03C120.68 230.872 105.052 227.612 93.8086 221.86H217.896C206.653 227.612 191.025 230.872 174.674 230.872Z" fill="#F0F0F0"/>
<path d="M226.987 254.631H84.7188V281.04H226.987V254.631Z" fill="#E6E6E6"/>
<path d="M174.674 261.551H137.03C120.68 261.551 105.052 258.292 93.8086 252.539H217.896C206.653 258.292 191.025 261.551 174.674 261.551Z" fill="#F0F0F0"/>
<path d="M277.59 147.043H360.652V35.9422L277.59 35.9422V147.043Z" fill="#E6E6E6"/>
<path d="M272.187 147.043H359.493V35.9422L272.187 35.9422V147.043Z" fill="#F0F0F0"/>
<path d="M347.413 134.954V48.0222L284.276 48.0222V134.954H347.413Z" fill="white"/>
<path d="M291.849 110.724H339.821V103.028H291.849V110.724Z" fill="#F0F0F0"/>
<path d="M298.422 121.802H333.25V114.106H298.422V121.802Z" fill="#F0F0F0"/>
<path d="M315.845 94.6172C325.829 94.6172 333.922 86.524 333.922 76.5405C333.922 66.557 325.829 58.4639 315.845 58.4639C305.862 58.4639 297.769 66.557 297.769 76.5405C297.769 86.524 305.862 94.6172 315.845 94.6172Z" fill="#F0F0F0"/>
<path d="M285.217 134.954V48.0222H284.267V134.954H285.217Z" fill="#E6E6E6"/>
<path d="M312.899 217.833C312.863 217.659 312.767 217.503 312.629 217.392C312.491 217.281 312.318 217.221 312.141 217.223H283.047C282.871 217.221 282.7 217.281 282.563 217.393C282.426 217.504 282.332 217.66 282.298 217.833L271.935 294.096H273.503L283.675 218.792H311.565L321.711 294.131H323.28L312.899 217.833Z" fill="#F0F0F0"/>
<path d="M369.334 217.833C369.297 217.659 369.202 217.503 369.064 217.392C368.925 217.281 368.753 217.221 368.575 217.223H339.447C339.27 217.221 339.099 217.281 338.962 217.393C338.826 217.504 338.732 217.66 338.697 217.833L328.36 294.096H329.929L340.074 218.792H367.965L378.093 294.096H379.662L369.334 217.833Z" fill="#F0F0F0"/>
<path d="M370.162 211.401H278.541C274.183 211.401 270.618 213.51 270.618 216.107V216.273C270.618 217.214 271.908 218.016 273.503 218.016H375.2C376.795 218.016 378.084 217.249 378.084 216.273V216.107C378.084 213.51 374.537 211.401 370.162 211.401Z" fill="#E0E0E0"/>
<path d="M375.766 173.652H315.191L306.414 209.422H366.989L375.766 173.652Z" fill="#E6E6E6"/>
<path d="M366.989 209.422L366.745 211.401H306.161L306.405 209.422H366.989Z" fill="#E6E6E6"/>
<path d="M373.909 173.652H313.326L304.549 209.422H365.124L373.909 173.652Z" fill="#F0F0F0"/>
<path d="M363.843 207.784L371.826 175.282H314.607L306.632 207.784H363.843Z" fill="white"/>
<path d="M349.34 209.422L349.096 211.401H282.385L282.629 209.422H349.34Z" fill="#F0F0F0"/>
<path d="M217.896 333.457C311.227 333.457 386.887 329.04 386.887 323.591C386.887 318.142 311.227 313.724 217.896 313.724C124.564 313.724 48.9043 318.142 48.9043 323.591C48.9043 329.04 124.564 333.457 217.896 333.457Z" fill="#F5F5F5"/>
<path d="M69.4897 250.317L68.6641 250.596L70.4897 255.996L71.3154 255.717L69.4897 250.317Z" fill="#12733C"/>
<path d="M67.5391 245.88C66.7133 241.039 67.7873 236.065 70.5374 231.996C72.6187 229.14 75.5414 227.007 78.8959 225.895L79.1748 226.714C75.9871 227.764 73.2137 229.796 71.2521 232.519C68.6256 236.404 67.6042 241.154 68.402 245.776L67.5391 245.88Z" fill="#12733C"/>
<path d="M308.541 283.855H173.053L161.47 249.619C157.4 237.565 144.326 227.83 132.272 227.83H85.9996C73.9543 227.83 67.4871 237.6 71.5574 249.619L83.1582 283.907C84.966 289.266 88.4095 293.922 93.0034 297.219C97.5974 300.517 103.11 302.29 108.765 302.289H308.541C310.238 302.289 311.865 301.615 313.065 300.415C314.264 299.215 314.938 297.588 314.938 295.892V290.261C314.94 289.42 314.775 288.587 314.454 287.81C314.133 287.033 313.662 286.327 313.068 285.732C312.474 285.137 311.768 284.665 310.991 284.343C310.215 284.021 309.382 283.855 308.541 283.855Z" fill="#12733C"/>
<path opacity="0.2" d="M161.47 249.619C157.4 237.565 144.326 227.83 132.272 227.83H101.104C89.0499 227.83 82.5915 237.6 86.6618 249.619L98.2539 283.907L173.044 283.855L161.47 249.619Z" fill="white"/>
<path opacity="0.2" d="M231.406 302.289H308.523C312.057 302.289 314.921 299.425 314.921 295.892V290.252C314.921 286.719 312.057 283.855 308.523 283.855H231.406C227.873 283.855 225.008 286.719 225.008 290.252V295.892C225.008 299.425 227.873 302.289 231.406 302.289Z" fill="white"/>
<path d="M235.442 319.215H231.397V302.289H237.978L235.442 319.215Z" fill="#263238"/>
<path d="M304.48 319.215H308.524V302.289H301.935L304.48 319.215Z" fill="#263238"/>
<path d="M117.691 319.215H113.646V302.289H120.227L117.691 319.215Z" fill="#263238"/>
<path d="M186.72 319.215H190.764V302.289H184.184L186.72 319.215Z" fill="#263238"/>
<path d="M129.274 197.821C129.989 200.671 133.17 203.539 134.102 204.689C135.035 205.84 130.39 207.156 130.39 207.156L125.727 202.109L129.274 197.821Z" fill="#263238"/>
<path d="M132.376 220.535L134.119 220.639L136.019 220.726C137.3 220.726 138.581 220.822 139.863 220.831C142.425 220.831 144.97 220.831 147.445 220.665C148.683 220.587 149.912 220.482 151.106 220.334C152.3 220.186 153.485 220.038 154.592 219.811C156.665 219.445 158.688 218.842 160.624 218.016L157.573 221.31C158.488 219.646 159.43 217.902 160.301 216.081C161.173 214.259 162.044 212.359 162.916 210.433C163.788 208.507 164.589 206.554 165.435 204.585C166.28 202.615 167.108 200.593 167.971 198.693L168.05 198.518C168.442 197.657 169.115 196.955 169.959 196.527C170.804 196.1 171.768 195.973 172.695 196.166C173.621 196.36 174.453 196.864 175.056 197.594C175.658 198.324 175.993 199.237 176.007 200.183C176.007 202.58 175.903 204.811 175.711 207.112C175.519 209.413 175.188 211.662 174.839 213.937C174.491 216.211 173.968 218.495 173.349 220.779C172.73 223.118 171.976 225.42 171.091 227.673C170.609 228.89 169.747 229.92 168.634 230.61L168.041 230.967C165.054 232.787 161.827 234.177 158.453 235.099C155.375 235.971 152.229 236.586 149.049 236.938C146 237.296 142.933 237.473 139.863 237.469C138.346 237.469 136.829 237.469 135.313 237.347C134.555 237.347 133.788 237.26 133.029 237.191L131.87 237.077L130.606 236.929C128.521 236.644 126.624 235.571 125.305 233.931C123.986 232.291 123.344 230.208 123.513 228.11C123.681 226.011 124.646 224.057 126.21 222.649C127.774 221.24 129.818 220.484 131.922 220.535H132.376Z" fill="#263238"/>
<path d="M173.053 196.226C168.582 195.224 167.728 197.926 167.292 200.052C166.856 202.179 168.416 205.151 171.955 205.971C175.494 206.79 176.086 204.349 176.252 203.068C176.418 201.787 178.222 197.385 173.053 196.226Z" fill="#12733C"/>
<path d="M175.188 202.545L178.465 200.506L172.73 193.638C172.73 193.638 167.248 196.523 168.451 199.608L170.961 202.083C171.511 202.624 172.228 202.964 172.994 203.047C173.761 203.131 174.534 202.954 175.188 202.545Z" fill="#B55B52"/>
<path d="M168.434 199.46C167.423 194.23 172.208 192.731 172.635 190.081C172.644 189.926 172.709 189.78 172.818 189.669C172.926 189.558 173.071 189.49 173.226 189.478C173.38 189.465 173.535 189.508 173.66 189.6C173.785 189.692 173.873 189.826 173.907 189.977C174.181 191 174.05 192.089 173.541 193.019C172.914 193.751 176.217 197.682 173.254 199.433C171.657 199.174 170.028 199.183 168.434 199.46Z" fill="#B55B52"/>
<path d="M181.289 193.69L180.374 192.487C179.879 191.834 179.159 191.389 178.354 191.236C177.55 191.083 176.717 191.234 176.016 191.659L172.739 193.638L178.474 200.506L180.967 198.039C181.538 197.476 181.886 196.725 181.945 195.925C182.004 195.125 181.771 194.331 181.289 193.69Z" fill="#B55B52"/>
<path d="M271.463 282.417C270.417 280.674 268.317 281.127 265.938 280.674C265.938 280.674 269.886 270.476 272.039 271.731C276.449 274.346 281.626 270.546 286.272 265.29C286.917 264.558 288.573 266.824 287.439 268.777C284.607 273.693 280.537 275.749 278.419 278.181C276.606 280.247 276.597 281.859 274.871 283.245C273.433 284.378 272.501 284.16 271.463 282.417Z" fill="#263238"/>
<path d="M242.702 280.927C243.216 278.957 243.73 276.194 242.405 274.163C242.405 274.163 252.428 269.805 253.056 272.202C254.329 277.144 255.531 279.428 264.012 280.918C264.971 281.092 266.731 283.916 264.465 283.916C257.911 283.916 253.814 283.21 250.616 283.402C247.87 283.559 246.728 284.134 244.515 283.881C242.71 283.707 242.179 282.914 242.702 280.927Z" fill="#263238"/>
<path d="M135.584 222.496C127.844 221.859 117.778 223.568 111.938 228.03C110.066 229.413 108.641 231.314 107.838 233.498C107.036 235.682 106.891 238.054 107.423 240.32C112.078 259.372 136.36 285.52 166.107 285.52L186.058 248.303C186.058 248.303 188.263 234.402 159.038 235.874C150.671 227.272 143.271 223.149 135.584 222.496Z" fill="#263238"/>
<path d="M183.242 245.558C200.061 239.472 217.467 235.152 235.18 232.667C251.095 230.488 253.989 274.503 253.989 274.503L242.405 276.403C240.27 264.149 233.602 260.828 230.647 251.572C218.219 263.146 190.703 273.144 170.09 264.75C173.245 256.531 174.404 255.232 177.585 250.317C180.279 246.194 183.242 245.558 183.242 245.558Z" fill="#12733C"/>
<path opacity="0.3" d="M183.242 245.558C200.061 239.472 217.467 235.152 235.18 232.667C251.095 230.488 253.989 274.503 253.989 274.503L242.405 276.403C240.27 264.149 233.602 260.828 230.647 251.572C218.219 263.146 190.703 273.144 170.09 264.75C173.245 256.531 174.404 255.232 177.585 250.317C180.279 246.194 183.242 245.558 183.242 245.558Z" fill="black"/>
<path d="M174.622 254.962C174.622 254.962 206.67 255.433 234.909 262.536C248.445 265.935 274.131 271.705 274.131 271.705L269.154 281.746C269.154 281.746 252.803 282.957 226.263 278.321C208.361 284.91 192.376 285.52 166.124 285.52C165.941 269.021 174.622 254.962 174.622 254.962Z" fill="#12733C"/>
<path opacity="0.2" d="M174.622 254.962C174.622 254.962 206.67 255.433 234.909 262.536C248.445 265.935 274.131 271.705 274.131 271.705L269.154 281.746C269.154 281.746 252.803 282.957 226.263 278.321C208.361 284.91 192.376 285.52 166.124 285.52C165.941 269.021 174.622 254.962 174.622 254.962Z" fill="black"/>
<path d="M123.242 239.352L122.422 247.135C122.143 249.75 121.926 252.365 121.699 254.98C121.603 256.278 121.499 257.594 121.437 258.876C121.376 260.157 121.289 261.49 121.228 262.737C121.159 265.282 121.115 267.792 121.228 270.18L119.407 266.119C120.509 267.553 121.789 268.842 123.216 269.954C123.991 270.537 124.811 271.139 125.673 271.697C126.536 272.254 127.469 272.795 128.419 273.318C130.377 274.378 132.394 275.326 134.459 276.159C135.514 276.586 136.577 277.031 137.666 277.397C138.207 277.597 138.747 277.798 139.296 277.972L140.839 278.512L141.301 278.678C142.199 278.992 142.961 279.609 143.455 280.423C143.949 281.237 144.145 282.197 144.009 283.139C143.873 284.081 143.414 284.947 142.71 285.588C142.006 286.229 141.101 286.606 140.15 286.653C139.34 286.697 138.73 286.731 138.024 286.74C137.318 286.749 136.673 286.74 136.002 286.74C134.651 286.688 133.308 286.601 131.958 286.453C129.222 286.146 126.517 285.616 123.869 284.866C121.087 284.071 118.396 282.984 115.842 281.624C114.495 280.89 113.194 280.075 111.946 279.184C110.648 278.226 109.427 277.168 108.294 276.02C107.368 275.12 106.757 273.947 106.551 272.673L106.429 271.932C105.94 268.948 105.617 265.939 105.461 262.92C105.304 259.974 105.287 257.063 105.348 254.204C105.409 251.345 105.592 248.46 105.827 245.61C105.958 244.189 106.089 242.769 106.272 241.348C106.455 239.927 106.638 238.55 106.882 236.99C107.216 234.864 108.369 232.952 110.094 231.664C111.819 230.376 113.979 229.814 116.113 230.097C118.247 230.38 120.185 231.487 121.514 233.181C122.843 234.874 123.457 237.02 123.224 239.16L123.242 239.352Z" fill="#263238"/>
<path d="M143.951 286.357C147.49 283.62 145.119 280.648 143.376 279.332C142.121 278.463 140.593 278.08 139.077 278.253C137.56 278.426 136.158 279.144 135.131 280.273C133.065 282.373 133.675 286.261 134.808 286.888C135.941 287.516 139.218 290.008 143.951 286.357Z" fill="#12733C"/>
<path d="M143.61 281.319L146.609 283.21L141.135 289.686C141.135 289.686 135.906 286.914 137.108 284.003L139.409 281.763C139.957 281.226 140.67 280.89 141.432 280.809C142.195 280.728 142.963 280.908 143.61 281.319Z" fill="#B55B52"/>
<path d="M149.215 289.686L148.344 290.819C147.872 291.433 147.19 291.851 146.428 291.991C145.667 292.131 144.88 291.983 144.221 291.577L141.136 289.686L146.609 283.21L148.954 285.563C149.491 286.102 149.813 286.817 149.862 287.575C149.91 288.334 149.68 289.084 149.215 289.686Z" fill="#B55B52"/>
<path d="M113.307 209.309C115.407 213.85 118.17 221.903 115.921 226.827C115.617 227.497 115.584 228.257 115.827 228.951C116.071 229.644 116.573 230.217 117.229 230.549C119.469 231.665 123.53 232.58 130.547 231.255C139.132 229.634 139.402 227.499 138.286 226.069C137.832 225.574 137.282 225.175 136.669 224.898C136.056 224.621 135.394 224.471 134.721 224.457C131.898 222.217 128.795 217.44 130.181 214.041L113.307 209.309Z" fill="#B55B52"/>
<path opacity="0.2" d="M130.11 214.181L120.601 219.41C120.156 220.134 122.344 223.071 126.092 223.498C128.3 223.714 130.521 223.265 132.472 222.208C130.581 219.82 129.186 216.665 130.11 214.181Z" fill="black"/>
<path d="M130.198 196.54C129.91 191.607 126.659 189.811 126.659 189.811C126.192 190.574 125.88 191.422 125.741 192.306C125.602 193.19 125.638 194.093 125.849 194.962L118.396 200.933C121.613 203.765 130.485 201.473 130.198 196.54Z" fill="#263238"/>
<path d="M111.206 209.204C114.779 215.741 116.54 219.741 121.551 221.598C129.099 224.387 135.959 217.414 134.407 209.945C133.013 203.225 127.435 193.672 119.59 194.091C117.859 194.168 116.177 194.688 114.703 195.601C113.23 196.514 112.015 197.788 111.174 199.304C110.333 200.819 109.895 202.525 109.9 204.258C109.906 205.991 110.355 207.694 111.206 209.204Z" fill="#B55B52"/>
<path d="M122.293 206.276C122.546 206.825 123.051 207.147 123.409 206.964C123.766 206.781 123.844 206.215 123.592 205.665C123.339 205.116 122.833 204.794 122.476 204.986C122.119 205.177 122.023 205.718 122.293 206.276Z" fill="#263238"/>
<path d="M128.481 203.373C128.733 203.922 129.239 204.245 129.596 204.062C129.954 203.879 130.032 203.312 129.779 202.763C129.526 202.214 129.021 201.891 128.664 202.074C128.306 202.257 128.219 202.824 128.481 203.373Z" fill="#263238"/>
<path d="M126.642 204.567C128.078 205.945 129.697 207.118 131.453 208.054C130.912 209.413 129.073 209.797 129.073 209.797L126.642 204.567Z" fill="#A02724"/>
<path d="M125.457 212.69C125.08 212.939 124.735 213.232 124.428 213.562C124.407 213.598 124.398 213.64 124.404 213.681C124.41 213.723 124.43 213.761 124.46 213.789C124.491 213.818 124.53 213.835 124.572 213.838C124.614 213.841 124.655 213.83 124.69 213.806C125.193 213.246 125.822 212.813 126.525 212.542C127.228 212.27 127.984 212.169 128.734 212.246C128.779 212.253 128.825 212.243 128.862 212.217C128.9 212.191 128.926 212.151 128.934 212.106C128.942 212.06 128.932 212.013 128.906 211.974C128.88 211.935 128.84 211.907 128.795 211.897C127.623 211.749 126.437 212.031 125.457 212.69Z" fill="#263238"/>
<path d="M118.998 202.231C118.944 202.274 118.905 202.332 118.885 202.397C118.865 202.462 118.865 202.532 118.885 202.598C119.022 203.022 119.058 203.473 118.988 203.914C118.918 204.355 118.746 204.773 118.484 205.134C118.424 205.207 118.396 205.301 118.404 205.395C118.412 205.49 118.456 205.577 118.527 205.639C118.599 205.698 118.692 205.727 118.785 205.719C118.877 205.71 118.963 205.666 119.024 205.596C119.367 205.146 119.595 204.62 119.689 204.063C119.783 203.506 119.74 202.934 119.564 202.397C119.551 202.353 119.53 202.312 119.501 202.276C119.472 202.24 119.436 202.21 119.396 202.189C119.355 202.167 119.311 202.153 119.265 202.148C119.219 202.144 119.173 202.148 119.129 202.162C119.079 202.171 119.033 202.195 118.998 202.231Z" fill="#263238"/>
<path d="M127.322 198.196C127.241 198.203 127.167 198.241 127.113 198.3C127.079 198.334 127.053 198.373 127.035 198.416C127.017 198.46 127.008 198.506 127.008 198.553C127.008 198.6 127.017 198.647 127.035 198.69C127.053 198.733 127.079 198.773 127.113 198.806C127.514 199.204 128.006 199.498 128.547 199.664C129.087 199.829 129.66 199.861 130.215 199.756C130.261 199.746 130.304 199.726 130.342 199.699C130.38 199.672 130.412 199.638 130.437 199.598C130.461 199.558 130.477 199.514 130.484 199.467C130.491 199.421 130.488 199.374 130.477 199.329C130.454 199.238 130.397 199.16 130.317 199.111C130.237 199.062 130.141 199.046 130.05 199.067C129.609 199.141 129.156 199.109 128.73 198.972C128.304 198.836 127.917 198.599 127.601 198.283C127.563 198.249 127.519 198.224 127.471 198.209C127.423 198.194 127.372 198.189 127.322 198.196Z" fill="#263238"/>
<path d="M115.512 207.4C116.252 210.241 119.442 210.712 120.384 211.854C121.325 212.995 116.697 214.355 116.697 214.355L113.742 211.958L115.512 207.4Z" fill="#263238"/>
<path d="M110.299 215.671C111.74 216.829 113.562 217.404 115.406 217.284C117.803 217.074 118.021 214.756 116.513 212.926C115.171 211.296 112.304 209.439 110.299 210.546C108.294 211.653 108.512 214.224 110.299 215.671Z" fill="#B55B52"/>
<path d="M114.884 211.461C116.714 209.37 114.675 203.373 113.76 202.118C114.823 201.246 118.937 196.679 116.679 193.89C114.422 191.101 108.626 193.89 108.626 193.89C108.801 194.271 109.061 194.606 109.386 194.87C109.711 195.134 110.092 195.321 110.5 195.415C107.946 196.182 104.399 198.03 103.972 201.299C106.377 201.299 106.456 200.915 106.456 200.915C106.456 200.915 103.091 206.659 104.713 209.744C104.923 209.746 105.131 209.704 105.325 209.623C105.518 209.542 105.694 209.423 105.84 209.272C105.987 209.122 106.101 208.943 106.177 208.747C106.253 208.551 106.288 208.342 106.281 208.132C106.281 208.132 107.458 212.525 114.884 211.461Z" fill="#263238"/>
<path d="M120.192 191.302C116.871 187.632 112.347 189.463 112.347 189.463C112.319 190.222 112.517 190.973 112.918 191.619C113.319 192.265 113.903 192.777 114.596 193.088L113.725 202.118C118.03 202.31 123.512 194.962 120.192 191.302Z" fill="#263238"/>
<path d="M125.996 192.966C125.072 188.112 120.27 187.327 120.27 187.327C119.845 187.957 119.618 188.699 119.618 189.458C119.618 190.218 119.845 190.96 120.27 191.589L114.822 198.841C118.404 201.238 126.92 197.821 125.996 192.966Z" fill="#263238"/>
<path d="M168.504 285.52C166.761 286.392 164.224 285.52 164.224 285.52C164.224 285.52 162.865 252.6 184.184 242.333C185.517 242.333 186.389 244.416 186.389 244.416C180.008 249.242 175.164 255.815 172.443 263.338C167.929 275.933 168.504 285.52 168.504 285.52Z" fill="#12733C"/>
<path d="M311.878 90.3635C310.911 95.3054 309.944 104.37 313.404 107.664C307.013 109.211 301.155 112.447 296.443 117.034C292.956 110.584 298.038 107.664 298.038 107.664C303.546 106.348 303.407 102.261 302.448 98.417L311.878 90.3635Z" fill="#FFC3BD"/>
<path d="M297.986 112.127C299.119 107.551 295.72 106.845 301.333 104.666C305.691 102.923 314.076 102.871 316.063 104.361C317.17 105.233 315.714 108.005 315.714 108.005L297.986 112.127Z" fill="#263238"/>
<path d="M323.906 111.935C324.089 112.371 324.185 112.615 324.316 112.938L324.664 113.809C324.891 114.411 325.074 115.012 325.266 115.605C325.64 116.807 325.972 118.01 326.268 119.213C326.859 121.64 327.273 124.108 327.506 126.595C328.028 131.676 327.671 136.809 326.451 141.77C326.285 142.388 326.129 143.016 325.919 143.635L325.78 144.097L325.701 144.332L325.579 144.698C325.344 145.37 325.012 146.004 324.595 146.581C323.932 147.492 323.101 148.267 322.145 148.864C321.424 149.319 320.659 149.702 319.862 150.006C317.336 150.897 314.693 151.411 312.018 151.531C307.238 151.794 302.443 151.522 297.724 150.721C297.117 150.619 296.568 150.301 296.176 149.826C295.785 149.351 295.579 148.751 295.595 148.136C295.611 147.521 295.848 146.933 296.263 146.479C296.678 146.025 297.243 145.736 297.854 145.666H297.95C302.31 145.243 306.644 144.594 310.937 143.722C311.931 143.51 312.915 143.248 313.883 142.937C314.726 142.691 315.543 142.364 316.323 141.961C316.968 141.639 317.343 141.151 317.038 141.404C316.946 141.513 316.872 141.636 316.82 141.77V141.822V141.726L316.864 141.552L316.942 141.186C317.064 140.715 317.143 140.227 317.238 139.739C317.888 135.765 317.933 131.715 317.369 127.728C317.105 125.675 316.727 123.638 316.236 121.627C315.992 120.625 315.713 119.623 315.417 118.646L314.946 117.2L314.702 116.502L314.493 115.918L314.397 115.666C313.935 114.414 313.981 113.032 314.523 111.814C315.065 110.596 316.062 109.637 317.301 109.143C318.539 108.649 319.922 108.658 321.154 109.168C322.386 109.678 323.371 110.649 323.897 111.874L323.906 111.935Z" fill="#FFC3BD"/>
<path d="M299.171 150.808L291.449 149.936L294.238 143.138C296.546 144.174 298.762 145.405 300.862 146.816L299.171 150.808Z" fill="#FFC3BD"/>
<path d="M288.493 146.328L290.184 143.53C290.36 143.237 290.621 143.005 290.933 142.864C291.244 142.724 291.592 142.683 291.927 142.746L294.281 143.173L291.492 149.971L289.13 148.638C288.934 148.53 288.762 148.384 288.624 148.208C288.486 148.033 288.384 147.832 288.325 147.617C288.265 147.402 288.25 147.177 288.279 146.955C288.308 146.734 288.381 146.521 288.493 146.328Z" fill="#FFC3BD"/>
<path d="M321.528 108.449C325.345 111.064 328.082 116.215 329.912 125.724C328.169 129.14 316.072 132.81 316.072 132.81C316.072 132.81 308.201 101.128 321.528 108.449Z" fill="#12733C"/>
<path d="M295.668 151.139L273.163 155.68C272.465 155.791 271.749 155.675 271.121 155.348C270.494 155.022 269.987 154.503 269.677 153.867L254.86 121.392C254.713 121.125 254.633 120.828 254.626 120.524C254.62 120.22 254.686 119.918 254.82 119.646C254.955 119.373 255.153 119.136 255.398 118.956C255.643 118.776 255.928 118.658 256.228 118.612L278.733 114.071C279.431 113.96 280.147 114.076 280.775 114.402C281.402 114.729 281.909 115.248 282.219 115.884L297.036 148.359C297.182 148.625 297.263 148.923 297.269 149.227C297.276 149.531 297.21 149.832 297.076 150.105C296.941 150.378 296.743 150.614 296.498 150.794C296.253 150.974 295.968 151.093 295.668 151.139Z" fill="#263238"/>
<path d="M272.805 153.571C272.548 153.61 272.285 153.566 272.055 153.446C271.824 153.325 271.638 153.134 271.524 152.9L256.707 120.425C256.652 120.327 256.622 120.218 256.618 120.107C256.615 119.995 256.639 119.884 256.688 119.784C256.737 119.684 256.809 119.597 256.899 119.531C256.989 119.465 257.094 119.421 257.204 119.405L279.708 114.864C279.963 114.824 280.224 114.867 280.453 114.986C280.682 115.106 280.867 115.295 280.981 115.526L295.798 148.002C295.853 148.099 295.883 148.209 295.886 148.321C295.89 148.433 295.866 148.544 295.817 148.645C295.768 148.746 295.696 148.834 295.606 148.901C295.516 148.968 295.412 149.012 295.301 149.03L272.805 153.571Z" fill="white"/>
<path d="M267.332 128.19C267.162 128.187 266.997 128.138 266.853 128.048C266.708 127.958 266.591 127.831 266.514 127.68C266.436 127.529 266.4 127.36 266.411 127.19C266.422 127.021 266.478 126.857 266.574 126.717L272.108 118.873C272.257 118.687 272.472 118.565 272.708 118.532C272.944 118.5 273.183 118.558 273.378 118.697C273.572 118.835 273.705 119.042 273.751 119.276C273.797 119.51 273.752 119.752 273.625 119.954L268.099 127.798C268.011 127.919 267.896 128.018 267.763 128.086C267.629 128.154 267.482 128.19 267.332 128.19Z" fill="#12733C"/>
<path d="M283.047 119.318C283.186 122.647 277.939 130.343 284.424 134.806C285.182 141.526 286.167 148.141 287.91 159.21H321.754C318.145 147.008 320.664 138.806 325.144 117.374C325.388 116.2 325.383 114.989 325.129 113.817C324.875 112.646 324.378 111.541 323.67 110.573C322.961 109.606 322.058 108.799 321.018 108.203C319.977 107.607 318.824 107.237 317.631 107.116C316.28 106.976 314.851 106.863 313.386 106.793C308.271 106.431 303.136 106.431 298.02 106.793C296.356 106.95 294.639 107.159 293 107.386C290.16 107.793 287.571 109.238 285.733 111.441C283.895 113.644 282.938 116.45 283.047 119.318Z" fill="#12733C"/>
<path d="M287.013 154.643C286.902 155.559 287.118 156.485 287.623 157.258C298.663 155.343 309.923 155.05 321.048 156.386C321.248 155.575 321.19 154.722 320.883 153.946C320.883 153.946 306.571 151.54 287.013 154.643Z" fill="#263238"/>
<path d="M269.694 134.64L270.566 127.51L263.523 129.628C264.337 132.032 265.349 134.364 266.548 136.601L269.694 134.64Z" fill="#FFC3BD"/>
<path d="M267.236 124.207L264.282 125.61C263.978 125.754 263.725 125.988 263.557 126.279C263.389 126.57 263.313 126.905 263.34 127.24L263.523 129.628L270.566 127.511L269.468 125.026C269.377 124.825 269.246 124.643 269.084 124.492C268.922 124.342 268.732 124.225 268.524 124.148C268.316 124.072 268.095 124.038 267.874 124.048C267.653 124.058 267.436 124.112 267.236 124.207Z" fill="#FFC3BD"/>
<path d="M295.72 117.531C295.38 118.847 295.058 119.971 294.683 121.157C294.308 122.342 293.925 123.484 293.524 124.643C292.696 126.935 291.78 129.21 290.804 131.45C289.828 133.69 288.739 135.912 287.571 138.091C286.403 140.27 285.104 142.397 283.727 144.489L283.553 144.759C283.206 145.286 282.746 145.728 282.206 146.054C281.666 146.38 281.06 146.58 280.432 146.642C278.407 146.825 276.367 146.527 274.48 145.77C272.747 145.043 271.186 143.963 269.895 142.597C268.769 141.39 267.821 140.028 267.08 138.553C266.732 137.856 266.424 137.141 266.156 136.409C265.892 135.656 265.673 134.888 265.502 134.108C265.387 133.563 265.454 132.995 265.694 132.493C265.933 131.99 266.332 131.58 266.828 131.326C267.324 131.072 267.889 130.988 268.437 131.088C268.985 131.188 269.485 131.465 269.86 131.877L270.2 132.269C270.505 132.618 270.915 133.141 271.29 133.568C271.664 133.995 272.065 134.439 272.466 134.832C273.202 135.575 274.024 136.228 274.915 136.775C275.604 137.221 276.379 137.518 277.19 137.647C277.841 137.729 278.502 137.678 279.134 137.499L275.839 139.643C276.885 137.717 277.879 135.756 278.803 133.725C279.726 131.694 280.607 129.646 281.417 127.554C282.228 125.462 283.021 123.353 283.753 121.226L284.816 118.028C285.156 116.982 285.514 115.857 285.801 114.907V114.794C286.165 113.487 287.034 112.378 288.216 111.711C289.397 111.044 290.796 110.874 292.103 111.238C293.41 111.602 294.519 112.47 295.186 113.652C295.853 114.834 296.023 116.232 295.659 117.539L295.72 117.531Z" fill="#FFC3BD"/>
<path d="M290.168 108.1C285.967 110.053 281.81 113.923 280.119 123.074C281.235 126.726 292.635 132.801 292.635 132.801C292.635 132.801 304.523 103.167 290.168 108.1Z" fill="#12733C"/>
<path d="M290.369 85.8053C290.499 86.459 290.255 87.0691 289.828 87.1476C289.401 87.226 288.957 86.7728 288.808 86.1104C288.66 85.448 288.922 84.8466 289.349 84.7594C289.776 84.6723 290.238 85.1429 290.369 85.8053Z" fill="#263238"/>
<path d="M289.548 84.7593L287.875 84.6199C287.875 84.6199 288.93 85.6919 289.548 84.7593Z" fill="#263238"/>
<path d="M290.237 86.5374C289.952 88.1566 289.445 89.7287 288.729 91.209C289.111 91.3855 289.525 91.4769 289.945 91.4769C290.365 91.4769 290.78 91.3855 291.161 91.209L290.237 86.5374Z" fill="#ED847E"/>
<path d="M290.072 90.6687C289.223 90.6236 288.42 90.2703 287.814 89.6751C286.845 88.7597 286.146 87.596 285.792 86.3108C284.964 83.3822 285.844 80.5583 287.744 80.0266C288.264 79.9109 288.804 79.9303 289.314 80.0829C289.823 80.2355 290.285 80.5162 290.656 80.8982C291.639 81.8352 292.342 83.0272 292.686 84.341C293.506 87.2695 292.634 90.0847 290.734 90.6164C290.517 90.664 290.294 90.6816 290.072 90.6687ZM288.398 80.3055C288.216 80.3067 288.034 80.3301 287.858 80.3753C286.193 80.8459 285.452 83.4258 286.21 86.119C286.528 87.3535 287.187 88.4739 288.11 89.3526C288.423 89.69 288.818 89.9411 289.256 90.0816C289.694 90.222 290.161 90.2471 290.612 90.1544C292.285 89.6838 293.026 87.1126 292.268 84.4107C291.942 83.1795 291.285 82.0612 290.368 81.1771C289.837 80.6643 289.136 80.3636 288.398 80.3317V80.3055Z" fill="#263238"/>
<path d="M288.137 82.5018C288.086 82.5067 288.034 82.4998 287.985 82.4817C287.937 82.4635 287.894 82.4346 287.858 82.3972C287.786 82.3224 287.745 82.2224 287.745 82.1183C287.745 82.0142 287.786 81.9142 287.858 81.8394C288.276 81.3723 288.799 81.0116 289.384 80.7872C289.969 80.5629 290.599 80.4814 291.222 80.5494C291.326 80.5685 291.418 80.6277 291.478 80.7142C291.539 80.8007 291.563 80.9074 291.545 81.0114C291.536 81.0621 291.518 81.1107 291.49 81.1541C291.463 81.1976 291.427 81.235 291.385 81.2643C291.342 81.2936 291.295 81.3141 291.244 81.3245C291.194 81.335 291.142 81.3352 291.092 81.3251C290.604 81.2854 290.113 81.3601 289.66 81.5432C289.206 81.7263 288.801 82.0127 288.477 82.3798C288.434 82.4258 288.381 82.461 288.322 82.4822C288.263 82.5035 288.199 82.5102 288.137 82.5018Z" fill="#263238"/>
<path d="M311.73 79.3379C312.846 87.5307 313.473 90.9735 310.309 95.8979C305.524 103.341 295.405 102.871 291.902 95.1745C288.747 88.2019 287.448 75.9997 294.577 71.2408C301.707 66.482 310.606 71.1188 311.73 79.3379Z" fill="#FFC3BD"/>
<path d="M299.599 96.8654C304.715 99.332 314.843 97.7893 318.164 90.3634C321.484 82.9375 318.05 72.4785 310.319 70.1775C302.71 67.9288 295.921 70.0903 294.936 77.891C293.951 85.6917 295.206 94.7474 299.599 96.8654Z" fill="#263238"/>
<path d="M286.001 86.4239C285.946 86.4241 285.893 86.4035 285.853 86.3664C285.812 86.3292 285.787 86.2782 285.783 86.2234C285.778 86.167 285.795 86.1108 285.831 86.0669C285.867 86.023 285.918 85.9947 285.975 85.9881C286.079 85.9881 296.434 84.9684 301.768 85.5088C301.797 85.512 301.824 85.5209 301.85 85.535C301.875 85.549 301.897 85.5679 301.915 85.5907C301.933 85.6134 301.946 85.6394 301.953 85.6672C301.961 85.6951 301.963 85.7242 301.96 85.7528C301.958 85.7811 301.95 85.8087 301.936 85.8339C301.923 85.8591 301.905 85.8813 301.883 85.8993C301.861 85.9172 301.836 85.9305 301.808 85.9382C301.781 85.946 301.752 85.9482 301.724 85.9445C296.434 85.4129 286.123 86.4065 286.036 86.4239H286.001Z" fill="#263238"/>
<path d="M287.928 159.167C287.928 159.167 287.867 203.504 291.231 231.656C291.763 258.091 294.778 319.817 294.778 319.817H301.446C301.446 319.817 311.8 267.208 308.541 235.909C322.12 191.197 313.195 159.21 313.195 159.21L287.928 159.167Z" fill="#FFC3BD"/>
<path d="M294.517 314.361C292.574 316.339 290.604 322.266 284.111 324.236C279.901 325.508 281.583 326.85 287.937 326.85C295.284 326.85 297.315 323.652 299.799 323.652C302.283 323.652 303.713 322.048 302.004 316.775C296.47 316.095 294.517 314.361 294.517 314.361Z" fill="#263238"/>
<path d="M302.553 319.111C302.806 321.675 302.768 324.26 302.44 326.815H300.427L298.082 321.708L302.553 319.111Z" fill="#263238"/>
<path d="M296.774 159.167C296.774 159.167 310.624 210.886 318.468 234.994C326.713 260.27 334.436 317.952 334.453 319.86H340.223C340.223 319.86 346.185 273.109 335.734 234.968C332.91 173.086 321.789 159.21 321.789 159.21L296.774 159.167Z" fill="#FFC3BD"/>
<path d="M333.921 315.25C332.439 317.716 330.731 323.094 326.757 324.236C322.782 325.378 324.386 326.851 330.348 326.851C334.392 326.851 335.577 323.652 337.878 323.652C340.179 323.652 342.184 322.039 340.563 316.766C335.725 317.281 333.921 315.25 333.921 315.25Z" fill="#263238"/>
<path d="M341.121 319.346C341.313 321.834 341.286 324.333 341.043 326.816H337.731L335.656 321.708L341.121 319.346Z" fill="#263238"/>
<path d="M297.968 87.3479C297.892 88.097 297.656 88.8212 297.278 89.4721C296.899 90.1229 296.385 90.6853 295.772 91.1219C294.186 92.1678 292.704 90.5379 292.564 88.4374C292.434 86.546 293.114 83.7134 294.987 83.5304C296.861 83.3473 298.221 85.3694 297.968 87.3479Z" fill="#7F3E3B"/>
<path d="M319.784 92.6034C315.514 90.5988 304.741 94.181 297.123 99.977C295.617 97.6933 294.517 95.1662 293.872 92.5076C294.122 95.3992 294.813 98.2355 295.92 100.918C295.284 101.424 294.683 101.947 294.116 102.47C292.504 98.4605 290.578 88.1409 290.97 79.9306C290.29 79.2856 288.695 79.3989 287.728 78.6407C288.312 67.6325 300.174 64.6953 304.671 64.8173C307.933 64.7913 311.125 65.768 313.814 67.6151C320.325 72.3653 322.896 84.2798 319.784 92.6034Z" fill="#263238"/>
<path opacity="0.2" d="M319.784 92.6034C315.514 90.5988 304.741 94.181 297.123 99.977C295.617 97.6933 294.517 95.1662 293.872 92.5076C294.122 95.3992 294.813 98.2355 295.92 100.918C295.284 101.424 294.683 101.947 294.116 102.47C292.504 98.4605 290.578 88.1409 290.97 79.9306C290.29 79.2856 288.695 79.3989 287.728 78.6407C288.312 67.6325 300.174 64.6953 304.671 64.8173C307.933 64.7913 311.125 65.768 313.814 67.6151C320.325 72.3653 322.896 84.2798 319.784 92.6034Z" fill="white"/>
<g opacity="0.2">
<path d="M291.483 241.366C291.571 244.346 291.666 247.528 291.788 250.84C297.708 249.65 303.512 247.944 309.133 245.741C309.072 242.9 308.924 240.137 308.697 237.522C303.1 239.369 297.334 240.656 291.483 241.366Z" fill="black"/>
<path d="M335.202 225.485C329.716 228.722 324.011 231.574 318.128 234.018C318.233 234.332 318.328 234.646 318.433 234.951C319.026 236.764 319.61 238.751 320.176 240.869C325.467 238.281 330.604 235.388 335.56 232.205C335.472 229.898 335.353 227.659 335.202 225.485Z" fill="black"/>
</g>
<path d="M287.928 159.166C287.928 159.166 287.178 193.951 289.775 246.272C314.284 244.407 338.087 228.902 338.087 228.902C338.087 228.902 337.372 173.678 321.771 159.175C312.959 156.813 288.102 158.373 287.928 159.166Z" fill="#263238"/>
<path d="M136.429 179.692C136.35 179.689 136.272 179.669 136.202 179.631C136.128 179.587 136.069 179.522 136.032 179.445C135.994 179.367 135.981 179.28 135.993 179.195C136.812 173.26 134.712 164.23 128.192 157.406C111.789 153.484 99.7351 143.26 95.0721 129.341C86.9838 104.936 104.721 77.0456 134.625 67.127C164.529 57.2084 195.444 68.9399 203.541 93.2745C207.463 105.093 205.502 118.08 198.015 129.837C190.528 141.595 178.457 150.677 164.023 155.488C158.712 157.255 153.208 158.376 147.629 158.826C148.709 170.401 136.812 179.5 136.69 179.596C136.614 179.652 136.523 179.686 136.429 179.692ZM156.161 64.4425C148.946 64.4641 141.781 65.6411 134.938 67.9288C105.461 77.7167 88.0297 105.128 95.935 129.018C100.476 142.676 112.347 152.699 128.515 156.534C128.598 156.552 128.674 156.594 128.733 156.656C135.139 163.332 137.449 172.066 136.969 178.21C139.636 175.927 147.881 167.995 146.713 158.46C146.706 158.401 146.71 158.342 146.726 158.285C146.743 158.228 146.771 158.175 146.809 158.129C146.887 158.039 146.996 157.982 147.114 157.972C152.778 157.56 158.367 156.441 163.753 154.643C178.029 149.901 189.953 140.915 197.318 129.367C204.683 117.818 206.591 105.111 202.748 93.5447C196.725 75.4332 177.803 64.4425 156.161 64.4425Z" fill="#263238"/>
<path d="M266.827 66.7H266.766C266.365 66.6477 257.004 65.2271 253.884 58.298C250.573 59.7775 247.097 60.8543 243.529 61.5054C233.68 63.3183 223.849 61.9063 215.83 57.5135C207.812 53.1208 202.539 46.2527 201.013 38.1818C197.954 21.6217 212.03 5.00933 232.39 1.2528C252.751 -2.50372 271.821 7.964 274.88 24.5764C276.623 34.0505 272.937 43.7512 264.752 51.212C263.201 57.1388 264.831 62.9086 267.14 66.0289C267.189 66.0937 267.219 66.1706 267.226 66.2513C267.233 66.3319 267.218 66.4129 267.182 66.4853C267.145 66.5577 267.09 66.6185 267.021 66.6611C266.952 66.7036 266.873 66.7262 266.792 66.7262L266.827 66.7ZM254.11 57.2695C254.165 57.2565 254.221 57.2565 254.276 57.2695C254.332 57.2905 254.382 57.3231 254.424 57.3652C254.466 57.4073 254.499 57.4578 254.52 57.5135C256.716 63.0045 263.332 65.0092 265.851 65.5931C264.575 63.3697 263.751 60.9165 263.424 58.3739C263.098 55.8314 263.277 53.2495 263.95 50.7762C263.968 50.6932 264.014 50.619 264.081 50.567C272.1 43.3067 275.726 33.8588 274.035 24.6461C271.054 8.50438 252.463 -1.64085 232.565 1.98493C212.666 5.61072 198.904 21.7699 201.876 37.9029C203.314 45.7472 208.413 52.3538 216.223 56.6332C224.032 60.9127 233.698 62.3072 243.346 60.5292C246.989 59.8607 250.534 58.7423 253.901 57.1998C253.975 57.2061 254.047 57.23 254.11 57.2695Z" fill="#263238"/>
<path d="M153.635 145.5C152.929 145.5 152.223 145.5 151.508 145.5C143.934 145.212 135.95 143.504 126.38 140.105C122.763 138.824 118.701 137.185 116.191 133.899C115.405 132.848 114.763 131.696 114.283 130.474C112.661 126.413 112.138 121.997 112.766 117.67C112.679 116.738 112.592 115.805 112.513 114.881C112.47 114.323 112.417 113.757 112.374 113.199L112.217 111.569C111.703 106.192 111.171 100.631 113.149 95.5844C115.128 90.5379 119.068 87.2956 122.022 85.4391C125.936 83.155 130.169 81.4687 134.582 80.4362C137.946 79.5647 141.145 78.85 144.221 78.327C144.75 78.0266 145.301 77.7673 145.869 77.5513C148.867 76.4008 152.196 76.5228 155.047 76.8017C155.866 76.8802 156.711 76.9761 157.574 77.1068C158.603 77.1068 159.614 77.1068 160.616 77.1852C162.732 77.3465 164.795 77.9283 166.684 78.8966C168.572 79.8649 170.249 81.2002 171.615 82.8244C173.268 84.7267 174.522 86.9408 175.305 89.3359C176.088 91.731 176.383 94.2587 176.174 96.7697C181.253 101.468 184.848 107.548 186.519 114.262C198.338 112.467 211.203 106.993 220.197 99.5152C233.463 88.4984 243.53 77.2811 252.76 55.4828C260.186 37.9465 260.43 25.7356 253.527 18.1616C249.619 13.8804 244.171 11.326 238.381 11.0596C232.59 10.7932 226.931 12.8367 222.647 16.7409C218.57 20.4592 216.138 25.6445 215.885 31.156C215.631 36.6676 217.578 42.0541 221.296 46.1307C224.836 50.0102 229.771 52.3254 235.017 52.5673C240.264 52.8092 245.391 50.958 249.273 47.4207C252.962 44.0512 255.163 39.3551 255.392 34.3641C255.621 29.3731 253.859 24.4953 250.494 20.8025C247.288 17.2947 242.821 15.2025 238.074 14.9852C233.327 14.7678 228.687 16.4431 225.174 19.6433C221.838 22.6942 219.848 26.9436 219.64 31.4597C219.433 35.9758 221.025 40.3899 224.067 43.7339C226.968 46.9127 231.012 48.8096 235.31 49.0074C239.609 49.2051 243.81 47.6876 246.99 44.7885C250.012 42.0315 251.815 38.1873 252.003 34.1012C252.19 30.0151 250.748 26.0216 247.992 22.9989C245.365 20.1231 241.705 18.407 237.814 18.2272C233.924 18.0475 230.12 19.4188 227.24 22.0401C224.51 24.5447 222.885 28.0297 222.722 31.7306C222.559 35.4315 223.87 39.0462 226.368 41.7815C227.544 43.0725 228.963 44.1191 230.543 44.8616C232.123 45.6042 233.835 46.028 235.579 46.1089C237.323 46.1899 239.066 45.9263 240.709 45.3334C242.351 44.7404 243.861 43.8296 245.151 42.6531C247.626 40.3928 249.103 37.242 249.257 33.8933C249.411 30.5446 248.228 27.2718 245.97 24.7943C244.907 23.6268 243.623 22.6803 242.194 22.009C240.764 21.3376 239.217 20.9546 237.639 20.8817C236.062 20.8089 234.485 21.0477 233 21.5844C231.514 22.1212 230.15 22.9454 228.983 24.0099C226.752 26.0464 225.417 28.8816 225.266 31.8983C225.116 34.9149 226.164 37.8688 228.181 40.1168C230.129 42.2443 232.841 43.5132 235.723 43.6455C238.604 43.7779 241.421 42.7628 243.556 40.8228C245.579 38.9711 246.786 36.393 246.912 33.6532C247.037 30.9135 246.072 28.2356 244.227 26.2063C243.356 25.2517 242.305 24.478 241.135 23.9294C239.965 23.3808 238.699 23.068 237.408 23.009C236.117 22.9499 234.827 23.1456 233.612 23.5851C232.397 24.0245 231.28 24.699 230.325 25.57C229.417 26.3975 228.681 27.3959 228.159 28.5081C227.637 29.6204 227.34 30.8246 227.284 32.0519C227.228 33.2792 227.415 34.5055 227.834 35.6606C228.252 36.8156 228.895 37.8768 229.724 38.7833C231.314 40.523 233.53 41.5606 235.885 41.6685C238.239 41.7763 240.541 40.9456 242.283 39.3585C243.939 37.8476 244.927 35.741 245.03 33.5018C245.133 31.2627 244.342 29.0743 242.832 27.4178C241.396 25.8517 239.398 24.9176 237.275 24.8197C235.152 24.7217 233.077 25.4677 231.502 26.8949C230.755 27.5692 230.149 28.3842 229.718 29.2934C229.287 30.2025 229.04 31.1877 228.99 32.1926C228.941 33.1975 229.09 34.2023 229.43 35.1493C229.77 36.0963 230.293 36.9669 230.97 37.7112C232.268 39.1317 234.076 39.9791 235.998 40.0673C237.92 40.1556 239.798 39.4774 241.22 38.1819C242.568 36.9466 243.371 35.2278 243.454 33.4015C243.538 31.5752 242.894 29.7904 241.664 28.4376C240.492 27.1552 238.859 26.3908 237.123 26.3124C235.387 26.2339 233.691 26.8478 232.408 28.0192C231.805 28.5694 231.315 29.2333 230.968 29.9728C230.621 30.7122 230.424 31.5129 230.386 32.3289C230.349 33.1448 230.473 33.9602 230.751 34.7282C231.029 35.4962 231.456 36.2018 232.007 36.8048C232.53 37.3789 233.16 37.8445 233.863 38.175C234.565 38.5055 235.326 38.6943 236.101 38.7307C236.876 38.7671 237.651 38.6504 238.382 38.3873C239.112 38.1241 239.783 37.7196 240.357 37.197C241.456 36.1912 242.112 34.7908 242.18 33.3025C242.249 31.8143 241.725 30.3595 240.723 29.2568C239.771 28.2091 238.442 27.5821 237.028 27.5137C236.328 27.4797 235.628 27.5855 234.97 27.8249C234.311 28.0644 233.707 28.4326 233.193 28.9082C233.13 28.9664 233.047 28.9987 232.962 28.9987C232.876 28.9987 232.794 28.9664 232.731 28.9082C232.671 28.8464 232.637 28.7635 232.637 28.6772C232.637 28.591 232.671 28.5081 232.731 28.4463C233.313 27.909 233.997 27.4935 234.743 27.2241C235.488 26.9547 236.28 26.8368 237.071 26.8774C237.855 26.9035 238.626 27.0857 239.338 27.4135C240.05 27.7413 240.69 28.2079 241.22 28.7862C241.775 29.3939 242.205 30.105 242.486 30.879C242.766 31.6529 242.891 32.4746 242.854 33.2969C242.817 34.1192 242.618 34.9262 242.269 35.6716C241.92 36.4171 241.427 37.0865 240.819 37.6415C239.53 38.8133 237.83 39.4264 236.09 39.3463C234.35 39.2662 232.712 38.4996 231.537 37.2144C230.31 35.8649 229.668 34.0836 229.753 32.2616C229.838 30.4396 230.643 28.7257 231.99 27.4962C233.404 26.2113 235.269 25.5394 237.177 25.6276C239.086 25.7158 240.881 26.557 242.17 27.9669C243.515 29.4491 244.219 31.4041 244.125 33.4036C244.032 35.4032 243.151 37.2844 241.673 38.6351C240.122 40.0453 238.075 40.783 235.98 40.6866C233.886 40.5902 231.915 39.6676 230.5 38.1208C229.021 36.4941 228.248 34.3478 228.35 32.1522C228.451 29.9565 229.418 27.8905 231.04 26.4068C232.746 24.8618 234.994 24.0543 237.293 24.1604C239.592 24.2665 241.755 25.2777 243.312 26.9733C244.118 27.8565 244.743 28.89 245.15 30.0148C245.557 31.1396 245.738 32.3336 245.683 33.5285C245.628 34.7233 245.338 35.8956 244.829 36.9782C244.321 38.0608 243.604 39.0326 242.719 39.8379C240.847 41.539 238.378 42.4313 235.851 42.3203C233.324 42.2093 230.943 41.104 229.227 39.2452C227.441 37.2844 226.507 34.6949 226.63 32.0457C226.752 29.3965 227.922 26.9044 229.881 25.1168C230.896 24.185 232.086 23.4631 233.382 22.9928C234.678 22.5224 236.054 22.3127 237.43 22.3759C238.807 22.4391 240.158 22.7738 241.406 23.3609C242.653 23.9479 243.771 24.7757 244.698 25.7967C246.661 27.9517 247.689 30.7981 247.555 33.7104C247.421 36.6227 246.136 39.3627 243.983 41.3283C241.722 43.3868 238.737 44.4641 235.683 44.3236C232.629 44.183 229.755 42.8362 227.693 40.5787C225.536 38.2091 224.407 35.0804 224.554 31.8793C224.701 28.6782 226.112 25.6662 228.477 23.5044C229.707 22.3815 231.146 21.5119 232.712 20.9453C234.277 20.3787 235.939 20.1262 237.603 20.2023C239.266 20.2784 240.898 20.6815 242.406 21.3887C243.913 22.0959 245.267 23.0932 246.388 24.3237C247.565 25.6139 248.476 27.1234 249.069 28.7658C249.662 30.4082 249.925 32.1513 249.844 33.8956C249.763 35.6399 249.34 37.3511 248.597 38.9315C247.855 40.5119 246.808 41.9305 245.517 43.1063C242.789 45.602 239.181 46.9122 235.488 46.7487C231.794 46.5853 228.316 44.9616 225.819 42.2347C223.208 39.3666 221.842 35.5799 222.02 31.7056C222.198 27.8313 223.906 24.1859 226.769 21.5695C228.257 20.2112 229.997 19.1595 231.892 18.4743C233.786 17.7891 235.797 17.4839 237.809 17.5762C239.821 17.6685 241.795 18.1564 243.619 19.0121C245.443 19.8677 247.08 21.0744 248.437 22.5631C249.862 24.1232 250.966 25.9489 251.686 27.936C252.405 29.923 252.726 32.0324 252.63 34.1435C252.533 36.2546 252.022 38.326 251.124 40.2393C250.227 42.1526 248.961 43.8702 247.4 45.294C244.091 48.3115 239.72 49.8919 235.246 49.6876C230.773 49.4833 226.564 47.5111 223.544 44.2045C220.394 40.7284 218.749 36.1465 218.968 31.4606C219.187 26.7747 221.252 22.3661 224.712 19.1988C228.356 15.8824 233.167 14.1473 238.089 14.3745C243.011 14.6016 247.641 16.7724 250.964 20.4103C254.445 24.2311 256.266 29.2774 256.027 34.4403C255.789 39.6032 253.51 44.4601 249.692 47.9436C245.685 51.5967 240.39 53.5085 234.974 53.2584C229.557 53.0083 224.461 50.6169 220.807 46.6101C216.975 42.4056 214.97 36.8516 215.231 31.1689C215.493 25.4862 218 20.1398 222.202 16.3051C224.386 14.3119 226.941 12.7687 229.722 11.7635C232.502 10.7583 235.454 10.3109 238.407 10.4469C241.361 10.5829 244.259 11.2996 246.935 12.556C249.612 13.8124 252.015 15.584 254.006 17.7694C261.101 25.5439 260.883 37.9814 253.352 55.7791C244.044 77.6646 233.942 88.9255 220.607 100.021C211.543 107.56 198.582 113.094 186.615 114.899C186.921 116.256 187.148 117.629 187.295 119.013C187.74 122.441 187.369 125.926 186.214 129.184C184.628 133.237 181.22 136.889 176.365 139.756C170.003 143.53 162.167 145.5 153.635 145.5ZM136.839 142.598C141.638 143.846 146.554 144.585 151.508 144.803C160.747 145.151 169.227 143.208 176.052 139.19C179.346 137.246 183.687 133.89 185.639 128.949C186.757 125.788 187.113 122.407 186.676 119.082C186.536 117.707 186.312 116.342 186.005 114.995C183.529 115.356 181.03 115.543 178.527 115.552C178.01 117.953 177.329 120.314 176.487 122.621C176.296 123.196 176.087 123.763 175.877 124.364C175.42 126.841 174.394 129.177 172.879 131.189C170.5 134.223 167.471 136.686 164.015 138.397C155.675 142.778 146.113 144.256 136.839 142.598ZM113.402 117.635C113.62 120.951 114.355 124.213 115.581 127.301C118.44 133.856 125.073 138.946 133.771 141.247C142.646 143.555 152.034 142.878 160.485 139.32L159.553 139.573C154.855 140.793 149.913 140.907 145.276 140.854C138.8 140.785 131.984 140.331 126.031 137.525C123.513 136.34 120.296 134.213 119.259 130.805C118.588 128.583 118.963 126.212 119.364 124.164C119.643 122.757 119.957 121.38 120.305 120.032C119.216 113.748 120.235 106.636 123.347 99.5675C122.917 99.8368 122.501 100.128 122.101 100.439C120.248 101.962 118.703 103.826 117.551 105.93C115.411 109.518 114.01 113.498 113.428 117.635H113.402ZM113.158 120.913C113.09 124.084 113.668 127.237 114.858 130.178C115.32 131.347 115.932 132.452 116.679 133.463C119.085 136.601 123.042 138.196 126.572 139.451L128.507 140.122C122.136 137.359 117.333 132.949 114.98 127.563C114.099 125.432 113.496 123.197 113.184 120.913H113.158ZM121.002 120.041C121.449 122.594 122.299 125.059 123.521 127.345C127.557 134.78 135.985 139.774 144.988 140.061C153.338 140.323 162.089 136.575 168.373 130.082C169.648 128.79 170.777 127.36 171.737 125.82C171.999 125.384 172.243 124.939 172.469 124.486C171.178 126.436 169.45 128.059 167.423 129.227C165.396 130.395 163.125 131.075 160.79 131.215C160.098 131.238 159.404 131.209 158.716 131.128C153.389 133.276 147.597 134.008 141.903 133.254C133.266 132.261 126.729 128.155 124.393 122.281C122.99 118.742 123.225 114.881 123.844 111.648C122.693 114.378 121.743 117.189 121.002 120.058V120.041ZM175.128 119.291C174.493 121.697 173.541 124.006 172.295 126.16C171.299 127.737 170.129 129.199 168.809 130.517C164.24 135.268 158.38 138.576 151.952 140.035C154.457 139.891 156.943 139.515 159.378 138.911C162.865 138.039 167.833 136.017 171.232 131.764C172.961 129.448 174.309 126.87 175.224 124.129C175.442 122.867 175.466 121.58 175.293 120.311C175.276 119.997 175.189 119.658 175.128 119.309V119.291ZM120.636 121.497C120.421 122.415 120.221 123.339 120.035 124.268C119.643 126.238 119.277 128.522 119.913 130.596C120.88 133.777 123.94 135.825 126.337 136.915C130.506 138.738 134.977 139.775 139.524 139.974C136.062 139.174 132.804 137.666 129.954 135.545C127.104 133.424 124.724 130.736 122.964 127.65C121.919 125.717 121.136 123.654 120.636 121.514V121.497ZM125.23 108.597V108.676C124.271 112.214 123.208 117.391 125.029 122.037C127.269 127.685 133.614 131.624 141.999 132.609C147.225 133.289 152.537 132.713 157.496 130.927C156.43 130.701 155.393 130.359 154.402 129.907C153.412 129.751 152.444 129.482 151.517 129.105C148.737 127.916 146.508 125.722 145.276 122.961C144.875 123.131 144.453 123.249 144.021 123.309C143.731 123.339 143.439 123.339 143.149 123.309C141.35 123.793 139.479 123.955 137.624 123.789C132.664 123.283 127.243 119.248 127.165 113.591C127.104 110.584 128.568 107.394 131.522 104.108C134.923 100.321 139.128 97.3429 143.829 95.3926C140.501 95.3588 137.176 95.6184 133.893 96.1683C130.37 99.8364 127.446 104.037 125.23 108.615V108.597ZM159.962 130.561C160.232 130.561 160.494 130.561 160.764 130.561C163.593 130.397 166.311 129.399 168.574 127.692C170.837 125.986 172.544 123.648 173.48 120.974C173.934 119.588 174.282 117.609 173.402 115.997C172.162 120.178 169.701 123.893 166.334 126.665C165.572 127.266 164.758 127.797 163.902 128.251C162.844 129.028 161.728 129.721 160.564 130.326L159.962 130.561ZM156.711 130.073C157.337 130.248 157.975 130.377 158.62 130.456C159.178 130.221 159.718 129.96 160.25 129.689L160.59 129.506C159.327 129.867 158.024 130.064 156.711 130.09V130.073ZM154.55 129.271C157.646 129.693 160.796 129.12 163.544 127.633C167.592 124.726 170.501 120.501 171.772 115.683C171.848 115.369 171.917 115.047 171.981 114.716C171.032 114.353 170.116 113.906 169.245 113.382C167.678 113.217 166.096 113.252 164.538 113.487H164.294C161.836 113.748 159.152 113.975 156.371 114.018C155.117 115.702 153.652 117.22 152.013 118.533C150.544 119.761 148.946 120.825 147.246 121.706C147.246 121.767 147.298 121.836 147.333 121.906C148.726 125.186 151.303 127.821 154.55 129.289V129.271ZM145.834 122.664C146.997 125.287 149.112 127.371 151.752 128.495L152.135 128.652C149.743 127.07 147.869 124.817 146.749 122.176L146.697 122.046C146.425 122.282 146.133 122.495 145.825 122.682L145.834 122.664ZM145.468 95.4885C140.271 97.3593 135.622 100.496 131.941 104.614C129.108 107.769 127.705 110.811 127.757 113.652C127.853 118.943 132.987 122.734 137.658 123.24C138.976 123.366 140.304 123.311 141.607 123.074C140.352 122.578 139.283 121.704 138.547 120.573C137.496 118.767 136.898 116.733 136.804 114.646C136.49 111.16 136.586 104.719 140.77 100.561C143.469 98.0467 147.044 96.6862 150.732 96.7697C152.815 96.7697 155.683 97.2142 157.426 99.2973C157.862 99.8243 158.22 100.411 158.489 101.04C158.954 102.076 159.248 103.18 159.361 104.309C161.785 103.344 164.39 102.916 166.996 103.054C166.163 101.818 165.133 100.729 163.945 99.829C162.527 98.9142 160.97 98.2343 159.335 97.8156C154.825 96.4658 150.163 95.6897 145.459 95.5059L145.468 95.4885ZM150.741 97.3711C147.212 97.2787 143.786 98.5707 141.197 100.971C137.205 104.936 137.127 111.168 137.432 114.533C137.514 116.514 138.077 118.446 139.07 120.163C139.505 120.847 140.084 121.428 140.765 121.866C141.447 122.304 142.216 122.588 143.019 122.699C143.629 122.534 144.248 122.333 144.866 122.098C144.566 121.254 144.373 120.375 144.291 119.483C143.379 119.405 142.5 119.105 141.731 118.608C140.962 118.111 140.327 117.433 139.881 116.633C139.566 115.977 139.362 115.273 139.28 114.55C139.078 113.056 139.216 111.536 139.683 110.103C140.15 108.67 140.934 107.36 141.976 106.271C143.019 105.183 144.293 104.343 145.705 103.815C147.117 103.286 148.63 103.083 150.131 103.219C150.323 103.063 150.532 102.923 150.732 102.775C152.554 101.52 154.219 101.093 155.622 101.52C156.311 101.76 156.931 102.165 157.428 102.7C157.925 103.234 158.283 103.883 158.472 104.588L158.69 104.509C158.611 103.395 158.346 102.302 157.905 101.276C157.662 100.695 157.336 100.152 156.938 99.6634C155.264 97.6675 152.336 97.3624 150.732 97.3624L150.741 97.3711ZM172.574 114.942C172.513 115.256 172.443 115.561 172.374 115.857C171.83 118.025 170.929 120.087 169.707 121.958C171.111 119.895 172.184 117.625 172.888 115.23C172.79 115.116 172.685 115.008 172.574 114.907V114.942ZM144.945 119.57C145.026 120.349 145.198 121.116 145.459 121.854C145.764 121.732 146.06 121.592 146.331 121.453H146.383C146.18 120.856 146.026 120.244 145.921 119.623C145.607 119.621 145.292 119.603 144.98 119.57H144.945ZM175.45 118.071C175.674 118.786 175.84 119.518 175.947 120.259C176.018 120.767 176.059 121.28 176.069 121.793C176.78 119.751 177.362 117.667 177.812 115.552C177.22 115.552 176.627 115.552 176.069 115.491C175.991 115.84 175.904 116.189 175.816 116.529C175.738 117.034 175.607 117.548 175.476 118.071H175.45ZM146.61 119.527C146.69 119.986 146.798 120.44 146.932 120.886C147.382 120.378 147.785 119.83 148.135 119.248C147.643 119.379 147.142 119.472 146.636 119.527H146.61ZM149.05 118.96C148.744 119.519 148.404 120.057 148.03 120.573C149.28 119.838 150.469 119.005 151.586 118.08C152.292 117.505 152.937 116.912 153.539 116.337C152.246 117.451 150.772 118.335 149.181 118.952L149.05 118.96ZM144.901 118.899C145.226 118.917 145.552 118.917 145.877 118.899V118.847C145.748 116.908 146.158 114.971 147.063 113.251L146.705 113.138C145.993 114.139 145.47 115.261 145.163 116.45C144.97 117.251 144.89 118.076 144.927 118.899H144.901ZM174.492 117.269C174.574 117.803 174.591 118.344 174.544 118.882C174.622 118.62 174.701 118.35 174.77 118.08C174.709 117.81 174.614 117.54 174.518 117.269H174.492ZM147.699 113.417C146.805 115.065 146.397 116.933 146.522 118.803V118.873C147.231 118.804 147.93 118.655 148.606 118.429L148.684 118.28C149.433 116.846 150.074 115.357 150.601 113.827C149.73 113.739 148.858 113.626 147.987 113.478L147.699 113.417ZM149.277 103.83C147.935 103.82 146.606 104.099 145.381 104.647C144.156 105.196 143.063 106.001 142.177 107.008C141.29 108.016 140.63 109.202 140.241 110.486C139.853 111.771 139.745 113.124 139.925 114.454C140 115.104 140.183 115.737 140.465 116.328C140.854 117.01 141.4 117.59 142.058 118.019C142.716 118.448 143.466 118.714 144.248 118.795C144.224 117.95 144.315 117.105 144.518 116.284C144.838 115.056 145.372 113.894 146.095 112.85C145.717 112.646 145.398 112.345 145.171 111.979C144.666 111.107 144.805 109.939 145.572 108.493C146.547 106.721 147.831 105.139 149.364 103.821L149.277 103.83ZM124.306 98.9923C124.21 99.2102 124.114 99.4281 124.009 99.646C121.258 105.504 120.129 111.994 120.741 118.437C121.739 114.979 123.043 111.616 124.637 108.388C125.692 104.573 127.108 100.866 128.864 97.3188C127.298 97.7251 125.779 98.2948 124.332 99.0184L124.306 98.9923ZM151.264 113.861C150.786 115.297 150.203 116.695 149.521 118.045C151.588 117.141 153.417 115.768 154.863 114.036C153.704 114.045 152.528 113.992 151.29 113.888L151.264 113.861ZM174.439 115.334C174.66 115.846 174.869 116.369 175.067 116.903C175.11 116.72 175.154 116.529 175.206 116.346C175.259 116.162 175.354 115.735 175.424 115.422L174.884 115.378L174.439 115.334ZM142.766 79.2509C140.192 79.739 137.522 80.3433 134.756 81.0638C130.408 82.0826 126.236 83.7453 122.38 85.9969C119.495 87.8011 115.66 90.9563 113.76 95.7761C111.86 100.596 112.356 106.165 112.888 111.465L113.045 113.094C113.097 113.661 113.141 114.219 113.193 114.785C113.193 114.916 113.193 115.047 113.193 115.178C113.947 111.8 115.233 108.564 117.002 105.59C118.202 103.419 119.802 101.494 121.717 99.9161C122.38 99.4037 123.086 98.9488 123.826 98.5565C126.711 92.4554 130.459 88.2892 134.983 86.2323C135.418 86.0405 135.872 85.8575 136.342 85.6832C137.066 84.8116 137.815 83.94 138.591 83.0684C139.842 81.6499 141.241 80.37 142.766 79.2509ZM176.67 98.112C178.567 102.911 179.331 108.083 178.902 113.225C178.832 113.783 178.754 114.35 178.658 114.899C181.07 114.882 183.478 114.701 185.866 114.358C184.327 108.21 181.149 102.595 176.67 98.112ZM176.261 114.846C176.827 114.846 177.411 114.846 178.004 114.899C178.109 114.323 178.196 113.739 178.257 113.156C178.884 107.473 177.507 101.947 175.59 97.0748L174.919 96.4821C172.072 94.0372 168.846 92.0735 165.366 90.6686C167.248 92.3673 168.802 94.3968 169.951 96.6564C170.151 97.0748 170.352 97.528 170.535 97.9464C172.455 99.4821 174.012 101.423 175.095 103.63C176.179 105.837 176.761 108.257 176.801 110.715C176.756 112.106 176.575 113.49 176.261 114.846ZM174.169 114.655C174.431 114.655 174.692 114.733 174.962 114.759L175.598 114.803C175.92 113.451 176.104 112.069 176.148 110.68C176.114 108.532 175.644 106.412 174.766 104.451C173.888 102.489 172.621 100.727 171.04 99.2712C171.501 100.623 171.877 102.003 172.164 103.402C172.33 104.161 172.461 104.902 172.583 105.616C173.306 106.351 173.844 107.247 174.152 108.231C174.572 109.952 174.548 111.751 174.082 113.461C174.03 113.687 173.977 113.922 173.916 114.158C174.003 114.28 174.082 114.472 174.169 114.655ZM172.949 114.376L173.158 114.428C173.186 114.336 173.21 114.243 173.228 114.149C173.106 113.879 172.984 113.6 172.853 113.321C172.853 113.617 172.783 113.905 172.74 114.193L172.949 114.376ZM169.462 112.772C170.389 112.931 171.276 113.265 172.077 113.757C172.147 113.234 172.199 112.702 172.234 112.153C170.916 109.444 169.422 106.824 167.763 104.309L167.423 103.786H167.196C164.521 103.586 161.836 104.01 159.352 105.024C159.378 105.743 159.343 106.463 159.248 107.176C161.941 107.813 164.277 109.408 166.551 110.95C167.554 111.587 168.504 112.205 169.462 112.772ZM151.499 113.251C152.815 113.356 154.114 113.408 155.404 113.408C156.4 112.098 157.158 110.623 157.644 109.05C157.799 108.567 157.916 108.071 157.992 107.569C156.153 107.411 154.304 107.729 152.624 108.493C152.363 110.104 151.988 111.694 151.499 113.251ZM159.187 107.778C158.986 108.84 158.664 109.875 158.228 110.863C157.838 111.748 157.371 112.596 156.833 113.4C159.448 113.339 161.923 113.121 164.224 112.877H164.468C165.641 112.724 166.824 112.654 168.007 112.667C167.406 112.275 166.813 111.874 166.264 111.473C164.024 109.948 161.749 108.397 159.187 107.778ZM148.065 112.816H148.135C149.006 112.964 149.93 113.086 150.837 113.173C151.291 111.746 151.646 110.29 151.9 108.815L151.351 109.103C150.997 109.393 150.648 109.698 150.305 110.018C149.435 110.844 148.681 111.785 148.065 112.816ZM172.958 112.031C173.132 112.389 173.306 112.755 173.472 113.112C173.887 111.573 173.905 109.953 173.524 108.405C173.351 107.844 173.089 107.315 172.748 106.837C172.979 108.558 173.049 110.297 172.958 112.031ZM147.133 112.606L147.394 112.676C147.644 112.236 147.921 111.811 148.222 111.404C147.834 111.781 147.47 112.183 147.133 112.606ZM150.349 103.891C148.641 105.235 147.221 106.91 146.174 108.815C145.52 110.009 145.381 110.959 145.764 111.63C145.942 111.927 146.203 112.166 146.514 112.319C147.723 110.779 149.232 109.501 150.95 108.562H150.994C151.342 108.283 151.7 108.013 152.066 107.769C152.153 107.133 152.223 106.497 152.266 105.86C152.336 105.473 152.294 105.074 152.144 104.71C151.97 104.48 151.747 104.292 151.49 104.161C151.234 104.029 150.951 103.958 150.662 103.952L150.349 103.891ZM168.399 103.943C169.835 106.147 171.153 108.425 172.347 110.767C172.347 109.139 172.218 107.513 171.964 105.904C170.956 104.972 169.73 104.306 168.399 103.969V103.943ZM151.081 103.35C151.414 103.389 151.735 103.503 152.018 103.682C152.302 103.862 152.541 104.103 152.719 104.387C152.928 104.858 152.998 105.378 152.92 105.886C152.92 106.357 152.841 106.819 152.78 107.281C154.399 106.295 156.11 105.469 157.888 104.814C157.733 104.205 157.431 103.642 157.008 103.176C156.586 102.71 156.056 102.354 155.465 102.139C154.236 101.781 152.78 102.139 151.107 103.315L151.081 103.35ZM158.053 105.459C156.717 105.968 155.415 106.565 154.157 107.246C155.437 106.88 156.774 106.762 158.097 106.898C158.129 106.426 158.106 105.952 158.027 105.486L158.053 105.459ZM158.681 105.224C158.723 105.478 158.753 105.734 158.768 105.991C158.768 105.721 158.768 105.451 158.768 105.189L158.681 105.224ZM129.71 97.0748C128.347 99.7371 127.182 102.496 126.223 105.329C128.046 102.115 130.23 99.1205 132.734 96.4037C131.99 96.5431 131.249 96.7 130.511 96.8743C130.241 96.9615 129.962 97.0225 129.683 97.1009L129.71 97.0748ZM167.894 103.176C169.322 103.442 170.668 104.039 171.824 104.919C171.746 104.466 171.65 103.995 171.554 103.533C171.197 101.749 170.683 99.9987 170.02 98.3037C169.872 98.1817 169.724 98.0597 169.567 97.9464C165.485 95.0325 160.566 93.5245 155.552 93.6495C152.724 93.6655 149.912 94.0852 147.202 94.8958C151.374 95.2046 155.498 95.9733 159.5 97.1881C161.205 97.6263 162.827 98.3386 164.303 99.2973C165.711 100.369 166.919 101.682 167.868 103.176H167.894ZM135.558 86.7029L135.288 86.8162C131.095 88.725 127.583 92.499 124.829 98.0684C126.261 97.4234 127.749 96.91 129.274 96.5344C131.042 93.0654 133.137 89.7733 135.532 86.7029H135.558ZM155.604 93.0481C160.526 92.958 165.356 94.3785 169.445 97.1184L169.367 96.9615C167.975 94.234 165.992 91.8518 163.562 89.9888C159.456 88.5787 155.12 87.9605 150.784 88.1672C148.245 88.2434 145.733 88.7199 143.341 89.5792C140.059 90.9107 137.091 92.9113 134.625 95.4536C138.186 94.9155 141.79 94.7112 145.389 94.8435C148.65 93.681 152.082 93.0741 155.543 93.0481H155.604ZM136.735 86.2323C134.189 89.3701 131.959 92.7507 130.076 96.3252L130.363 96.2642C131.409 96.0202 132.455 95.811 133.501 95.628C136.18 92.7239 139.469 90.4497 143.132 88.9691C145.588 88.086 148.167 87.5949 150.776 87.5135C154.507 87.3459 158.241 87.7755 161.836 88.786C160.421 87.8771 158.913 87.1204 157.339 86.5286C152.171 84.6947 146.617 84.2264 141.214 85.1689C139.692 85.3875 138.193 85.7434 136.735 86.2323ZM163.858 89.4223C167.927 90.8212 171.706 92.954 175.006 95.7151C174.23 93.8848 173.393 92.159 172.574 90.5728C170.36 86.2148 167.719 81.9005 163.466 79.617C161.6 78.6686 159.587 78.041 157.513 77.7605H157.47C153.086 77.7843 148.712 78.1808 144.396 78.9458C142.382 80.1828 140.571 81.7233 139.027 83.5129C138.495 84.0969 137.972 84.6983 137.458 85.2997C138.643 84.9634 139.848 84.7043 141.066 84.524C146.58 83.5666 152.248 84.047 157.522 85.9185C159.797 86.7631 161.933 87.9441 163.858 89.4223ZM160.921 77.8651C161.908 78.1615 162.863 78.5556 163.771 79.0417C168.181 81.4124 170.892 85.8401 173.158 90.2764C173.96 91.8453 174.788 93.5449 175.555 95.349C175.619 90.8954 174.036 86.575 171.11 83.2166C168.537 80.1864 164.893 78.2687 160.938 77.8651H160.921ZM151.656 77.2637C150.024 77.2395 148.396 77.4568 146.827 77.9087C148.823 77.6297 150.75 77.4206 152.632 77.2898C152.31 77.2724 151.987 77.2637 151.656 77.2637Z" fill="#12733C"/>
</svg>
