<svg width="403" height="298" viewBox="0 0 403 298" fill="none" xmlns="http://www.w3.org/2000/svg">
<path d="M201.5 297.586C287.808 297.586 357.775 293.538 357.775 288.544C357.775 283.55 287.808 279.502 201.5 279.502C115.191 279.502 45.2246 283.55 45.2246 288.544C45.2246 293.538 115.191 297.586 201.5 297.586Z" fill="#F5F5F5"/>
<path d="M403 261.514H0V261.714H403V261.514Z" fill="#EBEBEB"/>
<path d="M108.923 274.366H82.2285V274.566H108.923V274.366Z" fill="#EBEBEB"/>
<path d="M173.041 268.32H137.939V268.519H173.041V268.32Z" fill="#EBEBEB"/>
<path d="M81.4226 266.953H42.2832V267.153H81.4226V266.953Z" fill="#EBEBEB"/>
<path d="M227.21 269.654H199.572V269.853H227.21V269.654Z" fill="#EBEBEB"/>
<path d="M273.532 269.654H234.385V269.853H273.532V269.654Z" fill="#EBEBEB"/>
<path d="M338.762 273.024H263.256V273.224H338.762V273.024Z" fill="#EBEBEB"/>
<path d="M191.022 225.889H35.3911C34.1719 225.887 33.0033 225.406 32.142 224.551C31.2806 223.696 30.7969 222.537 30.7969 221.329V4.52098C30.8075 3.31967 31.2959 2.17101 32.1561 1.32452C33.0164 0.478025 34.1788 0.00205792 35.3911 0H191.022C192.242 0 193.413 0.480524 194.276 1.33586C195.139 2.1912 195.624 3.35129 195.624 4.56092V221.329C195.624 222.538 195.139 223.698 194.276 224.554C193.413 225.409 192.242 225.889 191.022 225.889ZM35.3911 0.159753C34.2253 0.161869 33.108 0.622286 32.2845 1.43995C31.4609 2.25761 30.9984 3.3657 30.9984 4.52098V221.329C30.9984 222.484 31.4609 223.592 32.2845 224.41C33.108 225.227 34.2253 225.688 35.3911 225.69H191.022C192.187 225.686 193.304 225.225 194.129 224.408C194.953 223.591 195.418 222.484 195.422 221.329V4.52098C195.418 3.36561 194.953 2.25876 194.129 1.44178C193.304 0.624799 192.187 0.163962 191.022 0.159753H35.3911Z" fill="#EBEBEB"/>
<path d="M365.368 225.889H209.729C208.51 225.885 207.342 225.403 206.48 224.549C205.617 223.694 205.131 222.537 205.127 221.329V4.52098C205.14 3.31894 205.63 2.17029 206.491 1.32402C207.353 0.477745 208.516 0.00203547 209.729 0H365.368C366.579 0.00415715 367.739 0.481053 368.598 1.32732C369.456 2.17359 369.943 3.32105 369.954 4.52098V221.329C369.955 221.926 369.837 222.519 369.607 223.071C369.377 223.624 369.04 224.127 368.614 224.55C368.188 224.974 367.682 225.31 367.125 225.54C366.568 225.77 365.971 225.888 365.368 225.889ZM209.729 0.159753C208.563 0.163962 207.446 0.624799 206.622 1.44178C205.798 2.25876 205.333 3.36561 205.328 4.52098V221.329C205.333 222.484 205.798 223.591 206.622 224.408C207.446 225.225 208.563 225.686 209.729 225.69H365.368C366.534 225.686 367.651 225.225 368.475 224.408C369.299 223.591 369.764 222.484 369.769 221.329V4.52098C369.764 3.36561 369.299 2.25876 368.475 1.44178C367.651 0.624799 366.534 0.163962 365.368 0.159753H209.729Z" fill="#EBEBEB"/>
<path d="M177.336 79.269H98.5332V261.514H177.336V79.269Z" fill="#E0E0E0"/>
<path d="M165.408 79.269H86.6055V261.514H165.408V79.269Z" fill="#F0F0F0"/>
<path d="M158.363 218.021H94.2461V251.01H158.363V218.021Z" fill="#E0E0E0"/>
<path d="M158.363 174.753H94.2461V207.749H158.363V174.753Z" fill="#E0E0E0"/>
<path d="M158.363 131.492H94.2461V164.489H158.363V131.492Z" fill="#E0E0E0"/>
<path d="M158.363 88.2312H94.2461V121.228H158.363V88.2312Z" fill="#E0E0E0"/>
<path opacity="0.05" d="M107.642 88.2312H94.2461V121.228H107.642V88.2312Z" fill="black"/>
<path opacity="0.05" d="M107.642 131.492H94.2461V164.489H107.642V131.492Z" fill="black"/>
<path opacity="0.05" d="M107.642 174.753H94.2461V207.749H107.642V174.753Z" fill="black"/>
<path opacity="0.05" d="M107.642 218.021H94.2461V251.01H107.642V218.021Z" fill="black"/>
<path d="M104.66 18.9863H48.3613V74.7797H104.66V18.9863Z" fill="#E0E0E0"/>
<path d="M101.709 18.9863H45.4102V74.7797H101.709V18.9863Z" fill="#EBEBEB"/>
<path d="M95.2373 25.4082H51.8906V68.3655H95.2373V25.4082Z" fill="#F5F5F5"/>
<path d="M53.3253 25.4082H51.8906V68.3655H53.3253V25.4082Z" fill="#E0E0E0"/>
<path d="M80.1131 52.9709C83.5115 49.6889 83.5818 44.2981 80.27 40.9302C76.9583 37.5623 71.5186 37.4927 68.1202 40.7747C64.7218 44.0567 64.6515 49.4475 67.9633 52.8154C71.275 56.1833 76.7147 56.2529 80.1131 52.9709Z" fill="#FAFAFA"/>
<path d="M45.2662 248.007C45.2662 248.007 40.8251 244.213 37.7542 235.531C34.6834 226.848 27.5664 216.895 27.5664 216.895C27.5664 216.895 36.8757 221.257 40.1561 229.556C40.1561 229.556 36.1261 212.734 27.5664 206.583C27.5664 206.583 42.8804 211.472 46.725 227.295C46.725 227.295 49.28 214.731 45.113 202.246C45.113 202.246 52.9554 212.015 53.8742 224.132C53.8742 224.132 54.9623 203.149 61.9342 196.974C61.9342 196.974 59.7419 215.969 61.9342 225.554C61.9342 225.554 65.0373 208.732 78.9086 206.384C78.9086 206.384 69.962 217.055 70.3328 226.457C71.8931 223.209 74.2779 220.419 77.2534 218.359C80.229 216.299 83.6933 215.041 87.3071 214.707C87.3071 214.707 77.3772 221.6 76.4825 232.815C75.5879 244.029 75.5637 247.464 69.5429 249.093C63.5221 250.723 45.2662 248.007 45.2662 248.007Z" fill="#F5F5F5"/>
<path d="M35.6328 237.743V259.597C35.6328 259.597 38.4699 267.425 56.6936 268.432C74.9173 269.438 79.1729 259.797 79.1729 259.797V237.743H35.6328Z" fill="#E6E6E6"/>
<path d="M359.154 175.951H244.984V262.177H359.154V175.951Z" fill="#E0E0E0"/>
<path d="M330.727 175.951H216.557V262.177H330.727V175.951Z" fill="#EBEBEB"/>
<path d="M325.042 183.931H220.633V215.873H325.042V183.931Z" stroke="#E0E0E0" stroke-miterlimit="10"/>
<path d="M325.042 221.193H220.633V253.135H325.042V221.193Z" stroke="#E0E0E0" stroke-miterlimit="10"/>
<path d="M272.84 202.798C274.456 202.798 275.766 201.499 275.766 199.898C275.766 198.297 274.456 196.999 272.84 196.999C271.224 196.999 269.914 198.297 269.914 199.898C269.914 201.499 271.224 202.798 272.84 202.798Z" fill="#E0E0E0"/>
<path d="M272.84 242.496C274.456 242.496 275.766 241.198 275.766 239.596C275.766 237.995 274.456 236.697 272.84 236.697C271.224 236.697 269.914 237.995 269.914 239.596C269.914 241.198 271.224 242.496 272.84 242.496Z" fill="#E0E0E0"/>
<path d="M363.4 171.35H211.525V175.951H363.4V171.35Z" fill="#E0E0E0"/>
<path opacity="0.05" d="M363.4 171.35H335.037V175.951H363.4V171.35Z" fill="black"/>
<path d="M361.758 42.7498H235.312V113.6H361.758V42.7498Z" fill="#E0E0E0"/>
<path d="M358.451 42.7498H232.006V113.6H358.451V42.7498Z" fill="#F0F0F0"/>
<path d="M353.132 48.1016H236.939V108.592H353.132V48.1016Z" fill="#F5F5F5"/>
<path d="M238.205 48.1016H236.939V108.592H238.205V48.1016Z" fill="#E0E0E0"/>
<path d="M346.963 67.2641L332.271 61.7974L327.764 73.6946L342.455 79.1613L346.963 67.2641Z" fill="#FAFAFA"/>
<path d="M333.378 64.7793C333.686 64.7793 333.935 64.5325 333.935 64.2281C333.935 63.9238 333.686 63.677 333.378 63.677C333.071 63.677 332.822 63.9238 332.822 64.2281C332.822 64.5325 333.071 64.7793 333.378 64.7793Z" fill="#E6E6E6"/>
<path d="M276.296 82.8552L307.553 85.9704L305.643 98.2873L275.547 94.7168L276.296 82.8552Z" fill="#FAFAFA"/>
<path d="M305.919 88.2311C305.919 88.3401 305.886 88.4466 305.825 88.5373C305.764 88.6279 305.677 88.6985 305.576 88.7403C305.474 88.782 305.362 88.7929 305.254 88.7716C305.146 88.7504 305.047 88.6979 304.97 88.6208C304.892 88.5437 304.839 88.4455 304.817 88.3386C304.796 88.2317 304.807 88.1209 304.849 88.0202C304.891 87.9195 304.962 87.8334 305.054 87.7728C305.145 87.7123 305.253 87.6799 305.363 87.6799C305.51 87.6799 305.652 87.738 305.756 87.8414C305.86 87.9447 305.919 88.0849 305.919 88.2311Z" fill="#E6E6E6"/>
<path d="M293.385 171.35L300.292 136.364H332.637L325.915 171.35H293.385Z" fill="#EBEBEB"/>
<path d="M298.307 166.965L303.481 140.75H327.718L322.68 166.965H298.307Z" fill="#FAFAFA"/>
<path d="M304.73 140.75L299.717 166.965H298.307L303.481 140.75H304.73Z" fill="#E6E6E6"/>
<path d="M332.636 136.364H333.974L327.72 171.35H325.914L332.636 136.364Z" fill="#E6E6E6"/>
<path d="M331.686 149.129L336.272 171.35H327.721L331.686 149.129Z" fill="#E0E0E0"/>
<path d="M261.307 36.1675V131.851C261.308 133.405 261 134.944 260.401 136.38C259.802 137.817 258.922 139.122 257.814 140.221C256.705 141.32 255.389 142.192 253.94 142.787C252.492 143.382 250.939 143.689 249.37 143.689H239.787V36.1675H261.307Z" fill="#12733C"/>
<path opacity="0.8" d="M261.307 36.1675V131.851C261.308 133.405 261 134.944 260.401 136.38C259.802 137.817 258.922 139.122 257.814 140.221C256.705 141.32 255.389 142.192 253.94 142.787C252.492 143.382 250.939 143.689 249.37 143.689H239.787V36.1675H261.307Z" fill="white"/>
<path d="M261.309 28.8989V131.851C261.31 133.405 261.002 134.944 260.402 136.381C259.803 137.817 258.924 139.122 257.815 140.221C256.707 141.32 255.391 142.193 253.942 142.788C252.493 143.383 250.94 143.689 249.372 143.689H80.652C77.484 143.689 74.4457 142.442 72.2056 140.222C69.9655 138.002 68.707 134.991 68.707 131.851V28.8989C68.706 27.3441 69.0142 25.8043 69.6141 24.3676C70.214 22.9309 71.0939 21.6255 72.2033 20.5261C73.3127 19.4267 74.6299 18.5548 76.0796 17.9602C77.5293 17.3657 79.083 17.0602 80.652 17.0613H249.372C250.94 17.0613 252.493 17.3675 253.942 17.9625C255.391 18.5575 256.707 19.4296 257.815 20.5289C258.924 21.6283 259.803 22.9333 260.402 24.3694C261.002 25.8056 261.31 27.3447 261.309 28.8989Z" fill="white" stroke="#12733C" stroke-miterlimit="10"/>
<path d="M260.759 25.3444H69.2539C70.0171 22.9417 71.5339 20.8429 73.5835 19.3532C75.6332 17.8635 78.1089 17.0606 80.6507 17.0613H249.371C251.911 17.0623 254.385 17.866 256.433 19.3556C258.481 20.8451 259.997 22.943 260.759 25.3444Z" fill="#12733C"/>
<path d="M93.0481 22.8841C93.9829 22.8841 94.7407 22.1331 94.7407 21.2067C94.7407 20.2803 93.9829 19.5293 93.0481 19.5293C92.1133 19.5293 91.3555 20.2803 91.3555 21.2067C91.3555 22.1331 92.1133 22.8841 93.0481 22.8841Z" fill="white"/>
<path d="M99.091 22.8841C100.026 22.8841 100.784 22.1331 100.784 21.2067C100.784 20.2803 100.026 19.5293 99.091 19.5293C98.1562 19.5293 97.3984 20.2803 97.3984 21.2067C97.3984 22.1331 98.1562 22.8841 99.091 22.8841Z" fill="white"/>
<path d="M106.821 21.2071C106.821 21.5408 106.721 21.867 106.534 22.1443C106.347 22.4216 106.081 22.6376 105.77 22.765C105.458 22.8923 105.116 22.9252 104.786 22.8595C104.456 22.7938 104.153 22.6325 103.915 22.396C103.678 22.1595 103.516 21.8585 103.452 21.531C103.387 21.2035 103.422 20.8644 103.552 20.5566C103.682 20.2488 103.901 19.9861 104.182 19.8019C104.462 19.6177 104.792 19.5202 105.129 19.5217C105.352 19.5217 105.572 19.5654 105.778 19.6502C105.984 19.735 106.171 19.8593 106.328 20.0159C106.486 20.1725 106.61 20.3583 106.695 20.5628C106.779 20.7672 106.822 20.9862 106.821 21.2071Z" fill="white"/>
<path d="M261.308 28.8992V36.1679H68.6738V28.8992C68.6737 27.6937 68.8585 26.4952 69.2219 25.3447H260.728C261.102 26.4935 261.298 27.6921 261.308 28.8992Z" fill="#12733C"/>
<path opacity="0.5" d="M261.308 28.8992V36.1679H68.6738V28.8992C68.6737 27.6937 68.8585 26.4952 69.2219 25.3447H260.728C261.102 26.4935 261.298 27.6921 261.308 28.8992Z" fill="white"/>
<path d="M91.3637 36.1675V143.689H80.386C77.8043 143.71 75.2825 142.918 73.1837 141.428C71.0849 139.938 69.5175 137.827 68.707 135.397V36.1675H91.3637Z" fill="#12733C"/>
<path opacity="0.1" d="M91.3637 36.1675V143.689H80.386C77.8043 143.71 75.2825 142.918 73.1837 141.428C71.0849 139.938 69.5175 137.827 68.707 135.397V36.1675H91.3637Z" fill="black"/>
<path opacity="0.1" d="M232.235 43.7876H99.0918V132.841H232.235V43.7876Z" fill="#12733C"/>
<path opacity="0.2" d="M77.9023 48.2769H72.1797V53.9481H77.9023V48.2769Z" fill="black"/>
<path opacity="0.2" d="M86.5663 48.2769H80.8438V53.9481H86.5663V48.2769Z" fill="black"/>
<path d="M178.981 87.9594C183.858 81.6971 187.041 73.4779 186.38 65.4503C185.76 57.918 179.626 53.3251 172.179 55.1303C169.035 55.9291 166.158 57.4468 163.256 58.8765C158.42 61.2728 153.326 63.3176 147.942 63.9646C142.558 64.6116 137.231 63.9646 131.983 66.0015C122.851 69.532 120.313 81.0981 123.835 89.485C126.962 96.9295 134.41 102.681 142.333 104.278" stroke="#263238" stroke-linecap="round" stroke-linejoin="round"/>
<path opacity="0.2" d="M77.9023 57.2708H72.1797V62.942H77.9023V57.2708Z" fill="black"/>
<path opacity="0.2" d="M86.5663 57.2708H80.8438V62.942H86.5663V57.2708Z" fill="black"/>
<path opacity="0.2" d="M77.9023 66.2651H72.1797V71.9363H77.9023V66.2651Z" fill="black"/>
<path opacity="0.2" d="M86.5663 66.2651H80.8438V71.9363H86.5663V66.2651Z" fill="black"/>
<path opacity="0.2" d="M77.9023 75.259H72.1797V80.9302H77.9023V75.259Z" fill="black"/>
<path opacity="0.2" d="M86.5663 75.259H80.8438V80.9302H86.5663V75.259Z" fill="black"/>
<path opacity="0.2" d="M77.9023 84.2449H72.1797V89.9161H77.9023V84.2449Z" fill="black"/>
<path opacity="0.2" d="M86.5663 84.2449H80.8438V89.9161H86.5663V84.2449Z" fill="black"/>
<path opacity="0.2" d="M77.9023 93.2393H72.1797V98.9105H77.9023V93.2393Z" fill="black"/>
<path opacity="0.2" d="M86.5663 93.2393H80.8438V98.9105H86.5663V93.2393Z" fill="black"/>
<path d="M77.7178 101.977C77.7178 102.106 77.6793 102.231 77.6072 102.338C77.5351 102.444 77.4327 102.527 77.3129 102.576C77.1931 102.625 77.0615 102.637 76.9346 102.611C76.8078 102.586 76.6914 102.523 76.6005 102.432C76.5095 102.341 76.448 102.225 76.4237 102.099C76.3994 101.973 76.4135 101.842 76.4641 101.724C76.5148 101.606 76.5997 101.506 76.7082 101.436C76.8166 101.365 76.9436 101.329 77.073 101.33C77.1584 101.33 77.2429 101.347 77.3217 101.38C77.4004 101.412 77.4719 101.46 77.5318 101.52C77.5918 101.581 77.6392 101.652 77.6711 101.73C77.703 101.809 77.7189 101.893 77.7178 101.977Z" fill="#263238"/>
<path d="M80.0616 101.977C80.0616 102.105 80.0233 102.23 79.9516 102.337C79.8798 102.443 79.7779 102.526 79.6586 102.575C79.5393 102.624 79.408 102.637 79.2814 102.612C79.1547 102.587 79.0384 102.525 78.9471 102.435C78.8558 102.344 78.7936 102.229 78.7684 102.104C78.7432 101.978 78.7561 101.848 78.8056 101.73C78.855 101.612 78.9386 101.511 79.046 101.439C79.1534 101.368 79.2796 101.33 79.4087 101.33C79.4948 101.329 79.5801 101.345 79.6598 101.377C79.7395 101.41 79.8119 101.457 79.8728 101.517C79.9336 101.578 79.9817 101.65 80.0141 101.729C80.0465 101.807 80.0627 101.892 80.0616 101.977Z" fill="#263238"/>
<path d="M82.3995 101.977C82.3995 102.106 82.361 102.231 82.2889 102.338C82.2168 102.444 82.1143 102.527 81.9946 102.576C81.8748 102.625 81.7431 102.637 81.6162 102.611C81.4894 102.586 81.3731 102.523 81.2821 102.432C81.1911 102.341 81.1296 102.225 81.1053 102.099C81.0811 101.973 81.0951 101.842 81.1458 101.724C81.1964 101.606 81.2814 101.506 81.3898 101.436C81.4982 101.365 81.6252 101.329 81.7547 101.33C81.84 101.33 81.9245 101.347 82.0033 101.38C82.0821 101.412 82.1535 101.46 82.2135 101.52C82.2735 101.581 82.3208 101.652 82.3527 101.73C82.3846 101.809 82.4005 101.893 82.3995 101.977Z" fill="#263238"/>
<path d="M162.089 95.9149L161.066 96.6257L160.453 92.1926L164.185 94.4451L163.258 95.0682L164.701 97.1769L163.564 98.1035L162.089 95.9149Z" fill="#263238"/>
<path d="M240.27 144.648C240.27 144.648 236.159 164.313 233.379 169.337C230.598 174.361 214.655 174.13 214.655 174.13L196.198 173.219C196.198 173.219 192.684 161.821 207.732 167.732C207.732 167.732 220.426 165.335 225.27 161.342L230.348 140.71L240.27 144.648Z" fill="#FF8B7B"/>
<path d="M295.201 291.252H290.276L276.913 219.212L276.453 216.728L281.209 215.857L281.829 219.212L295.201 291.252Z" fill="#12733C"/>
<path opacity="0.5" d="M295.201 291.252H290.276L276.913 219.212L276.453 216.728L281.209 215.857L281.829 219.212L295.201 291.252Z" fill="white"/>
<path d="M273.961 291.252H269.101L262.427 219.212L261.718 211.544L261.557 209.843L266.368 209.403L266.57 211.544L267.279 219.212L273.961 291.252Z" fill="#12733C"/>
<path opacity="0.5" d="M273.961 291.252H269.101L262.427 219.212L261.718 211.544L261.557 209.843L266.368 209.403L266.57 211.544L267.279 219.212L273.961 291.252Z" fill="white"/>
<path d="M224.262 212.455L223.747 219.212L218.217 291.252H213.365L218.886 219.212L219.434 212.095L224.262 212.455Z" fill="#12733C"/>
<path opacity="0.5" d="M224.262 212.455L223.747 219.212L218.217 291.252H213.365L218.886 219.212L219.434 212.095L224.262 212.455Z" fill="white"/>
<path d="M210.245 212.67L209.157 219.212L197.172 291.252H192.271L204.265 219.212L205.482 211.887L210.245 212.67Z" fill="#12733C"/>
<path opacity="0.5" d="M210.245 212.67L209.157 219.212L197.172 291.252H192.271L204.265 219.212L205.482 211.887L210.245 212.67Z" fill="white"/>
<path d="M289.292 210.418L288.848 211.544L286.729 216.856C286.456 217.552 285.977 218.151 285.353 218.571C284.73 218.992 283.993 219.215 283.239 219.212H203.396C202.622 219.213 201.865 218.978 201.231 218.538C200.596 218.097 200.114 217.474 199.85 216.752L197.972 211.544L197.529 210.306C197.325 209.744 197.262 209.142 197.343 208.551C197.424 207.96 197.647 207.397 197.994 206.91C198.342 206.423 198.802 206.025 199.337 205.751C199.872 205.478 200.465 205.336 201.067 205.337H285.802C286.413 205.337 287.016 205.484 287.557 205.767C288.098 206.05 288.56 206.46 288.905 206.961C289.249 207.462 289.464 208.039 289.532 208.642C289.599 209.244 289.517 209.854 289.292 210.418Z" fill="#12733C"/>
<path opacity="0.3" d="M288.849 211.544L286.729 216.856C286.457 217.552 285.977 218.151 285.354 218.572C284.731 218.992 283.993 219.216 283.239 219.212H203.397C202.622 219.214 201.866 218.978 201.231 218.538C200.597 218.097 200.114 217.474 199.851 216.752L197.973 211.544H288.849Z" fill="black"/>
<path d="M207.989 257.472L211.761 248.981C211.98 248.487 212.373 248.087 212.866 247.858C213.36 247.629 213.921 247.585 214.445 247.735L220.409 249.413C220.721 249.501 221.01 249.655 221.257 249.864C221.504 250.073 221.702 250.332 221.839 250.624C221.976 250.916 222.048 251.233 222.05 251.555C222.052 251.876 221.985 252.195 221.852 252.488C220.24 256.098 217.177 262.824 216.21 265.228C214.896 268.575 213.792 272.609 212.035 273.735C211.927 273.805 211.814 273.867 211.696 273.919C211.326 274.07 210.922 274.119 210.526 274.062C210.13 274.005 209.757 273.843 209.445 273.594C209.134 273.345 208.896 273.018 208.756 272.646C208.616 272.275 208.579 271.873 208.65 271.483C209.117 268.671 209.625 263.415 207.916 259.174C207.812 258.9 207.765 258.608 207.777 258.316C207.79 258.023 207.862 257.736 207.989 257.472Z" fill="#263238"/>
<path d="M240.561 176.766C240.561 176.766 199.817 171.255 187.51 182.725C187.51 182.725 179.885 193.037 183.552 213.222C185.951 225.679 191.161 237.437 198.794 247.616L209.489 238.606C209.489 238.606 199.97 215.37 203.194 200.993L217.993 200.122L239.215 185.744L241.439 179.786L240.561 176.766Z" fill="#263238"/>
<path d="M199.775 251.674L195.785 246.873L210.406 234.956L213.171 237.807L199.775 251.674Z" fill="#12733C"/>
<path d="M280.61 176.327C280.61 176.327 281.738 187.829 278.055 196.248C274.372 204.667 261.355 207.75 252.577 207.191C243.8 206.632 232.476 205.913 227.664 207.255C227.664 207.255 221.434 242.264 210.673 267.793L197.648 266.674C197.648 266.674 204.725 217.263 205.862 205.785C206.998 194.307 206.426 192.597 213.502 186.99C220.579 181.383 256.825 173.803 280.61 176.327Z" fill="#263238"/>
<path d="M207.359 272.417L206.126 277.761L195.785 281.347L198.792 269.965L207.359 272.417Z" fill="#FF8B7B"/>
<path d="M195.65 281.012L204.436 277.777C204.947 277.59 205.51 277.593 206.02 277.785C206.53 277.977 206.952 278.346 207.208 278.823L210.142 284.231C210.302 284.515 210.396 284.831 210.42 285.156C210.443 285.48 210.395 285.806 210.278 286.11C210.162 286.415 209.979 286.69 209.744 286.917C209.509 287.144 209.227 287.318 208.917 287.426C205.169 288.776 198.181 291.3 195.787 292.306C192.45 293.712 188.759 295.733 186.72 295.262C186.594 295.236 186.47 295.201 186.349 295.158C185.982 294.998 185.665 294.744 185.43 294.422C185.196 294.099 185.053 293.72 185.017 293.325C184.981 292.929 185.052 292.531 185.224 292.172C185.396 291.813 185.662 291.506 185.994 291.284C188.356 289.686 192.515 286.364 194.393 282.194C194.511 281.923 194.683 281.678 194.899 281.475C195.115 281.272 195.371 281.114 195.65 281.012Z" fill="#263238"/>
<path d="M240.269 179.41C240.269 179.41 234.966 144.648 233.821 136.189C232.677 127.73 233.821 123.409 237.045 120.637C240.269 117.865 255.051 111.946 264.973 113.544C274.895 115.141 279.739 123.377 281.093 132.714L278.788 133.856C278.788 133.856 281.738 166.254 280.666 177.461L240.269 179.41Z" fill="#12733C"/>
<path d="M237.038 120.613C237.038 120.613 229.195 127.474 229.195 140.734L241.422 145.374L237.038 120.613Z" fill="#12733C"/>
<path d="M278.972 133.729C278.972 133.729 283.413 149.288 282.196 155.718C280.979 162.148 269.929 170.775 254.567 173.651C254.567 173.651 247.74 174.833 243.806 171.622L237.834 169.928L239.543 164.68C244.095 164.76 248.577 165.803 252.689 167.74C252.689 167.74 267.366 161.142 271.976 156.07C271.976 156.07 271.46 145.75 268.905 138.497L278.972 133.729Z" fill="#FF8B7B"/>
<path d="M212.487 267.792L195.343 265.236L194.723 270.58L210.278 273.727L212.487 267.792Z" fill="#12733C"/>
<path d="M228.447 99.1903C227.385 102.261 227.517 105.613 228.817 108.592C228.214 106.216 228.326 103.716 229.14 101.403C229.946 99.2143 231.276 97.2892 232.307 95.2125C233.339 93.1357 234.04 90.7154 233.355 88.5029C233.21 88.0636 232.888 87.5524 232.428 87.6242C231.969 87.6961 231.872 88.0795 231.743 88.423C231.299 89.3331 230.958 90.2895 230.728 91.2746C230.615 92.0334 230.728 92.7842 230.615 93.559C230.236 95.508 229.116 97.2812 228.447 99.1903Z" fill="#263238"/>
<path d="M233.192 92.4568C232.573 92.6884 232.032 93.0873 231.63 93.6083C231.229 94.1293 230.982 94.7515 230.919 95.4043C229.718 94.6372 228.824 93.4784 228.393 92.1279C227.962 90.7774 228.02 89.3202 228.558 88.0077C230.42 83.2152 232.943 76.4177 240.454 77.4082C247.966 78.3987 263.716 80.6032 258.074 97.2334C252.432 113.864 246.838 93.5511 246.838 93.5511L233.192 92.4568Z" fill="#263238"/>
<path d="M249.627 123.536C242.785 123.113 245.686 117.266 246 115.101C246.084 114.157 245.876 113.21 245.404 112.386C245.085 111.773 244.696 111.2 244.243 110.676C241.245 110.676 237.924 110.277 235.547 108.28C232.887 106.083 231.831 101.986 231.396 98.7348C231.054 95.7274 230.995 92.6951 231.218 89.6768C231.218 89.2295 231.283 88.7902 231.299 88.3509C231.404 86.6176 231.517 84.8923 231.581 83.1989C231.581 83.1989 238.214 81.7531 244.139 83.095C248.523 84.0855 251.602 87.6959 252.932 93.3751C253.422 95.538 253.668 97.7481 253.666 99.9649C253.786 109.406 257.518 111.06 258.977 113.831C260.436 116.603 256.487 123.936 249.627 123.536Z" fill="#FF8B7B"/>
<path d="M237.402 100.78L235.79 94.7012L234.686 101.091C234.686 101.091 235.58 101.818 237.402 100.78Z" fill="#FF5652"/>
<path d="M242.139 101.818C242.139 101.818 241.132 103.959 237.924 104.334" stroke="#263238" stroke-width="0.5" stroke-linecap="round" stroke-linejoin="round"/>
<path d="M241.802 91.5218C241.365 91.0447 240.79 90.7123 240.156 90.5695C239.522 90.4266 238.858 90.4802 238.256 90.723" stroke="#263238" stroke-width="0.75" stroke-linecap="round" stroke-linejoin="round"/>
<path d="M239.257 94.5016C239.314 95.1167 239.677 95.588 240.063 95.556C240.45 95.5241 240.724 94.9969 240.676 94.3818C240.628 93.7668 240.257 93.2955 239.87 93.3275C239.483 93.3594 239.209 93.8866 239.257 94.5016Z" fill="#263238"/>
<path d="M232.129 96.2427C232.185 96.8577 232.548 97.329 232.935 97.297C233.322 97.2651 233.596 96.7379 233.547 96.1228C233.499 95.5078 233.128 95.0286 232.741 95.0685C232.355 95.1084 232.129 95.6276 232.129 96.2427Z" fill="#263238"/>
<path d="M231.098 88.4467C233.683 87.8613 236.11 86.7307 238.215 85.1319C240.584 92.8958 250.675 93.1754 253.198 93.1754C251.876 87.4962 248.701 83.5504 244.332 82.5599C238.416 81.218 231.436 82.7676 231.436 82.7676C231.372 84.4689 231.194 86.7214 231.098 88.4467Z" fill="#263238"/>
<path d="M239.867 93.3276L238.215 93.0161C238.215 93.0161 238.642 94.2063 239.867 93.3276Z" fill="#263238"/>
<path d="M233.072 95.1004L231.42 94.7969C231.42 94.7969 231.847 95.979 233.072 95.1004Z" fill="#263238"/>
<path d="M254.885 78.6487C255.707 75.2738 253.476 71.8448 249.901 70.9899C246.327 70.1349 242.763 72.1777 241.941 75.5526C241.119 78.9275 243.351 82.3564 246.925 83.2114C250.499 84.0664 254.063 82.0236 254.885 78.6487Z" fill="#263238"/>
<path d="M236.055 86.2665L234.717 88.0078C234.717 88.0078 238.255 87.4007 239.037 85.0044C239.819 82.6082 236.869 84.4852 236.869 84.4852L236.055 86.2665Z" fill="#263238"/>
<path opacity="0.1" d="M248.766 108.775C247.899 110.189 246.757 111.416 245.405 112.386C245.086 111.773 244.696 111.2 244.244 110.676C245.839 110.27 247.363 109.629 248.766 108.775Z" fill="black"/>
<path d="M230.615 93.5112C230.799 92.9429 231.18 92.4573 231.69 92.1402C232.201 91.823 232.808 91.6947 233.404 91.7779" stroke="#263238" stroke-width="0.75" stroke-linecap="round" stroke-linejoin="round"/>
<path d="M251.135 94.1501C251.356 93.824 251.607 93.5191 251.885 93.2395C252.828 92.289 254.367 91.0429 255.794 91.7378C257.519 92.5366 257.156 94.9728 256.673 96.4425C256.283 97.758 255.393 98.8721 254.19 99.5497C252.489 100.42 249.959 99.9571 249.975 97.6886C250.002 96.4216 250.405 95.1907 251.135 94.1501Z" fill="#FF8B7B"/>
<path d="M252.932 91.5377C252.932 91.5377 250.111 96.2504 251.263 100.42C252.416 104.589 251.779 106.554 250.981 108.767C250.981 108.767 251.296 102.433 249.974 100.148C247.959 96.6578 250.78 91.5217 250.78 91.5217L252.932 91.5377Z" fill="#263238"/>
<path d="M242.035 77.4798C242.035 77.4798 249.337 78.3424 253.73 81.3138C253.73 81.2739 249.918 76.2497 242.035 77.4798Z" fill="#12733C"/>
<path d="M151.885 171.35H197.827C198.293 171.35 198.754 171.245 199.173 171.043C199.593 170.84 199.96 170.546 200.248 170.182C200.535 169.818 200.735 169.393 200.832 168.941C200.929 168.489 200.921 168.021 200.809 167.572L192.636 135.294C192.47 134.634 192.087 134.049 191.546 133.63C191.006 133.212 190.34 132.985 189.654 132.986H143.712C143.245 132.985 142.785 133.09 142.365 133.293C141.946 133.495 141.578 133.79 141.291 134.154C141.003 134.518 140.803 134.942 140.706 135.395C140.609 135.847 140.617 136.315 140.73 136.764L148.854 169.042C149.022 169.709 149.412 170.301 149.963 170.72C150.513 171.139 151.191 171.361 151.885 171.35Z" fill="#263238"/>
<path d="M227.464 171.238H196.24V168.842H225.868C226.296 168.842 226.706 169.01 227.008 169.31C227.311 169.61 227.48 170.016 227.48 170.44V171.286L227.464 171.238Z" fill="#263238"/>
<path opacity="0.3" d="M151.885 171.35H197.827C198.293 171.35 198.754 171.245 199.173 171.043C199.593 170.84 199.96 170.546 200.248 170.182C200.535 169.818 200.735 169.393 200.832 168.941C200.929 168.489 200.921 168.021 200.809 167.572L192.636 135.294C192.47 134.634 192.087 134.049 191.546 133.63C191.006 133.212 190.34 132.985 189.654 132.986H143.712C143.245 132.985 142.785 133.09 142.365 133.293C141.946 133.495 141.578 133.79 141.291 134.154C141.003 134.518 140.803 134.942 140.706 135.395C140.609 135.847 140.617 136.315 140.73 136.764L148.854 169.042C149.022 169.709 149.412 170.301 149.963 170.72C150.513 171.139 151.191 171.361 151.885 171.35Z" fill="black"/>
<path d="M149.475 171.35H195.417C195.883 171.35 196.344 171.245 196.763 171.043C197.183 170.84 197.55 170.546 197.838 170.182C198.125 169.818 198.325 169.393 198.422 168.941C198.52 168.489 198.512 168.021 198.399 167.572L190.218 135.294C190.052 134.634 189.669 134.049 189.128 133.63C188.588 133.212 187.922 132.985 187.236 132.986H141.294C140.827 132.985 140.367 133.09 139.947 133.293C139.528 133.495 139.16 133.79 138.873 134.154C138.585 134.518 138.385 134.942 138.288 135.395C138.191 135.847 138.199 136.315 138.312 136.764L146.436 169.042C146.605 169.71 146.998 170.302 147.549 170.721C148.101 171.14 148.78 171.362 149.475 171.35Z" fill="#263238"/>
<path opacity="0.2" d="M149.475 171.35H195.417C195.883 171.35 196.344 171.245 196.763 171.043C197.183 170.84 197.55 170.546 197.838 170.182C198.125 169.818 198.325 169.393 198.422 168.941C198.52 168.489 198.512 168.021 198.399 167.572L190.218 135.294C190.052 134.634 189.669 134.049 189.128 133.63C188.588 133.212 187.922 132.985 187.236 132.986H141.294C140.827 132.985 140.367 133.09 139.947 133.293C139.528 133.495 139.16 133.79 138.873 134.154C138.585 134.518 138.385 134.942 138.288 135.395C138.191 135.847 138.199 136.315 138.312 136.764L146.436 169.042C146.605 169.71 146.998 170.302 147.549 170.721C148.101 171.14 148.78 171.362 149.475 171.35Z" fill="white"/>
<path opacity="0.3" d="M170.399 151.221C171.035 153.913 169.754 156.525 167.529 157.044C165.305 157.563 162.967 155.806 162.322 153.114C161.678 150.423 162.967 147.811 165.192 147.291C167.416 146.772 169.754 148.569 170.399 151.221Z" fill="black"/>
<path d="M138.327 174.154L121.377 278.328H117.621L134.668 173.563L138.327 174.154Z" fill="#12733C"/>
<path opacity="0.5" d="M138.327 174.154L121.377 278.328H117.621L134.668 173.563L138.327 174.154Z" fill="white"/>
<path d="M163.265 278.328H159.501L143.123 174.146L146.79 173.579L163.265 278.328Z" fill="#12733C"/>
<path opacity="0.5" d="M163.265 278.328H159.501L143.123 174.146L146.79 173.579L163.265 278.328Z" fill="white"/>
<path d="M202.372 174.154L185.422 278.328H181.658L198.705 173.563L202.372 174.154Z" fill="#12733C"/>
<path opacity="0.5" d="M202.372 174.154L185.422 278.328H181.658L198.705 173.563L202.372 174.154Z" fill="white"/>
<path d="M258.945 278.328H255.189L238.803 174.146L242.47 173.579L258.945 278.328Z" fill="#12733C"/>
<path opacity="0.5" d="M258.945 278.328H255.189L238.803 174.146L242.47 173.579L258.945 278.328Z" fill="white"/>
<path d="M263.564 170.599H107.805V175.448H263.564V170.599Z" fill="#12733C"/>
<path opacity="0.3" d="M263.637 170.599H200.857V175.448H263.637V170.599Z" fill="black"/>
<path d="M257.978 170.599H232.25C232.25 170.222 232.401 169.86 232.67 169.594C232.939 169.327 233.304 169.177 233.685 169.177H256.535C256.916 169.177 257.282 169.327 257.552 169.593C257.822 169.86 257.975 170.221 257.978 170.599Z" fill="#263238"/>
<path d="M248.636 157.012L245.171 165.255C244.534 165.128 243.962 165.04 243.559 164.984L247.169 156.397C247.252 156.201 247.409 156.046 247.607 155.965C247.805 155.884 248.028 155.884 248.225 155.966C248.423 156.047 248.58 156.203 248.662 156.4C248.743 156.596 248.743 156.816 248.661 157.012H248.636Z" fill="#263238"/>
<path d="M251.087 150.559C255.539 150.559 259.147 146.417 259.147 141.309C259.147 136.201 255.539 132.059 251.087 132.059C246.636 132.059 243.027 136.201 243.027 141.309C243.027 146.417 246.636 150.559 251.087 150.559Z" fill="#263238"/>
<path d="M268.907 138.465L268.359 136.54L280.699 130.445L281.118 132.754L268.907 138.465Z" fill="#263238"/>
<path opacity="0.1" d="M268.359 136.54L264.619 130.989L270.559 144.744L268.359 136.54Z" fill="black"/>
<path d="M234.765 142.843L234.426 140.758L229.195 138.785V140.758L234.765 142.843Z" fill="#263238"/>
<path opacity="0.1" d="M234.765 142.842C234.66 142.443 233.379 133.729 233.379 133.729V142.323L234.765 142.842Z" fill="black"/>
<path d="M245.186 116.571C245.186 116.571 241.655 124.383 249.973 124.136C258.291 123.888 260.387 117.801 260.806 113.272L258.21 112.386C258.21 112.386 256.711 118.776 251.085 120.046C245.46 121.316 245.927 115.501 245.927 115.501L245.186 116.571Z" fill="#263238"/>
<path opacity="0.1" d="M197.924 273.248L206.701 275.293L207.201 273.112L198.432 271.331L197.924 273.248Z" fill="black"/>
</svg>
