<svg width="11" height="11" viewBox="0 0 11 11" fill="none" xmlns="http://www.w3.org/2000/svg">
<mask id="path-1-inside-1_220_71" fill="white">
<path d="M5.4778 9.86004C6.64004 9.86004 7.75468 9.39834 8.57651 8.57651C9.39834 7.75468 9.86004 6.64004 9.86004 5.4778C9.86004 4.31556 9.39834 3.20092 8.57651 2.37909C7.75468 1.55726 6.64004 1.09556 5.4778 1.09556C4.31556 1.09556 3.20092 1.55726 2.37909 2.37909C1.55726 3.20092 1.09556 4.31556 1.09556 5.4778C1.09556 6.64004 1.55726 7.75468 2.37909 8.57651C3.20092 9.39834 4.31556 9.86004 5.4778 9.86004ZM5.4778 10.9556C2.45241 10.9556 0 8.50319 0 5.4778C0 2.45241 2.45241 0 5.4778 0C8.50319 0 10.9556 2.45241 10.9556 5.4778C10.9556 8.50319 8.50319 10.9556 5.4778 10.9556Z"/>
</mask>
<path d="M5.4778 9.86004V12.86V9.86004ZM9.86004 5.4778H12.86H9.86004ZM5.4778 1.09556V-1.90444V1.09556ZM1.09556 5.4778H-1.90444H1.09556ZM5.4778 12.86C7.43569 12.86 9.31339 12.0823 10.6978 10.6978L6.45519 6.45519C6.19597 6.71441 5.84439 6.86004 5.4778 6.86004V12.86ZM10.6978 10.6978C12.0823 9.31339 12.86 7.43569 12.86 5.4778H6.86004C6.86004 5.84439 6.71441 6.19597 6.45519 6.45519L10.6978 10.6978ZM12.86 5.4778C12.86 3.51991 12.0823 1.64221 10.6978 0.257769L6.45519 4.50041C6.71441 4.75963 6.86004 5.11121 6.86004 5.4778H12.86ZM10.6978 0.257769C9.31339 -1.12667 7.43569 -1.90444 5.4778 -1.90444V4.09556C5.84439 4.09556 6.19597 4.24119 6.45519 4.50041L10.6978 0.257769ZM5.4778 -1.90444C3.51991 -1.90444 1.64221 -1.12667 0.257769 0.257769L4.50041 4.50041C4.75963 4.24119 5.11121 4.09556 5.4778 4.09556V-1.90444ZM0.257769 0.257769C-1.12667 1.64221 -1.90444 3.51991 -1.90444 5.4778H4.09556C4.09556 5.11121 4.24119 4.75963 4.50041 4.50041L0.257769 0.257769ZM-1.90444 5.4778C-1.90444 7.43569 -1.12667 9.31339 0.257769 10.6978L4.50041 6.45519C4.24119 6.19597 4.09556 5.84439 4.09556 5.4778H-1.90444ZM0.257769 10.6978C1.64221 12.0823 3.51991 12.86 5.4778 12.86V6.86004C5.11121 6.86004 4.75963 6.71441 4.50041 6.45519L0.257769 10.6978ZM5.4778 7.9556C4.10927 7.9556 3 6.84634 3 5.4778H-3C-3 10.16 0.795557 13.9556 5.4778 13.9556V7.9556ZM3 5.4778C3 4.10927 4.10927 3 5.4778 3V-3C0.795557 -3 -3 0.795557 -3 5.4778H3ZM5.4778 3C6.84634 3 7.9556 4.10927 7.9556 5.4778H13.9556C13.9556 0.795557 10.16 -3 5.4778 -3V3ZM7.9556 5.4778C7.9556 6.84634 6.84634 7.9556 5.4778 7.9556V13.9556C10.16 13.9556 13.9556 10.16 13.9556 5.4778H7.9556Z" fill="#929292" mask="url(#path-1-inside-1_220_71)"/>
<path d="M5.478 4.37605C5.26006 4.37605 5.047 4.44068 4.86579 4.56176C4.68458 4.68285 4.54334 4.85495 4.45993 5.0563C4.37653 5.25766 4.35471 5.47922 4.39723 5.69298C4.43974 5.90674 4.54469 6.10308 4.6988 6.2572C4.85292 6.41131 5.04926 6.51626 5.26302 6.55877C5.47678 6.60129 5.69834 6.57947 5.8997 6.49607C6.10105 6.41266 6.27315 6.27142 6.39424 6.09021C6.51532 5.90899 6.57995 5.69594 6.57995 5.478C6.57995 5.18575 6.46385 4.90546 6.2572 4.6988C6.05054 4.49215 5.77025 4.37605 5.478 4.37605ZM5.478 6.29248C5.31691 6.29248 5.15944 6.24471 5.0255 6.15522C4.89156 6.06572 4.78716 5.93852 4.72552 5.78969C4.66387 5.64086 4.64774 5.4771 4.67917 5.3191C4.71059 5.16111 4.78817 5.01598 4.90207 4.90207C5.01598 4.78817 5.16111 4.71059 5.3191 4.67917C5.4771 4.64774 5.64086 4.66387 5.78969 4.72552C5.93852 4.78716 6.06572 4.89156 6.15522 5.0255C6.24471 5.15944 6.29248 5.31691 6.29248 5.478C6.29185 5.69382 6.20584 5.90062 6.05323 6.05323C5.90062 6.20584 5.69382 6.29185 5.478 6.29248ZM6.53204 3.13037H4.42396C4.08088 3.13037 3.75185 3.26666 3.50926 3.50926C3.26666 3.75185 3.13037 4.08088 3.13037 4.42396V6.53204C3.13037 6.87512 3.26666 7.20415 3.50926 7.44674C3.75185 7.68934 4.08088 7.82563 4.42396 7.82563H6.53204C6.87512 7.82563 7.20415 7.68934 7.44674 7.44674C7.68934 7.20415 7.82563 6.87512 7.82563 6.53204V4.42396C7.82563 4.08088 7.68934 3.75185 7.44674 3.50926C7.20415 3.26666 6.87512 3.13037 6.53204 3.13037ZM7.53816 6.53204C7.53816 6.79888 7.43216 7.05479 7.24348 7.24348C7.05479 7.43216 6.79888 7.53816 6.53204 7.53816H4.42396C4.15712 7.53816 3.90121 7.43216 3.71252 7.24348C3.52384 7.05479 3.41784 6.79888 3.41784 6.53204V4.42396C3.41784 4.15712 3.52384 3.90121 3.71252 3.71252C3.90121 3.52384 4.15712 3.41784 4.42396 3.41784H6.53204C6.79888 3.41784 7.05479 3.52384 7.24348 3.71252C7.43216 3.90121 7.53816 4.15712 7.53816 4.42396V6.53204ZM6.96323 4.23232C6.96323 4.2797 6.94918 4.32601 6.92286 4.36541C6.89654 4.4048 6.85913 4.43551 6.81535 4.45364C6.77158 4.47177 6.72342 4.47651 6.67695 4.46727C6.63048 4.45803 6.58779 4.43521 6.55429 4.40171C6.52079 4.36821 6.49797 4.32552 6.48873 4.27905C6.47949 4.23259 6.48423 4.18442 6.50236 4.14065C6.52049 4.09687 6.5512 4.05946 6.59059 4.03314C6.62999 4.00681 6.6763 3.99277 6.72368 3.99277C6.78721 3.99277 6.84815 4.018 6.89307 4.06293C6.938 4.10785 6.96323 4.16879 6.96323 4.23232Z" fill="#929292"/>
<path d="M5.478 4.37605C5.26006 4.37605 5.047 4.44068 4.86579 4.56176C4.68458 4.68285 4.54334 4.85495 4.45993 5.0563C4.37653 5.25766 4.35471 5.47922 4.39723 5.69298C4.43974 5.90674 4.54469 6.10308 4.6988 6.2572C4.85292 6.41131 5.04926 6.51626 5.26302 6.55877C5.47678 6.60129 5.69834 6.57947 5.8997 6.49607C6.10105 6.41266 6.27315 6.27142 6.39424 6.09021C6.51532 5.90899 6.57995 5.69594 6.57995 5.478C6.57995 5.18575 6.46385 4.90546 6.2572 4.6988C6.05054 4.49215 5.77025 4.37605 5.478 4.37605ZM5.478 6.29248C5.31691 6.29248 5.15944 6.24471 5.0255 6.15522C4.89156 6.06572 4.78716 5.93852 4.72552 5.78969C4.66387 5.64086 4.64774 5.4771 4.67917 5.3191C4.71059 5.16111 4.78817 5.01598 4.90207 4.90207C5.01598 4.78817 5.16111 4.71059 5.3191 4.67917C5.4771 4.64774 5.64086 4.66387 5.78969 4.72552C5.93852 4.78716 6.06572 4.89156 6.15522 5.0255C6.24471 5.15944 6.29248 5.31691 6.29248 5.478C6.29185 5.69382 6.20584 5.90062 6.05323 6.05323C5.90062 6.20584 5.69382 6.29185 5.478 6.29248ZM6.53204 3.13037H4.42396C4.08088 3.13037 3.75185 3.26666 3.50926 3.50926C3.26666 3.75185 3.13037 4.08088 3.13037 4.42396V6.53204C3.13037 6.87512 3.26666 7.20415 3.50926 7.44674C3.75185 7.68934 4.08088 7.82563 4.42396 7.82563H6.53204C6.87512 7.82563 7.20415 7.68934 7.44674 7.44674C7.68934 7.20415 7.82563 6.87512 7.82563 6.53204V4.42396C7.82563 4.08088 7.68934 3.75185 7.44674 3.50926C7.20415 3.26666 6.87512 3.13037 6.53204 3.13037ZM7.53816 6.53204C7.53816 6.79888 7.43216 7.05479 7.24348 7.24348C7.05479 7.43216 6.79888 7.53816 6.53204 7.53816H4.42396C4.15712 7.53816 3.90121 7.43216 3.71252 7.24348C3.52384 7.05479 3.41784 6.79888 3.41784 6.53204V4.42396C3.41784 4.15712 3.52384 3.90121 3.71252 3.71252C3.90121 3.52384 4.15712 3.41784 4.42396 3.41784H6.53204C6.79888 3.41784 7.05479 3.52384 7.24348 3.71252C7.43216 3.90121 7.53816 4.15712 7.53816 4.42396V6.53204ZM6.96323 4.23232C6.96323 4.2797 6.94918 4.32601 6.92286 4.36541C6.89654 4.4048 6.85913 4.43551 6.81535 4.45364C6.77158 4.47177 6.72342 4.47651 6.67695 4.46727C6.63048 4.45803 6.58779 4.43521 6.55429 4.40171C6.52079 4.36821 6.49797 4.32552 6.48873 4.27905C6.47949 4.23259 6.48423 4.18442 6.50236 4.14065C6.52049 4.09687 6.5512 4.05946 6.59059 4.03314C6.62999 4.00681 6.6763 3.99277 6.72368 3.99277C6.78721 3.99277 6.84815 4.018 6.89307 4.06293C6.938 4.10785 6.96323 4.16879 6.96323 4.23232Z" stroke="#929292" stroke-width="0.5"/>
<path d="M5.478 4.37605C5.26006 4.37605 5.047 4.44068 4.86579 4.56176C4.68458 4.68285 4.54334 4.85495 4.45993 5.0563C4.37653 5.25766 4.35471 5.47922 4.39723 5.69298C4.43974 5.90674 4.54469 6.10308 4.6988 6.2572C4.85292 6.41131 5.04926 6.51626 5.26302 6.55877C5.47678 6.60129 5.69834 6.57947 5.8997 6.49607C6.10105 6.41266 6.27315 6.27142 6.39424 6.09021C6.51532 5.90899 6.57995 5.69594 6.57995 5.478C6.57995 5.18575 6.46385 4.90546 6.2572 4.6988C6.05054 4.49215 5.77025 4.37605 5.478 4.37605ZM5.478 6.29248C5.31691 6.29248 5.15944 6.24471 5.0255 6.15522C4.89156 6.06572 4.78716 5.93852 4.72552 5.78969C4.66387 5.64086 4.64774 5.4771 4.67917 5.3191C4.71059 5.16111 4.78817 5.01598 4.90207 4.90207C5.01598 4.78817 5.16111 4.71059 5.3191 4.67917C5.4771 4.64774 5.64086 4.66387 5.78969 4.72552C5.93852 4.78716 6.06572 4.89156 6.15522 5.0255C6.24471 5.15944 6.29248 5.31691 6.29248 5.478C6.29185 5.69382 6.20584 5.90062 6.05323 6.05323C5.90062 6.20584 5.69382 6.29185 5.478 6.29248ZM6.53204 3.13037H4.42396C4.08088 3.13037 3.75185 3.26666 3.50926 3.50926C3.26666 3.75185 3.13037 4.08088 3.13037 4.42396V6.53204C3.13037 6.87512 3.26666 7.20415 3.50926 7.44674C3.75185 7.68934 4.08088 7.82563 4.42396 7.82563H6.53204C6.87512 7.82563 7.20415 7.68934 7.44674 7.44674C7.68934 7.20415 7.82563 6.87512 7.82563 6.53204V4.42396C7.82563 4.08088 7.68934 3.75185 7.44674 3.50926C7.20415 3.26666 6.87512 3.13037 6.53204 3.13037ZM7.53816 6.53204C7.53816 6.79888 7.43216 7.05479 7.24348 7.24348C7.05479 7.43216 6.79888 7.53816 6.53204 7.53816H4.42396C4.15712 7.53816 3.90121 7.43216 3.71252 7.24348C3.52384 7.05479 3.41784 6.79888 3.41784 6.53204V4.42396C3.41784 4.15712 3.52384 3.90121 3.71252 3.71252C3.90121 3.52384 4.15712 3.41784 4.42396 3.41784H6.53204C6.79888 3.41784 7.05479 3.52384 7.24348 3.71252C7.43216 3.90121 7.53816 4.15712 7.53816 4.42396V6.53204ZM6.96323 4.23232C6.96323 4.2797 6.94918 4.32601 6.92286 4.36541C6.89654 4.4048 6.85913 4.43551 6.81535 4.45364C6.77158 4.47177 6.72342 4.47651 6.67695 4.46727C6.63048 4.45803 6.58779 4.43521 6.55429 4.40171C6.52079 4.36821 6.49797 4.32552 6.48873 4.27905C6.47949 4.23259 6.48423 4.18442 6.50236 4.14065C6.52049 4.09687 6.5512 4.05946 6.59059 4.03314C6.62999 4.00681 6.6763 3.99277 6.72368 3.99277C6.78721 3.99277 6.84815 4.018 6.89307 4.06293C6.938 4.10785 6.96323 4.16879 6.96323 4.23232Z" stroke="#929292" stroke-width="0.5"/>
</svg>
