<svg width="11" height="11" viewBox="0 0 11 11" fill="none" xmlns="http://www.w3.org/2000/svg">
<path d="M7.82538 5.48717V7.30366H6.81919V5.60853C6.81919 5.18303 6.67364 4.89264 6.30929 4.89264C6.03133 4.89264 5.86558 5.0882 5.79281 5.27786C5.76651 5.34566 5.75947 5.44 5.75947 5.53434V7.30366H4.75281C4.75281 7.30366 4.76642 4.43324 4.75281 4.13598H5.75947V4.58457L5.7529 4.59489H5.75947V4.58506C5.89329 4.36887 6.1318 4.06129 6.66659 4.06129C7.32863 4.06129 7.82538 4.51431 7.82538 5.48717ZM3.69966 2.6084C3.3555 2.6084 3.13013 2.84523 3.13013 3.15575C3.13013 3.46038 3.34893 3.7036 3.68651 3.7036H3.69309C4.04429 3.7036 4.26262 3.45989 4.26262 3.15575C4.25605 2.84523 4.04429 2.6084 3.69966 2.6084ZM3.18976 7.30366H4.19642V4.13598H3.18976V7.30366Z" fill="#929292"/>
<path d="M5.43433 9.78179C6.58734 9.78179 7.69314 9.32375 8.50844 8.50844C9.32375 7.69314 9.78179 6.58734 9.78179 5.43433C9.78179 4.28131 9.32375 3.17551 8.50844 2.36021C7.69314 1.5449 6.58734 1.08687 5.43433 1.08687C4.28131 1.08687 3.17551 1.5449 2.36021 2.36021C1.5449 3.17551 1.08687 4.28131 1.08687 5.43433C1.08687 6.58734 1.5449 7.69314 2.36021 8.50844C3.17551 9.32375 4.28131 9.78179 5.43433 9.78179ZM5.43433 10.8687C2.43295 10.8687 0 8.4357 0 5.43433C0 2.43295 2.43295 0 5.43433 0C8.4357 0 10.8687 2.43295 10.8687 5.43433C10.8687 8.4357 8.4357 10.8687 5.43433 10.8687Z" fill="#929292"/>
</svg>
