<svg width="37" height="41" viewBox="0 0 37 41" fill="none" xmlns="http://www.w3.org/2000/svg">
<path d="M18.5 22.336C21.7213 22.336 24.625 19.9324 24.625 16.6688C24.625 13.4052 21.7213 11.0016 18.5 11.0016C15.2787 11.0016 12.375 13.4052 12.375 16.6688C12.375 19.9324 15.2787 22.336 18.5 22.336ZM18.5 1.5C27.5836 1.5 35.5 7.72397 35.5 17.0855C35.5 19.967 34.265 23.2661 31.5397 27.0209C28.8199 30.7681 24.6913 34.8636 19.0988 39.3053C18.764 39.5648 18.2136 39.5649 17.8785 39.3057C12.2978 34.8641 8.17488 30.7687 5.45781 27.0215C2.73511 23.2664 1.5 19.9672 1.5 17.0855C1.5 7.72397 9.41639 1.5 18.5 1.5Z" stroke="black" stroke-width="3"/>
</svg>
