<svg width="203" height="143" viewBox="0 0 203 143" fill="none" xmlns="http://www.w3.org/2000/svg">
<path d="M202.82 124.567H0V124.669H202.82V124.567Z" fill="#455A64"/>
<path d="M182.497 131.094H169.062V131.195H182.497V131.094Z" fill="#455A64"/>
<path d="M134.355 132.197H130.83V132.298H134.355V132.197Z" fill="#455A64"/>
<path d="M168.657 127.33H160.873V127.431H168.657V127.33Z" fill="#455A64"/>
<path d="M38.7998 128.011H21.2803V128.113H38.7998V128.011Z" fill="#455A64"/>
<path d="M44.9808 128.011H42.4131V128.113H44.9808V128.011Z" fill="#455A64"/>
<path d="M91.3294 129.723H53.3291V129.824H91.3294V129.723Z" fill="#455A64"/>
<path d="M33.0839 117.647C32.9866 116.487 33.1448 114.986 34.4996 114.54C36.7915 113.785 38.1504 112.009 38.0733 110.001C37.9962 107.993 40.4098 106.038 42.2189 107.92C44.0281 109.802 43.7888 106.472 46.2023 105.665C48.6159 104.857 50.6644 106.817 49.9991 108.614C49.3339 110.411 51.7231 111.526 54.5747 110.001C57.4264 108.476 60.562 111.25 59.9576 113.42C59.3532 115.591 59.848 115.834 61.6531 115.112C63.1134 114.528 65.4986 115.753 65.7623 117.647H33.0839Z" fill="#E0E0E0"/>
<path d="M146.87 117.647C146.76 116.73 146.809 115.392 147.944 115.014C149.725 114.426 150.784 113.047 150.723 111.489C150.662 109.932 152.536 108.415 153.94 109.867C155.343 111.319 155.157 108.743 157.031 108.114C158.905 107.486 160.495 109.011 159.98 110.402C159.465 111.794 161.318 112.666 163.529 111.481C165.74 110.297 168.178 112.451 167.711 114.138C167.245 115.826 167.626 116.012 169.026 115.448C170.214 114.974 172.186 116.045 172.23 117.639L146.87 117.647Z" fill="#E0E0E0"/>
<path d="M158.531 117.647H116.868C116.284 115.692 117.797 113.347 119.448 113.018C121.476 112.613 123.504 109.043 123.614 106.771C123.723 104.5 127.37 97.5107 133.049 101.827C138.728 106.143 137.004 102.46 141.109 101.247C145.214 100.034 147.81 103.522 146.009 106.143C146.009 106.143 150.135 105.108 151.834 108.962C153.534 112.816 151.834 115.209 151.834 115.209C151.834 115.209 157.039 115.075 158.531 117.647Z" fill="#E0E0E0"/>
<path d="M82.8512 8.29887C82.8521 7.99183 82.7808 7.68888 82.643 7.41447C82.5053 7.14006 82.305 6.90187 82.0583 6.7191C81.8115 6.53633 81.5253 6.4141 81.2227 6.36228C80.92 6.31046 80.6095 6.33049 80.316 6.42076C80.3987 5.83163 80.3545 5.23162 80.1862 4.66101C80.0179 4.09039 79.7295 3.5624 79.3402 3.11247C78.951 2.66255 78.4701 2.30112 77.9296 2.05244C77.3892 1.80377 76.8018 1.67362 76.2069 1.67072C75.9509 1.6703 75.6955 1.69475 75.4443 1.74373C75.0356 1.07095 74.4191 0.549408 73.6879 0.257873C72.9567 -0.0336619 72.1505 -0.0793582 71.391 0.127685C70.6315 0.334728 69.9601 0.783268 69.478 1.40556C68.9959 2.02786 68.7294 2.79012 68.7187 3.57722H68.6579C67.7714 3.57722 66.9213 3.92938 66.2944 4.55621C65.6676 5.18305 65.3154 6.03322 65.3154 6.9197C65.3154 7.80618 65.6676 8.65634 66.2944 9.28318C66.9213 9.91001 67.7714 10.2622 68.6579 10.2622H80.9326C81.4462 10.2526 81.9353 10.0413 82.2944 9.67387C82.6534 9.30648 82.8534 8.81256 82.8512 8.29887Z" fill="#F5F5F5"/>
<path d="M155.555 19.8511C155.555 19.5459 155.483 19.2449 155.347 18.9721C155.21 18.6993 155.011 18.4623 154.766 18.2798C154.522 18.0974 154.238 17.9747 153.937 17.9214C153.637 17.8681 153.328 17.8858 153.036 17.973C153.123 17.3835 153.082 16.7819 152.916 16.2096C152.75 15.6372 152.462 15.1074 152.072 14.6565C151.683 14.2055 151.2 13.844 150.658 13.5966C150.116 13.3492 149.527 13.2218 148.93 13.223C148.673 13.2224 148.416 13.2468 148.164 13.296C147.755 12.6232 147.139 12.1017 146.407 11.8101C145.676 11.5186 144.87 11.4729 144.111 11.6799C143.351 11.887 142.68 12.3355 142.198 12.9578C141.716 13.5801 141.449 14.3424 141.438 15.1295H141.382C140.495 15.1295 139.645 15.4816 139.018 16.1085C138.391 16.7353 138.039 17.5855 138.039 18.4719C138.039 19.3584 138.391 20.2086 139.018 20.8354C139.645 21.4623 140.495 21.8144 141.382 21.8144H153.652C154.163 21.8006 154.648 21.5875 155.004 21.2205C155.359 20.8536 155.557 20.3621 155.555 19.8511Z" fill="#F5F5F5"/>
<path d="M111.093 14.1682C111.093 13.8455 110.964 13.5359 110.736 13.3077C110.508 13.0795 110.198 12.9513 109.876 12.9513C109.758 12.951 109.64 12.9673 109.527 13C109.547 12.8766 109.556 12.7517 109.555 12.6268C109.555 12.288 109.488 11.9525 109.359 11.6395C109.229 11.3265 109.039 11.0421 108.8 10.8025C108.56 10.563 108.276 10.3729 107.963 10.2433C107.65 10.1136 107.314 10.0469 106.975 10.0469C106.816 10.0473 106.657 10.0622 106.501 10.0915C106.247 9.67152 105.864 9.3456 105.408 9.16318C104.953 8.98077 104.451 8.95181 103.977 9.08069C103.504 9.20957 103.085 9.48927 102.785 9.87738C102.485 10.2655 102.32 10.7408 102.315 11.2314H102.278C101.727 11.2314 101.199 11.4502 100.809 11.8397C100.42 12.2292 100.201 12.7574 100.201 13.3082C100.201 13.8591 100.42 14.3873 100.809 14.7768C101.199 15.1663 101.727 15.3851 102.278 15.3851H109.928C110.242 15.3715 110.538 15.2373 110.755 15.0106C110.972 14.7838 111.093 14.482 111.093 14.1682Z" fill="#F5F5F5"/>
<path d="M174.726 11.7873C174.726 11.4646 174.597 11.1551 174.369 10.9268C174.141 10.6986 173.831 10.5704 173.509 10.5704C173.39 10.5691 173.273 10.5869 173.16 10.6231C173.176 10.4981 173.185 10.372 173.184 10.2459C173.184 9.56275 172.913 8.90758 172.43 8.42452C171.947 7.94146 171.292 7.67008 170.608 7.67008C170.448 7.66915 170.288 7.68272 170.13 7.71065C169.877 7.29153 169.494 6.9664 169.039 6.78454C168.584 6.60269 168.083 6.57403 167.61 6.70291C167.138 6.83179 166.72 7.11118 166.421 7.49873C166.122 7.88628 165.957 8.36085 165.952 8.85049H165.907C165.372 8.87415 164.866 9.10352 164.495 9.4908C164.125 9.87808 163.918 10.3934 163.918 10.9294C163.918 11.4654 164.125 11.9807 164.495 12.368C164.866 12.7553 165.372 12.9846 165.907 13.0083H173.537C173.856 13.0009 174.159 12.8688 174.381 12.6405C174.603 12.4122 174.727 12.1059 174.726 11.7873Z" fill="#F5F5F5"/>
<path d="M42.5592 19.1496C42.5592 18.8269 42.431 18.5174 42.2028 18.2891C41.9746 18.0609 41.6651 17.9327 41.3423 17.9327C41.224 17.9314 41.1062 17.9492 40.9935 17.9854C41.0111 17.8605 41.0206 17.7344 41.0219 17.6082C41.0219 16.924 40.7501 16.2678 40.2662 15.784C39.7824 15.3001 39.1262 15.0283 38.442 15.0283C38.2814 15.0287 38.1212 15.0437 37.9633 15.073C37.7101 14.6538 37.3272 14.3287 36.8725 14.1468C36.4179 13.965 35.9163 13.9363 35.4439 14.0652C34.9715 14.1941 34.554 14.4735 34.2547 14.861C33.9553 15.2486 33.7906 15.7232 33.7853 16.2128H33.7487C33.1979 16.2128 32.6697 16.4316 32.2802 16.8211C31.8907 17.2106 31.6719 17.7389 31.6719 18.2897C31.6719 18.8405 31.8907 19.3688 32.2802 19.7582C32.6697 20.1477 33.1979 20.3665 33.7487 20.3665H41.3748C41.6919 20.3581 41.9931 20.2262 42.2144 19.9989C42.4356 19.7715 42.5594 19.4668 42.5592 19.1496Z" fill="#F5F5F5"/>
<path d="M154.447 53.8845C154.51 53.6362 154.549 53.382 154.56 53.1259C154.654 51.5439 156.183 51.7954 157.444 51.5805C158.446 51.4141 155.793 48.883 157.813 48.0636C158.208 47.9583 158.554 47.7188 158.791 47.3861C158.893 47.1374 158.904 46.8609 158.823 46.6046C158.743 46.3483 158.575 46.1283 158.349 45.9826C157.887 45.7057 157.354 45.5717 156.816 45.5973C156.487 45.1916 156.755 44.5953 157.075 44.1856C157.396 43.776 157.785 43.3095 157.663 42.8065C157.481 42.0439 156.414 41.9952 155.635 42.1656C155.351 41.7031 155.359 41.1271 155.23 40.6038C155.1 40.0806 154.674 39.533 154.138 39.5979C153.603 39.6628 153.327 40.2307 152.824 40.3483C152.248 40.4822 151.749 39.9751 151.299 39.5938C150.849 39.2125 150.058 38.9732 149.745 39.4762C149.559 39.7763 149.668 40.1982 149.478 40.4943C149.141 41.0095 148.346 40.689 147.855 40.324C147.364 39.9589 146.573 39.6303 146.232 40.1333C146.146 40.3014 146.082 40.4801 146.042 40.6647C145.807 41.3381 145.076 41.6747 144.508 42.1088C143.941 42.5428 143.49 43.4028 143.973 43.9301C144.208 44.1897 144.626 44.2952 144.744 44.6278C144.89 45.0334 144.468 45.4147 144.131 45.6987C143.576 46.1733 143.474 47.5971 144.212 47.9824C144.521 48.1487 144.975 48.1974 145.052 48.5382C145.129 48.8789 144.809 49.0817 144.602 49.317C144.472 49.4848 144.381 49.6785 144.333 49.885C144.285 50.0915 144.283 50.3059 144.325 50.5135C144.368 50.721 144.455 50.9169 144.581 51.0878C144.706 51.2586 144.867 51.4004 145.052 51.5034C145.231 51.5886 145.458 51.6575 145.514 51.8441C145.541 51.9807 145.526 52.1222 145.47 52.2498C145.394 52.5131 145.371 52.7887 145.401 53.061C145.399 53.1537 145.432 53.2436 145.494 53.3125C145.564 53.3578 145.646 53.3805 145.729 53.3774C146.796 53.4261 147.311 53.0489 147.96 53.9737C148.017 54.067 148.093 54.1472 148.184 54.209C148.274 54.2549 148.374 54.2811 148.476 54.2861C149.21 54.3429 149.693 53.8804 150.358 53.8034C151.287 53.6817 151.485 54.1644 152.305 54.5457C153.579 55.1379 154.203 54.7647 154.447 53.8845Z" fill="#455A64"/>
<path d="M142.168 52.5579C142.232 52.3096 142.27 52.0554 142.282 51.7993C142.375 50.2173 143.884 50.4688 145.166 50.2538C146.168 50.0875 143.515 47.5563 145.535 46.737C145.928 46.629 146.273 46.39 146.512 46.0595C146.614 45.8108 146.625 45.5343 146.545 45.278C146.464 45.0217 146.296 44.8017 146.07 44.656C145.61 44.3725 145.077 44.2314 144.537 44.2504C144.208 43.8447 144.476 43.2485 144.792 42.8388C145.109 42.4291 145.502 41.9626 145.385 41.4596C145.202 40.697 144.135 40.6686 143.357 40.8187C143.073 40.3562 143.081 39.7802 142.951 39.257C142.821 38.7337 142.395 38.1861 141.86 38.251C141.324 38.3159 141.048 38.8838 140.545 39.0014C139.969 39.1353 139.47 38.6282 139.02 38.2469C138.57 37.8656 137.779 37.6222 137.467 38.1293C137.28 38.4295 137.39 38.8513 137.199 39.1474C136.862 39.6626 136.067 39.3421 135.576 38.9771C135.086 38.612 134.295 38.2794 133.954 38.7864C133.868 38.9545 133.803 39.1332 133.763 39.3178C133.528 39.9912 132.798 40.3279 132.23 40.7619C131.662 41.1959 131.212 42.0518 131.694 42.5832C131.93 42.8428 132.347 42.9483 132.465 43.2809C132.611 43.6865 132.189 44.0678 131.853 44.3518C131.293 44.8264 131.191 46.2461 131.93 46.6355C132.242 46.8019 132.696 46.8505 132.773 47.1913C132.85 47.532 132.53 47.7348 132.323 47.9701C132.194 48.1379 132.102 48.3317 132.054 48.5381C132.007 48.7446 132.004 48.959 132.047 49.1666C132.089 49.3742 132.177 49.5701 132.302 49.7409C132.427 49.9118 132.588 50.0535 132.773 50.1565C132.952 50.2417 133.179 50.3106 133.232 50.4972C133.26 50.6334 133.246 50.7749 133.191 50.9029C133.118 51.1597 133.095 51.4282 133.122 51.6939C133.12 51.7865 133.154 51.8764 133.216 51.9454C133.285 51.9906 133.368 52.0133 133.451 52.0103C134.518 52.0589 135.033 51.6817 135.682 52.6066C135.738 52.7007 135.814 52.7811 135.905 52.8418C135.995 52.8887 136.095 52.9137 136.197 52.9148C136.931 52.9757 137.414 52.5092 138.079 52.4362C139.008 52.3145 139.207 52.7932 140.026 53.1785C141.3 53.8235 141.925 53.4381 142.168 52.5579Z" fill="#455A64"/>
<path d="M140.984 44.7413C141.047 44.4916 141.085 44.2361 141.097 43.9787C141.191 42.3967 142.72 42.6482 143.985 42.4333C144.987 42.2669 142.33 39.7358 144.355 38.9164C144.748 38.81 145.092 38.5706 145.328 38.2389C145.43 37.9906 145.442 37.7145 145.362 37.4582C145.282 37.202 145.115 36.9817 144.89 36.8354C144.429 36.5518 143.894 36.4107 143.353 36.4298C143.024 36.0241 143.292 35.4279 143.612 35.0182C143.933 34.6085 144.322 34.142 144.2 33.639C144.018 32.8764 142.951 32.848 142.172 32.9981C141.888 32.5357 141.892 31.9596 141.767 31.4364C141.641 30.9131 141.211 30.3655 140.675 30.4304C140.14 30.4953 139.864 31.0632 139.365 31.1808C138.789 31.3187 138.29 30.8076 137.836 30.4263C137.382 30.045 136.595 29.8057 136.282 30.3087C136.096 30.6089 136.209 31.0307 136.015 31.3268C135.678 31.842 134.883 31.5215 134.392 31.1565C133.901 30.7914 133.11 30.4628 132.77 30.9699C132.683 31.1363 132.619 31.3137 132.579 31.4972C132.344 32.1706 131.613 32.5073 131.046 32.9413C130.478 33.3753 130.027 34.2353 130.51 34.7626C130.745 35.0222 131.163 35.1277 131.281 35.4603C131.431 35.8659 131.005 36.2473 130.668 36.5312C130.113 37.0058 130.011 38.4296 130.749 38.819C131.058 38.9813 131.512 39.0299 131.589 39.3707C131.666 39.7114 131.346 39.9142 131.139 40.1536C131.009 40.321 130.918 40.5145 130.87 40.7207C130.822 40.9268 130.82 41.1409 130.863 41.3482C130.905 41.5554 130.992 41.751 131.118 41.9215C131.243 42.092 131.404 42.2333 131.589 42.3359C131.768 42.4211 131.995 42.49 132.052 42.6766C132.077 42.8133 132.062 42.9545 132.007 43.0823C131.937 43.3398 131.914 43.6076 131.938 43.8733C131.938 43.9651 131.973 44.0534 132.035 44.1207C132.103 44.167 132.184 44.1898 132.267 44.1856C133.333 44.2343 133.849 43.8571 134.498 44.7819C134.556 44.8755 134.631 44.9569 134.721 45.0212C134.813 45.0658 134.914 45.0907 135.017 45.0943C135.747 45.1551 136.234 44.6886 136.895 44.6115C137.828 44.4939 138.023 44.9726 138.842 45.3579C140.116 45.9907 140.757 45.6175 140.984 44.7413Z" fill="#455A64"/>
<path d="M132.895 48.6351C132.959 48.3855 132.997 48.13 133.008 47.8725C133.102 46.2946 134.631 46.542 135.897 46.327C136.899 46.1607 134.242 43.6295 136.266 42.8142C136.658 42.7046 137.002 42.4642 137.239 42.1327C137.341 41.8846 137.353 41.6086 137.272 41.3527C137.191 41.0969 137.023 40.8777 136.797 40.7333C136.337 40.4527 135.802 40.3183 135.264 40.3479C134.935 39.9423 135.203 39.3419 135.523 38.9322C135.844 38.5225 136.233 38.0601 136.112 37.5531C135.929 36.7905 134.862 36.7661 134.083 36.9121C133.799 36.4538 133.804 35.8778 133.678 35.3545C133.552 34.8312 133.122 34.2795 132.587 34.3444C132.051 34.4093 131.775 34.9813 131.276 35.0949C130.7 35.2328 130.201 34.7217 129.747 34.3404C129.293 33.9591 128.506 33.7198 128.194 34.2228C128.007 34.5229 128.121 34.9448 127.926 35.2409C127.589 35.7561 126.794 35.4356 126.303 35.0705C125.812 34.7055 125.021 34.3769 124.681 34.8839C124.594 35.0504 124.53 35.2278 124.49 35.4113C124.255 36.0846 123.525 36.4213 122.957 36.8554C122.389 37.2894 121.939 38.1493 122.421 38.6767C122.657 38.9363 123.074 39.0418 123.192 39.3744C123.342 39.78 122.916 40.1613 122.579 40.4453C122.024 40.9239 121.922 42.3437 122.661 42.7331C122.969 42.8953 123.423 42.944 123.5 43.2888C123.577 43.6336 123.257 43.8324 123.05 44.0676C122.921 44.2351 122.829 44.4285 122.781 44.6347C122.734 44.8409 122.731 45.055 122.774 45.2622C122.817 45.4695 122.904 45.6651 123.029 45.8356C123.154 46.006 123.315 46.1474 123.5 46.25C123.679 46.3352 123.906 46.4041 123.963 46.5907C123.988 46.7274 123.973 46.8685 123.918 46.9963C123.848 47.2538 123.825 47.5217 123.849 47.7873C123.848 47.8787 123.881 47.9671 123.942 48.0348C124.012 48.0801 124.094 48.1027 124.178 48.0997C125.245 48.1484 125.76 47.7711 126.409 48.7C126.466 48.7927 126.542 48.8727 126.632 48.9353C126.724 48.9803 126.825 49.0052 126.928 49.0083C127.658 49.0692 128.145 48.6027 128.806 48.5256C129.739 48.408 129.934 48.8866 130.753 49.272C132.027 49.8845 132.643 49.5113 132.895 48.6351Z" fill="#455A64"/>
<path d="M124.722 46.8347C124.786 46.5864 124.824 46.3322 124.835 46.0761C124.929 44.4941 126.438 44.7456 127.72 44.5307C128.721 44.3643 126.069 41.8291 128.089 41.0138C128.483 40.9059 128.829 40.6652 129.066 40.3323C129.168 40.0841 129.179 39.8083 129.098 39.5527C129.017 39.2971 128.85 39.0778 128.624 38.9328C128.162 38.6564 127.629 38.5224 127.091 38.5475C126.762 38.1418 127.03 37.5455 127.346 37.1358C127.663 36.7262 128.056 36.2597 127.939 35.7567C127.752 34.9941 126.689 34.9454 125.91 35.1158C125.626 34.6533 125.635 34.0773 125.505 33.5541C125.375 33.0308 124.949 32.4832 124.414 32.5481C123.878 32.613 123.602 33.1809 123.099 33.2985C122.523 33.4324 122.024 32.9253 121.574 32.54C121.124 32.1546 120.329 31.9193 120.02 32.4264C119.834 32.7265 119.943 33.1444 119.749 33.4445C119.416 33.9556 118.617 33.6392 118.126 33.2742C117.635 32.9091 116.844 32.5765 116.504 33.0835C116.417 33.2514 116.353 33.4301 116.313 33.6149C116.078 34.2883 115.348 34.6249 114.78 35.0549C114.212 35.4849 113.761 36.3489 114.244 36.8803C114.479 37.1399 114.897 37.2454 115.015 37.578C115.161 37.9836 114.739 38.3649 114.402 38.6489C113.843 39.1235 113.741 40.5432 114.479 40.9326C114.792 41.0949 115.246 41.1476 115.323 41.4884C115.4 41.8291 115.08 42.0319 114.873 42.2672C114.743 42.435 114.652 42.6287 114.604 42.8352C114.556 43.0417 114.554 43.2561 114.597 43.4637C114.639 43.6713 114.726 43.8671 114.852 44.038C114.977 44.2088 115.138 44.3506 115.323 44.4536C115.502 44.5388 115.729 44.6077 115.782 44.7943C115.809 44.9305 115.795 45.072 115.741 45.2C115.668 45.4569 115.643 45.725 115.668 45.991C115.662 46.0353 115.667 46.0805 115.682 46.1227C115.697 46.1649 115.721 46.2029 115.754 46.2338C115.786 46.2646 115.825 46.2874 115.868 46.3002C115.911 46.3129 115.957 46.3154 116.001 46.3074C117.067 46.356 117.579 45.9747 118.232 46.9037C118.286 46.9987 118.363 47.0793 118.455 47.1389C118.545 47.1858 118.645 47.2108 118.747 47.2119C119.481 47.2728 119.964 46.8063 120.629 46.7292C121.558 46.6116 121.757 47.0902 122.576 47.4756C123.854 48.0881 124.478 47.7149 124.722 46.8347Z" fill="#455A64"/>
<path d="M124.612 55.5796C124.662 55.383 124.694 55.1819 124.705 54.9792C124.778 53.738 125.967 53.9327 126.977 53.7623C127.764 53.6285 125.675 51.6368 127.265 50.9918C127.575 50.9064 127.847 50.7175 128.035 50.4564C128.115 50.2607 128.124 50.0432 128.06 49.8416C127.997 49.6401 127.864 49.4672 127.686 49.353C127.32 49.1324 126.896 49.0265 126.47 49.0488C126.21 48.7364 126.421 48.2375 126.672 47.9373C126.924 47.6372 127.232 47.2477 127.139 46.8502C126.993 46.2499 126.153 46.2296 125.549 46.3472C125.382 45.9593 125.271 45.5495 125.22 45.1303C125.111 44.7247 124.786 44.2866 124.36 44.319C123.934 44.3515 123.719 44.8139 123.33 44.9072C122.876 45.0167 122.482 44.6151 122.113 44.3109C121.744 44.0067 121.135 43.8242 120.896 44.2217C120.75 44.4569 120.835 44.7896 120.685 45.033C120.417 45.4386 119.793 45.1871 119.403 44.8991C119.014 44.6111 118.393 44.3515 118.122 44.7531C118.052 44.8808 118 45.0172 117.967 45.1587C117.785 45.6901 117.209 45.97 116.75 46.2986C116.292 46.6271 115.939 47.3167 116.345 47.7305C116.531 47.9373 116.86 48.0185 116.953 48.2821C117.047 48.5458 116.734 48.8987 116.471 49.1259C116.032 49.499 115.951 50.6186 116.531 50.9228C116.775 51.0527 117.136 51.0932 117.193 51.3609C117.249 51.6287 117.002 51.7909 116.84 51.9735C116.737 52.1052 116.665 52.2576 116.627 52.42C116.589 52.5825 116.587 52.7512 116.621 52.9146C116.654 53.078 116.723 53.2322 116.821 53.3666C116.92 53.501 117.047 53.6125 117.193 53.6934C117.335 53.7623 117.505 53.8151 117.558 53.9611C117.579 54.0714 117.568 54.1856 117.525 54.2897C117.468 54.4912 117.449 54.7017 117.468 54.9103C117.468 54.9462 117.474 54.9819 117.487 55.0154C117.501 55.0488 117.52 55.0792 117.546 55.105C117.598 55.143 117.663 55.1616 117.728 55.1577C118.568 55.1942 118.973 54.8981 119.484 55.6283C119.529 55.7016 119.589 55.7651 119.659 55.8149C119.73 55.8517 119.81 55.8712 119.89 55.8716C120.47 55.9203 120.847 55.5593 121.375 55.4944C122.105 55.4011 122.259 55.7783 122.904 56.0785C123.93 56.5653 124.421 56.257 124.612 55.5796Z" fill="#455A64"/>
<path d="M120.034 52.5579C120.097 52.3096 120.135 52.0554 120.147 51.7993C120.244 50.2173 121.749 50.4688 123.035 50.2538C124.037 50.0875 121.38 47.5563 123.404 46.737C123.797 46.629 124.14 46.3899 124.378 46.0595C124.48 45.8112 124.492 45.5351 124.412 45.2788C124.332 45.0225 124.165 44.8023 123.94 44.656C123.479 44.3724 122.944 44.2313 122.402 44.2504C122.074 43.8447 122.342 43.2485 122.662 42.8388C122.983 42.4291 123.372 41.9626 123.25 41.4596C123.068 40.697 122.001 40.6686 121.222 40.8187C120.938 40.3562 120.942 39.7802 120.816 39.257C120.691 38.7337 120.261 38.1861 119.725 38.251C119.19 38.3159 118.914 38.8838 118.415 39.0014C117.839 39.1353 117.34 38.6282 116.886 38.2469C116.431 37.8656 115.645 37.6222 115.332 38.1293C115.146 38.4295 115.259 38.8513 115.064 39.1474C114.728 39.6626 113.933 39.3421 113.442 38.9771C112.951 38.612 112.16 38.2794 111.819 38.7864C111.733 38.9545 111.669 39.1332 111.629 39.3178C111.393 39.9912 110.667 40.3279 110.099 40.7619C109.532 41.1959 109.077 42.0518 109.56 42.5832C109.795 42.8428 110.213 42.9483 110.331 43.2809C110.481 43.6865 110.055 44.0678 109.718 44.3518C109.162 44.8264 109.061 46.2461 109.799 46.6355C110.108 46.8019 110.562 46.8505 110.639 47.1913C110.716 47.532 110.396 47.7348 110.193 47.9701C110.062 48.1374 109.97 48.3309 109.922 48.5374C109.873 48.7438 109.87 48.9583 109.912 49.166C109.955 49.3738 110.042 49.5699 110.167 49.7409C110.293 49.9119 110.454 50.0536 110.639 50.1565C110.817 50.2417 111.045 50.3106 111.101 50.4972C111.128 50.6338 111.112 50.7753 111.057 50.9029C110.988 51.1604 110.964 51.4282 110.988 51.6939C110.987 51.7871 111.022 51.877 111.085 51.9454C111.153 51.9916 111.234 52.0144 111.316 52.0103C112.383 52.0589 112.898 51.6817 113.547 52.6066C113.604 52.6998 113.68 52.78 113.77 52.8418C113.862 52.8884 113.964 52.9133 114.067 52.9148C114.797 52.9757 115.284 52.5092 115.949 52.4362C116.878 52.3145 117.072 52.7932 117.892 53.1785C119.17 53.8235 119.79 53.4381 120.034 52.5579Z" fill="#455A64"/>
<path d="M132.895 39.0139C132.959 38.7656 132.997 38.5114 133.008 38.2553C133.102 36.6733 134.631 36.9248 135.897 36.7099C136.899 36.5435 134.242 34.0123 136.266 33.193C136.659 33.0865 137.003 32.8471 137.239 32.5155C137.342 32.2669 137.353 31.9901 137.273 31.7336C137.192 31.4771 137.024 31.2571 136.797 31.112C136.335 30.8351 135.802 30.7011 135.264 30.7267C134.935 30.321 135.203 29.7247 135.523 29.315C135.844 28.9053 136.233 28.4389 136.112 27.9359C135.929 27.1733 134.862 27.1246 134.083 27.295C133.799 26.8325 133.804 26.2565 133.678 25.7332C133.552 25.21 133.122 24.6624 132.587 24.7273C132.051 24.7922 131.775 25.3601 131.276 25.4777C130.7 25.6156 130.201 25.1045 129.747 24.7232C129.293 24.3419 128.506 24.1026 128.194 24.6056C128.007 24.9057 128.121 25.3276 127.926 25.6237C127.589 26.1389 126.794 25.8184 126.303 25.4534C125.812 25.0883 125.021 24.7597 124.681 25.2627C124.594 25.4308 124.53 25.6094 124.49 25.7941C124.255 26.4674 123.525 26.8041 122.957 27.2382C122.389 27.6722 121.939 28.5322 122.421 29.0595C122.657 29.3191 123.074 29.4246 123.192 29.7572C123.342 30.1628 122.916 30.5441 122.579 30.8281C122.024 31.3027 121.922 32.7265 122.661 33.1118C122.969 33.2781 123.423 33.3268 123.5 33.6676C123.577 34.0083 123.257 34.2111 123.05 34.4464C122.921 34.6142 122.829 34.8079 122.781 35.0144C122.733 35.2209 122.731 35.4353 122.774 35.6429C122.816 35.8504 122.903 36.0463 123.029 36.2172C123.154 36.388 123.315 36.5298 123.5 36.6328C123.679 36.718 123.906 36.7869 123.963 36.9735C123.988 37.1102 123.973 37.2514 123.918 37.3792C123.846 37.6431 123.823 37.9181 123.849 38.1904C123.848 38.2817 123.881 38.3702 123.942 38.4379C124.012 38.4832 124.094 38.5058 124.178 38.5028C125.245 38.5515 125.76 38.1742 126.409 39.0991C126.467 39.1927 126.542 39.274 126.632 39.3384C126.724 39.3834 126.825 39.4083 126.928 39.4114C127.658 39.4723 128.145 39.0058 128.806 38.9287C129.739 38.807 129.934 39.2897 130.753 39.6751C132.027 40.2673 132.643 39.8941 132.895 39.0139Z" fill="#455A64"/>
<path d="M143.398 39.5529C143.462 39.3033 143.5 39.0477 143.511 38.7903C143.605 37.2123 145.114 37.4598 146.4 37.2488C147.401 37.0785 144.745 34.5473 146.769 33.7319C147.161 33.6224 147.505 33.3819 147.742 33.0505C147.844 32.8024 147.856 32.5263 147.775 32.2705C147.694 32.0147 147.526 31.7954 147.3 31.651C146.842 31.3633 146.307 31.2218 145.767 31.2454C145.438 30.8397 145.706 30.2394 146.026 29.8297C146.347 29.42 146.736 28.9576 146.615 28.4505C146.432 27.6879 145.365 27.6636 144.586 27.8096C144.302 27.3512 144.306 26.7752 144.181 26.2519C144.055 25.7287 143.625 25.177 143.09 25.246C142.554 25.3149 142.278 25.8788 141.779 25.9923C141.203 26.1303 140.704 25.6191 140.25 25.2378C139.796 24.8565 139.009 24.6172 138.696 25.1202C138.51 25.4204 138.623 25.8423 138.429 26.1384C138.092 26.6535 137.297 26.3331 136.806 25.968C136.315 25.6029 135.524 25.2744 135.184 25.7814C135.097 25.9479 135.033 26.1252 134.993 26.3087C134.758 26.9821 134.028 27.3188 133.46 27.7528C132.892 28.1868 132.442 29.0468 132.924 29.5741C133.159 29.8337 133.577 29.9392 133.695 30.2718C133.845 30.6775 133.419 31.0588 133.082 31.3468C132.527 31.8214 132.425 33.2411 133.164 33.6305C133.472 33.7928 133.926 33.8415 134.003 34.1863C134.08 34.5311 133.76 34.7298 133.553 34.9651C133.424 35.1325 133.332 35.326 133.284 35.5322C133.237 35.7384 133.234 35.9524 133.277 36.1597C133.319 36.367 133.407 36.5625 133.532 36.733C133.657 36.9035 133.818 37.0449 134.003 37.1474C134.182 37.2326 134.409 37.3056 134.466 37.4882C134.492 37.6248 134.476 37.7661 134.421 37.8938C134.352 38.1513 134.328 38.4191 134.352 38.6848C134.35 38.7763 134.383 38.865 134.445 38.9322C134.515 38.9775 134.597 39.0002 134.681 38.9971C135.747 39.0458 136.263 38.6686 136.912 39.5975C136.969 39.6901 137.045 39.7701 137.135 39.8328C137.226 39.8797 137.328 39.9047 137.431 39.9058C138.161 39.9666 138.648 39.5001 139.309 39.4231C140.242 39.3054 140.437 39.7841 141.256 40.1694C142.53 40.8022 143.154 40.4372 143.398 39.5529Z" fill="#455A64"/>
<path d="M149.778 43.8491C149.842 43.6008 149.88 43.3466 149.892 43.0906C149.985 41.5086 151.515 41.7601 152.776 41.5451C153.778 41.3788 151.125 38.8476 153.145 38.0282C153.539 37.9217 153.885 37.6824 154.123 37.3508C154.224 37.102 154.236 36.8255 154.155 36.5692C154.074 36.3129 153.907 36.0929 153.681 35.9472C153.221 35.6637 152.687 35.5226 152.147 35.5416C151.819 35.136 152.087 34.5397 152.403 34.13C152.719 33.7203 153.113 33.2538 152.991 32.7508C152.809 31.9882 151.746 31.9598 150.963 32.1099C150.679 31.6475 150.683 31.0715 150.557 30.5482C150.432 30.0249 150.006 29.4773 149.466 29.5422C148.927 29.6071 148.655 30.175 148.156 30.2926C147.58 30.4265 147.081 29.9194 146.631 29.5381C146.18 29.1568 145.385 28.9175 145.077 29.4205C144.891 29.7207 145 30.1425 144.805 30.4387C144.473 30.9538 143.674 30.6334 143.183 30.2683C142.692 29.9032 141.901 29.5747 141.56 30.0776C141.473 30.2456 141.407 30.4242 141.366 30.609C141.134 31.2824 140.404 31.6191 139.836 32.0531C139.268 32.4871 138.818 33.343 139.297 33.8744C139.536 34.134 139.954 34.2395 140.072 34.5721C140.218 34.9778 139.796 35.3591 139.459 35.643C138.899 36.1176 138.798 37.5414 139.536 37.9268C139.848 38.0931 140.303 38.1418 140.38 38.4825C140.457 38.8232 140.136 39.0261 139.93 39.2613C139.799 39.4286 139.706 39.6224 139.657 39.8291C139.609 40.0359 139.606 40.2507 139.649 40.4587C139.692 40.6667 139.779 40.8629 139.905 41.0337C140.032 41.2044 140.194 41.3457 140.38 41.4477C140.554 41.5329 140.785 41.6019 140.838 41.7885C140.866 41.9247 140.852 42.0661 140.798 42.1941C140.723 42.4575 140.698 42.7328 140.725 43.0054C140.724 43.0986 140.759 43.1885 140.822 43.2569C140.892 43.3021 140.974 43.3248 141.057 43.3218C142.124 43.3705 142.635 42.9932 143.288 43.9181C143.343 44.0131 143.419 44.0938 143.511 44.1533C143.602 44.1997 143.702 44.226 143.803 44.2304C144.538 44.2872 145.02 43.8248 145.686 43.7477C146.615 43.626 146.813 44.1087 147.629 44.49C148.91 45.1025 149.535 44.7293 149.778 43.8491Z" fill="#455A64"/>
<path d="M147.844 49.2846C147.844 49.2846 145.175 53.053 144.254 54.2497C143.334 55.4463 138.738 62.8979 138.109 67.8264C138.044 68.3538 137.979 68.804 137.914 69.2015C139.89 82.2591 139.581 106.151 139.512 110.24H133.245C133.185 105.628 132.653 63.4658 132.458 62.1799C132.247 60.817 129.619 55.6288 125.563 53.4992C121.506 51.3696 118.042 44.3155 118.042 44.3155H119.332C119.332 44.3155 121.725 48.6397 125.129 51.0289C125.618 51.367 126.13 51.6706 126.662 51.9375C126.653 49.3366 127.111 46.7551 128.013 44.3155L128.71 44.9605C127.769 48.81 127.899 51.2763 128.179 52.692C129.465 53.2946 130.652 54.0892 131.7 55.0488C135.229 50.4569 137.213 39.959 137.213 39.959L138.117 40.4498C137.861 42.619 137.471 44.7703 136.949 46.8914C136.288 49.6091 134.341 54.7243 133.436 57.0324C134.52 58.5897 135.416 60.2699 136.105 62.0379C136.201 61.8888 136.315 61.7525 136.446 61.6323C138.746 59.5554 143.066 49.7308 143.066 49.7308C144.112 47.4471 142.514 41.4517 142.514 41.4517H143.731L144.271 46.6967L147.309 43.3826L147.861 43.845L144.64 47.9825L142.985 53.2275L147.309 48.4409L147.844 49.2846Z" fill="#E6E6E6"/>
<path d="M33.9352 67.9523C33.8841 67.7614 33.8541 67.5655 33.846 67.3681C33.773 66.1512 32.6291 66.35 31.6312 66.1837C30.8605 66.0579 32.8968 64.1149 31.3473 63.4862C31.0465 63.4033 30.7831 63.2201 30.6009 62.9669C30.5222 62.7761 30.5128 62.5637 30.5743 62.3666C30.6358 62.1696 30.7643 62.0002 30.9376 61.8879C31.2925 61.6771 31.7016 61.5756 32.1139 61.5959C32.3695 61.2876 32.1626 60.8252 31.9192 60.5088C31.6758 60.1924 31.3716 59.8395 31.4649 59.45C31.6069 58.8659 32.4222 58.8456 33.0144 58.9592C33.1766 58.5775 33.2831 58.1745 33.3308 57.7626C33.4404 57.3569 33.7365 56.9513 34.1705 56.9919C34.6045 57.0324 34.7952 57.4746 35.1765 57.5679C35.6186 57.6693 35.9878 57.2799 36.3488 56.9878C36.7098 56.6958 37.302 56.5092 37.5414 56.8945C37.6833 57.1257 37.5982 57.4502 37.7482 57.6774C38.0038 58.083 38.6163 57.8275 38.9936 57.5476C39.3708 57.2677 39.9793 57.0122 40.2429 57.4016C40.3108 57.5295 40.3613 57.6659 40.393 57.8072C40.5715 58.3264 41.1313 58.582 41.5653 58.9146C41.9993 59.2472 42.3482 59.9084 41.971 60.3141C41.7884 60.5128 41.468 60.594 41.3787 60.8495C41.2651 61.1659 41.5897 61.4539 41.8493 61.6608C42.2549 62.0259 42.3523 63.113 41.7884 63.4131C41.5491 63.5389 41.2002 63.5754 41.1434 63.8391C41.0867 64.1027 41.33 64.2447 41.4882 64.4354C41.5876 64.5642 41.658 64.713 41.6947 64.8715C41.7313 65.0301 41.7333 65.1946 41.7006 65.354C41.6679 65.5134 41.6012 65.6639 41.505 65.7951C41.4089 65.9264 41.2855 66.0354 41.1434 66.1147C41.0055 66.1796 40.8392 66.2323 40.7905 66.3743C40.7671 66.4805 40.7785 66.5915 40.823 66.6907C40.8772 66.8887 40.895 67.0948 40.8757 67.2992C40.8756 67.3683 40.8496 67.4349 40.8027 67.4858C40.7497 67.5238 40.6853 67.5424 40.6202 67.5385C39.8089 67.575 39.4033 67.287 38.9084 67.9969C38.8659 68.0697 38.8077 68.1321 38.738 68.1794C38.6681 68.213 38.5923 68.2323 38.5149 68.2362C37.9511 68.2808 37.586 67.9279 37.0708 67.863C36.3569 67.7738 36.2068 68.1429 35.5781 68.435C34.5964 68.9136 34.1178 68.6256 33.9352 67.9523Z" fill="#455A64"/>
<path d="M43.3559 66.9339C43.3067 66.7427 43.2768 66.547 43.2667 66.3498C43.1977 65.1329 42.0498 65.3316 41.0559 65.1653C40.2852 65.0396 42.3215 63.0966 40.772 62.4678C40.4689 62.3809 40.2043 62.1935 40.0216 61.9364C39.9436 61.7457 39.9349 61.5337 39.9972 61.3372C40.0595 61.1408 40.1887 60.9725 40.3623 60.8615C40.7159 60.6472 41.1257 60.5441 41.5387 60.5654C41.7902 60.2571 41.5833 59.7947 41.3399 59.4783C41.0965 59.1619 40.7963 58.809 40.8896 58.4195C41.0276 57.8354 41.8469 57.8151 42.4351 57.9287C42.6024 57.5414 42.7104 57.1312 42.7556 56.7118C42.861 56.3062 43.1612 55.9005 43.5912 55.9411C44.0212 55.9817 44.2199 56.4279 44.6012 56.5171C45.0434 56.6185 45.4125 56.2291 45.7695 55.937C46.1264 55.645 46.7227 55.4584 46.9621 55.8437C47.1081 56.0749 47.0188 56.3995 47.1689 56.6266C47.4285 57.0323 48.037 56.7767 48.4183 56.4968C48.7996 56.2169 49.4 55.9614 49.6677 56.3508C49.7342 56.4789 49.7833 56.6153 49.8137 56.7564C49.9922 57.2756 50.552 57.5312 50.9901 57.8638C51.4281 58.1964 51.7729 58.8576 51.3957 59.2633C51.2132 59.462 50.8927 59.5432 50.7994 59.7987C50.6899 60.1151 51.0144 60.4031 51.27 60.61C51.6999 60.9751 51.777 62.0622 51.2091 62.3624C50.9738 62.4881 50.625 62.5246 50.5641 62.7883C50.5033 63.052 50.7507 63.1939 50.9089 63.3846C51.009 63.5132 51.0799 63.6619 51.117 63.8206C51.154 63.9793 51.1562 64.1441 51.1234 64.3037C51.0907 64.4633 51.0237 64.6139 50.9271 64.7451C50.8306 64.8764 50.7067 64.9851 50.5641 65.0639C50.4303 65.1288 50.264 65.1816 50.2112 65.3235C50.1898 65.4299 50.2011 65.5402 50.2437 65.6399C50.2992 65.8377 50.3185 66.0438 50.3005 66.2484C50.2984 66.3191 50.271 66.3867 50.2234 66.439C50.1709 66.4745 50.1081 66.4916 50.0449 66.4877C49.2336 66.5242 48.828 66.2362 48.3331 66.9461C48.2965 67.0215 48.2385 67.0844 48.1664 67.1269C48.0942 67.1695 48.0111 67.1898 47.9275 67.1854C47.3677 67.23 46.9986 66.8771 46.4834 66.8122C45.7735 66.723 45.6194 67.0921 44.9947 67.3842C44.0212 67.8953 43.5425 67.6154 43.3559 66.9339Z" fill="#455A64"/>
<path d="M44.263 60.9342C44.2121 60.7433 44.1822 60.5474 44.1738 60.35C44.1008 59.1331 42.9569 59.3319 41.959 59.1656C41.1923 59.0358 43.2286 57.0968 41.6791 56.4681C41.3761 56.3853 41.111 56.2005 40.9287 55.9448C40.8511 55.7544 40.8423 55.543 40.9037 55.3468C40.9652 55.1506 41.093 54.982 41.2653 54.8699C41.6215 54.6585 42.0321 54.5569 42.4458 54.5778C42.6973 54.2695 42.4904 53.8071 42.247 53.4907C42.0036 53.1743 41.7034 52.8214 41.7967 52.432C41.9347 51.8478 42.754 51.8276 43.3422 51.9411C43.5095 51.5539 43.6175 51.1436 43.6627 50.7242C43.7681 50.3186 44.0683 49.9129 44.4983 49.9535C44.9283 49.9941 45.123 50.4362 45.5043 50.5295C45.8856 50.6228 46.3156 50.2415 46.6766 49.9454C47.0376 49.6493 47.6298 49.4708 47.8692 49.8561C48.0111 50.0874 47.9259 50.4119 48.076 50.639C48.3316 51.0447 48.9441 50.7891 49.3254 50.5092C49.7067 50.2293 50.3071 49.9738 50.5748 50.3632C50.6408 50.4915 50.6899 50.6279 50.7208 50.7688C50.8993 51.2881 51.4591 51.5436 51.8972 51.8762C52.3353 52.2089 52.676 52.87 52.3028 53.2757C52.1243 53.4745 51.8039 53.5556 51.7106 53.8111C51.6173 54.0667 51.9256 54.4155 52.1811 54.6224C52.6111 54.9834 52.6882 56.0746 52.1203 56.3748C51.885 56.5005 51.5361 56.537 51.4753 56.7804C51.4144 57.0238 51.6619 57.1861 51.8201 57.3767C51.9201 57.505 51.991 57.6534 52.028 57.8118C52.065 57.9701 52.0672 58.1347 52.0344 58.2939C52.0016 58.4532 51.9346 58.6035 51.8381 58.7344C51.7416 58.8653 51.6178 58.9736 51.4753 59.052C51.3414 59.121 51.1711 59.1737 51.1224 59.3157C51.1009 59.422 51.1122 59.5323 51.1548 59.6321C51.2108 59.8283 51.2287 60.0335 51.2076 60.2365C51.2089 60.2715 51.2031 60.3065 51.1906 60.3393C51.178 60.372 51.159 60.4019 51.1346 60.4271C51.0831 60.4652 51.0199 60.4838 50.9561 60.4799C50.1448 60.5164 49.7392 60.2243 49.2443 60.9382C49.2006 61.0101 49.1426 61.0723 49.0739 61.1208C49.0029 61.1544 48.9254 61.1724 48.8467 61.1735C48.287 61.2222 47.9178 60.8693 47.4027 60.8044C46.6887 60.7151 46.5387 61.0802 45.9099 61.3763C44.9283 61.8955 44.4496 61.6075 44.263 60.9342Z" fill="#455A64"/>
<path d="M50.4701 63.9239C50.4192 63.733 50.3893 63.5371 50.3809 63.3398C50.3079 62.1228 49.1639 62.3175 48.1661 62.1553C47.3994 62.0255 49.4357 60.0825 47.8862 59.4578C47.5832 59.375 47.3181 59.1902 47.1358 58.9345C47.0623 58.748 47.0544 58.542 47.1133 58.3504C47.1723 58.1587 47.2946 57.9928 47.4603 57.8798C47.8161 57.6673 48.2267 57.5643 48.6407 57.5837C48.8922 57.2795 48.6853 56.813 48.4419 56.5007C48.1985 56.1883 47.8984 55.8314 47.9917 55.442C48.1296 54.8578 48.949 54.8375 49.5371 54.9511C49.7024 54.5702 49.8104 54.167 49.8576 53.7545C49.9631 53.3489 50.2632 52.9432 50.6932 52.9797C51.1232 53.0162 51.3179 53.4665 51.6992 53.5557C52.0805 53.645 52.5105 53.2718 52.8715 52.9757C53.2325 52.6795 53.8247 52.5011 54.0641 52.8864C54.2061 53.1176 54.1209 53.4421 54.271 53.6693C54.5265 54.0749 55.139 53.8194 55.5203 53.5395C55.9016 53.2596 56.502 53.0041 56.7697 53.3935C56.8358 53.5218 56.8849 53.6581 56.9157 53.7991C57.0942 54.3143 57.654 54.5739 58.0921 54.9065C58.5302 55.2391 58.8709 55.9003 58.4977 56.3019C58.3152 56.5047 57.9988 56.5859 57.9055 56.8414C57.7919 57.1578 58.1205 57.4418 58.376 57.6527C58.806 58.0178 58.8831 59.1089 58.3152 59.4091C58.0799 59.5308 57.7311 59.5714 57.6702 59.8147C57.6094 60.0581 57.8568 60.2204 58.015 60.411C58.115 60.5393 58.1859 60.6877 58.2229 60.8461C58.2599 61.0045 58.2621 61.169 58.2293 61.3283C58.1965 61.4876 58.1296 61.6378 58.033 61.7687C57.9365 61.8996 57.8127 62.008 57.6702 62.0863C57.5364 62.1512 57.366 62.204 57.3173 62.3459C57.2958 62.4536 57.3071 62.5652 57.3498 62.6664C57.4058 62.8626 57.4237 63.0678 57.4025 63.2708C57.4043 63.3415 57.378 63.41 57.3295 63.4614C57.2771 63.4975 57.2146 63.516 57.151 63.5142C56.3397 63.5507 55.9341 63.2586 55.4392 63.9726C55.3966 64.0441 55.3384 64.1052 55.2688 64.151C55.1987 64.1879 55.1208 64.2073 55.0417 64.2078C54.4819 64.2565 54.1128 63.9036 53.5976 63.8387C52.8837 63.7495 52.7336 64.1145 52.1048 64.4106C51.1354 64.8812 50.6567 64.5972 50.4701 63.9239Z" fill="#455A64"/>
<path d="M56.7407 62.5451C56.6941 62.3533 56.6642 62.1579 56.6514 61.9609C56.5825 60.744 55.4345 60.9387 54.4407 60.7765C53.67 60.6467 55.7063 58.7037 54.1568 58.0749C53.8547 57.9926 53.5899 57.8094 53.4063 57.5557C53.3283 57.365 53.3197 57.1529 53.382 56.9565C53.4442 56.7601 53.5734 56.5917 53.7471 56.4808C54.1007 56.2665 54.5105 56.1633 54.9234 56.1846C55.1749 55.8764 54.9721 55.4139 54.7247 55.1016C54.4772 54.7892 54.1811 54.4282 54.2744 54.0429C54.4123 53.4587 55.2317 53.4385 55.8199 53.552C55.9866 53.1646 56.0946 52.7544 56.1403 52.3351C56.2458 51.9295 56.546 51.5238 56.98 51.5603C57.4141 51.5969 57.6047 52.0471 57.986 52.1364C58.4281 52.2418 58.7973 51.8484 59.1583 51.5563C59.5193 51.2642 60.1116 51.0776 60.3468 51.4671C60.4929 51.6983 60.4077 52.0187 60.5537 52.2459C60.8133 52.6515 61.4218 52.396 61.8031 52.1161C62.1844 51.8362 62.7847 51.5847 63.0524 51.9741C63.1203 52.1016 63.1695 52.2382 63.1985 52.3797C63.381 52.8949 63.9408 53.1545 64.3748 53.4871C64.8089 53.8198 65.1577 54.4769 64.7805 54.8825C64.5979 55.0813 64.2775 55.1624 64.1882 55.418C64.0747 55.7384 64.3992 56.0224 64.6547 56.2293C65.0847 56.5943 65.1618 57.6855 64.5979 57.9816C64.3586 58.1074 64.0098 58.1479 63.953 58.3873C63.8962 58.6266 64.1355 58.7929 64.2937 58.9876C64.3937 59.1159 64.4646 59.2643 64.5016 59.4227C64.5386 59.581 64.5408 59.7456 64.508 59.9048C64.4752 60.0641 64.4083 60.2144 64.3117 60.3453C64.2152 60.4762 64.0914 60.5845 63.9489 60.6629C63.815 60.7278 63.6487 60.7805 63.596 60.9225C63.5745 61.0288 63.5858 61.1392 63.6285 61.2389C63.6836 61.4367 63.7029 61.6428 63.6852 61.8474C63.6855 61.9186 63.6578 61.987 63.6082 62.038C63.5565 62.0753 63.4931 62.0926 63.4297 62.0867C62.6184 62.1232 62.2128 61.8352 61.7179 62.5451C61.6753 62.6178 61.6171 62.6802 61.5475 62.7276C61.4769 62.7631 61.3993 62.7825 61.3204 62.7844C60.7606 62.829 60.3914 62.4802 59.8803 62.4153C59.1664 62.322 59.0163 62.6911 58.3876 62.9872C57.4059 63.5024 56.9273 63.2184 56.7407 62.5451Z" fill="#455A64"/>
<path d="M56.8217 69.2376C56.7844 69.0859 56.7613 68.9311 56.7527 68.7751C56.6959 67.8219 55.7873 67.9638 55.0125 67.8422C54.4041 67.7407 56.0104 66.2196 54.7894 65.7207C54.5515 65.657 54.3425 65.5139 54.1972 65.315C54.1365 65.1652 54.1301 64.9989 54.179 64.8449C54.2278 64.6909 54.329 64.5587 54.4649 64.4713C54.7435 64.304 55.0651 64.2222 55.3898 64.236C55.5926 63.9967 55.4303 63.6316 55.2356 63.3842C55.0409 63.1367 54.8056 62.8568 54.8787 62.5486C54.9922 62.0902 55.6332 62.074 56.0956 62.1632C56.2233 61.8629 56.308 61.5461 56.3471 61.2221C56.4282 60.9057 56.6797 60.5731 57.0042 60.6137C57.3287 60.6542 57.4991 60.995 57.8155 61.0639C58.1319 61.1329 58.4645 60.8408 58.7363 60.6096C59.0081 60.3784 59.4867 60.2324 59.6774 60.5366C59.7869 60.7191 59.722 60.9747 59.8396 61.1532C60.0425 61.4655 60.5211 61.2708 60.8213 61.0518C61.1215 60.8327 61.5961 60.6461 61.8029 60.9382C61.8567 61.0377 61.8962 61.1442 61.9206 61.2546C62.0625 61.6602 62.5006 61.8671 62.8454 62.1267C63.1902 62.3863 63.462 62.9096 63.1699 63.23C63.028 63.3842 62.7643 63.4491 62.7035 63.6357C62.6426 63.8223 62.8698 64.1103 63.0726 64.2806C63.4093 64.5686 63.4782 65.4286 63.028 65.6639C62.8373 65.7612 62.5655 65.7896 62.5169 65.9965C62.4682 66.2034 62.6629 66.3251 62.7886 66.467C62.8673 66.5684 62.9231 66.6855 62.9522 66.8104C62.9813 66.9354 62.983 67.0652 62.9572 67.1908C62.9314 67.3165 62.8787 67.435 62.8026 67.5384C62.7266 67.6417 62.6291 67.7274 62.5169 67.7894C62.4114 67.8381 62.2775 67.8827 62.241 67.9922C62.2222 68.0765 62.2307 68.1646 62.2654 68.2437C62.3087 68.3994 62.3238 68.5615 62.31 68.7224C62.3088 68.7782 62.2872 68.8316 62.2491 68.8725C62.2079 68.9016 62.1574 68.9146 62.1072 68.909C61.4663 68.9414 61.1539 68.7102 60.7604 69.2741C60.7268 69.3307 60.6811 69.3792 60.6266 69.416C60.5702 69.4413 60.5098 69.4564 60.4481 69.4607C60.006 69.4972 59.7179 69.2173 59.3123 69.1686C58.7485 69.0956 58.6308 69.3836 58.136 69.6189C57.345 70.0083 56.9677 69.7811 56.8217 69.2376Z" fill="#455A64"/>
<path d="M60.3382 66.934C60.287 66.7431 60.2571 66.5472 60.249 66.3498C60.176 65.1329 59.0321 65.3317 58.0342 65.1654C57.2675 65.0396 59.3038 63.0966 57.7543 62.4679C57.4523 62.3853 57.1876 62.2021 57.0039 61.9486C56.9255 61.7584 56.9162 61.5467 56.9777 61.3503C57.0392 61.1539 57.1676 60.9853 57.3405 60.8737C57.6956 60.6593 58.1067 60.5562 58.521 60.5776C58.7724 60.2693 58.5656 59.8069 58.3222 59.4905C58.0788 59.1741 57.7786 58.8212 57.8679 58.4318C58.0098 57.8476 58.8252 57.8273 59.4174 57.9409C59.5846 57.5537 59.6927 57.1434 59.7379 56.724C59.8433 56.3184 60.1435 55.9127 60.5735 55.9533C61.0035 55.9939 61.1982 56.4401 61.5795 56.5293C62.0216 56.6307 62.3908 56.2413 62.7518 55.9492C63.1128 55.6572 63.705 55.4706 63.9444 55.8559C64.0863 56.0872 64.0011 56.4117 64.1512 56.6388C64.4068 57.0445 65.0193 56.7889 65.3965 56.509C65.7738 56.2291 66.3822 55.9736 66.65 56.363C66.7148 56.4918 66.7638 56.628 66.796 56.7686C66.9745 57.2878 67.5343 57.5434 67.9724 57.876C68.4104 58.2087 68.7512 58.8698 68.378 59.2755C68.1955 59.4742 67.875 59.5554 67.7858 59.8109C67.6722 60.1273 68.0008 60.4153 68.2563 60.6222C68.6863 60.9873 68.7633 62.0744 68.1955 62.3746C67.9561 62.5003 67.6073 62.5368 67.5505 62.8005C67.4937 63.0642 67.7371 63.2061 67.8953 63.3968C67.9953 63.5254 68.0663 63.6742 68.1033 63.8328C68.1403 63.9915 68.1425 64.1563 68.1098 64.3159C68.077 64.4755 68.01 64.6261 67.9135 64.7573C67.8169 64.8886 67.6931 64.9973 67.5505 65.0761C67.4126 65.141 67.2463 65.1938 67.1976 65.3357C67.1761 65.4421 67.1874 65.5524 67.23 65.6521C67.2842 65.8501 67.3021 66.0563 67.2828 66.2606C67.2841 66.3312 67.2579 66.3996 67.2098 66.4513C67.1568 66.4856 67.0944 66.5026 67.0313 66.4999C66.22 66.5364 65.8144 66.2484 65.3195 66.9583C65.2758 67.0302 65.2178 67.0923 65.1491 67.1408C65.0776 67.1739 65.0006 67.1932 64.9219 67.1976C64.3581 67.2422 63.993 66.8893 63.4779 66.8244C62.7639 66.7352 62.6139 67.1043 61.9851 67.3964C61.0035 67.8953 60.5248 67.6154 60.3382 66.934Z" fill="#455A64"/>
<path d="M50.4701 56.5453C50.4192 56.353 50.3893 56.1558 50.3808 55.9571C50.3078 54.7402 49.1639 54.939 48.166 54.7726C47.3994 54.6469 49.4357 52.7039 47.8861 52.0751C47.5835 51.9941 47.3183 51.8106 47.1357 51.5559C47.0581 51.3656 47.0493 51.1541 47.1107 50.9579C47.1722 50.7617 47.3001 50.5931 47.4724 50.481C47.8275 50.2666 48.2386 50.1635 48.6528 50.1849C48.9043 49.8766 48.6974 49.4142 48.454 49.1018C48.2106 48.7895 47.9105 48.4284 48.0038 48.0431C48.1417 47.459 48.9611 47.4346 49.5493 47.5482C49.7145 47.1673 49.8225 46.7641 49.8697 46.3516C49.9752 45.9459 50.2753 45.5403 50.7053 45.5809C51.1353 45.6214 51.33 46.0676 51.7113 46.1569C52.0926 46.2461 52.5226 45.8689 52.8836 45.5768C53.2446 45.2847 53.8369 45.0981 54.0762 45.4876C54.2182 45.7188 54.133 46.0392 54.2831 46.2664C54.5386 46.672 55.1511 46.4165 55.5324 46.1366C55.9137 45.8567 56.5141 45.6052 56.7818 45.9906C56.8466 46.1194 56.8957 46.2556 56.9278 46.3962C57.1063 46.9154 57.6661 47.175 58.1042 47.5076C58.5423 47.8403 58.883 48.4974 58.5098 48.903C58.3273 49.1018 58.0109 49.1829 57.9176 49.4385C57.804 49.7589 58.1326 50.0429 58.3881 50.2498C58.8181 50.6148 58.8952 51.706 58.3273 52.0021C58.092 52.1279 57.7432 52.1644 57.6823 52.4281C57.6215 52.6917 57.8689 52.8337 58.0271 53.0284C58.1271 53.1567 58.198 53.3051 58.235 53.4635C58.272 53.6218 58.2742 53.7863 58.2414 53.9456C58.2087 54.1049 58.1417 54.2552 58.0452 54.3861C57.9486 54.517 57.8248 54.6253 57.6823 54.7037C57.5485 54.7686 57.3781 54.8213 57.3294 54.9633C57.3079 55.0696 57.3193 55.18 57.3619 55.2797C57.4178 55.4774 57.4357 55.6838 57.4146 55.8882C57.416 55.9588 57.3898 56.0272 57.3416 56.0788C57.2888 56.1137 57.2263 56.1307 57.1631 56.1275C56.3518 56.164 55.9462 55.876 55.4513 56.5859C55.4088 56.6586 55.3506 56.7209 55.2809 56.7684C55.2102 56.8034 55.1327 56.8227 55.0538 56.8252C54.494 56.8698 54.1249 56.521 53.6097 56.4561C52.8958 56.3628 52.7457 56.7319 52.1169 57.028C51.1353 57.5026 50.6566 57.2146 50.4701 56.5453Z" fill="#455A64"/>
<path d="M42.4094 56.9552C42.3619 56.7637 42.3334 56.5681 42.3242 56.371C42.2512 55.1541 41.1072 55.3529 40.1094 55.1866C39.3387 55.0568 41.375 53.1138 39.8254 52.4891C39.5235 52.4064 39.2597 52.2214 39.0791 51.9658C39.0007 51.7755 38.9914 51.5638 39.0529 51.3674C39.1144 51.171 39.2428 51.0024 39.4157 50.8909C39.7699 50.6782 40.1796 50.5765 40.5921 50.5988C40.8476 50.2905 40.6408 49.8281 40.3933 49.5117C40.1459 49.1953 39.8498 48.8424 39.9431 48.453C40.085 47.8688 40.9004 47.8486 41.4926 47.9621C41.6566 47.574 41.7632 47.1641 41.809 46.7452C41.9185 46.3396 42.2349 45.9339 42.6487 45.9745C43.0624 46.0151 43.2734 46.4572 43.6547 46.5464C44.036 46.6357 44.4659 46.2625 44.827 45.9664C45.188 45.6703 45.7802 45.4918 46.0195 45.8771C46.1615 46.1084 46.0763 46.4329 46.2224 46.66C46.482 47.0657 47.0945 46.8101 47.4717 46.5302C47.849 46.2503 48.4574 45.9948 48.7211 46.3842C48.7885 46.5123 48.8389 46.6487 48.8712 46.7898C49.0497 47.3091 49.6095 47.5646 50.0435 47.8972C50.4775 48.2299 50.8264 48.891 50.4491 49.2967C50.2666 49.4954 49.9461 49.5766 49.8569 49.8321C49.7433 50.1485 50.0678 50.4365 50.3274 50.6434C50.7331 51.0044 50.8304 52.0956 50.2666 52.3958C50.0273 52.5215 49.6784 52.558 49.6216 52.8217C49.5648 53.0854 49.8082 53.2273 49.9664 53.418C50.0657 53.5465 50.1361 53.695 50.1727 53.8532C50.2093 54.0114 50.2113 54.1757 50.1786 54.3348C50.1459 54.4939 50.0791 54.644 49.983 54.7749C49.8869 54.9058 49.7636 55.0144 49.6216 55.0933C49.4837 55.1582 49.3174 55.215 49.2647 55.3569C49.2453 55.4634 49.2566 55.5731 49.2971 55.6733C49.3545 55.8693 49.3738 56.0745 49.3539 56.2777C49.354 56.3481 49.328 56.4161 49.2809 56.4684C49.227 56.5045 49.1632 56.5229 49.0984 56.5211C48.2871 56.5576 47.8814 56.2656 47.3866 56.9795C47.3452 57.052 47.2867 57.1133 47.2162 57.158C47.1477 57.1953 47.071 57.2148 46.9931 57.2148C46.4292 57.2634 46.0601 56.9105 45.549 56.8456C44.8351 56.7564 44.685 57.1215 44.0563 57.4176C43.0746 57.9165 42.5919 57.6285 42.4094 56.9552Z" fill="#455A64"/>
<path d="M37.5179 60.2535C37.467 60.0626 37.4371 59.8668 37.4287 59.6694C37.3556 58.4525 36.2117 58.6512 35.2139 58.4849C34.4472 58.3551 36.4835 56.4121 34.934 55.7874C34.631 55.7047 34.3659 55.5198 34.1835 55.2641C34.106 55.0738 34.0971 54.8623 34.1586 54.6661C34.22 54.4699 34.3479 54.3013 34.5202 54.1892C34.8761 53.9767 35.2866 53.8737 35.7006 53.8931C35.9521 53.5888 35.7453 53.1264 35.5019 52.81C35.2585 52.4936 34.9583 52.1407 35.0516 51.7513C35.1895 51.1672 36.0049 51.1469 36.5971 51.2605C36.7643 50.8732 36.8724 50.463 36.9176 50.0436C37.023 49.6379 37.3232 49.2323 37.7532 49.2688C38.1832 49.3053 38.3779 49.7556 38.7592 49.8448C39.2013 49.9503 39.5704 49.5608 39.9315 49.2647C40.2925 48.9686 40.8847 48.7901 41.124 49.1755C41.266 49.4067 41.1808 49.7312 41.3309 49.9584C41.5865 50.364 42.199 50.1085 42.5803 49.8286C42.9616 49.5487 43.5619 49.2931 43.8297 49.6825C43.8957 49.8108 43.9448 49.9472 43.9757 50.0882C44.1542 50.6074 44.714 50.8629 45.152 51.1956C45.5901 51.5282 45.9309 52.1894 45.5577 52.595C45.3751 52.7938 45.0587 52.8749 44.9654 53.1305C44.8519 53.4469 45.1804 53.7308 45.436 53.9418C45.866 54.3068 45.943 55.398 45.3751 55.6982C45.1399 55.8199 44.791 55.8604 44.7302 56.1241C44.6693 56.3878 44.9168 56.5297 45.075 56.7204C45.1749 56.8487 45.2459 56.9971 45.2829 57.1555C45.3199 57.3138 45.3221 57.4783 45.2893 57.6376C45.2565 57.7969 45.1895 57.9472 45.093 58.0781C44.9965 58.2089 44.8727 58.3173 44.7302 58.3957C44.5923 58.4606 44.426 58.5174 44.3773 58.6593C44.3558 58.7657 44.3671 58.876 44.4097 58.9757C44.4638 59.1724 44.4816 59.3771 44.4625 59.5801C44.4643 59.6508 44.438 59.7194 44.3894 59.7708C44.3368 59.8063 44.2745 59.8248 44.211 59.8235C43.3997 59.86 42.994 59.568 42.4992 60.2819C42.4566 60.3535 42.3983 60.4145 42.3288 60.4604C42.2587 60.4972 42.1808 60.5167 42.1016 60.5172C41.5419 60.5658 41.1727 60.2129 40.6576 60.148C39.9436 60.0588 39.7935 60.4239 39.1648 60.72C38.1832 61.2149 37.7248 60.9269 37.5179 60.2535Z" fill="#455A64"/>
<path d="M39.002 64.423C39.002 64.423 41.0302 67.3152 41.7522 68.232C42.4742 69.1487 45.9871 74.8682 46.4698 78.6488C46.5185 79.0544 46.5712 79.3992 46.6199 79.7035C45.1028 89.7228 45.338 108.054 45.4029 111.193H50.2098C50.2544 107.652 50.6641 75.3023 50.8142 74.3166C50.9643 73.3309 52.9844 69.2907 56.0875 67.656C59.1906 66.0212 61.876 60.61 61.876 60.61H60.8862C60.8862 60.61 59.0487 63.9281 56.4242 65.7616C56.0485 66.0209 55.6555 66.254 55.2478 66.4593C55.2544 64.4631 54.9027 62.482 54.2094 60.61L53.6861 61.1252C54.4081 64.0782 54.3149 65.9928 54.0918 67.0597C53.1084 67.5113 52.199 68.1089 51.3942 68.8323C48.6846 65.3114 47.1634 57.2554 47.1634 57.2554L46.4698 57.6326C46.6656 59.2965 46.965 60.9466 47.3662 62.5733C47.8733 64.6583 49.366 68.5849 50.0597 70.3656C49.2364 71.5628 48.5557 72.852 48.0315 74.207C47.9571 74.0922 47.8685 73.9873 47.7678 73.8947C45.9871 72.3127 42.673 64.7759 42.673 64.7759C41.8617 63.0236 43.0786 58.4236 43.0786 58.4236H42.1862L41.7806 62.4435L39.4238 59.9083L39.0182 60.2612L41.4885 63.4373L42.7582 67.4613L39.44 63.7902L39.002 64.423Z" fill="#E6E6E6"/>
<path d="M179.175 124.908L23.6443 124.908V120.073C23.6443 119.651 23.7274 119.233 23.8889 118.844C24.0503 118.454 24.287 118.1 24.5853 117.801C24.8836 117.503 25.2378 117.266 25.6276 117.105C26.0173 116.943 26.4351 116.86 26.857 116.86L175.966 116.86C176.818 116.86 177.635 117.199 178.238 117.801C178.84 118.404 179.179 119.221 179.179 120.073V124.908H179.175Z" fill="#E0E0E0"/>
<path d="M101.409 142.885C144.846 142.885 180.059 140.829 180.059 138.293C180.059 135.757 144.846 133.702 101.409 133.702C57.9723 133.702 22.7598 135.757 22.7598 138.293C22.7598 140.829 57.9723 142.885 101.409 142.885Z" fill="#F5F5F5"/>
<path d="M42.763 128.12C42.763 128.12 42.187 123.998 39.5625 123.54C36.938 123.082 37.7168 121.106 37.0313 120.319C36.3457 119.532 34.5447 121.828 36.0861 124.035C37.6276 126.241 36.366 125.548 37.0313 127.6C37.6965 129.653 42.9982 131.539 42.763 128.12Z" fill="#263238"/>
<path opacity="0.2" d="M42.763 128.12C42.763 128.12 42.187 123.998 39.5625 123.54C36.938 123.082 37.7168 121.106 37.0313 120.319C36.3457 119.532 34.5447 121.828 36.0861 124.035C37.6276 126.241 36.366 125.548 37.0313 127.6C37.6965 129.653 42.9982 131.539 42.763 128.12Z" fill="white"/>
<path d="M42.6533 130.979C42.6188 130.98 42.5849 130.971 42.5555 130.953C42.5261 130.935 42.5023 130.909 42.487 130.878C42.487 130.833 40.4588 126.542 41.5094 119.707C41.8509 117.749 42.3946 115.832 43.132 113.987C44.4057 110.507 45.4157 107.756 43.1076 102.735C42.3775 101.145 41.6352 99.664 40.9131 98.2321C38.2034 92.8533 36.0454 88.6062 37.668 84.3065C37.6762 84.2837 37.6887 84.2629 37.705 84.245C37.7213 84.2272 37.7409 84.2128 37.7628 84.2026C37.7847 84.1924 37.8084 84.1867 37.8325 84.1857C37.8566 84.1847 37.8806 84.1885 37.9033 84.1969C37.9485 84.2143 37.9852 84.2485 38.0056 84.2924C38.0261 84.3363 38.0286 84.3864 38.0128 84.4322C36.4754 88.586 38.5847 92.7681 41.2579 98.0658C41.98 99.5017 42.7304 100.986 43.4605 102.581C45.8335 107.74 44.7464 110.693 43.493 114.113C42.7643 115.934 42.2286 117.826 41.8948 119.759C40.8523 126.481 42.8196 130.679 42.8399 130.712C42.8595 130.756 42.8611 130.806 42.8445 130.851C42.8278 130.897 42.7942 130.934 42.7507 130.955C42.7213 130.972 42.6875 130.981 42.6533 130.979Z" fill="#263238"/>
<path d="M41.1278 129.974C41.1278 129.974 39.4242 127.402 41.8864 126.079C44.3486 124.757 44.8394 125.824 46.3484 124.863C47.8574 123.901 49.0256 121.617 49.2853 123.082C49.5449 124.546 47.7844 125.394 48.4091 126.067C49.0338 126.741 44.2837 131.134 41.1278 129.974Z" fill="#263238"/>
<path d="M37.1036 86.5139C37.1036 86.5139 35.4405 81.4637 39.221 81.3582C43.0016 81.2527 38.8357 85.9784 37.1036 86.5139Z" fill="#263238"/>
<path d="M40.3896 90.399C40.3896 90.399 41.5133 85.8071 44.1986 86.7725C46.8839 87.738 43.0628 90.4841 40.3896 90.399Z" fill="#263238"/>
<path d="M35.8342 90.797C35.8342 90.797 36.2398 87.1462 33.4004 87.057C30.5609 86.9677 31.8143 90.2048 35.8342 90.797Z" fill="#263238"/>
<path d="M37.7241 98.2731C37.7241 98.2731 33.903 94.8697 32.5319 97.405C31.1609 99.9402 35.416 100.472 37.7241 98.2731Z" fill="#263238"/>
<path d="M44.4902 97.6684C44.4902 97.6684 45.2082 92.0138 48.2951 93.7864C51.3821 95.5591 47.1796 98.2363 44.4902 97.6684Z" fill="#263238"/>
<path d="M47.2085 105.769C47.2085 105.769 44.9288 100.054 49.1636 100.699C53.3985 101.344 50.194 104.382 47.2085 105.769Z" fill="#263238"/>
<path d="M40.7101 107.81C40.7101 107.81 37.1324 103.599 34.4024 104.934C31.6725 106.268 33.9035 110.459 40.7101 107.81Z" fill="#263238"/>
<path d="M43.9561 117.143C43.9561 117.143 47.0024 110.377 49.7121 112.657C52.4218 114.937 47.9841 118.348 43.9561 117.143Z" fill="#263238"/>
<path d="M39.5298 116.746C39.5298 116.746 40.3411 111.501 37.3191 111.923C34.297 112.344 35.0921 115.553 39.5298 116.746Z" fill="#263238"/>
<g opacity="0.2">
<path d="M37.1036 86.5139C37.1036 86.5139 35.4405 81.4637 39.221 81.3582C43.0016 81.2527 38.8357 85.9784 37.1036 86.5139Z" fill="white"/>
<path d="M40.3896 90.399C40.3896 90.399 41.5133 85.8071 44.1986 86.7725C46.8839 87.738 43.0628 90.4841 40.3896 90.399Z" fill="white"/>
<path d="M35.8342 90.797C35.8342 90.797 36.2398 87.1462 33.4004 87.057C30.5609 86.9677 31.8143 90.2048 35.8342 90.797Z" fill="white"/>
<path d="M37.7241 98.2731C37.7241 98.2731 33.903 94.8697 32.5319 97.405C31.1609 99.9402 35.416 100.472 37.7241 98.2731Z" fill="white"/>
<path d="M44.4902 97.6684C44.4902 97.6684 45.2082 92.0138 48.2951 93.7864C51.3821 95.5591 47.1796 98.2363 44.4902 97.6684Z" fill="white"/>
<path d="M47.2085 105.769C47.2085 105.769 44.9288 100.054 49.1636 100.699C53.3985 101.344 50.194 104.382 47.2085 105.769Z" fill="white"/>
<path d="M40.7101 107.81C40.7101 107.81 37.1324 103.599 34.4024 104.934C31.6725 106.268 33.9035 110.459 40.7101 107.81Z" fill="white"/>
<path d="M43.9561 117.143C43.9561 117.143 47.0024 110.377 49.7121 112.657C52.4218 114.937 47.9841 118.348 43.9561 117.143Z" fill="white"/>
<path d="M39.5298 116.746C39.5298 116.746 40.3411 111.501 37.3191 111.923C34.297 112.344 35.0921 115.553 39.5298 116.746Z" fill="white"/>
</g>
<path d="M38.7393 93.4416C38.708 93.4411 38.6773 93.4327 38.6501 93.4173C36.415 92.1638 34.8046 89.799 34.7356 89.6976C34.7093 89.6565 34.7 89.6068 34.7099 89.559C34.7198 89.5113 34.7479 89.4693 34.7884 89.442C34.8082 89.4285 34.8306 89.4192 34.8541 89.4145C34.8776 89.4099 34.9018 89.41 34.9253 89.4149C34.9488 89.4199 34.971 89.4295 34.9907 89.4432C35.0104 89.4569 35.0271 89.4744 35.0399 89.4947C35.0399 89.515 36.5894 91.7704 38.6663 93.0035C39.0111 92.3707 40.2402 90.1884 41.2664 89.5718C41.2872 89.5594 41.3102 89.5512 41.3341 89.5478C41.358 89.5443 41.3823 89.5457 41.4057 89.5517C41.4291 89.5578 41.4511 89.5684 41.4704 89.583C41.4896 89.5975 41.5058 89.6158 41.5179 89.6367C41.5308 89.657 41.5394 89.6797 41.5431 89.7034C41.5468 89.7271 41.5456 89.7514 41.5395 89.7746C41.5334 89.7978 41.5226 89.8195 41.5077 89.8384C41.4928 89.8572 41.4742 89.8728 41.453 89.8841C40.3619 90.5413 38.9178 93.3118 38.9016 93.3402C38.8908 93.3625 38.8755 93.3823 38.8566 93.3984C38.8378 93.4144 38.8158 93.4264 38.792 93.4335L38.7393 93.4416Z" fill="#263238"/>
<path d="M42.2074 100.471C42.1666 100.471 42.1267 100.459 42.0938 100.435C38.9136 98.0292 34.845 98.1306 34.7923 98.1306C34.744 98.1298 34.6978 98.111 34.6626 98.0781C34.6273 98.0451 34.6056 98.0002 34.6016 97.9521C34.6011 97.9282 34.6053 97.9043 34.6139 97.8819C34.6226 97.8596 34.6356 97.8392 34.6522 97.8218C34.6688 97.8045 34.6886 97.7906 34.7105 97.781C34.7325 97.7713 34.7561 97.766 34.7801 97.7655C34.8207 97.7655 38.8811 97.6601 42.1424 100.025C42.5481 99.3435 44.2031 96.8812 46.3003 95.6481C46.3208 95.6351 46.3438 95.6265 46.3679 95.6227C46.3919 95.619 46.4165 95.6202 46.44 95.6263C46.4636 95.6323 46.4856 95.6432 46.5048 95.6581C46.5241 95.673 46.54 95.6917 46.5518 95.713C46.5646 95.7332 46.5732 95.756 46.5769 95.7797C46.5806 95.8034 46.5794 95.8276 46.5733 95.8509C46.5672 95.8741 46.5564 95.8958 46.5415 95.9147C46.5266 95.9335 46.508 95.9491 46.4868 95.9604C44.1747 97.3234 42.3696 100.354 42.3493 100.382C42.337 100.405 42.3196 100.424 42.2985 100.439C42.2774 100.454 42.2531 100.463 42.2276 100.467L42.2074 100.471Z" fill="#263238"/>
<path d="M44.409 109.736C44.3777 109.736 44.347 109.727 44.3197 109.712C44.2711 109.684 39.6224 107.01 36.2597 106.946C36.2357 106.946 36.212 106.941 36.1898 106.932C36.1677 106.922 36.1476 106.909 36.1306 106.892C36.1137 106.875 36.1002 106.855 36.091 106.833C36.0819 106.811 36.0771 106.787 36.0771 106.763C36.0771 106.739 36.0819 106.715 36.091 106.693C36.1002 106.671 36.1137 106.651 36.1306 106.634C36.1476 106.617 36.1677 106.604 36.1898 106.594C36.212 106.585 36.2357 106.58 36.2597 106.58C39.4642 106.641 43.6383 108.913 44.3725 109.331C46.5305 107.513 48.2423 103.043 48.2626 102.999C48.2702 102.975 48.2826 102.953 48.2989 102.935C48.3152 102.916 48.3351 102.901 48.3574 102.89C48.3797 102.88 48.4039 102.874 48.4286 102.873C48.4534 102.872 48.478 102.876 48.5011 102.885C48.5243 102.893 48.5453 102.907 48.5631 102.924C48.5809 102.941 48.595 102.962 48.6045 102.985C48.6141 103.007 48.6189 103.032 48.6187 103.057C48.6185 103.081 48.6132 103.106 48.6033 103.128C48.5303 103.319 46.786 107.866 44.5063 109.696C44.4789 109.719 44.4448 109.733 44.409 109.736Z" fill="#263238"/>
<path d="M41.7199 119.33C41.6872 119.33 41.6551 119.322 41.6266 119.306C39.8702 118.3 37.5986 113.894 37.5013 113.708C37.4904 113.686 37.4838 113.663 37.482 113.639C37.4801 113.614 37.4831 113.59 37.4906 113.567C37.4981 113.544 37.5101 113.523 37.5259 113.505C37.5416 113.486 37.5608 113.471 37.5824 113.46C37.604 113.449 37.6275 113.443 37.6516 113.441C37.6757 113.439 37.7 113.442 37.7229 113.45C37.7459 113.457 37.7672 113.469 37.7855 113.485C37.8039 113.501 37.8189 113.52 37.8299 113.541C37.8299 113.586 40.0244 117.797 41.6753 118.9C43.0203 117.332 44.7983 116.196 46.7864 115.635C46.8332 115.622 46.883 115.628 46.9254 115.651C46.9678 115.675 46.9994 115.714 47.0135 115.76C47.0274 115.807 47.0224 115.856 46.9996 115.899C46.9768 115.942 46.9381 115.973 46.8918 115.987C44.926 116.534 43.1731 117.666 41.866 119.233C41.8528 119.26 41.8322 119.284 41.8065 119.301C41.7807 119.319 41.7508 119.328 41.7199 119.33Z" fill="#263238"/>
<path d="M41.3746 129.361C41.3746 129.361 39.9103 127.033 38.2593 126.7C36.6084 126.367 35.9107 124.465 35.29 125.621C34.6694 126.777 36.3731 130.55 41.3746 129.361Z" fill="#263238"/>
<path d="M33.7973 138.5H49.7714L50.8423 128.647H32.7305L33.7973 138.5Z" fill="#12733C"/>
<path d="M32.3586 130.513H51.2168L51.4561 128.428H32.1152L32.3586 130.513Z" fill="#12733C"/>
<path opacity="0.3" d="M32.3586 130.513H51.2168L51.4561 128.428H32.1152L32.3586 130.513Z" fill="white"/>
<path d="M173.979 31.9434L172.592 45.2686H165.647L164.26 31.9434H173.979Z" fill="#263238"/>
<path opacity="0.3" d="M173.979 31.9434L172.592 45.2686H165.647L164.26 31.9434H173.979Z" fill="white"/>
<path d="M170.41 42.4048H167.826V138.501H170.41V42.4048Z" fill="#263238"/>
<path opacity="0.3" d="M170.41 42.4048H167.826V138.501H170.41V42.4048Z" fill="white"/>
<path d="M171.862 44.4571H166.378L165.161 32.7544H173.079L171.862 44.4571Z" fill="#12733C"/>
<path opacity="0.4" d="M171.862 44.4571H166.378L165.161 32.7544H173.079L171.862 44.4571Z" fill="white"/>
<path d="M168.398 44.6395H168.025L167.619 32.3486H167.992L168.398 44.6395Z" fill="#263238"/>
<path opacity="0.3" d="M168.398 44.6395H168.025L167.619 32.3486H167.992L168.398 44.6395Z" fill="white"/>
<path opacity="0.2" d="M173.979 31.9434L172.592 45.2686H168.227L167.704 31.9434H173.979Z" fill="white"/>
<path d="M169.12 27.6597C169.12 27.6597 164.999 31.7161 161.843 31.7161L162.824 32.361H175.399L176.377 31.7161C173.237 31.7242 169.12 27.6597 169.12 27.6597Z" fill="#263238"/>
<path opacity="0.4" d="M176.394 31.7244L175.416 32.3653H162.841L161.852 31.7244C165.007 31.7244 169.125 27.668 169.125 27.668C169.125 27.668 173.238 31.7244 176.394 31.7244Z" fill="white"/>
<path opacity="0.2" d="M176.393 31.7242L175.415 32.3651H167.238C166.99 31.9595 166.832 31.6714 166.832 31.6714C169.027 30.6533 169.136 27.6597 169.136 27.6597C169.136 27.6597 173.237 31.7242 176.393 31.7242Z" fill="white"/>
<path d="M166.901 136.724H171.339C171.604 136.724 171.859 136.83 172.047 137.018C172.235 137.205 172.341 137.46 172.341 137.726V138.501H165.907V137.726C165.907 137.462 166.012 137.208 166.198 137.02C166.384 136.833 166.637 136.726 166.901 136.724Z" fill="#263238"/>
<path opacity="0.5" d="M166.901 136.724H171.339C171.604 136.724 171.859 136.83 172.047 137.018C172.235 137.205 172.341 137.46 172.341 137.726V138.501H165.907V137.726C165.907 137.462 166.012 137.208 166.198 137.02C166.384 136.833 166.637 136.726 166.901 136.724Z" fill="white"/>
<path d="M97.3575 17.1299H44.389C42.6349 17.1299 41.2129 18.5519 41.2129 20.306V94.5056C41.2129 96.2598 42.6349 97.6818 44.389 97.6818H97.3575C99.1116 97.6818 100.534 96.2598 100.534 94.5056V20.306C100.534 18.5519 99.1116 17.1299 97.3575 17.1299Z" fill="#12733C"/>
<path opacity="0.6" d="M97.3575 17.1299H44.389C42.6349 17.1299 41.2129 18.5519 41.2129 20.306V94.5056C41.2129 96.2598 42.6349 97.6818 44.389 97.6818H97.3575C99.1116 97.6818 100.534 96.2598 100.534 94.5056V20.306C100.534 18.5519 99.1116 17.1299 97.3575 17.1299Z" fill="white"/>
<path d="M78.8408 38.7303C78.8416 40.3061 78.375 41.8468 77.5001 43.1575C76.6252 44.4681 75.3812 45.4899 73.9255 46.0935C72.4699 46.6971 70.8679 46.8555 69.3222 46.5485C67.7766 46.2416 66.3567 45.4831 65.2421 44.3691C64.1275 43.2551 63.3683 41.8356 63.0606 40.2901C62.7529 38.7446 62.9104 37.1425 63.5133 35.6865C64.1161 34.2306 65.1373 32.9861 66.4475 32.1105C67.7577 31.2349 69.2981 30.7676 70.874 30.7676C71.9202 30.7665 72.9563 30.9717 73.9231 31.3715C74.8899 31.7712 75.7683 32.3576 76.5083 33.0972C77.2482 33.8367 77.8351 34.7149 78.2353 35.6815C78.6356 36.6481 78.8413 37.6841 78.8408 38.7303Z" fill="#12733C"/>
<path opacity="0.7" d="M78.8408 38.7303C78.8416 40.3061 78.375 41.8468 77.5001 43.1575C76.6252 44.4681 75.3812 45.4899 73.9255 46.0935C72.4699 46.6971 70.8679 46.8555 69.3222 46.5485C67.7766 46.2416 66.3567 45.4831 65.2421 44.3691C64.1275 43.2551 63.3683 41.8356 63.0606 40.2901C62.7529 38.7446 62.9104 37.1425 63.5133 35.6865C64.1161 34.2306 65.1373 32.9861 66.4475 32.1105C67.7577 31.2349 69.2981 30.7676 70.874 30.7676C71.9202 30.7665 72.9563 30.9717 73.9231 31.3715C74.8899 31.7712 75.7683 32.3576 76.5083 33.0972C77.2482 33.8367 77.8351 34.7149 78.2353 35.6815C78.6356 36.6481 78.8413 37.6841 78.8408 38.7303Z" fill="white"/>
<path d="M70.8731 40.8317C72.4481 40.8317 73.7248 39.555 73.7248 37.9801C73.7248 36.4051 72.4481 35.1284 70.8731 35.1284C69.2982 35.1284 68.0215 36.4051 68.0215 37.9801C68.0215 39.555 69.2982 40.8317 70.8731 40.8317Z" fill="white"/>
<path d="M75.931 44.8999C74.5055 46.0696 72.7186 46.7089 70.8747 46.7089C69.0307 46.7089 67.2438 46.0696 65.8184 44.8999C66.5647 42.7135 68.1021 41.099 69.9478 40.6893C70.5569 40.5541 71.1883 40.5541 71.7975 40.6893C73.6472 41.0868 75.1805 42.7013 75.931 44.8999Z" fill="white"/>
<path d="M86.9241 72.3135H54.8258C52.9955 72.3135 51.5117 73.7972 51.5117 75.6276V75.6316C51.5117 77.4619 52.9955 78.9457 54.8258 78.9457H86.9241C88.7544 78.9457 90.2381 77.4619 90.2381 75.6316V75.6276C90.2381 73.7972 88.7544 72.3135 86.9241 72.3135Z" fill="#12733C"/>
<path d="M65.0613 76.8887V73.9796H65.4135V76.5762H66.7658V76.8887H65.0613ZM68.1522 76.9341C67.9552 76.9341 67.7824 76.8873 67.6337 76.7935C67.486 76.6998 67.3704 76.5686 67.2871 76.4C67.2047 76.2315 67.1635 76.0345 67.1635 75.8091C67.1635 75.5819 67.2047 75.3835 67.2871 75.214C67.3704 75.0444 67.486 74.9128 67.6337 74.8191C67.7824 74.7253 67.9552 74.6784 68.1522 74.6784C68.3491 74.6784 68.5215 74.7253 68.6692 74.8191C68.8179 74.9128 68.9334 75.0444 69.0158 75.214C69.0991 75.3835 69.1408 75.5819 69.1408 75.8091C69.1408 76.0345 69.0991 76.2315 69.0158 76.4C68.9334 76.5686 68.8179 76.6998 68.6692 76.7935C68.5215 76.8873 68.3491 76.9341 68.1522 76.9341ZM68.1522 76.633C68.3018 76.633 68.4249 76.5946 68.5215 76.5179C68.6181 76.4412 68.6896 76.3404 68.736 76.2154C68.7824 76.0904 68.8056 75.955 68.8056 75.8091C68.8056 75.6633 68.7824 75.5274 68.736 75.4015C68.6896 75.2755 68.6181 75.1737 68.5215 75.0961C68.4249 75.0184 68.3018 74.9796 68.1522 74.9796C68.0025 74.9796 67.8794 75.0184 67.7828 75.0961C67.6863 75.1737 67.6148 75.2755 67.5684 75.4015C67.522 75.5274 67.4988 75.6633 67.4988 75.8091C67.4988 75.955 67.522 76.0904 67.5684 76.2154C67.6148 76.3404 67.6863 76.4412 67.7828 76.5179C67.8794 76.5946 68.0025 76.633 68.1522 76.633ZM70.5332 77.7523C70.3713 77.7523 70.2321 77.7315 70.1156 77.6898C69.9991 77.6491 69.902 77.5951 69.8244 77.5279C69.7477 77.4616 69.6866 77.3906 69.6412 77.3148L69.9082 77.1273C69.9385 77.1671 69.9769 77.2125 70.0233 77.2637C70.0697 77.3158 70.1331 77.3607 70.2136 77.3986C70.295 77.4374 70.4016 77.4569 70.5332 77.4569C70.7093 77.4569 70.8547 77.4142 70.9693 77.329C71.0839 77.2438 71.1412 77.1103 71.1412 76.9284V76.4853H71.1127C71.0881 76.525 71.0531 76.5743 71.0076 76.633C70.9631 76.6908 70.8987 76.7424 70.8145 76.7878C70.7311 76.8323 70.6184 76.8546 70.4764 76.8546C70.3002 76.8546 70.1421 76.8129 70.002 76.7296C69.8627 76.6462 69.7524 76.525 69.671 76.3659C69.5905 76.2069 69.5502 76.0137 69.5502 75.7864C69.5502 75.5629 69.5895 75.3683 69.6681 75.2026C69.7467 75.0359 69.8561 74.9071 69.9963 74.8162C70.1364 74.7244 70.2984 74.6784 70.4821 74.6784C70.6241 74.6784 70.7368 74.7021 70.8201 74.7495C70.9044 74.7959 70.9688 74.8489 71.0133 74.9086C71.0588 74.9673 71.0938 75.0156 71.1184 75.0534H71.1525V74.7069H71.4764V76.9512C71.4764 77.1387 71.4338 77.2911 71.3485 77.4086C71.2643 77.5269 71.1506 77.6136 71.0076 77.6685C70.8656 77.7244 70.7074 77.7523 70.5332 77.7523ZM70.5218 76.5534C70.6563 76.5534 70.7699 76.5227 70.8627 76.4611C70.9556 76.3996 71.0261 76.311 71.0744 76.1955C71.1227 76.08 71.1468 75.9417 71.1468 75.7807C71.1468 75.6235 71.1232 75.4848 71.0758 75.3645C71.0285 75.2443 70.9584 75.15 70.8656 75.0819C70.7728 75.0137 70.6582 74.9796 70.5218 74.9796C70.3798 74.9796 70.2614 75.0156 70.1667 75.0875C70.073 75.1595 70.0024 75.2561 69.9551 75.3773C69.9087 75.4985 69.8855 75.633 69.8855 75.7807C69.8855 75.9322 69.9092 76.0662 69.9565 76.1827C70.0048 76.2982 70.0758 76.3891 70.1696 76.4554C70.2643 76.5208 70.3817 76.5534 70.5218 76.5534ZM72.09 76.8887V74.7069H72.4252V76.8887H72.09ZM72.2605 74.3432C72.1951 74.3432 72.1388 74.321 72.0914 74.2765C72.045 74.2319 72.0218 74.1784 72.0218 74.1159C72.0218 74.0534 72.045 73.9999 72.0914 73.9554C72.1388 73.9109 72.1951 73.8887 72.2605 73.8887C72.3258 73.8887 72.3817 73.9109 72.4281 73.9554C72.4754 73.9999 72.4991 74.0534 72.4991 74.1159C72.4991 74.1784 72.4754 74.2319 72.4281 74.2765C72.3817 74.321 72.3258 74.3432 72.2605 74.3432ZM73.3745 75.5762V76.8887H73.0392V74.7069H73.3631V75.0478H73.3915C73.4426 74.937 73.5203 74.848 73.6245 74.7807C73.7286 74.7125 73.8631 74.6784 74.0279 74.6784C74.1756 74.6784 74.3049 74.7087 74.4157 74.7694C74.5265 74.829 74.6126 74.9199 74.6742 75.0421C74.7357 75.1633 74.7665 75.3167 74.7665 75.5023V76.8887H74.4313V75.525C74.4313 75.3536 74.3868 75.2201 74.2978 75.1245C74.2087 75.0279 74.0866 74.9796 73.9313 74.9796C73.8243 74.9796 73.7286 75.0028 73.6444 75.0492C73.561 75.0956 73.4952 75.1633 73.4469 75.2523C73.3986 75.3413 73.3745 75.4493 73.3745 75.5762Z" fill="white"/>
<path d="M86.9241 49.9224H54.8258C52.9955 49.9224 51.5117 51.4061 51.5117 53.2364V53.2405C51.5117 55.0708 52.9955 56.5546 54.8258 56.5546H86.9241C88.7544 56.5546 90.2381 55.0708 90.2381 53.2405V53.2364C90.2381 51.4061 88.7544 49.9224 86.9241 49.9224Z" fill="white"/>
<path d="M86.9241 59.3247H54.8258C52.9955 59.3247 51.5117 60.8085 51.5117 62.6388V62.6428C51.5117 64.4732 52.9955 65.9569 54.8258 65.9569H86.9241C88.7544 65.9569 90.2381 64.4732 90.2381 62.6428V62.6388C90.2381 60.8085 88.7544 59.3247 86.9241 59.3247Z" fill="white"/>
<path opacity="0.2" d="M83.4238 51.6782V54.7935H87.8372V51.6782H83.4238ZM87.1151 52.019L85.6305 53.0331L84.1418 52.019H87.1151ZM83.7605 54.4528V52.169L85.6305 53.4428L87.4964 52.169V54.4528H83.7605Z" fill="black"/>
<g opacity="0.2">
<path d="M86.6741 62.1236V61.7463C86.673 61.5175 86.5816 61.2984 86.4198 61.1366C86.258 60.9748 86.0389 60.8834 85.81 60.8823H85.3395C85.1107 60.8834 84.8915 60.9748 84.7297 61.1366C84.5679 61.2984 84.4766 61.5175 84.4755 61.7463V62.1236H83.7656V64.7156H87.4935V62.1236H86.6741ZM84.8162 61.7463C84.8162 61.6076 84.8714 61.4745 84.9695 61.3763C85.0676 61.2782 85.2007 61.2231 85.3395 61.2231H85.81C85.9488 61.2231 86.0819 61.2782 86.1801 61.3763C86.2782 61.4745 86.3333 61.6076 86.3333 61.7463V62.1236H84.8162V61.7463ZM87.1568 64.3749H84.1064V62.4643H87.1568V64.3749Z" fill="black"/>
<path d="M85.534 63.5232V63.8315H85.7287V63.5232C85.7571 63.5067 85.7807 63.4831 85.7971 63.4546C85.8135 63.4261 85.8221 63.3938 85.822 63.3609C85.826 63.3333 85.824 63.3051 85.8162 63.2783C85.8083 63.2515 85.7948 63.2266 85.7765 63.2055C85.7583 63.1844 85.7356 63.1674 85.7102 63.1558C85.6848 63.1442 85.6572 63.1382 85.6293 63.1382C85.6013 63.1382 85.5737 63.1442 85.5483 63.1558C85.5229 63.1674 85.5003 63.1844 85.482 63.2055C85.4637 63.2266 85.4502 63.2515 85.4424 63.2783C85.4346 63.3051 85.4326 63.3333 85.4366 63.3609C85.4373 63.3941 85.4467 63.4265 85.4637 63.455C85.4808 63.4834 85.505 63.5069 85.534 63.5232Z" fill="black"/>
</g>
<path d="M142.647 28.5317H130.993C130.041 28.5317 129.128 28.91 128.455 29.5832C127.782 30.2564 127.403 31.1695 127.403 32.1217V42.2626C127.403 43.2147 127.782 44.1279 128.455 44.8011C129.128 45.4743 130.041 45.8526 130.993 45.8526H135.601L136.818 49.0531L138.035 45.8526H142.643C143.114 45.8526 143.581 45.7597 144.016 45.5792C144.452 45.3987 144.847 45.1343 145.18 44.8008C145.513 44.4674 145.777 44.0717 145.957 43.6361C146.137 43.2006 146.23 42.7339 146.229 42.2626V32.1217C146.23 31.6508 146.137 31.1844 145.958 30.7491C145.778 30.3138 145.514 29.9182 145.182 29.5849C144.849 29.2515 144.454 28.9869 144.019 28.8063C143.584 28.6256 143.118 28.5323 142.647 28.5317Z" fill="#12733C"/>
<path opacity="0.7" d="M142.647 28.5317H130.993C130.041 28.5317 129.128 28.91 128.455 29.5832C127.782 30.2564 127.403 31.1695 127.403 32.1217V42.2626C127.403 43.2147 127.782 44.1279 128.455 44.8011C129.128 45.4743 130.041 45.8526 130.993 45.8526H135.601L136.818 49.0531L138.035 45.8526H142.643C143.114 45.8526 143.581 45.7597 144.016 45.5792C144.452 45.3987 144.847 45.1343 145.18 44.8008C145.513 44.4674 145.777 44.0717 145.957 43.6361C146.137 43.2006 146.23 42.7339 146.229 42.2626V32.1217C146.23 31.6508 146.137 31.1844 145.958 30.7491C145.778 30.3138 145.514 29.9182 145.182 29.5849C144.849 29.2515 144.454 28.9869 144.019 28.8063C143.584 28.6256 143.118 28.5323 142.647 28.5317Z" fill="white"/>
<path d="M136.213 39.7311C136.136 39.7313 136.06 39.7147 135.99 39.6825C135.92 39.6503 135.858 39.6032 135.807 39.5445L133.536 36.8714C133.444 36.7638 133.4 36.6243 133.411 36.4835C133.422 36.3428 133.489 36.2124 133.597 36.1209C133.704 36.0295 133.844 35.9845 133.985 35.9959C134.125 36.0073 134.256 36.0742 134.347 36.1818L136.213 38.3803L139.292 34.7296C139.383 34.622 139.514 34.5551 139.655 34.5437C139.795 34.5323 139.935 34.5773 140.042 34.6687C140.15 34.7602 140.217 34.8906 140.228 35.0313C140.24 35.1721 140.195 35.3116 140.103 35.4192L136.619 39.5445C136.568 39.6028 136.506 39.6496 136.436 39.6818C136.366 39.7139 136.29 39.7308 136.213 39.7311Z" fill="white"/>
<path d="M140.908 41.2372C143.167 38.9782 143.167 35.3157 140.908 33.0568C138.649 30.7978 134.987 30.7978 132.728 33.0568C130.469 35.3157 130.469 38.9782 132.728 41.2372C134.987 43.4961 138.649 43.4961 140.908 41.2372Z" fill="#12733C"/>
<path d="M158.479 138.501H161.156L155.68 107.595H153.003L158.479 138.501Z" fill="#263238"/>
<path d="M99.5963 138.501H102.278L96.8014 107.595H94.1201L99.5963 138.501Z" fill="#263238"/>
<path opacity="0.3" d="M158.479 138.501H161.156L155.68 107.595H153.003L158.479 138.501Z" fill="white"/>
<path opacity="0.3" d="M99.5963 138.501H102.278L96.8014 107.595H94.1201L99.5963 138.501Z" fill="white"/>
<path d="M76.297 125.76L157.08 125.76V123.046L76.297 123.046V125.76Z" fill="#263238"/>
<path opacity="0.5" d="M76.297 125.76L157.08 125.76V123.046L76.297 123.046V125.76Z" fill="white"/>
<path d="M133.776 138.501H131.099L136.575 107.595H139.252L133.776 138.501Z" fill="#263238"/>
<path d="M74.8971 138.501H72.2158L77.692 107.595H80.3732L74.8971 138.501Z" fill="#263238"/>
<path opacity="0.3" d="M133.776 138.501H131.099L136.575 107.595H139.252L133.776 138.501Z" fill="white"/>
<path opacity="0.3" d="M74.8971 138.501H72.2158L77.692 107.595H80.3732L74.8971 138.501Z" fill="white"/>
<path d="M99.1865 106.391H101.852L106.314 81.5859H103.649L99.1865 106.391Z" fill="#263238"/>
<path opacity="0.3" d="M99.1865 106.391H101.852L106.314 81.5859H103.649L99.1865 106.391Z" fill="white"/>
<path d="M152.118 106.391H154.783L159.245 81.5859H156.58L152.118 106.391Z" fill="#263238"/>
<path d="M125.65 106.391H128.315L132.777 81.5859H130.112L125.65 106.391Z" fill="#263238"/>
<path opacity="0.3" d="M152.118 106.391H154.783L159.245 81.5859H156.58L152.118 106.391Z" fill="white"/>
<path opacity="0.3" d="M125.65 106.391H128.315L132.777 81.5859H130.112L125.65 106.391Z" fill="white"/>
<path d="M94.583 83.2811H164.584L165.42 78.6406H95.4186L94.583 83.2811Z" fill="#263238"/>
<path d="M93.0742 91.6786H163.075L163.911 87.0381H93.9098L93.0742 91.6786Z" fill="#263238"/>
<path d="M91.5605 100.075H161.562L162.397 95.4346H92.3962L91.5605 100.075Z" fill="#263238"/>
<path d="M71.6559 108.873L160.868 108.873V105.66L71.6559 105.66V108.873Z" fill="#263238"/>
<path opacity="0.5" d="M94.583 83.2811H164.584L165.42 78.6406H95.4186L94.583 83.2811Z" fill="white"/>
<path opacity="0.5" d="M93.0742 91.6786H163.075L163.911 87.0381H93.9098L93.0742 91.6786Z" fill="white"/>
<path opacity="0.5" d="M91.5605 100.075H161.562L162.397 95.4346H92.3962L91.5605 100.075Z" fill="white"/>
<path opacity="0.5" d="M71.6559 108.873L160.868 108.873V105.66L71.6559 105.66V108.873Z" fill="white"/>
<path opacity="0.2" d="M71.6551 108.873L138.963 108.873V105.66L71.6551 105.66V108.873Z" fill="white"/>
<path d="M132.072 72.5686C130.186 74.5603 125.663 79.4402 122.864 79.355C119.911 79.0386 116.609 74.4873 115.035 72.1833C114.906 71.9792 114.854 71.7357 114.888 71.4966C114.923 71.2575 115.041 71.0385 115.223 70.8791C115.404 70.7197 115.636 70.6302 115.878 70.6269C116.12 70.6236 116.354 70.7065 116.54 70.8609C118.463 72.4591 121.189 74.9619 123.002 75.692C122.726 75.692 122.673 75.7488 122.925 75.5906C125.205 73.9681 127.131 71.7695 129.111 69.7981C130.997 67.9606 133.78 70.5607 132.072 72.5686Z" fill="#E9B376"/>
<path d="M131.043 68.9341V74.7469C131.043 74.7469 129.826 75.7691 128.304 76.8968C127.55 77.4606 126.727 78.0488 125.956 78.5477C124.784 79.3103 123.729 79.8701 123.193 79.8377C121.595 79.7403 118.127 77.2619 118.127 77.2619L120.407 73.4651C120.407 73.4651 123.027 75.0674 123.193 75.1769C123.36 75.2864 128.856 68.9706 131.043 68.9341Z" fill="#12733C"/>
<path opacity="0.2" d="M128.304 76.8964C127.549 77.4602 126.726 78.0484 125.955 78.5473C126.138 75.213 127.707 73.9312 127.707 73.9312C128.165 74.8492 128.371 75.8726 128.304 76.8964Z" fill="black"/>
<path d="M133.255 53.6494C130.457 55.9331 130.789 62.5045 133.933 66.8164C133.933 66.8164 140.65 67.3803 144.382 65.709C148.114 64.0378 143.977 53.3979 140.046 52.5622C137.726 52.0546 135.301 52.443 133.255 53.6494Z" fill="#263238"/>
<path d="M133.423 60.4763C132.397 58.7077 131.395 53.9334 135.642 52.4609C140.968 50.6193 143.349 54.0145 143.815 57.3813C144.282 60.7481 142.379 63.2915 138.858 63.04C135.337 62.7885 134.129 61.7014 133.423 60.4763Z" fill="#263238"/>
<path d="M127.703 73.9318C127.183 76.394 128.108 82.1947 128.246 86.5675L140.789 88.0115C140.789 86.6405 141.044 84.6528 141.864 81.4929C142.33 79.6432 143.003 77.3878 143.924 74.6214C144.058 74.2157 144.2 73.8101 144.33 73.3598C144.495 72.9258 144.561 72.4604 144.523 71.9976C144.485 71.5348 144.345 71.0863 144.111 70.6848C143.878 70.2832 143.558 69.9388 143.175 69.6767C142.792 69.4146 142.355 69.2413 141.896 69.1696C141.369 69.0844 140.809 69.0114 140.237 68.9546C138.219 68.7013 136.186 68.5941 134.152 68.6341C133.491 68.6544 132.802 68.7031 132.144 68.7599C129.804 68.9586 128.181 71.6278 127.703 73.9318Z" fill="#263238"/>
<path d="M140.177 62.1025C139.548 64.0253 138.708 67.5665 139.909 68.9335C139.909 68.9335 138.075 68.5603 134.023 70.7751C132.972 69.0876 133.845 68.6131 133.845 68.6131C136.088 68.2074 136.234 66.5849 136.051 65.0718L140.177 62.1025Z" fill="#EBB376"/>
<path opacity="0.2" d="M138.497 63.3115L136.063 65.0679C136.112 65.4268 136.128 65.7893 136.112 66.151C136.96 66.0739 138.217 65.2261 138.416 64.3662C138.507 64.0225 138.535 63.6651 138.497 63.3115Z" fill="black"/>
<path d="M141.016 57.6126C141.06 60.8212 141.146 62.1801 139.653 63.9405C137.414 66.5894 133.459 65.9403 132.457 62.8088C131.556 59.9693 131.645 55.2112 134.672 53.7063C135.339 53.3718 136.08 53.2133 136.826 53.2459C137.571 53.2784 138.296 53.5009 138.932 53.8921C139.567 54.2834 140.092 54.8306 140.457 55.4817C140.822 56.1328 141.014 56.8663 141.016 57.6126Z" fill="#FFB573"/>
<path d="M138.294 54.6109C137.406 55.7264 139.43 59.2393 141.028 59.8356C144.131 58.8133 140.951 51.2806 138.294 54.6109Z" fill="#263238"/>
<path d="M134.493 53.114C133.313 53.6332 132.206 55.8521 132.06 56.6796C133.816 56.8135 138.339 54.7853 138.339 54.7853C138.339 54.7853 141.523 55.3694 139.811 53.9334C138.1 52.4975 134.493 53.114 134.493 53.114Z" fill="#263238"/>
<path d="M135.678 58.9184C135.678 59.178 135.577 59.3971 135.407 59.4133C135.236 59.4295 135.082 59.2227 135.062 58.9631C135.041 58.7035 135.167 58.4844 135.338 58.4682C135.508 58.452 135.658 58.6588 135.678 58.9184Z" fill="#263238"/>
<path d="M132.738 59.1377C132.738 59.3973 132.636 59.6204 132.466 59.6325C132.296 59.6447 132.142 59.4459 132.121 59.1863C132.101 58.9267 132.227 58.7036 132.397 58.6914C132.568 58.6793 132.718 58.878 132.738 59.1377Z" fill="#263238"/>
<path d="M132.47 58.6915L131.833 58.5576C131.833 58.5576 132.19 59.0282 132.47 58.6915Z" fill="#263238"/>
<path d="M133.986 59.4619C133.794 60.0729 133.521 60.6555 133.175 61.194C133.315 61.2781 133.472 61.3307 133.634 61.3482C133.797 61.3657 133.961 61.3477 134.116 61.2954L133.986 59.4619Z" fill="#ED893E"/>
<path d="M135.617 62.2083C135.491 62.2381 135.364 62.2584 135.235 62.2692C135.215 62.2692 135.195 62.261 135.181 62.2466C135.166 62.2321 135.158 62.2125 135.158 62.1921C135.158 62.1717 135.166 62.1521 135.181 62.1376C135.195 62.1231 135.215 62.115 135.235 62.115C135.56 62.099 135.877 62.006 136.159 61.8438C136.441 61.6816 136.68 61.4548 136.858 61.1821C136.862 61.1734 136.869 61.1658 136.877 61.1596C136.884 61.1534 136.893 61.1489 136.902 61.1463C136.912 61.1436 136.922 61.1429 136.932 61.1442C136.941 61.1454 136.951 61.1487 136.959 61.1537C136.977 61.1631 136.99 61.179 136.996 61.1979C137.002 61.2168 137 61.2372 136.992 61.2551C136.838 61.4983 136.638 61.708 136.401 61.8718C136.165 62.0356 135.898 62.1501 135.617 62.2083Z" fill="#263238"/>
<path d="M142.099 60.4763C142.014 60.7717 141.871 61.0474 141.679 61.2876C141.487 61.5278 141.249 61.7276 140.98 61.8757C140.258 62.2814 139.714 61.6607 139.763 60.8819C139.807 60.1842 140.237 59.1377 141.041 59.0646C141.215 59.0535 141.39 59.086 141.549 59.1593C141.708 59.2326 141.846 59.3443 141.951 59.4844C142.056 59.6244 142.125 59.7884 142.151 59.9616C142.177 60.1348 142.159 60.3116 142.099 60.4763Z" fill="#FFB573"/>
<path d="M137.105 58.1557C137.073 58.1621 137.04 58.1585 137.01 58.1455C136.981 58.1324 136.956 58.1105 136.939 58.0827C136.574 57.4783 135.665 57.4053 135.657 57.4053C135.616 57.4026 135.578 57.3838 135.551 57.353C135.524 57.3222 135.51 57.2819 135.513 57.241C135.516 57.2001 135.535 57.162 135.565 57.135C135.596 57.108 135.636 57.0943 135.677 57.097C135.722 57.097 136.756 57.1863 137.203 57.9083C137.223 57.9433 137.23 57.9851 137.22 58.0246C137.21 58.0642 137.185 58.0982 137.15 58.1192L137.105 58.1557Z" fill="#263238"/>
<path d="M132.06 57.7705C132.033 57.7768 132.006 57.776 131.98 57.7681C131.955 57.7603 131.932 57.7457 131.914 57.7258C131.899 57.7119 131.888 57.6951 131.88 57.6767C131.872 57.6582 131.868 57.6384 131.868 57.6183C131.868 57.5983 131.872 57.5785 131.88 57.56C131.888 57.5416 131.899 57.5248 131.914 57.5108C132.084 57.3376 132.295 57.2083 132.526 57.1342C132.758 57.06 133.004 57.0431 133.244 57.0849C133.263 57.0895 133.282 57.0978 133.298 57.1094C133.314 57.121 133.328 57.1357 133.339 57.1527C133.349 57.1696 133.356 57.1885 133.36 57.2082C133.363 57.2279 133.362 57.248 133.358 57.2675C133.353 57.2869 133.345 57.3053 133.333 57.3215C133.321 57.3377 133.307 57.3515 133.29 57.3621C133.273 57.3726 133.254 57.3797 133.234 57.383C133.215 57.3862 133.194 57.3856 133.175 57.381C132.985 57.352 132.79 57.3684 132.608 57.4291C132.425 57.4897 132.26 57.5928 132.124 57.7299C132.106 57.7482 132.084 57.762 132.06 57.7705Z" fill="#263238"/>
<path d="M135.41 58.4805L134.773 58.3467C134.773 58.3467 135.13 58.8091 135.41 58.4805Z" fill="#263238"/>
<path d="M124.011 70.329L124.315 71.2782C124.372 71.4542 124.469 71.6141 124.599 71.7447C124.73 71.8752 124.89 71.9726 125.066 72.0287L126.737 72.5641C127.066 72.6703 127.416 72.6959 127.757 72.6387C128.098 72.5815 128.42 72.4433 128.696 72.2356L129.041 71.9759C128.636 70.3534 127.033 68.9174 127.033 68.9174L126.628 68.4509C126.545 68.354 126.444 68.2742 126.331 68.2162C126.217 68.1582 126.094 68.1231 125.967 68.113C125.84 68.1028 125.712 68.1177 125.591 68.1569C125.47 68.1961 125.358 68.2588 125.261 68.3414L124.332 69.1527C124.169 69.2959 124.052 69.4837 123.995 69.6928C123.938 69.9019 123.944 70.1231 124.011 70.329Z" fill="#EBB376"/>
<path d="M112.768 71.1973L113.072 72.1506C113.129 72.3265 113.227 72.4862 113.359 72.6167C113.49 72.7472 113.65 72.8446 113.826 72.901L115.493 73.4365C115.823 73.5416 116.172 73.5667 116.513 73.5095C116.854 73.4524 117.176 73.3147 117.453 73.1079L117.802 72.8483C117.396 71.2257 115.773 69.7857 115.773 69.7857L115.368 69.3233C115.285 69.2253 115.184 69.1446 115.071 69.0859C114.957 69.0272 114.833 68.9918 114.705 68.9816C114.577 68.9714 114.449 68.9867 114.328 69.0265C114.206 69.0664 114.093 69.13 113.997 69.2138L113.068 70.025C112.91 70.1709 112.798 70.359 112.745 70.567C112.692 70.7749 112.699 70.9938 112.768 71.1973Z" fill="#EBB376"/>
<path opacity="0.2" d="M137.025 76.2921C137.836 78.6692 139.893 80.4418 141.864 81.4924C142.33 79.6427 143.004 77.3873 143.925 74.6209C142.687 72.8928 140.955 71.6638 138.749 71.9964C138.749 71.9964 136.209 73.8867 137.025 76.2921Z" fill="black"/>
<path d="M92.5137 123.451L94.6311 124.307C94.6311 124.307 112.621 97.17 114.288 98.1882C120.32 101.884 132.721 108.487 138.59 104.488C144.46 100.488 140.975 89.9456 140.975 89.9456C140.975 89.9456 129.561 85.9379 128.149 88.4163C127.777 89.1559 127.453 89.9187 127.18 90.7001C126.888 91.483 126.66 92.1442 126.66 92.1442C126.316 91.9819 115.128 86.5991 109.859 88.8179C104.5 91.0692 92.5137 123.451 92.5137 123.451Z" fill="#EBB376"/>
<path d="M131.528 105.937C131.528 105.937 125.87 106.306 118.118 103.673C118.118 103.673 116.207 125.286 114.921 137.017L112.325 136.652C112.325 136.652 107.908 104.631 108.78 100.728C109.652 96.826 114.39 96.5664 114.39 96.5664C114.39 96.5664 123.424 103.207 131.528 105.937Z" fill="#EBB376"/>
<path d="M131.528 105.936C127.708 105.983 123.899 105.509 120.207 104.529L120.945 101.454C123.797 103.34 127.776 104.488 131.528 105.936Z" fill="#12733C"/>
<path opacity="0.4" d="M131.528 105.936C127.708 105.983 123.899 105.509 120.207 104.529L120.945 101.454C123.797 103.34 127.776 104.488 131.528 105.936Z" fill="white"/>
<path d="M120.466 101.142L119.789 104.565L120.819 104.918L121.614 101.896L120.466 101.142Z" fill="#12733C"/>
<path opacity="0.6" d="M120.466 101.142L119.789 104.565L120.819 104.918L121.614 101.896L120.466 101.142Z" fill="white"/>
<path opacity="0.2" d="M109.721 114.337C109.315 105.819 109.137 101.422 110.532 99.6653C111.454 98.5798 112.722 97.8461 114.122 97.5885C115.939 102.192 123.857 105.064 124.077 105.141C127.034 105.754 131.415 105.912 131.524 105.953C127.735 105.182 124.138 103.665 120.941 101.491C118.659 99.9862 116.471 98.343 114.39 96.5703C114.39 96.5703 109.664 96.8259 108.792 100.728C108.435 102.326 108.962 108.622 109.709 115.514C109.734 115.122 109.738 114.729 109.721 114.337Z" fill="black"/>
<path d="M90.4007 121.671C90.373 121.607 90.3659 121.536 90.3804 121.467C90.395 121.399 90.4304 121.337 90.4818 121.29C90.5146 121.248 90.5558 121.214 90.6026 121.19C90.6494 121.165 90.7008 121.151 90.7536 121.148C91.0277 121.161 91.293 121.249 91.5202 121.403C91.3215 121.144 91.1673 120.864 91.2363 120.689C91.2809 120.576 91.3945 120.515 91.577 120.515C91.657 120.513 91.7365 120.528 91.8101 120.559C91.8836 120.591 91.9494 120.638 92.0029 120.697C92.3558 121.083 92.2788 121.963 92.2788 122.004C92.281 122.017 92.281 122.031 92.2788 122.044C92.2805 122.051 92.2805 122.058 92.2788 122.064C92.2694 122.066 92.2597 122.066 92.2504 122.064H92.2179C91.8388 122.073 91.4597 122.045 91.0862 121.979C90.7495 121.943 90.4818 121.841 90.4007 121.671ZM90.7698 121.338C90.7426 121.339 90.7158 121.346 90.6913 121.357C90.6668 121.369 90.6452 121.386 90.6278 121.407C90.5345 121.521 90.5589 121.574 90.567 121.59C90.6643 121.785 91.3417 121.882 91.9137 121.898C91.5851 121.651 91.07 121.31 90.7698 121.338ZM91.5811 120.701C91.5283 120.701 91.435 120.701 91.4148 120.758C91.358 120.908 91.7068 121.375 92.1003 121.78C92.1291 121.444 92.0464 121.108 91.865 120.823C91.8141 120.765 91.7458 120.725 91.6703 120.71L91.5811 120.701Z" fill="#263238"/>
<path d="M109.786 134.797C109.734 134.75 109.698 134.689 109.682 134.621C109.666 134.553 109.671 134.481 109.697 134.416C109.709 134.365 109.732 134.317 109.764 134.275C109.797 134.233 109.837 134.198 109.883 134.173C110.139 134.065 110.42 134.032 110.695 134.075C110.403 133.925 110.147 133.739 110.135 133.552C110.135 133.43 110.212 133.329 110.366 133.248C110.438 133.214 110.517 133.196 110.597 133.196C110.677 133.196 110.756 133.214 110.828 133.248C111.315 133.443 111.64 134.27 111.64 134.307C111.643 134.321 111.643 134.337 111.64 134.351C111.637 134.364 111.63 134.376 111.619 134.384L111.599 134.404C111.135 134.648 110.631 134.807 110.11 134.875C109.997 134.888 109.882 134.86 109.786 134.797ZM109.981 134.335C109.956 134.347 109.933 134.365 109.916 134.387C109.898 134.408 109.886 134.434 109.879 134.461C109.843 134.603 109.879 134.639 109.904 134.651C110.074 134.785 110.715 134.582 111.25 134.351C110.849 134.27 110.236 134.185 109.981 134.335ZM110.435 133.418C110.386 133.443 110.305 133.487 110.309 133.54C110.309 133.698 110.832 133.97 111.368 134.165C111.248 133.851 111.028 133.584 110.743 133.406C110.7 133.387 110.653 133.377 110.605 133.378C110.546 133.378 110.488 133.391 110.435 133.418Z" fill="#263238"/>
<path d="M95.9665 123.396C96.0842 123.128 92.7214 121.838 92.7214 121.838C92.7214 121.838 89.7886 122.949 87.6347 122.511C85.4807 122.073 86.0121 123.728 88.2026 124.734L93.5652 127.209C95.1269 127.918 94.7699 126.162 95.9665 123.396Z" fill="#263238"/>
<path d="M115.555 133.962C115.555 133.67 111.973 133.942 111.973 133.942C111.973 133.942 109.799 136.205 107.669 136.732C105.539 137.26 106.748 138.529 109.138 138.501L115.044 138.428C116.739 138.408 115.66 136.98 115.555 133.962Z" fill="#263238"/>
<path d="M140.976 89.9456C140.976 89.9456 129.562 85.9379 128.15 88.4163C127.78 89.1567 127.456 89.9194 127.181 90.7001C126.889 91.483 126.661 92.1442 126.661 92.1442L125.724 91.7142L121.903 103.125C127.988 106.5 136.575 106.889 140.096 104.492C145.954 100.492 140.976 89.9456 140.976 89.9456Z" fill="#12733C"/>
<g opacity="0.4">
<path d="M140.976 89.9461C140.976 89.9461 129.561 85.9384 128.149 88.4168C127.779 89.1572 127.455 89.9199 127.18 90.7006C126.888 91.4835 126.661 92.1447 126.661 92.1447L125.723 91.7147L121.902 103.125C127.987 106.5 136.574 106.89 140.095 104.492C145.953 100.493 140.976 89.9461 140.976 89.9461Z" fill="white"/>
</g>
<path opacity="0.3" d="M126.66 92.1448L133.244 94.9396C133.244 94.9396 129.865 92.1001 127.159 90.7007C126.887 91.4836 126.66 92.1448 126.66 92.1448Z" fill="black"/>
<path d="M127.987 88.7287L128.219 85.9136L140.976 87.6092L141.142 90.3269L127.987 88.7287Z" fill="#12733C"/>
<path opacity="0.4" d="M127.987 88.7287L128.219 85.9136L140.976 87.6092L141.142 90.3269L127.987 88.7287Z" fill="white"/>
<path d="M128.243 86.1899L128.912 86.2873L128.705 88.4818L128.153 88.4169L128.243 86.1899Z" fill="#263238"/>
<path d="M129.545 86.3765L136.737 87.423L136.55 89.4188L129.342 88.5588L129.545 86.3765Z" fill="#263238"/>
<path d="M140.975 89.9459L137.183 89.4956L137.369 87.5161L140.793 88.011L140.975 89.9459Z" fill="#263238"/>
<path opacity="0.2" d="M128.243 86.1899L128.912 86.2873L128.705 88.4818L128.153 88.4169L128.243 86.1899Z" fill="black"/>
<path opacity="0.2" d="M129.545 86.3765L136.737 87.423L136.55 89.4188L129.342 88.5588L129.545 86.3765Z" fill="black"/>
<path opacity="0.2" d="M140.975 89.9459L137.183 89.4956L137.369 87.5161L140.793 88.011L140.975 89.9459Z" fill="black"/>
<path d="M133.353 89.3012H133.276L131.228 89.0294C131.152 89.0195 131.079 88.9946 131.013 88.9563C130.947 88.918 130.889 88.8671 130.842 88.8063C130.795 88.7462 130.76 88.6771 130.74 88.6033C130.72 88.5294 130.715 88.4522 130.725 88.3763L130.907 87.0053C130.916 86.9263 130.94 86.8497 130.978 86.7801C131.017 86.7105 131.068 86.6491 131.13 86.5996C131.253 86.5066 131.408 86.4657 131.56 86.4861L133.609 86.7578C133.685 86.7673 133.758 86.7918 133.825 86.8299C133.891 86.8679 133.95 86.9188 133.997 86.9795C134.043 87.0402 134.078 87.1096 134.097 87.1837C134.117 87.2577 134.122 87.335 134.112 87.4109L133.929 88.782C133.914 88.9244 133.847 89.0561 133.741 89.152C133.635 89.2478 133.497 89.301 133.353 89.3012ZM131.483 86.8998C131.445 86.9001 131.408 86.9129 131.378 86.9363C131.341 86.9654 131.316 87.0075 131.309 87.054L131.13 88.425C131.127 88.4477 131.127 88.471 131.133 88.4933C131.139 88.5157 131.149 88.5366 131.163 88.5548C131.192 88.5918 131.234 88.6165 131.281 88.6238L133.329 88.8956C133.376 88.9013 133.423 88.8883 133.46 88.8595C133.497 88.8306 133.522 88.7881 133.528 88.7414L133.71 87.3704C133.715 87.324 133.702 87.2776 133.674 87.2406C133.645 87.2036 133.603 87.1789 133.556 87.1716L131.508 86.8998H131.483Z" fill="white"/>
<path d="M133.456 88.2139H133.424L132.702 88.0963C132.675 88.0923 132.65 88.0832 132.627 88.0694C132.605 88.0555 132.585 88.0373 132.57 88.0157C132.554 87.9942 132.543 87.9698 132.537 87.9439C132.531 87.918 132.531 87.8912 132.535 87.8651C132.544 87.8122 132.573 87.765 132.616 87.7332C132.66 87.7014 132.713 87.6876 132.766 87.6947L133.489 87.8123C133.542 87.8166 133.592 87.8421 133.627 87.8832C133.662 87.9243 133.679 87.9776 133.675 88.0314C133.671 88.0851 133.645 88.135 133.604 88.17C133.563 88.205 133.51 88.2223 133.456 88.218V88.2139Z" fill="white"/>
<path d="M125.172 90.9233L126.234 91.4831L122.628 103.742L121.115 103.441L125.172 90.9233Z" fill="#12733C"/>
<path opacity="0.6" d="M125.172 90.9233L126.234 91.4831L122.628 103.742L121.115 103.441L125.172 90.9233Z" fill="white"/>
<path d="M124.321 78.568H115.397C115.227 78.5649 115.064 78.4995 114.939 78.3844C114.814 78.2693 114.736 78.1123 114.719 77.9433L113.474 66.0783C113.465 65.999 113.474 65.9188 113.498 65.8429C113.523 65.767 113.564 65.6972 113.617 65.6382C113.671 65.5791 113.737 65.5321 113.81 65.5003C113.883 65.4685 113.962 65.4526 114.042 65.4537H122.966C123.136 65.4567 123.299 65.5219 123.425 65.6369C123.551 65.752 123.63 65.909 123.647 66.0783L124.889 77.9433C124.898 78.0228 124.89 78.1033 124.866 78.1795C124.841 78.2556 124.801 78.3257 124.747 78.3849C124.693 78.4441 124.627 78.4911 124.554 78.5226C124.48 78.5542 124.401 78.5697 124.321 78.568Z" fill="#263238"/>
<path opacity="0.6" d="M124.321 78.568H115.397C115.227 78.5649 115.064 78.4995 114.939 78.3844C114.814 78.2693 114.736 78.1123 114.719 77.9433L113.474 66.0783C113.465 65.999 113.474 65.9188 113.498 65.8429C113.523 65.767 113.564 65.6972 113.617 65.6382C113.671 65.5791 113.737 65.5321 113.81 65.5003C113.883 65.4685 113.962 65.4526 114.042 65.4537H122.966C123.136 65.4567 123.299 65.5219 123.425 65.6369C123.551 65.752 123.63 65.909 123.647 66.0783L124.889 77.9433C124.898 78.0228 124.89 78.1033 124.866 78.1795C124.841 78.2556 124.801 78.3257 124.747 78.3849C124.693 78.4441 124.627 78.4911 124.554 78.5226C124.48 78.5542 124.401 78.5697 124.321 78.568Z" fill="white"/>
<path opacity="0.2" d="M123.947 78.568H115.384C115.214 78.5649 115.051 78.4995 114.927 78.3844C114.802 78.2693 114.723 78.1123 114.707 77.9433L113.461 66.0783C113.453 65.999 113.461 65.9188 113.486 65.8429C113.51 65.767 113.551 65.6972 113.605 65.6382C113.658 65.5791 113.724 65.5321 113.797 65.5003C113.87 65.4685 113.949 65.4526 114.029 65.4537H122.592C122.762 65.4568 122.925 65.5221 123.05 65.6373C123.175 65.7524 123.253 65.9093 123.27 66.0783L124.531 77.923C124.544 78.0054 124.538 78.0897 124.514 78.1696C124.49 78.2495 124.449 78.323 124.393 78.3848C124.337 78.4467 124.268 78.4952 124.191 78.5269C124.114 78.5586 124.03 78.5726 123.947 78.568Z" fill="white"/>
<path d="M118.734 71.0191C118.61 71.0172 118.488 71.0417 118.374 71.091C118.26 71.1403 118.158 71.2132 118.075 71.3049C117.992 71.3966 117.929 71.5051 117.891 71.623C117.853 71.7409 117.84 71.8655 117.854 71.9886C117.879 72.2516 118 72.4963 118.194 72.6759C118.387 72.8554 118.641 72.9574 118.905 72.9622C119.029 72.9635 119.152 72.9385 119.265 72.8887C119.379 72.839 119.481 72.7657 119.564 72.6737C119.647 72.5816 119.71 72.473 119.748 72.3549C119.786 72.2368 119.799 72.1119 119.785 71.9886C119.522 71.9831 119.27 71.8814 119.076 71.7028C118.883 71.5243 118.761 71.2811 118.734 71.0191Z" fill="#263238"/>
<path opacity="0.3" d="M120.67 66.3742H115.948C115.832 66.3718 115.719 66.3372 115.621 66.2741C115.524 66.2111 115.446 66.1221 115.396 66.0172L115.112 65.4331H121.343L121.16 66.0172C121.129 66.1221 121.063 66.2136 120.975 66.2781C120.886 66.3425 120.779 66.3763 120.67 66.3742Z" fill="black"/>
<path d="M143.458 93.5237H141.799C141.799 93.5237 139.726 87.3012 138.517 82.0279C138.18 80.6332 137.921 79.2207 137.743 77.797C137.569 76.2198 137.707 74.6239 138.148 73.0997C138.566 71.5919 139.28 70.1825 140.249 68.9541L139.913 68.9338C143.052 68.9014 144.748 69.9885 144.959 71.9437C145.17 73.8988 141.714 85.5001 141.535 87.0497C141.357 88.5992 143.458 93.5237 143.458 93.5237Z" fill="#12733C"/>
<path d="M132.741 68.7148C132.741 68.7148 129.419 73.9476 128.531 76.1705C127.643 78.3934 128.154 84.7619 128.154 84.7619C128.154 84.7619 126.454 77.0994 127.545 73.3026C128.636 69.5058 130.531 68.727 132.741 68.7148Z" fill="#12733C"/>
<path d="M144.116 73.4324C142.368 75.9392 138.194 81.8251 134.6 80.4459C132.706 79.5819 131.355 78.012 130.101 76.4909C129.009 75.1151 128.031 73.6527 127.177 72.1181C127.038 71.9022 126.986 71.6413 127.032 71.3887C127.079 71.136 127.219 70.9104 127.426 70.758C127.633 70.6055 127.89 70.5375 128.145 70.5679C128.4 70.5983 128.634 70.7247 128.799 70.9215C129.951 72.1181 131.152 73.3188 132.349 74.4302C133.391 75.3713 134.73 76.5964 135.939 77.0385C135.854 76.9996 135.763 76.9762 135.671 76.9696C135.602 76.9696 135.618 76.9696 135.671 76.9249C137.699 75.5376 139.257 73.1525 140.762 71.1689C142.327 69.0068 145.536 71.1689 144.124 73.4324H144.116Z" fill="#E9B376"/>
<path opacity="0.2" d="M143.677 74.9172C143.677 74.9172 140.756 79.8984 138.517 82.0118C138.18 80.6172 137.921 79.2047 137.743 77.781C137.569 76.2038 137.707 74.6079 138.148 73.0837L140.46 71.1772C141.608 70.2321 143.677 74.9172 143.677 74.9172Z" fill="black"/>
<path d="M143.884 70.3256C145.413 71.1369 144.951 73.3557 142.947 75.9762C140.943 78.5966 137.316 82.1378 135.41 81.4929C133.503 80.8479 131.354 78.3126 131.354 78.3126L132.745 74.386C132.745 74.386 135.475 76.4589 136.043 76.3534C136.611 76.2479 139.393 72.6459 140.196 71.5303C141 70.4148 142.225 69.4291 143.884 70.3256Z" fill="#12733C"/>
<path d="M115.375 70.5565L115.318 71.3353C115.302 71.5364 115.218 71.726 115.081 71.8734C114.943 72.0207 114.759 72.117 114.56 72.1466L113.501 72.3048L113.752 69.4653L114.637 69.6195C114.854 69.6562 115.05 69.7725 115.187 69.9456C115.323 70.1188 115.39 70.3366 115.375 70.5565Z" fill="#FFB573"/>
</svg>
