<svg width="379" height="254" viewBox="0 0 379 254" fill="none" xmlns="http://www.w3.org/2000/svg">
<path d="M379 219.169H0V219.359H379V219.169Z" fill="#EBEBEB"/>
<path d="M274.396 225.188H249.291V225.377H274.396V225.188Z" fill="#EBEBEB"/>
<path d="M334.217 225.286H303.033V225.476H334.217V225.286Z" fill="#EBEBEB"/>
<path d="M284.971 230.236H270.425V230.425H284.971V230.236Z" fill="#EBEBEB"/>
<path d="M171.058 228.803H131.893V228.993H171.058V228.803Z" fill="#EBEBEB"/>
<path d="M125.146 228.803H99.0781V228.993H125.146V228.803Z" fill="#EBEBEB"/>
<path d="M83.4783 225.604H47.9736V225.794H83.4783V225.604Z" fill="#EBEBEB"/>
<path d="M211.149 32.1173C211.687 31.2951 212.416 30.6157 213.274 30.1377C214.133 29.6597 215.094 29.3974 216.076 29.3734C216.636 29.3584 217.18 29.5623 217.592 29.9419C220.526 27.9635 224.043 26.7431 227.09 26.9099C228.418 26.9176 229.715 27.3156 230.819 28.0544C233.851 25.0603 237.944 22.9455 241.121 22.9455C242.917 22.9455 244.152 23.6277 244.683 24.7723C247.935 22.7712 251.391 21.5356 254.302 21.5356C258.956 21.5356 260.882 24.6662 259.555 29.0626C260.427 29.8888 264.247 31.0485 264.285 32.4357H210.982L211.149 32.1173Z" fill="#FAFAFA"/>
<path d="M47.9737 16.6617C48.7375 15.4986 49.7712 14.5374 50.9869 13.8603C52.2025 13.1832 53.5639 12.8102 54.9549 12.7732C55.7329 12.7641 56.4847 13.0545 57.0546 13.5843C61.216 10.7797 66.196 9.03626 70.5242 9.24092C72.4128 9.24826 74.2577 9.80964 75.8302 10.8555C80.0978 6.62583 85.8965 3.59382 90.3914 3.59382C92.9459 3.59382 94.6589 4.56406 95.4397 6.18618C100.048 3.34368 104.945 1.63818 109.084 1.63818C115.671 1.63818 118.392 6.07248 116.527 12.3032C117.763 13.4706 123.167 15.1154 123.22 17.0786H47.7539C47.8145 16.9346 47.8828 16.7982 47.9737 16.6617Z" fill="#FAFAFA"/>
<path d="M283.954 19.9291C284.186 19.9276 284.416 19.9794 284.625 20.0806C284.834 20.1818 285.017 20.3297 285.159 20.5128C287.623 18.4813 290.541 17.2382 293.043 17.3822C294.161 17.3931 295.238 17.8077 296.075 18.5495C298.644 15.5175 302.055 13.3345 304.663 13.3345C305.282 13.2812 305.901 13.4356 306.422 13.7733C306.944 14.1109 307.338 14.6126 307.543 15.1992C310.264 13.145 313.137 11.8867 315.532 11.8867C318.504 11.8867 320.08 13.8272 320.08 16.7986C321.19 15.9949 322.503 15.5195 323.87 15.4266C324.208 15.4022 324.546 15.4502 324.863 15.5672C325.18 15.6842 325.469 15.8677 325.709 16.1053C325.949 16.3428 326.136 16.629 326.257 16.9447C326.378 17.2603 326.43 17.5982 326.41 17.9356H326.827C329.283 18.1933 330.473 20.2096 329.601 22.4836H279.975C280.861 20.9676 282.59 19.8533 283.954 19.9291Z" fill="#FAFAFA"/>
<path d="M141.989 46.7999C142.571 46.9367 143.139 47.127 143.687 47.3684C144.255 47.6207 144.796 47.9306 145.301 48.2932C145.714 48.5922 146.092 48.9353 146.43 49.3165C147.081 48.3862 147.82 47.5206 148.636 46.7317C149.077 46.3049 149.546 45.9074 150.039 45.5416C150.484 45.1974 150.964 44.9002 151.471 44.6548L150.198 46.2542C149.781 46.7923 149.364 47.3154 148.955 47.8535C148.545 48.3917 148.197 48.9375 147.772 49.4832C147.348 50.029 147.014 50.6127 146.665 51.1887L146.241 51.8785L145.87 51.4237C145.476 50.9563 145.037 50.5297 144.558 50.1503C144.088 49.7561 143.603 49.3923 143.118 49.0133C142.097 48.2582 141.118 47.4485 140.185 46.5877C140.793 46.577 141.4 46.6484 141.989 46.7999Z" fill="#EBEBEB"/>
<path d="M102.436 38.8486C103.301 39.0573 104.146 39.3413 104.961 39.6976C105.804 40.0709 106.607 40.5307 107.356 41.0696C107.966 41.5142 108.528 42.0224 109.031 42.5856C110.001 41.2062 111.1 39.9219 112.313 38.7501C112.973 38.116 113.672 37.5236 114.405 36.9764C115.068 36.471 115.779 36.0318 116.528 35.665L114.633 38.0452C114.011 38.8032 113.39 39.6142 112.791 40.4177C112.192 41.2212 111.601 42.0322 111.025 42.8433C110.449 43.6544 109.91 44.5261 109.38 45.375L108.758 46.3983L108.212 45.7237C107.62 45.0337 106.965 44.3994 106.257 43.8287C105.559 43.245 104.839 42.6917 104.112 42.1384C102.6 41.0166 101.148 39.8173 99.7607 38.5454C100.662 38.5236 101.563 38.6256 102.436 38.8486Z" fill="#EBEBEB"/>
<path d="M153.032 21.8992C153.684 22.0553 154.321 22.2684 154.935 22.5359C155.566 22.8192 156.168 23.1645 156.731 23.5668C157.195 23.9001 157.619 24.284 157.997 24.7114C158.724 23.672 159.549 22.7049 160.461 21.8234C160.956 21.3488 161.48 20.9058 162.03 20.4969C162.528 20.113 163.064 19.7804 163.629 19.5039L162.212 21.2928C161.742 21.8916 161.279 22.4753 160.825 23.0741C160.37 23.6729 159.93 24.2945 159.498 24.9009C159.066 25.5073 158.657 26.1591 158.263 26.8034L157.793 27.5614L157.383 27.0612C156.939 26.541 156.447 26.0639 155.913 25.6361C155.39 25.1965 154.852 24.7796 154.298 24.3627C153.161 23.5209 152.07 22.6175 151.031 21.6566C151.706 21.6491 152.379 21.7307 153.032 21.8992Z" fill="#EBEBEB"/>
<path d="M286.289 2.77516C286.941 2.9313 287.577 3.14436 288.192 3.41188C288.822 3.69684 289.424 4.04207 289.988 4.44276C290.449 4.77632 290.871 5.16021 291.246 5.58734C291.974 4.54622 292.801 3.57894 293.717 2.69936C294.21 2.22061 294.735 1.77494 295.286 1.36528C295.786 0.984766 296.321 0.654689 296.886 0.379883L295.461 2.16876C294.991 2.76758 294.528 3.35124 294.074 3.95006C293.619 4.54888 293.179 5.16286 292.747 5.77684C292.315 6.39082 291.906 7.03512 291.512 7.67942L291.042 8.43742L290.632 7.92956C290.186 7.41372 289.694 6.9393 289.162 6.5121C288.639 6.07246 288.093 5.65556 287.547 5.23866C286.401 4.39788 285.301 3.49713 284.25 2.54018C284.937 2.52681 285.623 2.60585 286.289 2.77516Z" fill="#EBEBEB"/>
<path d="M316.132 218.615C315.374 215.621 311.887 213.309 308.362 213.453C307.172 213.475 306.015 213.847 305.034 214.522C300.415 210.621 294.516 208.566 288.472 208.754C285.624 208.831 282.832 209.567 280.316 210.907C276.458 205.275 269.894 201.288 263.64 201.288C262.084 201.224 260.533 201.499 259.093 202.093C257.654 202.687 256.36 203.586 255.302 204.729C250.307 200.939 244.379 198.627 238.626 198.627C229.462 198.627 223.466 204.524 222.928 212.809C220.616 214.371 212.263 216.554 211.217 219.169H316.253C316.215 218.987 316.185 218.805 316.132 218.615Z" fill="#F5F5F5"/>
<path d="M162.372 214.697C161.411 214.731 160.491 215.092 159.764 215.72C158.225 213.935 156.309 212.514 154.154 211.56C151.999 210.606 149.659 210.142 147.302 210.202C145.035 210.302 142.838 211.015 140.943 212.264C138.237 206.882 133.363 203.069 128.557 203.069C127.283 203.056 126.023 203.348 124.885 203.922C123.747 204.496 122.763 205.334 122.016 206.366C118.354 202.743 113.897 200.53 109.478 200.53C103.998 200.53 99.8213 203.933 97.8733 209.186C96.1897 207.707 94.0489 206.85 91.8093 206.761C90.4264 206.763 89.0774 207.188 87.9433 207.98C86.8092 208.771 85.9443 209.89 85.4648 211.187C85.2115 211.189 84.9585 211.204 84.7068 211.233C80.0072 211.68 76.4977 215.174 76.5886 219.169H168.026C167.73 217.893 167.01 216.755 165.982 215.942C164.955 215.13 163.682 214.691 162.372 214.697Z" fill="#FAFAFA"/>
<path d="M275.631 190.297L275.366 179.306L269.727 164.487H275.01L274.608 147.864H291.026L292.633 177.851L296.605 178.518L294.559 194.413L293.528 194.474L294.847 219.169H276.336L276.048 207.36L273.744 190.1L275.631 190.297Z" fill="#F0F0F0"/>
<path d="M329.942 120.25C332.489 114.391 330.867 110.184 326.152 108.297C324.318 101.058 311.652 92.9849 295.074 89.0812C276.245 84.6393 263.079 88.778 257.053 94.8799C253.004 94.2758 248.869 95.0076 245.274 96.9644C238.755 100.345 234.722 105.962 234.699 110.912C230.045 112.89 228.544 117.18 231.266 123.131C233.035 126.684 235.918 129.562 239.475 131.325C239.41 133.411 239.869 135.48 240.809 137.343C241.373 138.554 242.094 139.686 242.954 140.709C240.824 143.028 240.544 146.5 242.545 150.866C244.417 154.951 248.745 158.976 255.56 160.993C258.152 165.889 267.036 169.505 277.602 169.505C288.677 169.505 297.909 165.533 299.978 160.28C301.32 160.401 302.692 160.47 304.102 160.47C316.7 160.47 324.265 154.792 326.91 149.001C328.426 145.734 328.631 142.937 327.752 140.807C330.955 139.042 333.542 136.338 335.165 133.06C338.151 126.39 335.938 121.842 329.942 120.25Z" fill="#E6E6E6"/>
<path d="M137.228 143.278H126.373L122.136 154.269H118.642L118.353 164.063L115.549 171.332L114.351 171.195L112.464 178.017L111.274 171.385L114.419 153.625H108.083L104.505 133.689H84.8271L90.2241 169.641L85.623 170.437L91.9523 189.493L93.2106 189.562L97.6525 219.169H119.847L117.307 205.01L116.519 193.844L126.237 174.083L126.942 174.045L132.604 163.539L130.156 163.1L137.228 143.278Z" fill="#F0F0F0"/>
<path d="M59.8816 100.618C56.8496 93.5913 58.7749 88.5506 64.4296 86.2842C66.6354 77.6126 81.8105 67.9406 101.708 63.2485C124.289 57.9425 140.063 62.8923 147.294 70.207C152.157 69.463 157.13 70.3309 161.454 72.6781C169.269 76.7334 174.105 83.4644 174.127 89.3995C179.714 91.7721 181.518 96.9113 178.243 104.052C176.583 107.682 173.309 111.268 168.389 113.868C168.453 116.371 167.893 118.851 166.76 121.084C166.082 122.534 165.218 123.89 164.19 125.117C166.737 127.898 167.07 132.052 164.675 137.29C162.401 142.187 157.247 147.015 149.075 149.418C145.968 155.292 135.318 159.621 122.652 159.621C109.371 159.621 98.3122 154.86 95.8259 148.561C94.2266 148.705 92.5741 148.789 90.8914 148.789C75.7844 148.789 66.7187 141.967 63.5427 135.046C61.7463 131.12 61.4885 127.807 62.5346 125.192C58.7026 123.089 55.6074 119.861 53.666 115.945C50.0276 107.986 52.6806 102.505 59.8816 100.618Z" fill="#F5F5F5"/>
<path d="M189.5 253.4C270.668 253.4 336.469 249.559 336.469 244.82C336.469 240.081 270.668 236.239 189.5 236.239C108.331 236.239 42.5312 240.081 42.5312 244.82C42.5312 249.559 108.331 253.4 189.5 253.4Z" fill="#F5F5F5"/>
<path d="M248.276 68.8812C248.154 70.9809 247.912 72.9062 247.639 74.9452C247.366 76.9843 246.987 78.8868 246.555 80.8425C246.123 82.7981 245.653 84.7613 245.039 86.6942C244.447 88.6448 243.746 90.5605 242.939 92.4323L242.303 93.8498C242.212 94.062 242.037 94.3728 241.901 94.6078C241.764 94.8427 241.605 95.1232 241.454 95.3658C240.863 96.2905 240.205 97.1697 239.483 97.996C238.143 99.5379 236.699 100.987 235.162 102.332C232.187 104.951 229.023 107.348 225.695 109.502L223.77 107.016C225.126 105.705 226.506 104.348 227.84 102.999C229.174 101.65 230.493 100.27 231.744 98.8753C232.98 97.5207 234.146 96.1039 235.238 94.6305C235.734 93.9506 236.184 93.2391 236.587 92.5005C236.663 92.3337 236.762 92.1594 236.83 92.0002C236.912 91.8298 236.986 91.6552 237.05 91.4772L237.535 90.2114C238.765 86.7307 239.723 83.1599 240.4 79.5311C240.764 77.7043 241.029 75.8473 241.302 73.9977C241.575 72.1482 241.78 70.2077 241.946 68.4795L248.276 68.8812Z" fill="#FFB573"/>
<path d="M243.956 61.3235C241.401 61.9678 239.612 72.4965 239.612 72.4965L246.662 77.287C246.662 77.287 253.416 66.675 251.452 63.8628C249.383 60.9294 247.693 60.3685 243.956 61.3235Z" fill="#12733C"/>
<path opacity="0.2" d="M244.19 63.6733L242.227 74.2778L246.183 76.9687L244.19 63.6733Z" fill="black"/>
<path d="M224.937 106.121L217.902 106.629L222.102 111.336C222.102 111.336 225.99 110.449 226.65 107.963L224.937 106.121Z" fill="#FFB573"/>
<path d="M214.021 109.123L216.902 113.558L222.102 111.337L217.902 106.629L214.021 109.123Z" fill="#FFB573"/>
<path d="M257.796 238.483H251.588L251.179 224.111H257.379L257.796 238.483Z" fill="#FFB573"/>
<path d="M300.714 220.193L294.968 222.535L287.691 209.99L293.437 207.64L300.714 220.193Z" fill="#FFB573"/>
<path d="M293.884 221.678L299.88 218.116C299.982 218.052 300.105 218.029 300.223 218.05C300.342 218.071 300.449 218.135 300.524 218.229L304.026 222.565C304.109 222.678 304.168 222.806 304.198 222.943C304.228 223.08 304.229 223.221 304.201 223.358C304.174 223.495 304.117 223.625 304.036 223.739C303.955 223.853 303.851 223.949 303.73 224.02C301.623 225.226 300.539 225.703 297.901 227.265C296.279 228.227 292.466 231.532 290.23 232.866C287.994 234.2 286.554 232.048 287.373 231.297C290.013 228.909 292.012 225.896 293.187 222.535C293.312 222.177 293.559 221.874 293.884 221.678Z" fill="#263238"/>
<path d="M251.376 237.763H258.349C258.47 237.758 258.588 237.8 258.679 237.878C258.771 237.957 258.829 238.068 258.842 238.188L259.6 243.706C259.615 243.845 259.601 243.985 259.557 244.118C259.514 244.251 259.443 244.374 259.35 244.478C259.256 244.581 259.141 244.664 259.013 244.721C258.885 244.777 258.747 244.806 258.607 244.805C256.174 244.767 255.007 244.623 251.937 244.623C250.049 244.623 246.153 244.82 243.546 244.82C240.938 244.82 240.802 242.243 241.886 242.008C246.752 240.962 248.662 239.522 250.3 238.142C250.602 237.892 250.983 237.758 251.376 237.763Z" fill="#263238"/>
<g opacity="0.2">
<path d="M251.18 224.112L251.392 231.525H257.6L257.388 224.112H251.18Z" fill="black"/>
<path d="M293.438 207.64L287.692 209.99L291.444 216.456L297.19 214.113L293.438 207.64Z" fill="black"/>
</g>
<path d="M243.955 61.3235C243.955 61.3235 240.999 62.362 246.926 98.7763H272.122C271.698 88.5206 271.683 82.1913 276.587 61.1416C273.058 60.4106 269.481 59.9394 265.884 59.7317C262.073 59.4586 258.248 59.4586 254.438 59.7317C249.534 60.179 243.955 61.3235 243.955 61.3235Z" fill="#12733C"/>
<path d="M265.891 59.7317C262.081 59.4586 258.256 59.4586 254.445 59.7317C253.073 59.853 251.648 60.0349 250.307 60.2244C249.723 62.4378 249.837 65.5304 252.095 69.5782C252.457 70.2234 253.041 70.7144 253.739 70.9587C254.437 71.203 255.201 71.1838 255.885 70.9047C257.72 70.1467 267.005 66.243 269.992 61.4069L270.75 60.1562C269.249 59.9743 267.574 59.8151 265.891 59.7317Z" fill="white"/>
<path d="M276.595 38.2501C276.595 47.3461 269.106 53.3495 261.17 57.147C252.96 61.0735 244.698 49.7717 244.698 40.6757C244.697 38.512 245.123 36.3693 245.95 34.3701C246.777 32.3708 247.99 30.5541 249.52 29.0238C251.05 27.4935 252.866 26.2795 254.865 25.4513C256.863 24.6231 259.006 24.1968 261.17 24.1968C270.266 24.1968 276.595 29.1541 276.595 38.2501Z" fill="#263238"/>
<path d="M278.687 27.7365C278.687 31.1854 276.291 34.8996 272.835 34.8996C271.178 34.8996 269.59 34.2415 268.418 33.0702C267.247 31.8988 266.589 30.3102 266.589 28.6536C266.589 26.9971 267.247 25.4084 268.418 24.2371C269.59 23.0658 271.178 22.4077 272.835 22.4077C276.291 22.4077 278.687 24.2876 278.687 27.7365Z" fill="#263238"/>
<path d="M264.762 46.8457C264.004 50.522 263.314 57.2758 265.891 59.7317C265.891 59.7317 264.883 63.4687 258.046 63.4687C250.519 63.4687 254.446 59.7317 254.446 59.7317C258.554 58.7463 258.448 55.6991 257.735 52.8415L264.762 46.8457Z" fill="#FFB573"/>
<path d="M265.892 59.7317C262.081 59.4586 258.256 59.4586 254.446 59.7317L253.688 59.8075C252.913 61.3907 252.793 63.2153 253.354 64.8861C253.471 65.3154 253.68 65.7137 253.968 66.053C254.255 66.3923 254.614 66.6641 255.018 66.8493C255.423 67.0345 255.863 67.1285 256.308 67.1245C256.752 67.1206 257.191 67.0189 257.592 66.8266C260.76 65.3106 265.672 62.6046 267.385 59.8303C266.9 59.7924 266.392 59.7545 265.892 59.7317Z" fill="#FFB573"/>
<path opacity="0.2" d="M261.897 49.2939L257.721 52.8641C257.897 53.5298 258.017 54.2095 258.077 54.8956C259.646 54.6682 261.799 52.9475 261.966 51.3027C262.064 50.6344 262.041 49.9539 261.897 49.2939Z" fill="black"/>
<path d="M265.362 37.2945C266.506 43.3585 267.12 45.8827 264.884 49.703C261.519 55.4486 253.833 55.532 250.907 49.938C248.269 44.9124 246.844 35.8543 252.082 32.0113C253.231 31.1571 254.58 30.611 256 30.4251C257.42 30.2391 258.864 30.4195 260.195 30.9489C261.526 31.4783 262.699 32.3393 263.604 33.4499C264.508 34.5606 265.113 35.884 265.362 37.2945Z" fill="#FFB573"/>
<path d="M246.927 98.7764C246.927 98.7764 242.03 146.583 242.439 165.48C242.856 185.188 250.072 230.054 250.072 230.054H258.479C258.479 230.054 257.152 186.31 257.895 166.981C258.698 145.901 265.399 98.7612 265.399 98.7612L246.927 98.7764Z" fill="#263238"/>
<path d="M259.191 230.388H249.344L248.624 227.249L259.645 226.863L259.191 230.388Z" fill="#12733C"/>
<path opacity="0.2" d="M257.797 110.669C251.604 123.123 256.554 145.841 258.744 154.292C259.866 141.603 261.776 126.079 263.232 114.687C262.269 108.244 260.654 104.931 257.797 110.669Z" fill="black"/>
<path d="M253.582 98.7764C253.582 98.7764 259.29 148.478 263.603 164.434C268.719 183.384 289.519 215.698 289.519 215.698L297.349 212.499C297.349 212.499 283.925 175.698 280.006 165.715C271.668 144.416 278.808 112.655 272.13 98.7764H253.582Z" fill="#263238"/>
<path d="M298.417 212.536L288.7 216.508L286.418 213.871L297.644 208.693L298.417 212.536Z" fill="#12733C"/>
<path d="M256.257 41.2819C256.379 41.767 256.22 42.2218 255.909 42.3052C255.598 42.3885 255.234 42.055 255.105 41.5472C254.976 41.0393 255.143 40.6072 255.462 40.5239C255.78 40.4405 256.136 40.7967 256.257 41.2819Z" fill="#263238"/>
<path d="M250.769 42.6691C250.898 43.1542 250.769 43.6166 250.421 43.6924C250.072 43.7682 249.746 43.4422 249.625 42.9344C249.504 42.4265 249.625 41.9944 249.973 41.9111C250.322 41.8277 250.648 42.1839 250.769 42.6691Z" fill="#263238"/>
<path d="M250.139 41.9263H248.889C248.889 41.9263 249.7 42.6464 250.139 41.9263Z" fill="#263238"/>
<path d="M252.687 43.1167C252.534 44.332 252.216 45.5206 251.739 46.649C252.031 46.7641 252.345 46.8136 252.658 46.794C252.971 46.7743 253.276 46.686 253.551 46.5353L252.687 43.1167Z" fill="#ED893E"/>
<path d="M256.682 47.7705C256.452 47.8635 256.217 47.942 255.977 48.0055C255.939 48.013 255.9 48.0064 255.866 47.9868C255.833 47.9673 255.808 47.9362 255.795 47.8994C255.786 47.8612 255.792 47.8209 255.812 47.787C255.831 47.753 255.864 47.7281 255.901 47.7175C256.506 47.5782 257.07 47.3003 257.549 46.9057C258.028 46.511 258.408 46.0104 258.661 45.4435C258.667 45.4255 258.677 45.4091 258.69 45.395C258.703 45.3809 258.718 45.3695 258.735 45.3614C258.753 45.3533 258.771 45.3487 258.79 45.3478C258.809 45.3469 258.828 45.3498 258.846 45.3563C258.864 45.3627 258.881 45.3727 258.895 45.3855C258.909 45.3984 258.92 45.4138 258.928 45.4311C258.936 45.4483 258.941 45.467 258.942 45.486C258.943 45.5051 258.94 45.5241 258.933 45.542C258.724 46.0439 258.418 46.4994 258.031 46.8819C257.645 47.2645 257.186 47.5665 256.682 47.7705Z" fill="#263238"/>
<path d="M250.011 32.7775C250.011 32.7775 258.122 41.1155 266.21 41.1155C272.865 41.1155 272.645 29.9578 263.845 29.4954C255.045 29.033 246.138 26.6529 250.011 32.7775Z" fill="#263238"/>
<path d="M268.37 42.3887C268.216 43.5693 267.6 44.6407 266.657 45.3676C265.399 46.3227 264.194 45.3676 264.057 43.8516C263.936 42.51 264.444 40.3951 265.937 40.0616C266.262 39.9892 266.6 39.9981 266.921 40.0876C267.242 40.177 267.535 40.3443 267.776 40.5744C268.017 40.8046 268.197 41.0906 268.301 41.4071C268.404 41.7236 268.428 42.0607 268.37 42.3887Z" fill="#FFB573"/>
<path d="M257.342 38.3184C257.299 38.3629 257.242 38.3921 257.18 38.4017C257.119 38.4112 257.056 38.4006 257.001 38.3715C255.796 37.7499 254.234 38.5458 254.219 38.5534C254.185 38.5713 254.148 38.5824 254.11 38.586C254.072 38.5896 254.033 38.5856 253.997 38.5744C253.96 38.5631 253.926 38.5448 253.897 38.5203C253.867 38.4959 253.843 38.4659 253.825 38.4321C253.807 38.3983 253.796 38.3612 253.792 38.3231C253.789 38.285 253.793 38.2465 253.804 38.2099C253.815 38.1733 253.834 38.1393 253.858 38.1098C253.882 38.0803 253.912 38.0559 253.946 38.0379C254.022 37.9925 255.796 37.0904 257.274 37.8484C257.308 37.866 257.338 37.8902 257.363 37.9197C257.388 37.9491 257.406 37.9832 257.418 38.02C257.429 38.0567 257.433 38.0953 257.429 38.1335C257.425 38.1718 257.414 38.2089 257.395 38.2426C257.382 38.2707 257.364 38.2963 257.342 38.3184Z" fill="#263238"/>
<path d="M247.928 39.5768C247.881 39.5966 247.829 39.6035 247.778 39.5969C247.728 39.5902 247.68 39.5702 247.64 39.5389C247.577 39.4933 247.534 39.4248 247.522 39.3482C247.509 39.2717 247.527 39.1931 247.571 39.1296C247.84 38.7465 248.196 38.4331 248.61 38.2155C249.024 37.998 249.484 37.8825 249.951 37.8789C250.029 37.8847 250.1 37.9205 250.151 37.9786C250.202 38.0367 250.229 38.1125 250.224 38.1897C250.223 38.2282 250.215 38.2661 250.199 38.3012C250.183 38.3363 250.16 38.3678 250.132 38.394C250.104 38.4201 250.071 38.4403 250.034 38.4534C249.998 38.4665 249.96 38.4722 249.921 38.4701C249.552 38.4786 249.189 38.5743 248.864 38.7495C248.539 38.9247 248.259 39.1745 248.049 39.4783C248.018 39.5212 247.976 39.5551 247.928 39.5768Z" fill="#263238"/>
<path d="M291.504 224.028H291.428C291.289 223.996 291.161 223.928 291.055 223.833C290.949 223.738 290.869 223.617 290.822 223.482C290.782 223.402 290.765 223.312 290.773 223.222C290.781 223.133 290.814 223.047 290.867 222.975C291.314 222.323 293.558 222.406 293.816 222.421C293.844 222.421 293.871 222.43 293.895 222.446C293.918 222.463 293.935 222.486 293.944 222.512C293.956 222.539 293.959 222.569 293.952 222.598C293.945 222.627 293.929 222.653 293.907 222.671C293.346 223.225 292.269 224.119 291.504 224.028ZM293.444 222.694C292.55 222.694 291.345 222.793 291.102 223.134C291.082 223.168 291.072 223.208 291.072 223.247C291.072 223.287 291.082 223.327 291.102 223.361C291.131 223.451 291.182 223.533 291.251 223.598C291.32 223.663 291.404 223.709 291.496 223.733C291.913 223.824 292.626 223.414 293.444 222.694Z" fill="#12733C"/>
<path d="M293.582 222.694C292.824 222.603 291.452 222.08 291.24 221.474C291.201 221.363 291.201 221.243 291.24 221.133C291.278 221.023 291.353 220.929 291.452 220.867C291.541 220.798 291.644 220.749 291.754 220.723C291.864 220.697 291.978 220.694 292.089 220.715C292.976 220.89 293.893 222.421 293.931 222.482C293.944 222.505 293.951 222.531 293.951 222.557C293.951 222.584 293.944 222.61 293.931 222.633C293.916 222.655 293.897 222.673 293.875 222.686C293.853 222.699 293.828 222.707 293.802 222.709L293.582 222.694ZM291.99 221.004C291.927 220.995 291.863 220.999 291.802 221.016C291.741 221.033 291.684 221.062 291.634 221.102C291.482 221.216 291.49 221.307 291.52 221.375C291.664 221.784 292.779 222.292 293.529 222.391C293.195 221.898 292.566 221.11 292.013 221.004H291.99Z" fill="#12733C"/>
<path d="M249.048 238.847C248.515 238.895 247.98 238.762 247.532 238.468C247.434 238.377 247.359 238.265 247.313 238.14C247.266 238.014 247.251 237.88 247.267 237.748C247.272 237.667 247.298 237.589 247.341 237.522C247.385 237.454 247.446 237.399 247.517 237.361C248.275 236.937 250.754 238.202 251.034 238.354C251.061 238.368 251.083 238.39 251.097 238.417C251.11 238.445 251.115 238.476 251.11 238.506C251.106 238.535 251.093 238.563 251.072 238.584C251.052 238.606 251.025 238.621 250.996 238.627C250.355 238.761 249.703 238.834 249.048 238.847ZM247.941 237.566C247.848 237.56 247.754 237.578 247.669 237.619C247.639 237.634 247.615 237.657 247.597 237.685C247.58 237.713 247.57 237.745 247.57 237.778C247.559 237.864 247.568 237.951 247.597 238.033C247.626 238.115 247.674 238.188 247.737 238.248C248.116 238.589 249.139 238.642 250.511 238.415C249.71 237.986 248.84 237.699 247.941 237.566Z" fill="#12733C"/>
<path d="M250.974 238.627H250.898C250.14 238.286 248.692 236.952 248.806 236.247C248.806 236.08 248.95 235.876 249.359 235.83C249.506 235.815 249.654 235.831 249.795 235.875C249.936 235.919 250.066 235.992 250.178 236.088C250.936 236.74 251.095 238.407 251.103 238.475C251.107 238.502 251.104 238.529 251.093 238.553C251.082 238.577 251.065 238.598 251.042 238.612C251.021 238.622 250.998 238.627 250.974 238.627ZM249.458 236.111H249.382C249.117 236.111 249.094 236.247 249.094 236.277C249.018 236.702 250.019 237.755 250.769 238.21C250.717 237.511 250.453 236.845 250.011 236.3C249.869 236.175 249.685 236.107 249.496 236.111H249.458Z" fill="#12733C"/>
<path d="M255.606 40.5389L254.355 40.501C254.355 40.501 255.189 41.259 255.606 40.5389Z" fill="#263238"/>
<path d="M272.51 97.2984L273.154 99.5724C273.237 99.7543 273.033 99.9286 272.737 99.9286H246.798C246.571 99.9286 246.381 99.8149 246.374 99.6785L246.146 97.4045C246.146 97.2453 246.321 97.1165 246.571 97.1165H272.123C272.197 97.1141 272.271 97.1293 272.338 97.1609C272.405 97.1926 272.464 97.2397 272.51 97.2984Z" fill="#12733C"/>
<path opacity="0.2" d="M272.51 97.2984L273.154 99.5724C273.237 99.7543 273.033 99.9286 272.737 99.9286H246.798C246.571 99.9286 246.381 99.8149 246.374 99.6785L246.146 97.4045C246.146 97.2453 246.321 97.1165 246.571 97.1165H272.123C272.197 97.1141 272.271 97.1293 272.338 97.1609C272.405 97.1926 272.464 97.2397 272.51 97.2984Z" fill="#FAFAFA"/>
<path d="M269.091 100.148H269.781C269.917 100.148 270.016 100.08 270.008 99.9968L269.69 97.0634C269.669 97.0117 269.631 96.9683 269.584 96.9396C269.536 96.9109 269.48 96.8985 269.424 96.9042H268.742C268.606 96.9042 268.5 96.98 268.507 97.0634L268.826 99.9968C268.826 100.08 268.939 100.148 269.091 100.148Z" fill="#263238"/>
<path d="M248.723 100.149H249.406C249.542 100.149 249.641 100.08 249.633 99.9969L249.315 97.0635C249.315 96.9801 249.186 96.9043 249.049 96.9043H248.367C248.231 96.9043 248.125 96.9801 248.132 97.0635L248.458 99.9969C248.466 100.08 248.625 100.149 248.723 100.149Z" fill="#263238"/>
<path d="M258.903 100.149H259.585C259.722 100.149 259.82 100.08 259.813 99.9969L259.494 97.0635C259.494 96.9801 259.366 96.9043 259.229 96.9043H258.547C258.41 96.9043 258.304 96.9801 258.312 97.0635L258.638 99.9969C258.645 100.08 258.767 100.149 258.903 100.149Z" fill="#263238"/>
<path d="M261.867 98.5338L256.409 94.6377L256.917 100.929C256.917 100.929 260.555 102.559 262.594 100.99L261.867 98.5338Z" fill="#FFB573"/>
<path d="M279.536 68.6157C280.006 72.3223 280.408 76.0441 280.779 79.7659C281.15 83.4877 281.499 87.2095 281.81 90.9312L281.863 91.6286V92C281.863 92.1971 281.863 92.3942 281.863 92.5913C281.869 93.4184 281.717 94.239 281.416 95.0093C280.851 96.3658 279.899 97.5259 278.679 98.3445C277.723 99.0039 276.683 99.5317 275.587 99.9136C274.596 100.264 273.583 100.548 272.555 100.763C268.697 101.499 264.76 101.723 260.844 101.43L260.806 98.2914C262.572 98.0564 264.406 97.776 266.165 97.4197C267.927 97.0903 269.664 96.6395 271.365 96.0705C272.848 95.639 274.241 94.9459 275.481 94.0239C275.819 93.7822 276.07 93.4361 276.193 93.0385C276.212 92.9282 276.212 92.8153 276.193 92.705L276.026 91.5756C275.481 87.8689 274.973 84.1699 274.51 80.4557C274.048 76.7415 273.578 73.0273 273.199 69.3055L279.536 68.6157Z" fill="#FFB573"/>
<path d="M276.595 61.1416C279.119 61.8996 282.158 70.6015 282.158 70.6015L272.357 77.6054C272.357 77.6054 268.787 70.3513 269.848 67.0844C270.948 63.6885 273.714 60.2624 276.595 61.1416Z" fill="#12733C"/>
<path d="M250.52 84.2457C247.952 81.6427 244.514 80.0795 240.865 79.8559C237.216 79.6323 233.613 80.7642 230.747 83.0342C227.881 85.3043 225.955 88.5527 225.337 92.1561C224.72 95.7595 225.454 99.4641 227.401 102.559L226.741 108.001L232.191 107.35C235.285 109.295 238.987 110.029 242.589 109.413C246.19 108.797 249.438 106.874 251.709 104.011C253.98 101.148 255.114 97.5483 254.895 93.9009C254.675 90.2535 253.117 86.8154 250.52 84.2457ZM235.655 99.1025C234.79 98.2375 234.201 97.1353 233.962 95.9355C233.724 94.7357 233.846 93.492 234.314 92.3618C234.783 91.2316 235.575 90.2656 236.593 89.586C237.61 88.9063 238.806 88.5436 240.029 88.5436C241.252 88.5436 242.448 88.9063 243.465 89.586C244.482 90.2656 245.275 91.2316 245.743 92.3618C246.212 93.492 246.334 94.7357 246.095 95.9355C245.857 97.1353 245.268 98.2375 244.403 99.1025C243.829 99.6777 243.147 100.134 242.397 100.446C241.646 100.757 240.841 100.917 240.029 100.917C239.216 100.917 238.412 100.757 237.661 100.446C236.911 100.134 236.229 99.6777 235.655 99.1025Z" fill="#12733C"/>
<path opacity="0.4" d="M250.52 84.2457C247.952 81.6427 244.514 80.0795 240.865 79.8559C237.216 79.6323 233.613 80.7642 230.747 83.0342C227.881 85.3043 225.955 88.5527 225.337 92.1561C224.72 95.7595 225.454 99.4641 227.401 102.559L226.741 108.001L232.191 107.35C235.285 109.295 238.987 110.029 242.589 109.413C246.19 108.797 249.438 106.874 251.709 104.011C253.98 101.148 255.114 97.5483 254.895 93.9009C254.675 90.2535 253.117 86.8154 250.52 84.2457ZM235.655 99.1025C234.79 98.2375 234.201 97.1353 233.962 95.9355C233.724 94.7357 233.846 93.492 234.314 92.3618C234.783 91.2316 235.575 90.2656 236.593 89.586C237.61 88.9063 238.806 88.5436 240.029 88.5436C241.252 88.5436 242.448 88.9063 243.465 89.586C244.482 90.2656 245.275 91.2316 245.743 92.3618C246.212 93.492 246.334 94.7357 246.095 95.9355C245.857 97.1353 245.268 98.2375 244.403 99.1025C243.829 99.6777 243.147 100.134 242.397 100.446C241.646 100.757 240.841 100.917 240.029 100.917C239.216 100.917 238.412 100.757 237.661 100.446C236.911 100.134 236.229 99.6777 235.655 99.1025Z" fill="black"/>
<path d="M251.194 94.8727L251.907 100.118L256.917 100.929L256.409 94.6377L251.194 94.8727Z" fill="#FFB573"/>
<path d="M161.856 233.184C145.035 233.185 128.591 228.197 114.604 218.852C100.618 209.507 89.7162 196.224 83.2788 180.683C76.8414 165.142 75.1572 148.042 78.4391 131.543C81.721 115.045 89.8217 99.8909 101.717 87.9968C101.859 87.8556 102.051 87.7764 102.251 87.7764C102.451 87.7764 102.643 87.8556 102.785 87.9968L111.79 96.9943C111.933 97.137 112.013 97.3306 112.013 97.5324C112.013 97.7343 111.933 97.9279 111.79 98.0706C111.648 98.2133 111.454 98.2935 111.252 98.2935C111.05 98.2935 110.857 98.2133 110.714 98.0706L102.255 89.6113C86.8228 105.324 78.2206 126.495 78.3199 148.519C78.4192 170.542 87.2119 191.635 102.785 207.208C118.358 222.781 139.451 231.574 161.474 231.673C183.497 231.772 204.669 223.17 220.381 207.738L211.907 199.264C211.764 199.121 211.684 198.927 211.684 198.725C211.684 198.524 211.764 198.33 211.907 198.187C212.05 198.045 212.243 197.964 212.445 197.964C212.647 197.964 212.841 198.045 212.983 198.187L221.996 207.2C222.067 207.27 222.123 207.354 222.162 207.447C222.2 207.539 222.22 207.638 222.22 207.738C222.22 207.838 222.2 207.937 222.162 208.03C222.123 208.122 222.067 208.206 221.996 208.276C214.116 216.197 204.743 222.477 194.421 226.753C184.098 231.028 173.029 233.214 161.856 233.184Z" fill="#12733C"/>
<path d="M161.856 220.481C201.81 220.481 234.2 188.091 234.2 148.137C234.2 108.183 201.81 75.7935 161.856 75.7935C121.902 75.7935 89.5127 108.183 89.5127 148.137C89.5127 188.091 121.902 220.481 161.856 220.481Z" fill="#12733C"/>
<g opacity="0.2">
<path d="M217.464 88.832L223.952 90.0752C223.384 90.5072 222.989 91.1743 222.398 91.5912C227.037 91.6442 231.941 91.1136 236.414 92.3492C240.59 93.5165 244.175 92.0232 248.443 92.478C250.944 92.7509 278.558 94.608 277.762 98.3525C275.814 98.0493 273.267 97.0791 271.433 98.1479L274.723 99.5577C272.979 100.52 268.28 101.339 268.303 102.999C268.303 104.189 269.94 104.72 270.38 105.781C270.819 106.842 270.622 108.525 270.721 109.639C269.364 108.411 265.665 106.221 265.149 104.576C264.634 102.931 267.643 99.8837 263.224 100.536C261.609 100.771 261.776 102.218 261.359 102.378C260.328 102.779 258.411 102.484 257.289 102.522C253.567 102.65 253.817 103.355 252.165 106.569C254.401 106.971 257.327 106.941 258.79 108.411C260.253 109.882 261.382 114.748 259.745 116.241C258.941 116.999 257.789 116.408 257.281 116.81C256.773 117.212 255.871 119.342 256.038 119.925C256.508 121.57 261.663 123.412 257.054 124.625C256.47 123.662 255.182 120.259 254.166 119.857C252.733 119.288 251.028 121.54 250.982 118.568L248.921 120.327C249.41 120.921 250.058 121.365 250.789 121.608C251.519 121.85 252.304 121.882 253.052 121.699C250.133 122.457 252.127 124.731 253.006 125.769C254.363 127.361 254.439 127.407 254.522 129.188C254.681 132.463 252.438 135.085 249.072 135.828C247.382 136.199 246.154 135.639 245.062 136.829C243.402 138.625 245.017 138.769 245.949 140.262C246.601 141.316 247.928 143.438 247.708 144.712C247.518 145.796 245.434 147.13 244.532 147.979C243.387 146.304 242.531 144.075 240.317 143.537C240.12 146.304 239.87 147.365 241.833 149.51C242.44 150.169 243.19 150.503 243.607 151.215C244.024 151.928 243.918 153.436 244.365 154.369C238.574 151.261 239.476 145.333 237.49 139.838C236.171 143.203 234.89 138.602 234.314 137.564C233.01 135.29 231.653 134.532 229.084 136.048C227.841 136.768 224.49 139.952 223.997 141.255C222.86 144.242 224.93 145.447 222.481 148.077C220.647 146.781 220.207 143.939 219.525 142.013C218.767 139.906 217.426 137.564 217.63 135.267C216.281 138.155 214.371 134.577 213.128 133.524C211.293 132.008 210.096 132.675 207.647 132.447C206.692 132.268 205.755 131.999 204.85 131.644C205.328 131.773 203.759 130.719 203.979 130.81C203.653 130.666 203.137 131.288 202.683 131.113C201.25 130.552 198.574 127.657 197.308 128.377C197.854 129.453 198.938 132.531 200.045 133.145C201.765 134.1 203.077 132.152 204.403 132.387C205.426 133.078 206.324 133.939 207.056 134.934C207.284 135.927 207.056 135.57 206.298 136.867C205.429 138.542 204.022 139.876 202.304 140.657C200.962 141.415 197.847 143.385 196.24 143.423C194.147 143.469 194.185 142.574 193.291 140.891C192.396 139.209 188.265 129.029 186.249 130.181C187.826 133.592 189.167 137.268 191.115 140.505C191.813 141.665 193.791 145.439 195.057 145.955C196.573 146.569 199.469 145.197 200.795 144.795C200.151 150.859 195.171 153.133 192.26 157.802C189.622 162.002 194.42 166.898 191.244 170.582C190.395 171.575 188.038 172.038 187.454 173.167C186.969 174.099 187.894 175.525 187.606 176.563C187.227 177.92 186.408 177.427 185.574 178.625C184.892 179.595 185.112 180.99 184.331 182.096C183.706 183.121 182.873 184.004 181.886 184.688C180.899 185.372 179.78 185.842 178.601 186.068C174.97 186.887 174.659 186.773 173.469 183.597L169.793 173.849C168.868 171.386 169.255 170.408 169.998 167.785C170.74 165.163 171.013 164.564 169.914 162.184C169.098 160.699 168.382 159.162 167.769 157.583C167.367 156.233 167.769 155.233 167.595 153.831C167.443 152.724 167.489 152.125 166.458 151.223C166.177 150.973 165.207 151.488 164.858 151.306C164.51 151.124 164.184 150.018 163.752 149.934C161.94 149.593 159.454 150.806 157.362 150.89C154.178 151.011 152.056 150.958 149.964 149.002C147.872 147.046 146.045 144.826 145.878 141.884C145.514 135.457 150.297 133.107 152.95 127.922C153.829 126.201 152.95 125.572 155.186 124.253C156.316 123.579 156.626 123.639 158.044 123.374C161.409 122.745 164.949 122.616 168.353 122.207C168.057 124.769 167.845 124.382 169.929 125.641C171.589 126.641 173.515 127.376 175.235 128.225C175.819 124.579 180.701 127.24 183.384 127.467C187.492 127.831 186.772 125.875 187.462 122.442C185.855 122.525 183.74 123.003 182.209 122.495C179.935 121.737 180.284 120.774 179.935 118.659L177.403 119.122C177.672 119.629 177.827 120.189 177.858 120.762C177.888 121.336 177.792 121.909 177.578 122.442C176.715 121.657 175.921 120.8 175.205 119.88C174.872 119.334 174.841 118.273 174.538 117.871C173.446 116.423 171.362 115.233 169.945 114.081C168.247 116.499 172.219 118.379 173.947 119.311C172.302 121.252 171.84 123.192 169.482 121.1C172.135 121.267 172.431 120.585 171.127 118.758C169.74 116.802 167.906 115.726 165.935 115.84C165.632 115.84 165.397 116.666 165.093 116.696C164.79 116.726 163.865 116.082 163.577 116.226C163.289 116.37 162.766 116.044 162.509 116.158C162.251 116.272 162.637 117.196 162.509 117.318C161.349 118.349 160.5 119.925 159.477 120.979C158.12 122.396 156.664 123.67 154.587 122.495C153.071 121.608 152.511 118.591 153.511 117.007C154.731 115.074 157.422 117.484 159.173 116.181C160.924 114.877 158.575 112.876 157.657 111.868C159.093 111.441 160.494 110.907 161.849 110.268C163.365 109.397 162.933 108.707 164.169 107.797C165.124 107.085 165.768 107.524 166.389 106.713C167.307 105.523 165.298 104.265 167.989 104.144C166.518 107.934 173.151 107.464 175.069 106.107C175.478 105.819 175.122 104.856 175.41 104.447C175.775 104.083 176.171 103.751 176.592 103.454V102.446H177.881C178.745 101.809 179.336 102.969 179.761 101.407C177.896 101.726 176.827 102.408 175.637 101.195C173.954 99.4819 175.395 99.0726 176.888 97.875C174.151 95.9193 170.126 101.453 173.477 101.945C172.848 102.703 171.157 105.773 170.225 105.97C168.368 106.372 168.709 103.787 168.459 102.529C167.216 103.022 166.374 103.636 165.533 103.105C164.563 102.499 164.593 100.877 164.873 100.376C165.45 99.3531 168.087 99.0044 169.088 98.2085C170.089 97.4126 170.604 95.7677 171.756 95.0325C175.599 92.5159 183.202 93.4407 186.711 96.1316C185.112 97.1018 183.119 96.4651 181.36 96.2604C182.391 97.6248 183.831 99.2924 185.703 98.7088C185.938 98.633 186.378 97.4353 186.818 97.1549C187.826 96.4954 189.562 96.1922 190.714 95.7829C194.572 94.4261 197.536 94.3958 201.599 95.1386C199.62 89.8326 202.819 92.8646 206.495 92.2051C208.254 91.8943 209.868 90.5072 211.566 89.969C213.508 89.4744 215.477 89.0947 217.464 88.832Z" fill="black"/>
<path d="M161.038 109.503L156.611 110.473C157.096 109.76 158.415 108.495 158.491 107.706C158.643 106.031 157.733 106.903 157.46 106.281C156.202 103.689 156.884 103.606 159.226 102.302C159.545 103.583 159.636 105.387 160.28 106.577C160.924 107.767 162.865 108.32 161.038 109.503Z" fill="black"/>
<path d="M157.035 106.41C155.747 108.623 156.8 108.6 153.791 109.085C154.564 107.297 154.125 105.265 157.035 106.41Z" fill="black"/>
<path d="M195.322 93.395C190.084 91.8108 198.301 89.5065 199.331 89.2488C197.194 89.2488 194.215 88.8167 192.509 90.4919C190.637 92.349 192.858 94.4411 195.322 93.395Z" fill="black"/>
<path d="M171.202 89.2488L173.097 87.7328C171.419 87.0407 169.579 86.8384 167.791 87.1491L171.202 89.2488Z" fill="black"/>
<path d="M172.256 86.5884C173.651 88.1044 175.546 87.3464 177.403 87.1114C175.682 86.8688 173.992 86.7021 172.256 86.5884Z" fill="black"/>
<path d="M259.994 125.155C260.417 126.035 260.972 126.845 261.639 127.558C262.397 124.261 264.459 125.944 266.619 123.942C267.786 122.866 267.703 120.592 266.149 119.053C263.966 116.878 265.709 120.228 264.838 121.767C263.868 123.435 261.245 123.51 259.994 125.155Z" fill="black"/>
<path d="M264.392 118.052L265.066 117.802C264.96 117.552 264.846 117.302 264.733 117.044C265.976 117.499 267.219 117.492 267.598 116.135L263.467 114.429C264.619 116.013 262.845 116.862 264.392 118.052Z" fill="black"/>
<path d="M263.172 113.823H264.225C262.678 111.358 260.928 109.026 258.995 106.85C258.32 108.404 262.156 112.262 263.172 113.823Z" fill="black"/>
<path d="M256.129 132.788C254.924 133.326 254.977 134.539 255.818 135.555L256.129 132.788Z" fill="black"/>
<path d="M246.995 137.602H248.283C247.889 138.807 248.056 138.648 246.82 138.792L246.995 137.602Z" fill="black"/>
<path d="M236.701 150.252C241.151 152.125 245.502 156.089 245.502 160.796C243.19 160.614 241.522 157.658 240.567 155.93C239.612 154.202 237.164 151.897 236.701 150.252Z" fill="black"/>
<path d="M249.845 154.209L248.541 153.921C247.275 157.416 251.376 160.743 254.067 158.151C255.31 156.953 255.052 154.732 255.31 153.315C255.674 151.337 256.432 150.654 254.484 149.146L249.845 154.209Z" fill="black"/>
<path d="M254.355 148.562C255.303 147.418 256.629 146.372 256.629 144.825C255.879 146.099 255.113 147.319 254.355 148.562Z" fill="black"/>
<path d="M257.607 144.166C256.091 142.051 256.19 141.362 256.379 138.792C258.221 139.004 257.289 141.581 258.403 142.893C260.01 144.78 261.973 144.765 262.102 147.782C262.178 149.601 261.177 151.2 259.146 149.237C257.804 147.941 258.699 145.788 257.607 144.166Z" fill="black"/>
<path d="M261.23 154.247C259.456 155.187 257.743 153.732 256.637 155.831C258.153 154.725 259.343 155.21 261.018 155.521C261.137 155.106 261.208 154.678 261.23 154.247Z" fill="black"/>
<path d="M259.547 156.074C257.819 157.325 256.902 155.665 256.205 157.954C255.924 158.871 256.379 160.827 257.395 160.797C257.357 159.705 256.955 158.523 257.834 157.818C257.614 159.137 258.077 159.97 259.547 159.44L258.319 157.166C258.88 157.226 259.487 156.931 260.048 156.999L259.547 156.074Z" fill="black"/>
<path d="M252.544 162.676C250.869 162.236 246.874 160.319 245.502 161.554C247.23 162.32 251.119 164.291 252.544 162.676Z" fill="black"/>
<path d="M263.845 153.254C263.417 153.675 263.143 154.227 263.066 154.822C262.989 155.417 263.114 156.021 263.42 156.537C263.705 156.045 263.89 155.502 263.963 154.938C264.036 154.375 263.996 153.802 263.845 153.254Z" fill="black"/>
<path d="M263.526 158.227C263.731 159.22 264.815 158.985 265.952 159.098C265.725 158.014 264.701 157.969 263.526 158.227Z" fill="black"/>
<path d="M262.367 158.227L262.829 158.666C262.547 158.776 262.233 158.776 261.95 158.666L262.367 158.227Z" fill="black"/>
<path d="M266.119 156.537C266.119 158.811 268.317 159.5 269.909 160.221C271.501 160.941 273.335 161.668 270.834 163.298C272.039 163.124 273.07 163.92 274.018 163.836C274.522 163.873 275.029 163.873 275.534 163.836C275.928 163.745 276.132 162.426 276.526 162.419C277.686 162.419 277.535 162.851 278.566 163.594C279.496 164.407 280.613 164.977 281.817 165.254C280.415 163.556 278.869 160.827 277.156 159.523C276.398 158.947 273.184 157.477 272.153 157.454C270.925 157.454 270.561 157.924 269.379 158.818C268.924 157.295 268.226 155.195 266.119 156.537Z" fill="black"/>
<path d="M279.574 160.266C280.908 161.259 284.88 160.955 283.622 158.818C282.47 160.432 281.462 160.266 279.574 160.266Z" fill="black"/>
<path d="M266.673 165.663C266.104 166.375 264.747 168.846 263.929 169.112C262.655 169.513 262.163 168.285 261.17 168.467C258.994 168.877 256.675 172.72 254.787 173.826C251.513 175.736 249.777 175.213 249.307 179.443C249.14 180.997 249.944 182.801 249.58 184.317C249.246 185.719 247.306 186.356 249.807 187.137C252.18 187.895 256.97 185.166 259.479 184.696C260.828 184.438 261.435 183.938 262.777 184.696C263.853 185.325 263.891 186.5 264.618 187.561C269.098 194.118 276.746 187.607 279.362 182.809C281.128 179.595 280.256 176.98 278.278 174.107C277.429 172.879 276.936 172.591 276.375 171.204C275.678 169.475 275.443 167.414 274.988 165.632L272.009 171.696C269.197 169.612 268.219 169.794 269.879 166.769L266.673 165.663Z" fill="black"/>
<path d="M267.741 192.064L271.281 192.284C270.243 193.648 269.576 195.528 267.491 194.944L267.741 192.064Z" fill="black"/>
<path d="M280.953 196.718C283.667 198.15 283.697 197.642 286.259 195.96C287.639 195.05 291.201 193.898 289.291 192.048L280.953 196.718Z" fill="black"/>
<path d="M290.003 192.064C290.262 192.465 290.565 192.836 290.905 193.171C291.663 192.564 294.907 190.699 295.028 189.858C295.15 189.017 293.217 187.357 292.588 186.583L290.003 192.064Z" fill="black"/>
<path d="M302.556 171.021C302.112 171.214 301.688 171.451 301.29 171.726C302.442 172.575 303.822 172.477 302.556 171.021Z" fill="black"/>
<path d="M289.776 174.008C289.776 174.008 293.309 176.722 293.028 175.881C292.672 174.827 290.822 173.933 289.776 174.008Z" fill="black"/>
<path d="M253.567 163.01C254.053 164.761 260.139 163.404 261.951 163.01H253.567Z" fill="black"/>
<path d="M256.637 164.336C257.016 165.185 259.04 166.102 259.585 165.003L256.637 164.336Z" fill="black"/>
<path d="M199.453 166.663C197.724 168.225 195.549 169.528 195.033 171.734C194.761 172.886 193.927 177.707 194.943 178.45C197.292 180.178 198.081 174.834 198.535 173.576C199.559 170.718 200.112 169.597 199.453 166.663Z" fill="black"/>
<path d="M152.024 96.5787C153.768 97.0486 154.601 96.5029 156.178 95.8207C155.314 95.0551 149.773 94.714 152.024 96.5787Z" fill="black"/>
<path d="M106.674 150.723C105.211 153.148 103.839 155.104 103.339 157.833C102.672 161.471 103.634 162.381 105.56 165.663C106.077 166.797 106.731 167.864 107.508 168.839C108.63 169.984 110.54 170.4 111.715 171.537C113.488 173.311 113.079 174.918 113.231 177.601C113.595 183.309 113.36 189.04 115.239 194.49C116.187 197.241 116.71 199.523 118.605 201.698C121.319 204.821 122.312 204.912 126.397 204.912C123.07 202.282 121.682 201.88 121.607 197.878C121.531 194.194 121.22 193.133 123.494 190.298C127.769 184.992 133.689 179.686 135.971 173.357C136.719 171.28 137.464 169.203 138.207 167.126C138.639 165.928 140.594 162.631 140.276 161.365C139.829 159.599 133.826 158.272 131.696 157.469C130.794 157.12 128.868 156.772 128.224 156.082C127.011 154.793 127.42 152.186 126.283 150.829C124.767 149.002 118.613 146.887 116.217 146.19C114.497 145.69 113.867 145.765 111.897 146.046C110.161 146.288 108.251 147.198 106.75 147.403C105.468 147.406 104.193 147.23 102.96 146.88C100.807 145.758 101.815 143.514 102.118 141.763L97.8964 141.271L100.17 135.965C98.3891 136.472 97.9646 137.185 96.6836 137.844C95.8498 138.269 94.0836 139.277 93.0603 138.746C90.7863 137.564 91.1805 132.682 92.5297 130.909C93.6667 129.393 97.8812 128.324 100.057 128.104C104.377 127.672 104.203 129.62 105.401 132.97C107.023 130.916 105.181 128.764 106.159 126.831C106.97 125.269 110.252 124.246 111.563 122.912C115.27 119.167 116.718 116.166 121.955 114.324V115.43L126.45 113.657H123.244C123.345 112.775 123.677 111.936 124.207 111.223L120.833 111.724C123.668 110.208 128.027 110.761 130.437 109.23C132.999 107.6 129.808 103.568 128.868 101.536L125.776 103.363C124.616 101.703 126.769 101.263 124.063 100.248C121.789 99.4062 121.447 100.248 120.227 101.642C119.007 103.037 115.679 109.624 113.632 109.616C114.231 107.1 114.974 106.797 112.988 105.69C111.684 104.932 107.333 105.281 107.963 102.658C108.395 100.862 115.99 97.8826 117.908 96.7911C117.559 97.4278 117.483 98.1934 117.15 98.8377L120.811 98.7846L118.537 96.7911C121.394 96.4348 121.91 96.6395 123.32 94.2442C121.455 93.8804 120.189 95.0022 118.711 95.9042C119.105 93.8576 116.816 94.555 115.315 94.5322L104.991 94.3731C102.315 94.3731 99.5715 94.1153 96.9034 94.2518C94.9098 94.3579 92.886 95.1159 90.9076 95.1007C85.8972 95.1007 82.4786 92.9404 77.4683 94.1078C72.1623 95.3357 69.1303 97.7689 64.6808 100.831C65.219 101.46 65.7647 102.089 66.3105 102.711L62.5205 105.372C66.4697 104.045 71.9349 101.021 76.0432 101.225C78.4309 101.347 80.9778 102.074 81.5766 103.833C82.1754 105.591 81.7661 108.707 81.2583 110.412C80.1061 114.293 74.368 120.122 77.0817 124.519C77.4304 125.087 78.5977 125.155 78.9767 125.762C79.621 126.785 79.0601 129.021 79.3405 130.211C79.6892 131.727 80.8565 134.903 82.8197 134.812C81.5387 131.917 80.6746 129.885 80.4017 126.793C82.6757 127.422 84.8891 132.857 85.306 134.721C85.4879 135.54 85.1089 136.692 85.4348 137.344C85.8745 138.223 89.0278 139.967 89.8767 140.323C91.0592 140.816 92.6055 140.323 93.7274 140.846C94.5612 141.217 95.9256 142.764 96.7594 143.355C97.3809 143.787 98.1617 143.696 98.715 144.181C99.2683 144.666 99.473 145.773 100.011 146.372C100.974 147.403 102.611 148.039 103.885 148.76C104.605 145.614 106.31 149.843 106.674 150.723Z" fill="black"/>
<path d="M101.982 135.487C105.067 134.297 106.887 137.897 109.964 137.314C106.659 135.601 105.469 134.16 101.982 135.487Z" fill="black"/>
<path d="M110.669 137.715C112.185 137.875 114.277 137.488 114.717 139.102C112.89 139.428 111.351 139.959 109.661 138.936C110.23 138.936 110.836 138.708 111.405 138.686L110.669 137.715Z" fill="black"/>
<path d="M106.591 138.686C107.14 138.774 107.684 138.893 108.221 139.042C107.708 139.32 107.16 139.526 106.591 139.656V138.686Z" fill="black"/>
<path d="M115.526 138.686C115.716 138.956 115.993 139.152 116.311 139.24C116.629 139.329 116.968 139.304 117.27 139.171C116.732 139.011 116.118 138.814 115.526 138.686Z" fill="black"/>
<path d="M130.203 109.585L127.383 112.284L132.272 113.504C132.204 112.799 132.363 111.405 132.014 110.76C131.597 109.957 130.043 111.48 130.203 109.585Z" fill="black"/>
<path d="M127.382 95.8204L122.554 97.9731C123.956 98.4734 127.102 100.3 128.519 100.08C129.936 99.8605 132.233 97.3061 133.408 96.4268C131.892 95.0093 129.762 92.1365 127.806 91.4467C126.475 91.0434 125.066 90.9707 123.7 91.2348C122.334 91.499 121.054 92.0921 119.969 92.9627C120.499 93.4099 121.273 94.4105 121.94 94.6227C122.402 94.7743 123.213 93.9254 123.698 94.0088C125.07 94.2437 126.927 94.4029 127.382 95.8204Z" fill="black"/>
<path d="M125.76 95.1533C123.608 95.7749 124.911 96.4419 126.382 95.6233L125.76 95.1533Z" fill="black"/>
<path d="M116.149 95.1533C112.851 92.8793 119.605 90.3931 121.546 90.3931C120.553 90.9691 118.339 91.765 117.832 92.6671C117.172 93.8874 118.779 95.8961 116.149 95.1533Z" fill="black"/>
<path d="M102.095 95.1539C102.095 94.2443 103.384 92.7131 103.831 91.8869C102.52 92.2356 100.587 93.4635 100.041 91.8869C102.421 91.0834 103.71 90.4467 106.06 90.8863C108.803 91.4018 109.599 91.9248 112.404 91.4472C111.896 92.7358 111.259 93.7667 111.646 95.1539H102.095Z" fill="black"/>
<path d="M105.916 89.4537C109.335 91.0758 111.222 90.5755 115.012 90.1435C113.723 89.8554 111.98 88.8852 110.79 88.7336C109.365 88.5517 107.364 89.249 105.916 89.4537Z" fill="black"/>
<path d="M115.702 90.8405C114.952 90.975 114.217 91.1779 113.504 91.4469C113.727 91.9372 114.032 92.3858 114.406 92.7734L117.552 90.8405C116.936 90.8064 116.318 90.8064 115.702 90.8405Z" fill="black"/>
<path d="M116.877 89.567C118.347 90.5221 122.645 90.0749 124.411 90.2037C126.845 90.3857 127.322 90.2037 129.505 89.1198C133.515 87.1035 137.586 86.4365 142.012 85.4662C137.411 85.4662 132.439 84.9281 127.883 85.4662C125.412 85.7619 117.036 86.6487 116.877 89.567Z" fill="black"/>
<path d="M134.772 89.1354C138.722 87.915 141.989 86.9599 146.142 86.6871C150.191 86.4015 154.259 86.5667 158.27 87.1798C156.398 89.0823 154.306 92.1977 151.896 93.3499C150.152 94.1837 147.765 93.8198 146.021 94.6536C144.672 95.3055 143.444 96.8291 142.315 97.7993C139.464 100.278 138.108 97.5189 138.6 94.5778C138.797 93.365 140.313 91.2654 138.964 90.0298C138.002 89.2491 135.849 90.0526 134.772 89.1354Z" fill="black"/>
</g>
<path d="M161.856 243.357C161.655 243.357 161.462 243.277 161.32 243.135C161.178 242.993 161.098 242.8 161.098 242.599V232.426C161.098 232.225 161.178 232.033 161.32 231.89C161.462 231.748 161.655 231.668 161.856 231.668C162.057 231.668 162.249 231.748 162.392 231.89C162.534 232.033 162.614 232.225 162.614 232.426V242.599C162.614 242.8 162.534 242.993 162.392 243.135C162.249 243.277 162.057 243.357 161.856 243.357Z" fill="#12733C"/>
<path d="M183.58 242.599C183.58 243.827 173.855 244.82 161.856 244.82C149.857 244.82 140.124 243.827 140.124 242.599C140.124 241.371 149.857 238.309 161.856 238.309C173.855 238.309 183.58 241.371 183.58 242.599Z" fill="#12733C"/>
</svg>
