<svg width="235" height="156" viewBox="0 0 235 156" fill="none" xmlns="http://www.w3.org/2000/svg">
<path d="M135.795 27.2362L120.067 5.48828L104.337 27.2362H110.808V51.3965H129.327V27.2362H135.795Z" fill="#12733C" stroke="#263238" stroke-linecap="round" stroke-linejoin="round"/>
<path d="M122.542 64.4047C131.382 62.976 137.39 54.6514 135.962 45.8112C134.533 36.9709 126.208 30.9626 117.368 32.3912C108.528 33.8199 102.519 42.1445 103.948 50.9847C105.377 59.825 113.701 65.8333 122.542 64.4047Z" fill="white" stroke="#263238" stroke-linecap="round" stroke-linejoin="round"/>
<path d="M132.303 54.6237C135.74 47.8075 133.001 39.4955 126.184 36.0584C119.368 32.6212 111.056 35.3605 107.619 42.1767C104.182 48.9929 106.921 57.3049 113.737 60.7421C120.554 64.1792 128.866 61.4399 132.303 54.6237Z" fill="white" stroke="#263238" stroke-linecap="round" stroke-linejoin="round"/>
<path d="M124.572 50.4695C124.572 46.851 119.445 46.7737 119.445 45.2618C119.445 44.4689 119.862 44.2303 120.718 44.2303C121.454 44.2303 122.062 44.5461 122.785 45.1845L124.465 43.2358C123.684 42.3523 122.626 41.76 121.464 41.5559V39.54H119.247V41.6433C117.332 42.0565 116.186 43.4206 116.186 45.4298C116.186 48.9105 121.313 49.1255 121.313 50.7181C121.313 51.4942 120.917 51.8302 119.922 51.8302C119.089 51.8302 118.242 51.5144 117.181 50.7181L115.709 53.0229C116.717 53.8564 117.947 54.3783 119.247 54.5247V56.5205H121.474V54.3836C123.547 53.8797 124.572 52.3946 124.572 50.4695Z" fill="#12733C" stroke="#263238" stroke-linecap="round" stroke-linejoin="round"/>
<path d="M39.7202 36.7163C45.4568 35.6759 49.2638 30.182 48.2234 24.4454C47.1829 18.7088 41.6891 14.9018 35.9525 15.9423C30.2159 16.9827 26.4089 22.4766 27.4493 28.2132C28.4898 33.9498 33.9837 37.7568 39.7202 36.7163Z" fill="white" stroke="#263238" stroke-linecap="round" stroke-linejoin="round"/>
<path d="M40.82 16.2119L37.8398 26.3316H48.3963C48.3953 24.053 47.6567 21.8359 46.2911 20.0118C44.9254 18.1877 43.0061 16.8547 40.82 16.2119Z" fill="#12733C" stroke="#263238" stroke-linecap="round" stroke-linejoin="round"/>
<path d="M44.3945 19.6733L48.5842 14.7344H52.1792" stroke="#263238" stroke-width="0.5" stroke-linecap="round" stroke-linejoin="round"/>
<path d="M54.7256 14.8818H60.1147" stroke="#263238" stroke-width="0.5" stroke-linecap="round" stroke-linejoin="round"/>
<path d="M54.7256 16.229H60.1147" stroke="#263238" stroke-width="0.5" stroke-linecap="round" stroke-linejoin="round"/>
<path d="M54.7256 17.5767H60.1147" stroke="#263238" stroke-width="0.5" stroke-linecap="round" stroke-linejoin="round"/>
<path d="M54.7256 18.9233H60.1147" stroke="#263238" stroke-width="0.5" stroke-linecap="round" stroke-linejoin="round"/>
<path d="M27.7398 48.0493H24.6689V57.2115H27.7398V48.0493Z" fill="#263238" stroke="#263238" stroke-width="0.5" stroke-linecap="round" stroke-linejoin="round"/>
<path d="M32.564 51.3457H29.4932V57.2119H32.564V51.3457Z" fill="#12733C" stroke="#263238" stroke-linecap="round" stroke-linejoin="round"/>
<path d="M37.3921 46.0435H34.3213V57.2114H37.3921V46.0435Z" fill="#263238" stroke="#263238" stroke-width="0.5" stroke-linecap="round" stroke-linejoin="round"/>
<path d="M42.2212 48.3555H39.1504V57.2153H42.2212V48.3555Z" fill="#12733C" stroke="#263238" stroke-linecap="round" stroke-linejoin="round"/>
<path d="M47.0464 46.3296H43.9756V57.212H47.0464V46.3296Z" fill="#263238" stroke="#263238" stroke-width="0.5" stroke-linecap="round" stroke-linejoin="round"/>
<path d="M51.8736 39.8818H48.8027V57.215H51.8736V39.8818Z" fill="#12733C" stroke="#263238" stroke-linecap="round" stroke-linejoin="round"/>
<path d="M55.3242 39.7007H57.1217" stroke="#263238" stroke-width="0.5" stroke-linecap="round" stroke-linejoin="round"/>
<path d="M55.3242 43.2017H57.1217" stroke="#263238" stroke-width="0.5" stroke-linecap="round" stroke-linejoin="round"/>
<path d="M55.3242 46.7061H57.1217" stroke="#263238" stroke-width="0.5" stroke-linecap="round" stroke-linejoin="round"/>
<path d="M55.3242 50.21H57.1217" stroke="#263238" stroke-width="0.5" stroke-linecap="round" stroke-linejoin="round"/>
<path d="M55.3242 53.7139H57.1217" stroke="#263238" stroke-width="0.5" stroke-linecap="round" stroke-linejoin="round"/>
<path d="M55.3242 57.2153H57.1217" stroke="#263238" stroke-width="0.5" stroke-linecap="round" stroke-linejoin="round"/>
<path d="M26.4258 44.673L31.1295 47.5187L36.0247 42.2774L40.8595 42.684L45.543 40.826L50.8448 33.8511" stroke="#263238" stroke-linecap="round" stroke-linejoin="round"/>
<path d="M27.0175 44.6665C27.0175 44.5487 26.9825 44.4336 26.917 44.3357C26.8515 44.2379 26.7585 44.1616 26.6496 44.1167C26.5407 44.0718 26.421 44.0602 26.3056 44.0835C26.1901 44.1067 26.0841 44.1636 26.0011 44.2472C25.9181 44.3307 25.8617 44.4369 25.8391 44.5525C25.8166 44.6681 25.8288 44.7878 25.8744 44.8964C25.9199 45.005 25.9966 45.0976 26.0949 45.1626C26.1931 45.2275 26.3084 45.2618 26.4262 45.2611C26.5041 45.2611 26.5813 45.2457 26.6532 45.2158C26.7252 45.1859 26.7905 45.142 26.8455 45.0868C26.9004 45.0315 26.9439 44.9659 26.9735 44.8938C27.003 44.8216 27.0179 44.7444 27.0175 44.6665Z" fill="#263238"/>
<path d="M31.7245 47.5185C31.7245 47.4009 31.6896 47.2859 31.6243 47.1881C31.559 47.0903 31.4661 47.0141 31.3574 46.9691C31.2488 46.9241 31.1292 46.9123 31.0138 46.9353C30.8985 46.9582 30.7925 47.0148 30.7093 47.098C30.6262 47.1812 30.5695 47.2871 30.5466 47.4025C30.5236 47.5178 30.5354 47.6374 30.5804 47.7461C30.6254 47.8547 30.7017 47.9476 30.7995 48.013C30.8972 48.0783 31.0122 48.1132 31.1298 48.1132C31.2081 48.1136 31.2856 48.0986 31.3579 48.0688C31.4303 48.0391 31.496 47.9953 31.5513 47.94C31.6067 47.8847 31.6504 47.819 31.6802 47.7466C31.7099 47.6743 31.725 47.5967 31.7245 47.5185Z" fill="#263238"/>
<path d="M36.6161 42.2773C36.6161 42.1595 36.5812 42.0444 36.5157 41.9466C36.4502 41.8487 36.3571 41.7725 36.2482 41.7276C36.1394 41.6827 36.0196 41.6711 35.9042 41.6943C35.7887 41.7175 35.6828 41.7745 35.5997 41.858C35.5167 41.9415 35.4603 42.0478 35.4378 42.1633C35.4152 42.2789 35.4275 42.3986 35.473 42.5072C35.5185 42.6158 35.5953 42.7085 35.6935 42.7734C35.7917 42.8383 35.907 42.8726 36.0248 42.872C36.1027 42.872 36.1799 42.8566 36.2519 42.8266C36.3238 42.7967 36.3892 42.7529 36.4441 42.6976C36.4991 42.6423 36.5426 42.5767 36.5721 42.5046C36.6016 42.4325 36.6166 42.3552 36.6161 42.2773Z" fill="#263238"/>
<path d="M41.4511 42.6835C41.4511 42.5658 41.4161 42.4507 41.3506 42.3528C41.2851 42.2549 41.1921 42.1787 41.0832 42.1338C40.9743 42.0889 40.8546 42.0773 40.7391 42.1005C40.6237 42.1238 40.5177 42.1807 40.4347 42.2642C40.3517 42.3477 40.2953 42.454 40.2727 42.5696C40.2502 42.6852 40.2624 42.8049 40.308 42.9135C40.3535 43.0221 40.4302 43.1147 40.5285 43.1796C40.6267 43.2446 40.742 43.2789 40.8598 43.2782C40.9377 43.2782 41.0149 43.2628 41.0868 43.2329C41.1588 43.203 41.2241 43.1591 41.2791 43.1038C41.334 43.0486 41.3775 42.983 41.407 42.9109C41.4366 42.8387 41.4515 42.7615 41.4511 42.6835Z" fill="#263238"/>
<path d="M46.1386 40.7324C46.1386 40.6148 46.1037 40.4998 46.0384 40.402C45.973 40.3042 45.8801 40.228 45.7715 40.183C45.6628 40.138 45.5432 40.1262 45.4279 40.1491C45.3125 40.1721 45.2066 40.2287 45.1234 40.3119C45.0402 40.395 44.9836 40.501 44.9606 40.6164C44.9377 40.7317 44.9495 40.8513 44.9945 40.96C45.0395 41.0686 45.1157 41.1615 45.2135 41.2268C45.3113 41.2922 45.4263 41.3271 45.5439 41.3271C45.7016 41.3271 45.8529 41.2644 45.9644 41.1529C46.0759 41.0414 46.1386 40.8901 46.1386 40.7324Z" fill="#263238"/>
<path d="M51.4364 33.8515C51.4364 33.7338 51.4015 33.6186 51.336 33.5208C51.2705 33.4229 51.1774 33.3467 51.0685 33.3018C50.9597 33.2569 50.8399 33.2453 50.7245 33.2685C50.609 33.2917 50.5031 33.3487 50.4201 33.4322C50.337 33.5157 50.2807 33.622 50.2581 33.7376C50.2355 33.8531 50.2478 33.9728 50.2933 34.0814C50.3388 34.19 50.4156 34.2827 50.5138 34.3476C50.6121 34.4125 50.7274 34.4469 50.8451 34.4462C51.0023 34.4453 51.1527 34.3823 51.2635 34.2708C51.3742 34.1594 51.4364 34.0087 51.4364 33.8515Z" fill="#263238"/>
<path d="M168.53 130.147H170.445V111.695H168.53V130.147Z" fill="#263238" stroke="#263238" stroke-linecap="round" stroke-linejoin="round"/>
<path d="M178.068 112.343L181.445 112.738L183.589 94.4107L180.211 94.0157L178.068 112.343Z" fill="#263238" stroke="#263238" stroke-linecap="round" stroke-linejoin="round"/>
<path d="M167.055 130.903V127.792H171.916V130.93L191.363 138.735V142.417H190.036V139.618L169.417 134.925L149.342 139.618V142.417H148.052V138.735L167.055 130.903Z" fill="#8C8C8C" stroke="#263238" stroke-linecap="round" stroke-linejoin="round"/>
<path d="M164.7 117.588H174.275V111.695H164.7V117.588Z" fill="#263238" stroke="#263238" stroke-linecap="round" stroke-linejoin="round"/>
<path d="M191.381 142.565C191.381 142.157 191.502 141.758 191.729 141.419C191.956 141.08 192.278 140.815 192.655 140.659C193.032 140.503 193.447 140.462 193.847 140.542C194.248 140.622 194.615 140.819 194.904 141.108C195.192 141.397 195.388 141.765 195.467 142.165C195.547 142.565 195.505 142.98 195.349 143.357C195.192 143.734 194.927 144.056 194.587 144.282C194.248 144.509 193.849 144.629 193.44 144.628C193.17 144.628 192.902 144.575 192.651 144.471C192.401 144.367 192.174 144.215 191.983 144.024C191.792 143.832 191.64 143.605 191.537 143.355C191.433 143.104 191.38 142.836 191.381 142.565Z" fill="#263238" stroke="#263238" stroke-linecap="round" stroke-linejoin="round"/>
<path d="M192.54 142.565C192.54 142.391 192.592 142.22 192.689 142.074C192.786 141.929 192.924 141.816 193.086 141.749C193.247 141.682 193.425 141.665 193.596 141.699C193.767 141.733 193.925 141.817 194.048 141.94C194.172 142.064 194.256 142.221 194.29 142.393C194.324 142.564 194.307 142.742 194.24 142.903C194.173 143.065 194.06 143.203 193.915 143.3C193.769 143.397 193.598 143.449 193.424 143.449C193.189 143.449 192.965 143.356 192.799 143.19C192.633 143.024 192.54 142.8 192.54 142.565Z" fill="white" stroke="#263238" stroke-linecap="round" stroke-linejoin="round"/>
<path d="M143.778 142.565C143.778 142.157 143.899 141.759 144.126 141.419C144.353 141.08 144.675 140.816 145.052 140.659C145.429 140.503 145.844 140.462 146.244 140.542C146.644 140.622 147.011 140.818 147.3 141.107C147.588 141.395 147.785 141.763 147.865 142.163C147.944 142.563 147.903 142.978 147.747 143.355C147.591 143.732 147.327 144.054 146.987 144.281C146.648 144.507 146.249 144.628 145.841 144.628C145.294 144.628 144.769 144.411 144.383 144.024C143.996 143.637 143.778 143.112 143.778 142.565Z" fill="#263238" stroke="#263238" stroke-linecap="round" stroke-linejoin="round"/>
<path d="M145.842 143.449C146.33 143.449 146.725 143.053 146.725 142.565C146.725 142.077 146.33 141.682 145.842 141.682C145.354 141.682 144.958 142.077 144.958 142.565C144.958 143.053 145.354 143.449 145.842 143.449Z" fill="white" stroke="#263238" stroke-linecap="round" stroke-linejoin="round"/>
<path d="M168.602 142.524H170.221L171.034 131.474H167.792L168.602 142.524Z" fill="#8C8C8C" stroke="#263238" stroke-linecap="round" stroke-linejoin="round"/>
<path d="M168.677 144.732H170.297V140.166H168.677V144.732Z" fill="#263238" stroke="#263238" stroke-linecap="round" stroke-linejoin="round"/>
<path d="M182.242 103.215C183.187 103.307 184.14 103.211 185.048 102.934C185.956 102.656 186.801 102.203 187.533 101.599C188.266 100.995 188.872 100.253 189.318 99.4151C189.764 98.5769 190.04 97.6592 190.131 96.7142L192.389 73.2259C192.572 71.3178 191.99 69.4149 190.771 67.9355C189.552 66.4562 187.795 65.5216 185.887 65.3371C183.979 65.1545 182.076 65.7371 180.597 66.9567C179.118 68.1764 178.183 69.9334 177.999 71.8417L175.737 95.3602C175.562 97.2636 176.149 99.1588 177.368 100.631C178.587 102.103 180.339 103.032 182.242 103.215Z" fill="#8C8C8C" stroke="#263238" stroke-linecap="round" stroke-linejoin="round"/>
<path d="M180.529 103.051C182.437 103.234 184.34 102.653 185.819 101.434C187.298 100.214 188.233 98.4578 188.417 96.5498L190.679 73.0312C190.856 71.1258 190.272 69.2277 189.052 67.7527C187.833 66.2778 186.079 65.3463 184.174 65.1625C183.229 65.0717 182.276 65.1679 181.368 65.4457C180.46 65.7235 179.616 66.1773 178.884 66.7813C178.152 67.3854 177.545 68.1277 177.1 68.9661C176.655 69.8044 176.379 70.7222 176.289 71.6671L174.027 95.1655C173.844 97.0733 174.426 98.9758 175.645 100.455C176.864 101.933 178.621 102.867 180.529 103.051Z" fill="#8C8C8C" stroke="#263238" stroke-linecap="round" stroke-linejoin="round"/>
<path d="M149.078 113.543L182.797 114.43C182.984 114.436 183.17 114.405 183.345 114.339C183.521 114.272 183.681 114.172 183.817 114.044C183.954 113.916 184.063 113.762 184.14 113.591C184.217 113.42 184.259 113.236 184.265 113.049L184.436 107.653C184.442 107.466 184.411 107.28 184.345 107.105C184.279 106.93 184.179 106.769 184.05 106.633C183.922 106.497 183.768 106.387 183.598 106.31C183.427 106.233 183.243 106.191 183.056 106.185L149.34 105.298C149.153 105.292 148.967 105.323 148.792 105.388C148.617 105.454 148.456 105.554 148.32 105.682C148.184 105.81 148.074 105.964 147.997 106.134C147.92 106.305 147.877 106.489 147.872 106.676L147.704 112.075C147.692 112.452 147.83 112.818 148.088 113.093C148.345 113.368 148.701 113.53 149.078 113.543Z" fill="#8C8C8C" stroke="#263238" stroke-linecap="round" stroke-linejoin="round"/>
<path d="M163.176 113.804L182.801 114.424C183.587 114.449 184.245 113.832 184.27 113.045L184.44 107.649C184.465 106.863 183.848 106.205 183.061 106.18L163.436 105.56C162.65 105.535 161.992 106.152 161.968 106.939L161.797 112.335C161.772 113.122 162.39 113.779 163.176 113.804Z" fill="#8C8C8C" stroke="#263238" stroke-linecap="round" stroke-linejoin="round"/>
<path d="M146.83 136.632L146.665 137.875C146.665 137.875 145.173 140.858 144.592 141.356C144.011 141.853 140.365 143.425 139.704 143.674C139.042 143.922 140.201 144.682 141.777 144.752C143.352 144.823 146.252 144.836 147.246 144.588C148.241 144.339 150.146 142.928 150.562 142.847L150.898 143.922C150.898 143.922 152.723 143.25 153.385 143.096C154.047 142.941 155.125 142.088 155.125 142.088C154.748 140.93 154.306 139.795 153.801 138.688C153.495 138.132 153.103 137.629 152.639 137.196L151.399 135.718L146.83 136.632Z" fill="#263238" stroke="#263238" stroke-linecap="round" stroke-linejoin="round"/>
<path d="M156.859 89.2852L154.124 90.9415L148.157 92.6819C148.157 92.6819 129.262 96.1627 128.183 97.4159C127.105 98.6691 127.511 99.7375 128.432 101.313C129.352 102.889 145.352 137.791 145.352 137.791L151.984 136.463L140.876 103.044C140.876 103.044 161.764 107.27 165.403 106.605C169.042 105.94 173.692 102.049 174.518 99.0655C175.345 96.082 171.535 91.338 171.535 91.338L156.859 89.2852Z" fill="#12733C" stroke="#263238" stroke-linecap="round" stroke-linejoin="round"/>
<path d="M136.176 99.8022C136.176 99.8022 140.352 101.818 141.101 104.086" stroke="#263238" stroke-linecap="round" stroke-linejoin="round"/>
<path d="M178.489 61.6038L169.538 60.7739L156.445 90.4443L165.063 91.936L178.489 61.6038Z" fill="white" stroke="#263238" stroke-linecap="round" stroke-linejoin="round"/>
<path d="M169.703 63.5459C169.703 63.5459 156.61 90.0245 156.439 90.4444C156.268 90.8644 152.545 91.9362 151.715 92.1008C150.885 92.2655 148.15 92.6821 148.15 92.6821L152.794 89.5339L156.103 80.9967L152.071 78.9371C152.071 78.9371 159.53 67.749 161.186 63.9357C162.843 60.1223 163.495 59.1143 165.148 59.0337C166.801 58.9531 171.531 59.2823 171.531 59.2823L169.703 63.5459Z" fill="#12733C" stroke="#263238" stroke-linecap="round" stroke-linejoin="round"/>
<path d="M167.882 69.1436L168.046 71.052C168.046 71.052 159.344 86.6313 159.264 86.964C159.183 87.2966 159.936 89.6148 159.936 89.6148L163.003 87.3772L168.802 71.3846L170.378 70.4707V67.5107L167.882 69.1436Z" fill="#263238" stroke="#263238" stroke-linecap="round" stroke-linejoin="round"/>
<path d="M171.342 40.5042C171.342 40.5042 168.265 47.9563 167.583 50.214C166.901 52.4718 166.42 56.1609 166.575 56.5708C166.729 56.9807 167.583 58.4153 169.172 58.4859C170.761 58.5564 172.112 58.5531 172.112 58.5531L169.72 63.5457C169.72 63.5457 169.992 67.4431 170.392 67.5103C170.792 67.5775 176.819 62.9309 176.957 62.7226C177.094 62.5143 180.921 54.3231 180.921 54.3231C180.921 54.3231 184.342 52.6129 184.546 51.1078C184.613 50.6867 184.566 50.2554 184.41 49.8588C184.253 49.4623 183.993 49.115 183.656 48.8533V47.0054L185.161 42.4932C185.161 42.4932 181.402 40.0339 177.229 39.0058C173.056 37.9777 172.169 38.6698 172.169 38.6698L171.342 40.5042Z" fill="white" stroke="#263238" stroke-linecap="round" stroke-linejoin="round"/>
<path d="M178.248 36.3352C178.248 36.3352 172.096 34.6923 169.361 37.0878C166.626 39.4833 173.736 43.3236 176.061 43.6596C178.386 43.9955 181.258 43.5218 180.573 44.14C179.887 44.7582 178.386 45.7124 179.138 46.3272C179.61 46.7066 180.142 47.0062 180.711 47.2142C180.711 47.2142 177.499 54.2698 176.951 55.0761C176.403 55.8825 175.379 55.8287 174.764 55.6238C174.149 55.4188 171.209 53.5743 170.252 53.2316C169.294 52.8889 167.517 51.8642 167.107 52.9595C166.697 54.0548 165.669 58.7014 167.174 59.7261C168.679 60.7508 175.993 58.1537 177.089 57.4011C178.184 56.6485 178.523 55.2811 178.728 55.009C178.933 54.7368 181.873 49.8819 182.145 49.5392C182.417 49.1965 183.65 48.8672 183.65 48.8672C183.65 48.8672 186.113 43.9418 186.318 42.0301C186.523 40.1183 180.096 36.268 178.248 36.3352Z" fill="#263238" stroke="#263238" stroke-linecap="round" stroke-linejoin="round"/>
<path d="M171.822 45.8359L171.685 48.8598C171.685 48.8598 168.473 52.4816 168.473 52.8915C168.473 53.3014 172.299 52.8243 172.299 52.8243" stroke="#263238" stroke-linecap="round" stroke-linejoin="round"/>
<path d="M171.343 45.1541C171.225 44.925 171.031 44.7445 170.794 44.6444C170.557 44.5442 170.292 44.5308 170.046 44.6065" stroke="#263238" stroke-linecap="round" stroke-linejoin="round"/>
<path d="M174.216 46.861C174.216 46.861 176.198 46.656 176.813 48.1612" stroke="#263238" stroke-linecap="round" stroke-linejoin="round"/>
<path d="M168.87 54.4512C168.87 54.4512 170.647 55.5465 171.81 55.5465" stroke="white" stroke-linecap="round" stroke-linejoin="round"/>
<path d="M174.891 49.825C174.703 50.1979 174.36 50.3995 174.125 50.2819C173.89 50.1643 173.849 49.7645 174.038 49.3949C174.226 49.0253 174.568 48.8204 174.804 48.938C175.039 49.0556 175.079 49.4554 174.891 49.825Z" fill="#263238"/>
<path d="M170.611 48.1618C170.426 48.5314 170.08 48.7363 169.845 48.6154C169.61 48.4944 169.569 48.1013 169.757 47.7284C169.945 47.3555 170.288 47.1539 170.523 47.2748C170.759 47.3958 170.799 47.7889 170.611 48.1618Z" fill="#263238"/>
<path d="M140.946 133.86L140.365 137.341L139.122 137.677C139.122 137.677 137.959 139.078 137.714 139.414C137.469 139.75 134.398 141.98 133.571 142.397C132.745 142.814 130.668 142.975 130.752 143.556C130.836 144.137 135.228 144.635 138.047 144.715C140.865 144.796 142.438 143.889 142.438 143.889L142.686 144.467L145.586 144.218C145.586 144.218 145.421 141.483 145.505 140.324C145.532 139.381 145.476 138.438 145.337 137.505L145.173 135.103L140.946 133.86Z" fill="#263238" stroke="#263238" stroke-linecap="round" stroke-linejoin="round"/>
<path d="M164.237 93.1797C164.237 93.1797 140.698 96.0792 140.201 96.6604C139.703 97.2417 140.117 114.397 140.117 114.397L137.382 134.475L145.835 137.062C145.835 137.062 148.489 120.132 149.4 115.559C150.022 112.159 150.465 108.728 150.727 105.282C150.727 105.282 163.739 108.265 168.198 105.779C172.656 103.293 171.759 100.225 171.759 100.225" fill="#12733C"/>
<path d="M164.237 93.1797C164.237 93.1797 140.698 96.0792 140.201 96.6604C139.703 97.2417 140.117 114.397 140.117 114.397L137.382 134.475L145.835 137.062C145.835 137.062 148.489 120.132 149.4 115.559C150.022 112.159 150.465 108.728 150.727 105.282C150.727 105.282 163.739 108.265 168.198 105.779C172.656 103.293 171.759 100.225 171.759 100.225" stroke="#263238" stroke-linecap="round" stroke-linejoin="round"/>
<path d="M140.567 113.724C140.567 113.724 141.639 108.906 141.851 106.333" stroke="#263238" stroke-linecap="round" stroke-linejoin="round"/>
<path d="M148.977 102.51C148.722 102.168 148.415 101.869 148.066 101.623" stroke="#263238" stroke-linecap="round" stroke-linejoin="round"/>
<path d="M150.726 105.281C150.726 105.281 150.249 104.347 149.624 103.403" stroke="#263238" stroke-linecap="round" stroke-linejoin="round"/>
<path d="M178.16 60.0278C178.16 60.0278 168.793 77.2569 166.804 81.6582C164.815 86.0595 162.151 92.1844 162.151 92.8463C162.151 93.5082 160.411 110.502 160.992 110.831C161.573 111.161 170.272 108.345 174.334 106.773C178.396 105.2 178.56 104.038 178.893 103.124C179.225 102.21 179.141 90.4441 179.141 90.4441C179.141 90.4441 187.595 66.4081 187.511 65.3329C187.427 64.2578 178.16 60.0278 178.16 60.0278Z" fill="#12733C" stroke="#263238" stroke-linecap="round" stroke-linejoin="round"/>
<path d="M171.04 77.459C169.505 78.9642 168.215 80.0863 168.215 80.0863" stroke="#263238" stroke-linecap="round" stroke-linejoin="round"/>
<path d="M181.142 61.9331C181.142 61.9331 177.248 69.5598 175.256 72.6273C174.273 74.0331 173.164 75.3466 171.943 76.5516" stroke="#263238" stroke-linecap="round" stroke-linejoin="round"/>
<path d="M168.685 60.334C168.685 60.334 164.654 67.0737 163.491 71.0517C162.329 75.0297 162.08 77.0994 162.08 77.0994" stroke="#263238" stroke-linecap="round" stroke-linejoin="round"/>
<path d="M166.556 69.9735L170.386 67.5107L170.534 73.2896" stroke="#263238" stroke-linecap="round" stroke-linejoin="round"/>
<path d="M174.726 95.8676L176.006 95.666" stroke="#263238" stroke-linecap="round" stroke-linejoin="round"/>
<path d="M175.59 94.1738L166.556 95.2523V97.1573L173.006 96.1393" stroke="#263238" stroke-linecap="round" stroke-linejoin="round"/>
<path d="M162.994 62.9275C162.994 62.9275 164.486 59.7793 165.232 59.6953C165.978 59.6113 167.634 59.6953 167.634 60.3673C167.634 61.0393 166.724 61.1132 166.724 61.1132H165.48L164.899 62.6049L162.994 62.9275Z" fill="white" stroke="#263238" stroke-linecap="round" stroke-linejoin="round"/>
<path d="M160.92 68.8951L161.502 65.663C161.502 65.663 161.75 62.8475 162.174 62.6795C162.597 62.5115 166.4 62.5989 166.4 62.5989C166.4 62.5989 166.484 65.9116 166.152 66.7415C165.819 67.5714 164.327 67.9006 164.327 67.9006C164.19 68.4175 163.996 68.9177 163.749 69.3924C163.501 69.7284 162.587 70.1383 162.587 70.1383L162.338 70.8102L160.185 69.3991L160.92 68.8951Z" fill="white" stroke="#263238" stroke-linecap="round" stroke-linejoin="round"/>
<path d="M164.318 67.9039L163.904 66.3281L165.48 66.2441" fill="white"/>
<path d="M164.318 67.9039L163.904 66.3281L165.48 66.2441" stroke="#263238" stroke-linecap="round" stroke-linejoin="round"/>
<path d="M160.091 68.6494L163.491 71.0517L162.164 72.4594L159.265 69.8085L160.091 68.6494Z" fill="white" stroke="#263238" stroke-linecap="round" stroke-linejoin="round"/>
<path d="M159.265 69.8086L163.159 72.7081L155.7 84.0642C154.818 84.2517 153.901 84.1936 153.049 83.8962C151.638 83.399 150.314 80.5835 150.314 80.2508C150.314 79.9182 159.265 69.8086 159.265 69.8086Z" fill="#12733C" stroke="#263238" stroke-linecap="round" stroke-linejoin="round"/>
<path d="M156.281 82.9858C156.281 82.9858 155.038 80.6642 154.954 80.0024C154.87 79.3405 154.789 78.0133 154.373 77.5161C153.956 77.0188 153.462 76.6862 153.297 75.9404C153.133 75.1945 152.384 75.5271 152.289 76.2763C152.195 77.0256 152.867 77.7681 152.867 77.7681C152.867 77.7681 150.798 77.0961 150.465 77.2708C150.132 77.4455 149.457 77.6841 149.635 78.2788C149.746 78.6436 149.886 78.9987 150.055 79.3405C150.055 79.3405 148.731 81.0808 148.731 81.9074C148.731 82.7339 149.642 84.0643 150.307 84.5616C150.972 85.0588 153.291 85.5695 153.291 85.5695L156.281 82.9858Z" fill="white" stroke="#263238" stroke-linecap="round" stroke-linejoin="round"/>
<path d="M180.192 65.9312L172.689 81.4937L154.372 82.5017C153.91 82.6136 153.488 82.8506 153.152 83.1866C152.816 83.5227 152.579 83.9448 152.467 84.4067C152.274 85.1649 152.19 85.9466 152.218 86.7283C152.218 86.7283 164.401 88.22 168.214 88.4687C172.027 88.7173 176.667 89.2145 177.249 88.6333C177.83 88.0521 184.707 73.7998 184.707 73.7998" fill="#12733C"/>
<path d="M180.192 65.9312L172.689 81.4937L154.372 82.5017C153.91 82.6136 153.488 82.8506 153.152 83.1866C152.816 83.5227 152.579 83.9448 152.467 84.4067C152.274 85.1649 152.19 85.9466 152.218 86.7283C152.218 86.7283 164.401 88.22 168.214 88.4687C172.027 88.7173 176.667 89.2145 177.249 88.6333C177.83 88.0521 184.707 73.7998 184.707 73.7998" stroke="#263238" stroke-linecap="round" stroke-linejoin="round"/>
<path d="M70.5547 111.698H68.6396V130.15H70.5547V111.698Z" fill="#263238" stroke="#263238" stroke-linecap="round" stroke-linejoin="round"/>
<path d="M58.8849 94.0191L55.5078 94.4141L57.651 112.741L61.0281 112.346L58.8849 94.0191Z" fill="#263238" stroke="#263238" stroke-linecap="round" stroke-linejoin="round"/>
<path d="M72.0279 130.903V127.792H67.1662V130.93L47.7197 138.734V142.417H49.0468V139.618L69.6659 134.924L89.7407 139.618V142.417H91.0309V138.734L72.0279 130.903Z" fill="#8C8C8C" stroke="#263238" stroke-linecap="round" stroke-linejoin="round"/>
<path d="M74.384 111.698H64.8086V117.591H74.384V111.698Z" fill="#263238" stroke="#263238" stroke-linecap="round" stroke-linejoin="round"/>
<path d="M47.7206 142.564C47.7206 142.156 47.5996 141.758 47.3729 141.418C47.1462 141.079 46.824 140.815 46.4471 140.658C46.0701 140.502 45.6554 140.462 45.2552 140.541C44.855 140.621 44.4874 140.817 44.1989 141.106C43.9104 141.394 43.714 141.762 43.6344 142.162C43.5548 142.562 43.5956 142.977 43.7518 143.354C43.9079 143.731 44.1723 144.053 44.5115 144.28C44.8508 144.506 45.2496 144.627 45.6576 144.627C46.2048 144.627 46.7295 144.41 47.1163 144.023C47.5032 143.636 47.7206 143.112 47.7206 142.564Z" fill="#263238" stroke="#263238" stroke-linecap="round" stroke-linejoin="round"/>
<path d="M46.5407 142.564C46.5407 142.39 46.4889 142.219 46.3918 142.073C46.2947 141.928 46.1567 141.815 45.9952 141.748C45.8338 141.681 45.6561 141.664 45.4847 141.698C45.3133 141.732 45.1558 141.816 45.0322 141.939C44.9087 142.063 44.8245 142.22 44.7904 142.392C44.7563 142.563 44.7738 142.741 44.8407 142.902C44.9076 143.064 45.0208 143.202 45.1661 143.299C45.3115 143.396 45.4823 143.448 45.6571 143.448C45.8914 143.448 46.1162 143.355 46.2819 143.189C46.4476 143.023 46.5407 142.799 46.5407 142.564Z" fill="white" stroke="#263238" stroke-linecap="round" stroke-linejoin="round"/>
<path d="M95.2909 142.564C95.2909 142.156 95.1699 141.758 94.9432 141.418C94.7165 141.079 94.3943 140.815 94.0174 140.658C93.6405 140.502 93.2257 140.462 92.8255 140.541C92.4253 140.621 92.0578 140.817 91.7693 141.106C91.4808 141.394 91.2843 141.762 91.2047 142.162C91.1251 142.562 91.1659 142.977 91.3221 143.354C91.4782 143.731 91.7426 144.053 92.0819 144.28C92.4211 144.506 92.8199 144.627 93.2279 144.627C93.7751 144.627 94.2998 144.41 94.6867 144.023C95.0735 143.636 95.2909 143.112 95.2909 142.564Z" fill="#263238" stroke="#263238" stroke-linecap="round" stroke-linejoin="round"/>
<path d="M93.2411 143.448C93.7291 143.448 94.1247 143.052 94.1247 142.564C94.1247 142.076 93.7291 141.681 93.2411 141.681C92.753 141.681 92.3574 142.076 92.3574 142.564C92.3574 143.052 92.753 143.448 93.2411 143.448Z" fill="white" stroke="#263238" stroke-linecap="round" stroke-linejoin="round"/>
<path d="M70.4789 142.524H68.8595L68.0498 131.474H71.292L70.4789 142.524Z" fill="#8C8C8C" stroke="#263238" stroke-linecap="round" stroke-linejoin="round"/>
<path d="M70.4065 140.166H68.7871V144.732H70.4065V140.166Z" fill="#263238" stroke="#263238" stroke-linecap="round" stroke-linejoin="round"/>
<path d="M56.8436 103.214C55.8987 103.306 54.9451 103.21 54.0372 102.933C53.1293 102.655 52.285 102.202 51.5524 101.598C50.8198 100.994 50.2133 100.252 49.7676 99.4141C49.3219 98.5759 49.0457 97.6581 48.9548 96.7132L46.6937 73.1946C46.6024 72.2497 46.6981 71.2961 46.9754 70.3882C47.2528 69.4803 47.7062 68.636 48.31 67.9034C48.9137 67.1708 49.6558 66.5644 50.494 66.1187C51.3322 65.673 52.2499 65.3968 53.1949 65.3058C55.1033 65.1233 57.0062 65.7058 58.4854 66.9255C59.9646 68.1451 60.8991 69.9021 61.0837 71.8104L63.3448 95.329C63.5283 97.2367 62.9464 99.1393 61.7272 100.618C60.508 102.097 58.7514 103.031 56.8436 103.214Z" fill="#8C8C8C" stroke="#263238" stroke-linecap="round" stroke-linejoin="round"/>
<path d="M58.5553 103.051C56.6472 103.234 54.7443 102.652 53.265 101.433C51.7856 100.214 50.851 98.4574 50.6665 96.5493L48.4054 73.0307C48.2275 71.1259 48.8119 69.2282 50.0304 67.7534C51.249 66.2785 53.0024 65.3467 54.9066 65.1621C56.8152 64.9786 58.7186 65.5609 60.198 66.7807C61.6774 68.0005 62.6117 69.758 62.7954 71.6667L65.0531 95.1617C65.2367 97.0693 64.6554 98.9717 63.437 100.451C62.2185 101.93 60.4627 102.865 58.5553 103.051Z" fill="#8C8C8C" stroke="#263238" stroke-linecap="round" stroke-linejoin="round"/>
<path d="M91.1718 113.543L56.2871 114.43C56.1 114.435 55.9136 114.404 55.7385 114.338C55.5634 114.272 55.4031 114.172 55.2668 114.043C55.1304 113.915 55.0207 113.761 54.9438 113.591C54.867 113.42 54.8245 113.236 54.8188 113.049L54.6374 107.653C54.6256 107.276 54.7641 106.909 55.0224 106.634C55.2807 106.358 55.6376 106.197 56.0149 106.185L90.9232 105.298C91.1101 105.291 91.2965 105.322 91.4715 105.388C91.6466 105.454 91.8069 105.554 91.9433 105.682C92.0797 105.81 92.1895 105.963 92.2664 106.134C92.3433 106.304 92.3858 106.488 92.3914 106.675L92.5628 112.074C92.5686 112.262 92.5372 112.45 92.4703 112.625C92.4034 112.801 92.3024 112.962 92.1731 113.098C92.0438 113.235 91.8887 113.344 91.7169 113.42C91.545 113.497 91.3598 113.538 91.1718 113.543Z" fill="#8C8C8C" stroke="#263238" stroke-linecap="round" stroke-linejoin="round"/>
<path d="M75.6571 105.563L56.0322 106.183C55.2459 106.208 54.6285 106.866 54.6534 107.652L54.8239 113.048C54.8488 113.835 55.5064 114.452 56.2928 114.427L75.9176 113.807C76.704 113.782 77.3213 113.125 77.2965 112.338L77.1259 106.942C77.1011 106.155 76.4435 105.538 75.6571 105.563Z" fill="#8C8C8C" stroke="#263238" stroke-linecap="round" stroke-linejoin="round"/>
<path d="M95.6272 102.553C95.6272 102.553 95.9262 108.318 96.7192 113.482C97.5121 118.646 98.8258 134.313 98.8258 134.313C99.2389 135.886 99.8014 137.416 100.506 138.882C100.976 139.856 101.577 140.76 102.293 141.57C102.293 141.57 104.877 144.154 104.776 144.55C104.675 144.947 103.056 144.906 101.467 144.607C99.8774 144.308 99.5515 143.935 98.6578 143.334C97.7641 142.733 95.7314 141.963 94.8377 141.654C93.944 141.345 93.6483 140.565 93.9473 139.672C94.2464 138.778 95.2409 136.692 95.2409 135.401C95.2409 134.111 94.4446 127.99 92.2674 123.914C90.0903 119.839 88.79 112.787 88.79 112.787L95.6272 102.553Z" fill="white" stroke="#263238" stroke-linecap="round" stroke-linejoin="round"/>
<path d="M96.1549 139.971C95.5233 139.481 94.932 138.963 94.428 138.476C94.2398 138.957 94.0651 139.38 93.9677 139.672C93.6687 140.566 93.9677 141.352 94.8581 141.654C95.7484 141.957 97.7844 142.73 98.6781 143.334C99.5718 143.939 99.8978 144.309 101.487 144.608C103.076 144.907 104.699 144.944 104.796 144.551C104.894 144.157 102.313 141.57 102.313 141.57L101.023 142.168C101.023 142.168 97.9424 141.362 96.1549 139.971Z" fill="#12733C" stroke="#263238" stroke-linecap="round" stroke-linejoin="round"/>
<path d="M57.5138 90.7133C57.5138 90.7133 56.6201 94.2142 57.1073 96.4249C57.5944 98.6357 60.9341 103.749 66.7129 104.972C72.4918 106.195 87.0162 105.795 87.0162 105.795C87.0162 105.795 83.5153 111.114 82.2117 117.518C81.3515 121.758 78.7141 127.691 78.3076 128.588C77.901 129.485 73.0965 131.111 73.2679 131.844C73.4392 132.576 74.0003 137.132 75.2199 139.007C76.4395 140.882 78.4756 141.695 79.2886 141.937C80.1017 142.179 80.2663 142.179 80.2663 141.366C80.2663 140.553 79.6952 139.414 79.6952 138.678C79.6952 137.942 79.6145 132.966 79.9404 132.328C80.2663 131.689 90.9236 114.887 92.5498 112.132C94.1759 109.377 96.7025 103.991 97.4349 103.097C98.1673 102.204 99.061 100.981 98.3286 99.4353C97.5962 97.8898 80.7804 92.7157 80.7804 92.7157L79.8968 89.5878L71.4973 89.1006L57.5138 90.7133Z" fill="white" stroke="#263238" stroke-linecap="round" stroke-linejoin="round"/>
<path d="M80.7818 92.7123L79.8981 89.5843L71.4986 89.0972L57.4984 90.7233C57.4984 90.7233 56.5845 94.2276 57.0918 96.435C57.8982 99.9258 60.9186 103.759 66.6975 104.982C72.4764 106.205 87.0008 105.805 87.0008 105.805C87.0008 105.805 88.3783 98.9212 91.0695 96.2367C87.8373 95.1347 80.7818 92.7123 80.7818 92.7123Z" fill="#263238" stroke="#263238" stroke-linecap="round" stroke-linejoin="round"/>
<path d="M87.0166 105.782C88.9549 105.268 90.836 104.559 92.6308 103.665L87.0166 105.782Z" fill="white"/>
<path d="M87.0166 105.782C88.9549 105.268 90.836 104.559 92.6308 103.665" stroke="#263238" stroke-linecap="round" stroke-linejoin="round"/>
<path d="M76.0273 135.738C75.4494 134.394 75.4863 131.706 75.5602 130.268C74.3306 130.876 73.1781 131.464 73.2621 131.83C73.4234 132.563 73.9946 137.119 75.2142 138.993C76.4338 140.868 78.4698 141.681 79.2829 141.923C80.096 142.165 80.2606 142.165 80.2606 141.352C80.2606 140.539 79.6928 139.403 79.6894 138.664C78.8383 138.556 77.9954 138.391 77.1662 138.17C77.1662 138.17 76.8403 137.609 76.0273 135.738Z" fill="#12733C" stroke="#263238" stroke-linecap="round" stroke-linejoin="round"/>
<path d="M74.8513 58.4824L72.3281 59.5408C72.3281 59.5408 74.3642 78.6009 74.2835 81.2887C74.2029 83.9766 74.0383 89.3522 74.0383 89.3522C74.0383 89.3522 77.5392 90.4106 79.8977 89.5975L79.7365 80.4017C79.7365 80.4017 81.4466 71.6092 80.7948 68.76C80.143 65.9109 78.107 60.8645 78.107 60.8645C78.107 60.8645 77.1494 58.5631 74.8513 58.4824Z" fill="white" stroke="#263238" stroke-linecap="round" stroke-linejoin="round"/>
<path d="M74.1257 66.7034L76.5717 62.9774L79.5787 67.3451C79.5787 67.3451 78.2784 61.2404 78.1138 60.8338C77.7239 60.0676 77.1342 59.4211 76.407 58.9624C75.4293 58.3106 74.287 58.2905 73.6386 58.23C72.9901 58.1695 72.335 59.5336 72.335 59.5336L74.1257 66.7034Z" fill="white" stroke="#263238" stroke-linecap="round" stroke-linejoin="round"/>
<path d="M72.9821 58.1831C72.9821 58.1831 64.801 59.9739 64.0988 60.4846C63.3966 60.9953 63.0909 62.6584 63.2656 63.2967C63.4403 63.9351 65.3117 77.7438 65.3117 77.7438L55.9043 91.4854C55.9043 91.4854 58.9752 94.0422 61.8511 94.5529C64.7271 95.0636 70.8621 94.2976 73.0359 93.4039L75.2097 92.5102C75.2097 92.5102 76.2176 75.8254 75.1459 69.2402C74.0741 62.655 72.9821 58.1831 72.9821 58.1831Z" fill="#12733C" stroke="#263238" stroke-linecap="round" stroke-linejoin="round"/>
<path d="M98.1045 79.4039L101.3 77.9995C101.3 77.9995 102.261 75.8895 102.388 75.698C102.516 75.5065 103.601 75.1873 104.112 74.7371C104.622 74.2869 105.328 73.5242 105.52 73.4604C105.711 73.3966 106.03 73.9711 105.52 74.7371C105.133 75.28 104.681 75.7742 104.176 76.2087L107.31 75.0597C107.31 75.0597 108.523 73.0136 108.842 73.9073C109.162 74.801 107.498 77.5526 107.119 78.4464C106.739 79.3401 106.349 79.7903 105.647 79.9179C104.945 80.0456 102.771 80.4286 102.324 80.4925C101.878 80.5563 99.1259 82.1522 99.1259 82.1522L98.1045 79.4039Z" fill="white" stroke="#263238" stroke-linecap="round" stroke-linejoin="round"/>
<path d="M102.539 78.7658C103.107 78.2854 103.762 77.8083 104.111 77.8083C104.817 77.8083 106.349 77.9359 106.349 77.9359C106.349 77.9359 107.246 75.8898 107.693 75.5841C108.14 75.2783 108.523 75.7118 108.14 76.3501" fill="white"/>
<path d="M102.539 78.7658C103.107 78.2854 103.762 77.8083 104.111 77.8083C104.817 77.8083 106.349 77.9359 106.349 77.9359C106.349 77.9359 107.246 75.8898 107.693 75.5841C108.14 75.2783 108.523 75.7118 108.14 76.3501" stroke="#263238" stroke-linecap="round" stroke-linejoin="round"/>
<path d="M77.2676 59.7192C77.2676 59.7192 79.3137 68.6025 79.2499 71.9254C79.186 75.2482 78.1579 76.9214 78.3528 78.0637C78.5477 79.2061 78.9912 92.6385 78.9912 92.6385L80.7819 92.7024C80.7819 92.7024 80.3351 87.5888 80.3989 86.6279C80.4627 85.667 81.1011 81.8334 81.1011 81.8334C81.1011 81.8334 84.2996 88.1633 84.7465 88.4825C85.1933 88.8016 100.023 82.4751 100.023 82.4751L98.9349 78.8298L87.6225 81.1312C87.6225 81.1312 85.3848 73.7161 85.0657 72.1169C84.7465 70.5176 84.4911 64.8967 83.5941 63.4889C82.697 62.0812 77.2676 59.7192 77.2676 59.7192Z" fill="#12733C" stroke="#263238" stroke-linecap="round" stroke-linejoin="round"/>
<path d="M81.0996 81.8335C81.0996 81.8335 81.4826 80.2376 82.1243 76.0177C82.5099 73.4983 82.5314 70.9366 82.1882 68.4111" stroke="#263238" stroke-linecap="round" stroke-linejoin="round"/>
<path d="M80.4008 64.6943C80.7066 66.9958 80.935 69.8382 80.5251 71.4139C80.0573 73.2025 79.4588 74.9543 78.7344 76.6552" stroke="#263238" stroke-linecap="round" stroke-linejoin="round"/>
<path d="M79.8369 61.1299C79.8369 61.1299 80.0284 62.0941 80.2401 63.4817" stroke="#263238" stroke-linecap="round" stroke-linejoin="round"/>
<path d="M73.7217 73.561C74.5515 75.6172 75.284 77.623 75.284 77.623" stroke="#263238" stroke-linecap="round" stroke-linejoin="round"/>
<path d="M69.8506 59.2046C69.8506 59.2046 71.3188 68.2189 72.4712 70.6481C72.7064 71.1419 72.9618 71.7266 73.2205 72.328" stroke="#263238" stroke-linecap="round" stroke-linejoin="round"/>
<path d="M88.0049 77.4888L90.4979 76.7833C90.4979 76.7833 92.0971 74.7372 92.4801 74.2265C92.8632 73.7158 93.7569 73.7158 94.3986 73.3328C95.0403 72.9498 95.8668 71.542 96.186 71.7974C96.5052 72.0527 96.186 73.2051 95.85 73.5243C95.422 73.8705 94.9732 74.1903 94.5061 74.4818C94.2507 74.6733 97.5098 73.9073 97.5098 73.9073C97.5098 73.9073 99.6197 72.0527 99.7474 72.5634C99.875 73.0741 98.7865 74.8648 98.7865 74.8648C98.7865 74.8648 97.2544 76.3331 96.485 76.9714C95.7156 77.6098 93.8644 77.8685 93.3537 77.9794C92.843 78.0902 91.9493 78.2347 91.9493 78.2347L88.1124 79.6391L88.0049 77.4888Z" fill="white" stroke="#263238" stroke-linecap="round" stroke-linejoin="round"/>
<path d="M98.2961 75.2412C98.2961 75.2412 96.9522 75.8796 96.25 76.1988L98.2961 75.2412Z" fill="white"/>
<path d="M98.2961 75.2412C98.2961 75.2412 96.9522 75.8796 96.25 76.1988" stroke="#263238" stroke-linecap="round" stroke-linejoin="round"/>
<path d="M94.5255 74.4814L93.373 74.7368" stroke="#263238" stroke-linecap="round" stroke-linejoin="round"/>
<path d="M65.5042 59.9741C65.5042 59.9741 61.7345 61.2508 61.1566 62.2117C60.5787 63.1726 62.6282 71.0312 64.1636 75.3788C65.6991 79.7264 69.7879 87.0104 70.2986 87.2658C70.8093 87.5211 84.1712 82.7939 87.2287 81.833C90.2861 80.8721 90.8068 80.3647 90.8068 80.3647L89.4629 76.9109L74.1254 79.6592L69.4217 64.8962" fill="#12733C"/>
<path d="M65.5042 59.9741C65.5042 59.9741 61.7345 61.2508 61.1566 62.2117C60.5787 63.1726 62.6282 71.0312 64.1636 75.3788C65.6991 79.7264 69.7879 87.0104 70.2986 87.2658C70.8093 87.5211 84.1712 82.7939 87.2287 81.833C90.2861 80.8721 90.8068 80.3647 90.8068 80.3647L89.4629 76.9109L74.1254 79.6592L69.4217 64.8962" stroke="#263238" stroke-linecap="round" stroke-linejoin="round"/>
<path d="M84.026 40.5071C84.026 40.5071 85.5178 41.5151 84.7618 42.6003C84.0058 43.6855 82.4099 43.7594 82.4099 43.7594L81.0156 41.5621C81.0156 41.5621 82.6754 39.5933 84.026 40.5071Z" fill="#263238" stroke="#263238" stroke-linecap="round" stroke-linejoin="round"/>
<path d="M82.4599 41.8181C82.4599 41.8181 84.7479 47.2475 84.6203 47.7145C84.4926 48.1815 83.4275 48.9106 83.9113 49.6195C84.3952 50.3284 85.813 51.7463 85.776 51.9445C85.7391 52.1427 84.0054 53.154 84.0054 53.154C84.0054 53.154 82.7925 57.5218 82.2986 58.1601C81.8047 58.7985 77.6352 58.0224 77.6352 58.0224L76.755 62.9142L71.8026 58.2979L69.9514 56.5508C69.9514 56.5508 68.2916 49.0987 71.8127 44.6201C75.3338 40.1415 82.4599 41.8181 82.4599 41.8181Z" fill="white" stroke="#263238" stroke-linecap="round" stroke-linejoin="round"/>
<path d="M82.1444 49.4679C82.1444 49.9248 81.9563 50.2944 81.7446 50.2911C81.5329 50.2877 81.3683 49.9114 81.3784 49.4511C81.3884 48.9908 81.5632 48.6246 81.7748 48.628C81.9865 48.6313 82.1511 49.0076 82.1444 49.4679Z" fill="#263238"/>
<path d="M82.1547 54.2457C81.7589 54.227 81.371 54.128 81.0146 53.9547C80.6583 53.7815 80.3409 53.5375 80.0817 53.2378C80.0817 53.2378 79.9574 55.2033 80.5688 55.3175C81.1803 55.4317 82.1547 54.2457 82.1547 54.2457Z" fill="#263238" stroke="#263238" stroke-linecap="round" stroke-linejoin="round"/>
<path d="M80.8691 47.6472C80.8691 47.6472 82.1425 46.5687 83.2815 47.832" stroke="#263238" stroke-linecap="round" stroke-linejoin="round"/>
<path d="M77.6356 58.0222L75.5693 57.5283L77.1249 60.4144L77.6356 58.0222Z" fill="#263238" stroke="#263238" stroke-linecap="round" stroke-linejoin="round"/>
<path d="M82.4613 41.8178C82.4613 41.8178 82.0111 43.2322 79.8104 45.0801C77.6098 46.928 75.6409 48.1039 75.6476 48.6146C75.6544 49.1253 75.9836 49.6024 75.5401 49.7267C75.1786 49.7729 74.8115 49.7109 74.4852 49.5486C74.4852 49.5486 73.4167 52.596 73.2555 54.7463C73.19 56.1655 73.4058 57.5836 73.8905 58.9191C73.8905 58.9191 69.1498 59.1745 66.4149 57.0981C63.6801 55.0218 62.9107 52.6699 63.213 50.6305C63.5154 48.5911 64.3822 42.1504 68.5887 38.9955C72.7952 35.8407 78.8227 35.9717 80.8688 37.2585C82.9149 38.5453 84.3966 39.4894 84.0203 40.5074C83.644 41.5255 82.4613 41.8178 82.4613 41.8178Z" fill="#263238" stroke="#263238" stroke-linecap="round" stroke-linejoin="round"/>
<path d="M72.5249 105.986C72.3995 105.987 72.2754 105.959 72.1621 105.906C71.9223 105.775 71.7385 105.561 71.6451 105.304C71.5517 105.048 71.5551 104.766 71.6547 104.511C73.1734 100.365 74.9137 92.9705 73.1297 90.7632C72.7131 90.4272 70.2033 89.7552 56.6835 91.1529L55.6991 91.2537C54.755 91.3343 53.9486 92.6984 53.7403 93.1688C53.6959 93.2888 53.6263 93.398 53.5362 93.489C53.446 93.5799 53.3375 93.6505 53.2178 93.696C53.0981 93.7416 52.9701 93.7609 52.8423 93.7528C52.7146 93.7448 52.59 93.7094 52.477 93.6492C52.2457 93.501 52.0756 93.2743 51.9979 93.0108C51.9201 92.7473 51.9399 92.4646 52.0537 92.2146C52.1847 91.9189 53.3976 89.3117 55.5546 89.1236L56.5121 89.0261C70.9189 87.5277 73.6807 88.2836 74.5206 89.3184C77.6923 93.2427 73.8487 104.102 73.3951 105.328C73.3361 105.514 73.2207 105.678 73.0648 105.796C72.9089 105.914 72.7203 105.98 72.5249 105.986Z" fill="white" stroke="#263238" stroke-linecap="round" stroke-linejoin="round"/>
<path d="M131.92 74.4146H109.843L104.736 91.7141H126.814L131.92 74.4146Z" fill="#D9D9D9" stroke="#263238" stroke-linecap="round" stroke-linejoin="round"/>
<path d="M88.5855 90.7671L88.3066 91.7146H126.813L127.096 90.7671H88.5855Z" fill="#D9D9D9" stroke="#263238" stroke-linecap="round" stroke-linejoin="round"/>
<path d="M105.054 90.7671L104.775 91.7146H126.812L127.095 90.7671H105.054Z" fill="#263238" stroke="#263238" stroke-linecap="round" stroke-linejoin="round"/>
<path d="M126.499 94.311H122.763V144.264H126.499V94.311Z" fill="white" stroke="#263238" stroke-linecap="round" stroke-linejoin="round"/>
<path d="M126.499 94.311H122.763V102.563H126.499V94.311Z" fill="#263238" stroke="#263238" stroke-linecap="round" stroke-linejoin="round"/>
<path d="M171.886 91.7246H77.0391V94.4998H171.886V91.7246Z" fill="white" stroke="#263238" stroke-linecap="round" stroke-linejoin="round"/>
<path d="M144.124 144.671H104.814C108.703 142.842 112.948 141.895 117.246 141.896H131.737C136.034 141.894 140.279 142.841 144.168 144.671H144.124Z" fill="white" stroke="#263238" stroke-linecap="round" stroke-linejoin="round"/>
</svg>
