<svg width="180" height="134" viewBox="0 0 180 134" fill="none" xmlns="http://www.w3.org/2000/svg">
<path d="M179.64 117.628H0V117.718H179.64V117.628Z" fill="#E6E6E6"/>
<path d="M168.288 120.797H161.544V120.887H168.288V120.797Z" fill="#E6E6E6"/>
<path d="M137.159 123.262H134.037V123.352H137.159V123.262Z" fill="#E6E6E6"/>
<path d="M107.54 122.022H100.584V122.112H107.54V122.022Z" fill="#E6E6E6"/>
<path d="M44.5935 121.976H29.0762V122.065H44.5935V121.976Z" fill="#E6E6E6"/>
<path d="M25.8787 121.976H23.6045V122.065H25.8787V121.976Z" fill="#E6E6E6"/>
<path d="M101.669 119.849H68.0117V119.938H101.669V119.849Z" fill="#E6E6E6"/>
<path d="M85.148 101.605H15.7745C15.231 101.604 14.7101 101.387 14.3262 101.002C13.9422 100.618 13.7266 100.097 13.7266 99.5531V2.03353C13.7313 1.49318 13.949 0.976517 14.3325 0.595766C14.7159 0.215015 15.2341 0.000925647 15.7745 0H85.148C85.6921 0 86.2139 0.216139 86.5986 0.600869C86.9834 0.985598 87.1995 1.5074 87.1995 2.05149V99.5531C87.1995 100.097 86.9834 100.619 86.5986 101.004C86.2139 101.388 85.6921 101.605 85.148 101.605ZM15.7745 0.0718564C15.2548 0.0728082 14.7568 0.279903 14.3897 0.647685C14.0226 1.01547 13.8164 1.51388 13.8164 2.03353V99.5531C13.8164 100.073 14.0226 100.571 14.3897 100.939C14.7568 101.307 15.2548 101.514 15.7745 101.515H85.148C85.668 101.514 86.1664 101.307 86.5341 100.939C86.9017 100.571 87.1087 100.073 87.1097 99.5531V2.03353C87.1087 1.51355 86.9017 1.01515 86.5341 0.647466C86.1664 0.279786 85.668 0.0728062 85.148 0.0718564H15.7745Z" fill="#E6E6E6"/>
<path d="M162.865 101.605H93.488C92.9442 101.604 92.423 101.387 92.0384 101.003C91.6539 100.618 91.4375 100.097 91.4365 99.5531V2.03353C91.4422 1.49285 91.6607 0.976193 92.0447 0.595541C92.4288 0.214889 92.9473 0.000915552 93.488 0H162.865C163.405 0.00186988 163.922 0.216377 164.305 0.597027C164.687 0.977677 164.905 1.4938 164.909 2.03353V99.5531C164.909 100.096 164.694 100.617 164.311 101.001C163.928 101.386 163.408 101.603 162.865 101.605ZM93.488 0.0718564C92.968 0.0728062 92.4696 0.279786 92.102 0.647466C91.7343 1.01515 91.5273 1.51355 91.5263 2.03353V99.5531C91.5273 100.073 91.7343 100.571 92.102 100.939C92.4696 101.307 92.968 101.514 93.488 101.515H162.865C163.385 101.514 163.884 101.307 164.251 100.939C164.619 100.571 164.826 100.073 164.827 99.5531V2.03353C164.826 1.51355 164.619 1.01515 164.251 0.647466C163.884 0.279786 163.385 0.0728062 162.865 0.0718564H93.488Z" fill="#E6E6E6"/>
<path d="M93.7573 6.71143H21.0928V58.4946H93.7573V6.71143Z" fill="#FAFAFA"/>
<path d="M95.1002 6.71143H21.7207V58.4946H95.1002V6.71143Z" fill="#F5F5F5"/>
<path d="M93.2197 56.3786V8.82422L23.6055 8.82422V56.3786L93.2197 56.3786Z" fill="#FAFAFA"/>
<path d="M36.2803 56.3786L47.3246 8.82422H61.8036L50.7593 56.3786H36.2803Z" fill="white"/>
<path d="M53.1016 56.3786L64.1494 8.82422H70.6884L59.6405 56.3786H53.1016Z" fill="white"/>
<path d="M93.2197 56.3786V8.82422H92.979V56.3786H93.2197Z" fill="#FAFAFA"/>
<path d="M19.6807 6.62559V27.1477H25.1094C25.1094 27.1477 34.8495 20.7848 37.0806 7.69625C37.1347 7.38278 37.1194 7.06127 37.0359 6.75434C36.9523 6.44741 36.8026 6.16251 36.5971 5.91969C36.3916 5.67687 36.1354 5.48203 35.8465 5.34887C35.5576 5.21571 35.243 5.14747 34.9249 5.14895H21.1573C20.7657 5.14895 20.3901 5.30452 20.1132 5.58145C19.8362 5.85837 19.6807 6.23396 19.6807 6.62559Z" fill="#E0E0E0"/>
<path d="M19.6807 64.8288V28.8037H25.1094C25.1094 28.8037 36.1285 50.0192 37.404 64.8288H19.6807Z" fill="#E0E0E0"/>
<path d="M24.9525 27.1479H19.8794C19.5798 27.1479 19.3369 27.3908 19.3369 27.6905V28.2617C19.3369 28.5613 19.5798 28.8042 19.8794 28.8042H24.9525C25.2521 28.8042 25.495 28.5613 25.495 28.2617V27.6905C25.495 27.3908 25.2521 27.1479 24.9525 27.1479Z" fill="#F5F5F5"/>
<path d="M96.6468 6.62558V27.1477H91.2073C91.2073 27.1477 81.4529 20.7848 79.2361 7.69623C79.1827 7.38285 79.1984 7.06158 79.2822 6.75492C79.366 6.44826 79.5158 6.16363 79.7212 5.92096C79.9265 5.67829 80.1825 5.48345 80.4711 5.35009C80.7596 5.21673 81.0739 5.14808 81.3918 5.14893H95.1738C95.5645 5.15083 95.9386 5.30713 96.2146 5.58374C96.4905 5.86036 96.6459 6.23486 96.6468 6.62558Z" fill="#E0E0E0"/>
<path d="M96.6452 64.8288V28.8037H91.2057C91.2057 28.8037 80.1902 50.0192 78.9111 64.8288H96.6452Z" fill="#E0E0E0"/>
<path d="M91.3649 28.8003H96.438C96.7376 28.8003 96.9805 28.5574 96.9805 28.2578V27.6865C96.9805 27.3869 96.7376 27.144 96.438 27.144H91.3649C91.0653 27.144 90.8224 27.3869 90.8224 27.6865V28.2578C90.8224 28.5574 91.0653 28.8003 91.3649 28.8003Z" fill="#F5F5F5"/>
<path d="M95.0053 71.375H83.0664V117.629H95.0053V71.375Z" fill="#FAFAFA"/>
<path d="M91.8179 117.629H95.0047V112.286H88.4766L91.8179 117.629Z" fill="#F4F8FF"/>
<path d="M37.8862 71.375H25.9473V117.629H37.8862V71.375Z" fill="#E0E0E0"/>
<path d="M95.0048 71.375H35.1055V115.789H95.0048V71.375Z" fill="#FAFAFA"/>
<path d="M53.1016 63.521C53.1016 67.8324 57.2548 71.3749 62.3351 71.3749H66.9195C71.9961 71.3749 76.1494 67.8396 76.1494 63.521H53.1016Z" fill="#EBEBEB"/>
<path d="M50.4429 53.6514H59.0656C59.0656 53.6514 57.5674 57.6035 57.5674 59.9316C57.5674 62.2597 64.1279 71.3747 54.7542 71.3747C45.3806 71.3747 51.9411 62.2561 51.9411 59.9316C51.9411 57.607 50.4429 53.6514 50.4429 53.6514Z" fill="#E0E0E0"/>
<path d="M92.5327 74.0801H37.5771V85.2789H92.5327V74.0801Z" fill="#EBEBEB"/>
<path d="M38.2923 117.629H35.1055V112.286H41.6372L38.2923 117.629Z" fill="#FAFAFA"/>
<path d="M63.3662 79.6774C63.3662 80.0114 63.4652 80.3378 63.6508 80.6155C63.8363 80.8932 64.1001 81.1097 64.4086 81.2375C64.7172 81.3653 65.0567 81.3987 65.3843 81.3336C65.7118 81.2684 66.0127 81.1076 66.2489 80.8714C66.485 80.6353 66.6458 80.3344 66.711 80.0068C66.7762 79.6793 66.7427 79.3397 66.6149 79.0312C66.4871 78.7226 66.2707 78.4589 65.993 78.2734C65.7153 78.0878 65.3888 77.9888 65.0548 77.9888C64.607 77.9888 64.1775 78.1667 63.8608 78.4834C63.5441 78.8 63.3662 79.2295 63.3662 79.6774Z" fill="#FAFAFA"/>
<path d="M92.5327 87.9849H37.5771V99.1836H92.5327V87.9849Z" fill="#EBEBEB"/>
<path d="M63.3662 93.5822C63.3662 93.9162 63.4652 94.2426 63.6508 94.5203C63.8363 94.798 64.1001 95.0144 64.4086 95.1423C64.7172 95.2701 65.0567 95.3035 65.3843 95.2383C65.7118 95.1732 66.0127 95.0124 66.2489 94.7762C66.485 94.5401 66.6458 94.2392 66.711 93.9116C66.7762 93.5841 66.7427 93.2445 66.6149 92.936C66.4871 92.6274 66.2707 92.3637 65.993 92.1781C65.7153 91.9926 65.3888 91.8936 65.0548 91.8936C64.607 91.8936 64.1775 92.0715 63.8608 92.3881C63.5441 92.7048 63.3662 93.1343 63.3662 93.5822Z" fill="#FAFAFA"/>
<path d="M92.5327 101.885H37.5771V113.084H92.5327V101.885Z" fill="#EBEBEB"/>
<path d="M65.0548 109.175C65.9874 109.175 66.7435 108.419 66.7435 107.486C66.7435 106.553 65.9874 105.797 65.0548 105.797C64.1222 105.797 63.3662 106.553 63.3662 107.486C63.3662 108.419 64.1222 109.175 65.0548 109.175Z" fill="#FAFAFA"/>
<path d="M132.891 6.08643H106.222V25.0708H132.891V6.08643Z" fill="#E0E0E0"/>
<path d="M135.067 6.08643H107.736V25.0708H135.067V6.08643Z" fill="#F5F5F5"/>
<path d="M133.326 23.3285V7.8291L109.481 7.8291V23.3285H133.326Z" fill="white"/>
<path d="M129.129 18.812V12.3413L113.676 12.3413V18.812H129.129Z" fill="#F5F5F5"/>
<path d="M154.526 15.5786H138.294V32.6013H154.526V15.5786Z" fill="#E0E0E0"/>
<path d="M156.711 15.5786H139.814V32.6013H156.711V15.5786Z" fill="#F5F5F5"/>
<path d="M154.968 30.8585V17.3208H141.556V30.8585H154.968Z" fill="white"/>
<path d="M145.753 24.0898C145.753 23.492 145.99 22.9186 146.413 22.4956C146.835 22.0726 147.408 21.8344 148.006 21.8335H148.516C149.114 21.8344 149.687 22.0726 150.109 22.4956C150.531 22.9186 150.768 23.492 150.768 24.0898C150.768 24.6872 150.531 25.2602 150.109 25.6827C149.686 26.1051 149.113 26.3425 148.516 26.3425H148.024C147.726 26.3448 147.431 26.2883 147.156 26.1762C146.881 26.064 146.63 25.8985 146.419 25.6891C146.208 25.4796 146.04 25.2305 145.926 24.956C145.812 24.6815 145.753 24.3871 145.753 24.0898Z" fill="#F5F5F5"/>
<path d="M179.64 38.3896H136.778H128.985V48.295H121.192V58.2004H113.4V68.1058H105.607V78.0111H97.814V87.9129H90.0211V97.8183H82.2283V107.724H74.4355V117.629H82.2283H179.64V38.3896Z" fill="#FAFAFA"/>
<path d="M118.052 107.724H73.6338V110.695H118.052V107.724Z" fill="#EBEBEB"/>
<path d="M125.846 97.8184H81.4277V100.79H125.846V97.8184Z" fill="#EBEBEB"/>
<path d="M133.638 87.9121H89.2197V90.8834H133.638V87.9121Z" fill="#EBEBEB"/>
<path d="M141.431 78.0068H97.0127V80.9781H141.431V78.0068Z" fill="#EBEBEB"/>
<path d="M149.224 68.105H104.806V71.0762H149.224V68.105Z" fill="#EBEBEB"/>
<path d="M157.017 58.1997H112.599V61.171H157.017V58.1997Z" fill="#EBEBEB"/>
<path d="M164.809 48.2944H120.391V51.2657H164.809V48.2944Z" fill="#EBEBEB"/>
<path d="M172.601 38.3896H128.184V41.3609H172.601V38.3896Z" fill="#EBEBEB"/>
<path d="M171.847 38.3896V48.295H164.055V58.2004H156.262V68.1058H148.469V78.0111H140.676V87.9129H132.883V97.8183H125.091V107.724H117.298V117.629H125.091H179.64V48.295V38.3896H171.847Z" fill="white"/>
<path d="M89.8182 133.853C128.291 133.853 159.479 132.032 159.479 129.786C159.479 127.54 128.291 125.719 89.8182 125.719C51.3455 125.719 20.1572 127.54 20.1572 129.786C20.1572 132.032 51.3455 133.853 89.8182 133.853Z" fill="#F5F5F5"/>
<path d="M131.192 38.443C131.695 40.128 134.289 43.2825 134.494 45.5783C134.698 47.8741 130.276 51.546 130.276 51.546C130.276 51.546 126.97 40.4945 129.04 39.2047C131.109 37.9149 131.192 38.443 131.192 38.443Z" fill="#263238"/>
<path d="M122.111 50.3814C121.328 51.0353 120.559 51.585 119.758 52.1491C118.956 52.7131 118.13 53.2269 117.289 53.7084C116.446 54.2076 115.576 54.6621 114.685 55.07C114.232 55.2748 113.783 55.476 113.316 55.6521C113.086 55.7455 112.852 55.8353 112.615 55.9143L111.897 56.1658C111.282 56.3376 110.639 56.384 110.007 56.3024C109.478 56.2405 108.954 56.1396 108.44 56.0006C107.482 55.7354 106.544 55.4017 105.634 55.0018C103.868 54.2304 102.163 53.3235 100.536 52.2892L101.208 51.0389C102.056 51.3982 102.925 51.7575 103.788 52.07C104.65 52.3826 105.519 52.7131 106.389 52.9826C107.236 53.2604 108.1 53.486 108.976 53.6581C109.378 53.7366 109.785 53.7859 110.194 53.8054C110.499 53.829 110.805 53.7973 111.099 53.7119C111.919 53.3983 112.72 53.0385 113.499 52.6341C113.898 52.4257 114.293 52.2137 114.681 51.9838C115.069 51.7539 115.464 51.5311 115.849 51.294C116.621 50.8161 117.376 50.3096 118.123 49.7886C118.87 49.2676 119.614 48.7108 120.279 48.1826L122.111 50.3814Z" fill="#E58A7B"/>
<path d="M124.006 46.5551C123.115 45.8581 119.429 48.1395 118.312 49.0916L119.127 54.0245C119.127 54.0245 124.426 51.8042 124.743 50.288C125.077 48.7036 124.671 47.0868 124.006 46.5551Z" fill="#12733C"/>
<path opacity="0.2" d="M124.006 46.5551C123.115 45.8581 119.429 48.1395 118.312 49.0916L119.127 54.0245C119.127 54.0245 124.426 51.8042 124.743 50.288C125.077 48.7036 124.671 47.0868 124.006 46.5551Z" fill="black"/>
<path d="M136.405 61.483L125.217 63.6638C119.436 48.0099 120.694 47.4962 120.694 47.4962C121.507 47.0494 122.347 46.6534 123.209 46.3105L123.36 46.2531C124.078 45.9908 124.222 45.9513 125.178 45.671C126.823 45.2794 128.357 44.9525 130.258 44.683L130.617 44.6327C130.976 44.5896 131.303 44.5537 131.634 44.5213C131.857 44.4962 132.079 44.4818 132.291 44.4674L133.01 44.4279C134.239 44.3668 135.119 44.3848 135.119 44.3848C134.778 54.1608 135.331 56.9668 136.405 61.483Z" fill="#12733C"/>
<path opacity="0.2" d="M136.405 61.483L125.217 63.6638C119.436 48.0099 120.694 47.4962 120.694 47.4962C121.507 47.0494 122.347 46.6534 123.209 46.3105L123.36 46.2531C124.078 45.9908 124.222 45.9513 125.178 45.671C126.823 45.2794 128.357 44.9525 130.258 44.683L130.617 44.6327C130.976 44.5896 131.303 44.5537 131.634 44.5213C131.857 44.4962 132.079 44.4818 132.291 44.4674L133.01 44.4279C134.239 44.3668 135.119 44.3848 135.119 44.3848C134.778 54.1608 135.331 56.9668 136.405 61.483Z" fill="black"/>
<path d="M127.643 39.5671C126.925 40.7563 129.529 41.306 131.071 40.088C132.303 39.1108 132.012 36.8545 130.956 36.33C129.9 35.8054 127.643 39.5671 127.643 39.5671Z" fill="#12733C"/>
<path opacity="0.4" d="M127.643 39.5671C126.925 40.7563 129.529 41.306 131.071 40.088C132.303 39.1108 132.012 36.8545 130.956 36.33C129.9 35.8054 127.643 39.5671 127.643 39.5671Z" fill="black"/>
<path d="M138.532 126.276L135.733 126.485L134.709 120.043L137.508 119.834L138.532 126.276Z" fill="#E58A7B"/>
<path d="M158.328 117.272L155.953 118.767L151.725 113.751L154.099 112.253L158.328 117.272Z" fill="#E58A7B"/>
<path d="M134.709 120.043L135.277 123.621L138.036 123.158L137.511 119.838L134.709 120.043Z" fill="#CF6F64"/>
<path d="M154.103 112.257L151.725 113.751L153.478 115.828L155.907 114.395L154.103 112.257Z" fill="#CF6F64"/>
<path d="M125.39 63.6636C125.39 63.6636 125.35 85.8743 127.165 94.2384C129.054 102.94 134.612 122.737 134.612 122.737L138.644 122.216C138.644 122.216 135.493 102.218 134.149 93.5701C132.687 84.1462 133.585 62.0684 133.585 62.0684L125.39 63.6636Z" fill="#12733C"/>
<path opacity="0.7" d="M125.39 63.6636C125.39 63.6636 125.35 85.8743 127.165 94.2384C129.054 102.94 134.612 122.737 134.612 122.737L138.644 122.216C138.644 122.216 135.493 102.218 134.149 93.5701C132.687 84.1462 133.585 62.0684 133.585 62.0684L125.39 63.6636Z" fill="black"/>
<path opacity="0.5" d="M133.334 71.9132L131.358 69.9443C131.434 78.4773 131.912 82.6916 133.554 87.2832C133.295 82.4293 133.273 76.688 133.334 71.9132Z" fill="black"/>
<path d="M128.17 63.0889C128.17 63.0889 134.195 81.4445 137.184 92.0182C140.339 103.174 152.432 115.512 152.432 115.512L155.903 113.507C155.903 113.507 147.639 101.794 144.6 91.3858C138.42 70.2565 140.96 65.7799 136.401 61.4829L128.17 63.0889Z" fill="#12733C"/>
<path opacity="0.7" d="M128.17 63.0889C128.17 63.0889 134.195 81.4445 137.184 92.0182C140.339 103.174 152.432 115.512 152.432 115.512L155.903 113.507C155.903 113.507 147.639 101.794 144.6 91.3858C138.42 70.2565 140.96 65.7799 136.401 61.4829L128.17 63.0889Z" fill="black"/>
<path d="M123.435 33.0859C125.038 33.6213 126.493 37.5985 126.554 39.165C126.615 40.7314 121.912 42.8907 121.912 42.8907C121.912 42.8907 119.839 37.8608 120.417 34.6273C120.669 33.2225 123.435 33.0859 123.435 33.0859Z" fill="#263238"/>
<path d="M101.444 51.172L99.5434 49.1025L98.9219 51.6965C98.9219 51.6965 100.273 52.8894 101.365 52.4798L101.444 51.172Z" fill="#E58A7B"/>
<path d="M97.6174 48.5098L96.2881 49.5661L98.9216 51.6966L99.5432 49.1026L97.6174 48.5098Z" fill="#E58A7B"/>
<path d="M155.211 118.232L157.431 115.993C157.469 115.955 157.52 115.932 157.574 115.928C157.628 115.924 157.682 115.939 157.725 115.972L159.748 117.474C159.798 117.513 159.839 117.562 159.869 117.619C159.898 117.675 159.916 117.737 159.919 117.801C159.923 117.864 159.913 117.928 159.891 117.987C159.868 118.047 159.833 118.101 159.788 118.145C158.997 118.911 158.581 119.241 157.603 120.226C157.003 120.833 156.188 121.778 155.358 122.615C154.528 123.452 153.655 122.672 153.921 122.256C155.131 120.362 154.916 119.654 154.999 118.692C155.011 118.518 155.086 118.354 155.211 118.232Z" fill="#263238"/>
<path d="M135.547 126.082H138.701C138.757 126.082 138.811 126.101 138.853 126.137C138.896 126.172 138.925 126.221 138.935 126.276L139.431 128.769C139.442 128.831 139.439 128.894 139.423 128.954C139.407 129.014 139.378 129.07 139.338 129.118C139.298 129.166 139.248 129.204 139.191 129.23C139.134 129.256 139.073 129.269 139.01 129.269C137.907 129.251 137.376 129.186 135.989 129.186C135.137 129.186 133.377 129.272 132.198 129.272C131.02 129.272 130.894 128.108 131.379 128.004C133.535 127.53 134.379 126.88 135.087 126.254C135.215 126.145 135.378 126.084 135.547 126.082Z" fill="#263238"/>
<g style="mix-blend-mode:multiply" opacity="0.27">
<path d="M135.481 50.0508L133.757 51.0783L135.747 58.5621C135.313 56.2951 135.507 53.8053 135.481 50.0508Z" fill="#12733C"/>
</g>
<path d="M125.681 38.3675C126.906 39.3914 128.684 40.8824 130.779 39.1399C132.575 37.6381 133.833 33.6968 130.61 33.5531C128.925 33.4777 125.681 38.3675 125.681 38.3675Z" fill="#263238"/>
<path d="M128.641 39.0684C128.641 40.7642 128.903 43.8216 130.258 44.6911C130.258 44.6911 130.136 46.4372 127.096 47.0264C123.759 47.6767 125.178 45.6791 125.178 45.6791C126.917 44.8887 126.615 43.545 126.04 42.3378L128.641 39.0684Z" fill="#E58A7B"/>
<path d="M127.581 40.4009L126.043 42.3374C126.178 42.6173 126.288 42.9082 126.374 43.2069C127.049 42.9697 127.857 42.0212 127.789 41.2775C127.774 40.975 127.704 40.6777 127.581 40.4009Z" fill="#CF6F64"/>
<path d="M128.803 35.1733C129.162 37.9362 129.381 39.0967 128.274 40.7673C126.611 43.2823 123.14 43.1206 121.958 40.523C120.881 38.1841 120.478 34.056 122.936 32.4572C123.476 32.0994 124.099 31.886 124.745 31.837C125.391 31.7881 126.039 31.9053 126.627 32.1776C127.215 32.4498 127.724 32.868 128.105 33.3924C128.486 33.9168 128.726 34.5299 128.803 35.1733Z" fill="#E58A7B"/>
<path d="M124.002 30.3337C122.134 31.6594 125.881 32.051 125.885 33.9732C125.885 34.7672 127.189 37.2858 129.043 37.1421L130.84 33.9516C132.729 30.8978 128.264 27.3049 124.002 30.3337Z" fill="#263238"/>
<path d="M124.003 30.3333C120.716 30.1608 119.282 32.7764 119.659 35.1261C121.953 34.5543 124.325 34.3661 126.68 34.5692C131.185 35.0291 124.003 30.3333 124.003 30.3333Z" fill="#263238"/>
<path d="M129.701 37.5553C129.747 38.0916 129.577 38.624 129.231 39.0356C128.767 39.5781 128.153 39.2583 127.937 38.6152C127.754 38.0332 127.775 37.0523 128.401 36.7433C128.539 36.6795 128.691 36.651 128.842 36.6605C128.994 36.67 129.141 36.7171 129.27 36.7977C129.399 36.8783 129.506 36.9897 129.582 37.122C129.657 37.2543 129.698 37.4032 129.701 37.5553Z" fill="#E58A7B"/>
<path d="M124.811 36.7435C124.854 36.9663 124.772 37.1675 124.628 37.1962C124.484 37.2249 124.33 37.0669 124.287 36.8369C124.244 36.607 124.326 36.4094 124.47 36.3806C124.614 36.3519 124.768 36.5208 124.811 36.7435Z" fill="#263238"/>
<path d="M122.3 37.2319C122.343 37.4547 122.26 37.6594 122.116 37.6882C121.973 37.7169 121.818 37.5588 121.775 37.3289C121.732 37.099 121.815 36.9014 121.958 36.8762C122.102 36.8511 122.257 37.0056 122.3 37.2319Z" fill="#263238"/>
<path d="M122.027 36.8797L121.463 36.833C121.463 36.833 121.819 37.1959 122.027 36.8797Z" fill="#263238"/>
<path d="M123.04 37.4868C122.939 38.0311 122.765 38.5592 122.522 39.0569C122.651 39.1169 122.792 39.1481 122.934 39.1481C123.076 39.1481 123.216 39.1169 123.345 39.0569L123.04 37.4868Z" fill="#DF5753"/>
<path d="M124.283 39.7751C124.268 39.7753 124.253 39.77 124.241 39.7601C124.229 39.7502 124.221 39.7364 124.219 39.7212C124.217 39.7127 124.217 39.7039 124.219 39.6955C124.221 39.6871 124.225 39.6791 124.23 39.6721C124.235 39.665 124.241 39.6591 124.249 39.6546C124.256 39.65 124.264 39.647 124.273 39.6457C124.55 39.5974 124.813 39.4844 125.039 39.3159C125.265 39.1474 125.448 38.9281 125.573 38.6757C125.577 38.6676 125.581 38.6604 125.588 38.6542C125.594 38.6481 125.601 38.6432 125.609 38.6398C125.617 38.6365 125.626 38.6348 125.634 38.6348C125.643 38.6347 125.652 38.6364 125.66 38.6397C125.668 38.643 125.675 38.6479 125.681 38.654C125.687 38.6601 125.692 38.6674 125.695 38.6754C125.699 38.6834 125.7 38.692 125.7 38.7007C125.7 38.7094 125.699 38.7179 125.695 38.726C125.564 39.0002 125.368 39.2388 125.125 39.4214C124.882 39.604 124.598 39.7253 124.298 39.7751H124.283Z" fill="#263238"/>
<path d="M125.39 35.7871C125.358 35.7875 125.326 35.776 125.301 35.7548C125.18 35.6399 125.033 35.5553 124.874 35.5078C124.714 35.4604 124.545 35.4514 124.381 35.4817C124.345 35.4908 124.306 35.4851 124.274 35.4659C124.242 35.4467 124.219 35.4156 124.21 35.3793C124.201 35.3431 124.207 35.3048 124.226 35.2728C124.245 35.2408 124.276 35.2177 124.313 35.2087C124.52 35.1679 124.734 35.1769 124.937 35.235C125.14 35.2931 125.326 35.3986 125.48 35.5428C125.505 35.5677 125.519 35.6013 125.519 35.6362C125.519 35.6712 125.505 35.7048 125.48 35.7296C125.47 35.7451 125.457 35.7582 125.442 35.7681C125.426 35.778 125.409 35.7845 125.39 35.7871Z" fill="#263238"/>
<path d="M120.91 36.2871C120.893 36.2908 120.876 36.2908 120.859 36.2871C120.843 36.2804 120.828 36.2706 120.815 36.258C120.803 36.2455 120.793 36.2306 120.786 36.2142C120.78 36.1978 120.776 36.1802 120.776 36.1625C120.777 36.1448 120.78 36.1273 120.787 36.1111C120.864 35.9146 120.986 35.7393 121.144 35.5999C121.303 35.4605 121.492 35.361 121.696 35.3099C121.714 35.3063 121.731 35.3062 121.749 35.3097C121.766 35.3133 121.782 35.3203 121.797 35.3304C121.811 35.3405 121.824 35.3534 121.833 35.3684C121.842 35.3835 121.848 35.4002 121.851 35.4177C121.854 35.4347 121.855 35.4522 121.851 35.4693C121.848 35.4864 121.841 35.5026 121.832 35.5171C121.822 35.5315 121.809 35.5438 121.795 35.5533C121.78 35.5627 121.764 35.5692 121.747 35.5722C121.585 35.6162 121.436 35.6972 121.311 35.8089C121.187 35.9205 121.09 36.0596 121.028 36.2153C121.017 36.2367 120.999 36.2547 120.979 36.2674C120.958 36.28 120.934 36.2868 120.91 36.2871Z" fill="#263238"/>
<path d="M154.376 119.536C154.314 119.535 154.254 119.518 154.2 119.488C154.146 119.458 154.1 119.415 154.067 119.364C154.041 119.333 154.024 119.297 154.017 119.258C154.01 119.219 154.014 119.178 154.027 119.141C154.153 118.803 155.145 118.588 155.256 118.563C155.269 118.56 155.282 118.562 155.294 118.567C155.306 118.572 155.317 118.58 155.324 118.591C155.332 118.602 155.336 118.614 155.336 118.627C155.336 118.64 155.332 118.653 155.324 118.663C155.13 118.983 154.749 119.518 154.394 119.536H154.376ZM155.127 118.728C154.735 118.828 154.218 119.008 154.153 119.188C154.147 119.204 154.145 119.222 154.149 119.239C154.153 119.257 154.162 119.272 154.175 119.285C154.197 119.322 154.228 119.352 154.266 119.373C154.304 119.394 154.347 119.404 154.39 119.403C154.581 119.393 154.85 119.145 155.127 118.728Z" fill="#12733C"/>
<path d="M154.965 118.727C154.606 118.727 154.157 118.638 154.024 118.444C153.994 118.4 153.981 118.347 153.985 118.294C153.99 118.241 154.012 118.191 154.049 118.153C154.08 118.113 154.12 118.08 154.165 118.056C154.211 118.033 154.26 118.019 154.311 118.016H154.34C154.742 118.016 155.296 118.559 155.317 118.58C155.326 118.588 155.332 118.599 155.335 118.61C155.338 118.621 155.338 118.633 155.335 118.645C155.332 118.656 155.326 118.666 155.318 118.674C155.31 118.682 155.3 118.688 155.288 118.692C155.183 118.717 155.074 118.729 154.965 118.727ZM154.34 118.149H154.318C154.286 118.15 154.255 118.158 154.226 118.173C154.197 118.188 154.172 118.209 154.153 118.235C154.103 118.304 154.117 118.343 154.135 118.368C154.243 118.533 154.793 118.627 155.13 118.587C154.915 118.368 154.64 118.216 154.34 118.149Z" fill="#12733C"/>
<path d="M134.515 126.574C134.273 126.596 134.032 126.535 133.829 126.402C133.781 126.365 133.743 126.316 133.719 126.26C133.695 126.204 133.686 126.143 133.692 126.082C133.692 126.046 133.701 126.011 133.719 125.979C133.736 125.948 133.762 125.921 133.793 125.903C134.123 125.709 135.28 126.283 135.41 126.348C135.422 126.355 135.432 126.364 135.438 126.377C135.445 126.389 135.447 126.403 135.446 126.416C135.444 126.43 135.438 126.443 135.429 126.453C135.42 126.463 135.408 126.47 135.395 126.474C135.106 126.535 134.811 126.568 134.515 126.574ZM133.983 125.992C133.941 125.99 133.899 125.998 133.861 126.018C133.849 126.024 133.839 126.034 133.833 126.046C133.826 126.058 133.824 126.072 133.825 126.086C133.822 126.126 133.828 126.167 133.844 126.205C133.859 126.242 133.884 126.275 133.915 126.301C134.095 126.456 134.558 126.481 135.169 126.38C134.798 126.186 134.397 126.055 133.983 125.992Z" fill="#12733C"/>
<path d="M135.382 126.466H135.357C134.997 126.312 134.304 125.701 134.354 125.388C134.354 125.316 134.419 125.223 134.598 125.205H134.652C135.278 125.205 135.439 126.348 135.446 126.398C135.448 126.41 135.447 126.422 135.442 126.433C135.438 126.445 135.431 126.455 135.421 126.463C135.409 126.467 135.395 126.469 135.382 126.466ZM134.663 125.331H134.624C134.509 125.331 134.501 125.385 134.501 125.399C134.473 125.59 134.947 126.067 135.306 126.279C135.234 125.999 135.051 125.338 134.649 125.338L134.663 125.331Z" fill="#12733C"/>
<path d="M124.538 36.3911L123.974 36.3408C123.974 36.3408 124.329 36.7073 124.538 36.3911Z" fill="#263238"/>
<path d="M127.007 49.4154C120.996 50.7555 122.854 47.1195 123.213 46.3184L123.364 46.2609C124.083 45.9986 124.226 45.9591 125.182 45.6788C126.85 45.2287 128.547 44.8985 130.262 44.6908L130.621 44.6405C130.981 44.5938 131.308 44.5579 131.638 44.5291C131.861 44.504 132.084 44.4896 132.296 44.4752L133.014 44.4321C133.136 44.9926 133.435 47.989 127.007 49.4154Z" fill="#E58A7B"/>
<path d="M136.442 60.7933L137.142 61.6987C137.196 61.767 137.121 61.864 136.991 61.8891L125.257 64.1742C125.157 64.1957 125.063 64.1742 125.045 64.0987L124.747 63.1179C124.747 63.0496 124.805 62.9742 124.912 62.9526L136.244 60.7466C136.278 60.7366 136.314 60.7356 136.349 60.7438C136.384 60.752 136.416 60.7691 136.442 60.7933Z" fill="#26395A"/>
<path d="M135.166 62.3562L135.471 62.2987C135.532 62.2987 135.572 62.2484 135.561 62.2088L135.166 60.937C135.166 60.8975 135.094 60.8795 135.033 60.8903L134.731 60.9478C134.67 60.9478 134.631 61.0017 134.641 61.0376L135.037 62.313C135.047 62.349 135.108 62.3705 135.166 62.3562Z" fill="#12733C"/>
<path d="M128.293 66.596L125.954 65.7266L126.313 67.9505C126.313 67.9505 128.009 68.5613 128.875 67.7781L128.293 66.596Z" fill="#E58A7B"/>
<path d="M123.727 66.3158L123.17 67.7745L126.314 67.9505L125.954 65.7266L123.727 66.3158Z" fill="#E58A7B"/>
<path d="M126.13 64.1169L126.435 64.0594C126.493 64.0594 126.536 64.0091 126.522 63.9696L126.126 62.6977C126.126 62.6582 126.058 62.6403 125.997 62.651L125.692 62.7085C125.631 62.7085 125.591 62.7624 125.605 62.7983L126.001 64.0738C126.011 64.1097 126.069 64.1313 126.13 64.1169Z" fill="#12733C"/>
<path d="M130.65 63.2326L130.952 63.1751C131.013 63.1751 131.052 63.1248 131.042 63.0853L130.646 61.8135C130.646 61.7739 130.575 61.756 130.514 61.7668L130.212 61.8242C130.151 61.8242 130.111 61.8781 130.122 61.9141L130.517 63.1895C130.531 63.2103 130.552 63.2258 130.576 63.2336C130.6 63.2414 130.626 63.241 130.65 63.2326Z" fill="#12733C"/>
<path d="M129.372 43.2641C129.627 43.1671 129.947 44.0653 129.868 44.1803C129.685 44.4426 126.329 45.3588 126.178 44.845C126.169 44.5665 126.211 44.2887 126.304 44.0258C126.401 43.8534 127.144 44.1695 129.372 43.2641Z" fill="#12733C"/>
<path d="M128.803 43.286C128.933 42.9877 129.303 42.5099 129.626 42.783C129.95 43.056 130.086 43.6452 129.874 43.7422C129.662 43.8392 128.581 43.7854 128.803 43.286Z" fill="#12733C"/>
<path d="M129.489 43.4402C129.712 43.2031 130.208 42.8761 130.434 43.2426C130.66 43.6091 130.578 44.2091 130.348 44.227C130.118 44.245 129.112 43.8318 129.489 43.4402Z" fill="#12733C"/>
<path d="M129.611 43.3868C129.593 43.1958 129.63 43.0036 129.719 42.8334C129.808 42.6632 129.943 42.5223 130.11 42.4275C130.52 42.1617 130.919 41.9892 131.077 41.709C131.145 41.9717 131.158 42.2456 131.116 42.5138C131.034 42.8982 129.758 43.1928 129.844 43.5269L129.611 43.3868Z" fill="#12733C"/>
<path d="M129.558 43.3687C129.439 43.2179 129.366 43.0359 129.348 42.8447C129.33 42.6534 129.368 42.4611 129.457 42.2909C129.651 41.8454 129.895 41.4861 129.881 41.1699C130.081 41.3537 130.241 41.5762 130.352 41.8238C130.488 42.1831 129.579 43.128 129.834 43.3651L129.558 43.3687Z" fill="#12733C"/>
<path d="M154.546 113.554C154.538 113.554 154.531 113.552 154.525 113.548C154.518 113.544 154.513 113.539 154.51 113.532C154.427 113.417 146.214 101.698 143.203 91.4007C141.238 84.7956 139.728 78.0637 138.683 71.2522C138.062 67.4151 137.684 65.0977 136.449 63.1971C136.44 63.1884 136.436 63.1769 136.436 63.1648C136.436 63.1527 136.44 63.1412 136.449 63.1325C136.457 63.1251 136.468 63.1211 136.479 63.1211C136.49 63.1211 136.501 63.1251 136.51 63.1325C137.76 65.051 138.137 67.3756 138.759 71.2235C139.808 78.0252 141.321 84.7474 143.286 91.3432C146.293 101.626 154.499 113.331 154.581 113.45C154.588 113.459 154.592 113.469 154.592 113.48C154.592 113.491 154.588 113.502 154.581 113.511C154.581 113.521 154.577 113.531 154.571 113.538C154.564 113.546 154.555 113.552 154.546 113.554Z" fill="#12733C"/>
<path opacity="0.4" d="M154.546 113.554C154.538 113.554 154.531 113.552 154.525 113.548C154.518 113.544 154.513 113.539 154.51 113.532C154.427 113.417 146.214 101.698 143.203 91.4007C141.238 84.7956 139.728 78.0637 138.683 71.2522C138.062 67.4151 137.684 65.0977 136.449 63.1971C136.44 63.1884 136.436 63.1769 136.436 63.1648C136.436 63.1527 136.44 63.1412 136.449 63.1325C136.457 63.1251 136.468 63.1211 136.479 63.1211C136.49 63.1211 136.501 63.1251 136.51 63.1325C137.76 65.051 138.137 67.3756 138.759 71.2235C139.808 78.0252 141.321 84.7474 143.286 91.3432C146.293 101.626 154.499 113.331 154.581 113.45C154.588 113.459 154.592 113.469 154.592 113.48C154.592 113.491 154.588 113.502 154.581 113.511C154.581 113.521 154.577 113.531 154.571 113.538C154.564 113.546 154.555 113.552 154.546 113.554Z" fill="black"/>
<path d="M139.366 122.201L133.876 122.913L133.517 121.382L139.233 120.171L139.366 122.201Z" fill="#12733C"/>
<path d="M156.196 113.385L152.147 115.724L150.781 114.556L155.211 111.56L156.196 113.385Z" fill="#12733C"/>
<path d="M137.191 48.1899C137.386 49.1887 137.497 50.1301 137.605 51.1037C137.712 52.0774 137.752 53.0402 137.781 54.0139C137.809 54.9952 137.788 55.9773 137.716 56.9564C137.677 57.4486 137.633 57.9408 137.565 58.4366C137.536 58.6809 137.504 58.9288 137.457 59.1768L137.324 59.9384C137.177 60.5593 136.907 61.1444 136.53 61.6594C136.221 62.0927 135.88 62.5022 135.51 62.8845C134.817 63.5967 134.072 64.2572 133.283 64.8606C131.755 66.0369 130.138 67.0928 128.447 68.0187L127.678 66.8258C128.396 66.2546 129.115 65.6654 129.833 65.0654C130.552 64.4654 131.235 63.8582 131.892 63.2258C132.542 62.6172 133.155 61.9706 133.728 61.2893C133.991 60.9741 134.231 60.6403 134.447 60.2905C134.616 60.0357 134.738 59.752 134.806 59.4534C134.923 58.5812 134.991 57.7032 135.011 56.8235C135.011 56.3744 135.011 55.9253 135.011 55.4762C135.011 55.0271 134.993 54.5708 134.971 54.1181C134.928 53.2127 134.845 52.3217 134.748 51.4019C134.651 50.4822 134.526 49.5732 134.389 48.7217L137.191 48.1899Z" fill="#E58A7B"/>
<path d="M136.757 45.1359C138.291 46.379 137.925 50.0724 137.925 50.0724L132.751 51.7754C132.751 51.7754 132.988 47.5179 133.247 45.9874C133.549 44.1658 135.244 43.9107 136.757 45.1359Z" fill="#12733C"/>
<path opacity="0.2" d="M136.757 45.1359C138.291 46.379 137.925 50.0724 137.925 50.0724L132.751 51.7754C132.751 51.7754 132.988 47.5179 133.247 45.9874C133.549 44.1658 135.244 43.9107 136.757 45.1359Z" fill="black"/>
<path d="M68.4113 60.5495C68.2105 59.6784 67.7204 58.901 67.0209 58.3444C66.3213 57.7878 65.4538 57.4848 64.5598 57.4849H35.8173C34.7692 57.4849 33.7639 57.9012 33.0228 58.6424C32.2816 59.3836 31.8652 60.3888 31.8652 61.437V125.324C31.8652 126.372 32.2816 127.378 33.0228 128.119C33.7639 128.86 34.7692 129.276 35.8173 129.276H127.075C128.123 129.276 129.128 128.86 129.869 128.119C130.61 127.378 131.027 126.372 131.027 125.324V71.6585C131.027 70.6103 130.61 69.6051 129.869 68.8639C129.128 68.1228 128.123 67.7064 127.075 67.7064H77.4041C75.3165 67.7068 73.2906 66.9992 71.6572 65.6992C70.0238 64.3993 68.8795 62.5839 68.4113 60.5495Z" fill="#12733C"/>
<path opacity="0.6" d="M68.4113 60.5495C68.2105 59.6784 67.7204 58.901 67.0209 58.3444C66.3213 57.7878 65.4538 57.4848 64.5598 57.4849H35.8173C34.7692 57.4849 33.7639 57.9012 33.0228 58.6424C32.2816 59.3836 31.8652 60.3888 31.8652 61.437V125.324C31.8652 126.372 32.2816 127.378 33.0228 128.119C33.7639 128.86 34.7692 129.276 35.8173 129.276H127.075C128.123 129.276 129.128 128.86 129.869 128.119C130.61 127.378 131.027 126.372 131.027 125.324V71.6585C131.027 70.6103 130.61 69.6051 129.869 68.8639C129.128 68.1228 128.123 67.7064 127.075 67.7064H77.4041C75.3165 67.7068 73.2906 66.9992 71.6572 65.6992C70.0238 64.3993 68.8795 62.5839 68.4113 60.5495Z" fill="black"/>
<path opacity="0.22" d="M58.2656 40.6528L60.8273 48.9486C61.1543 50.0044 61.887 50.8873 62.8645 51.4033C63.8419 51.9193 64.9842 52.0263 66.0405 51.7007L74.3327 49.139L58.2656 40.6528Z" fill="#12733C"/>
<path d="M58.2655 40.6528L28.6248 49.8109C28.1016 49.9717 27.6151 50.234 27.1934 50.5829C26.7716 50.9318 26.4228 51.3605 26.1668 51.8443C25.9109 52.3282 25.7528 52.8578 25.7018 53.4028C25.6507 53.9478 25.7076 54.4975 25.8691 55.0205L42.7913 109.804C42.9528 110.327 43.2157 110.813 43.5652 111.234C43.9146 111.656 44.3436 112.004 44.8277 112.26C45.3118 112.515 45.8415 112.673 46.3866 112.724C46.9317 112.774 47.4814 112.717 48.0044 112.556L85.9409 100.836C86.4638 100.675 86.9498 100.412 87.3712 100.063C87.7926 99.7141 88.141 99.2854 88.3966 98.8016C88.6522 98.3177 88.8099 97.7883 88.8608 97.2435C88.9116 96.6986 88.8546 96.1492 88.693 95.6264L74.3217 49.139L58.2655 40.6528Z" fill="#12733C"/>
<path opacity="0.8" d="M58.2655 40.6528L28.6248 49.8109C28.1016 49.9717 27.6151 50.234 27.1934 50.5829C26.7716 50.9318 26.4228 51.3605 26.1668 51.8443C25.9109 52.3282 25.7528 52.8578 25.7018 53.4028C25.6507 53.9478 25.7076 54.4975 25.8691 55.0205L42.7913 109.804C42.9528 110.327 43.2157 110.813 43.5652 111.234C43.9146 111.656 44.3436 112.004 44.8277 112.26C45.3118 112.515 45.8415 112.673 46.3866 112.724C46.9317 112.774 47.4814 112.717 48.0044 112.556L85.9409 100.836C86.4638 100.675 86.9498 100.412 87.3712 100.063C87.7926 99.7141 88.141 99.2854 88.3966 98.8016C88.6522 98.3177 88.8099 97.7883 88.8608 97.2435C88.9116 96.6986 88.8546 96.1492 88.693 95.6264L74.3217 49.139L58.2655 40.6528Z" fill="white"/>
<g opacity="0.28">
<path d="M74.2133 98.4427L49.5523 106.059C49.0911 106.201 48.5926 106.154 48.1657 105.93C47.7389 105.705 47.4184 105.32 47.2744 104.859C47.134 104.398 47.1818 103.9 47.4073 103.474C47.6328 103.048 48.0177 102.729 48.478 102.585L73.1391 94.9649C73.6007 94.8234 74.0997 94.8706 74.5266 95.0962C74.9535 95.3218 75.2737 95.7074 75.4169 96.1685C75.5573 96.6297 75.5096 97.1277 75.2841 97.5538C75.0585 97.9799 74.6736 98.2995 74.2133 98.4427Z" fill="#12733C"/>
</g>
<g opacity="0.28">
<path d="M47.6734 53.7408L34.6315 57.7684C34.1703 57.909 33.6722 57.8619 33.2456 57.6371C32.819 57.4124 32.4985 57.0283 32.3537 56.5684C32.2131 56.1067 32.2608 55.6082 32.4863 55.1815C32.7117 54.7548 33.0967 54.4346 33.5572 54.2905L46.5991 50.263C47.0603 50.1203 47.5593 50.1666 47.9864 50.3916C48.4135 50.6166 48.7338 51.002 48.877 51.463C49.0175 51.9246 48.9698 52.4231 48.7444 52.8498C48.5189 53.2765 48.134 53.5968 47.6734 53.7408Z" fill="#12733C"/>
</g>
<g opacity="0.28">
<path d="M58.3154 58.0129L36.7585 64.6703C36.2983 64.8086 35.8021 64.7597 35.3777 64.5344C34.9532 64.3091 34.6348 63.9254 34.4915 63.4668C34.3499 63.006 34.3967 62.508 34.6216 62.0817C34.8466 61.6555 35.2313 61.3357 35.6915 61.1925L57.2483 54.535C57.7095 54.3934 58.208 54.4401 58.6349 54.665C59.0617 54.8898 59.3822 55.2746 59.5261 55.735C59.6654 56.1976 59.6163 56.6965 59.3895 57.1231C59.1628 57.5497 58.7767 57.8695 58.3154 58.0129Z" fill="#12733C"/>
</g>
<g opacity="0.28">
<path d="M70.3515 61.8532L38.8929 71.5538C38.4322 71.6953 37.9341 71.6485 37.5078 71.4236C37.0816 71.1987 36.7618 70.814 36.6186 70.3538C36.478 69.8926 36.5251 69.3945 36.7499 68.9679C36.9746 68.5413 37.3587 68.2207 37.8186 68.0759L69.2772 58.3753C69.738 58.2348 70.2356 58.282 70.6616 58.5068C71.0876 58.7316 71.4075 59.1157 71.5515 59.5753C71.6931 60.0365 71.6464 60.535 71.4216 60.9619C71.1967 61.3887 70.812 61.7092 70.3515 61.8532Z" fill="#12733C"/>
</g>
<g opacity="0.28">
<path d="M72.4819 68.7525L54.1945 74.404C53.7333 74.5444 53.2353 74.4966 52.8092 74.2711C52.3831 74.0456 52.0635 73.6607 51.9203 73.2004C51.7797 72.7397 51.827 72.2421 52.0517 71.8161C52.2765 71.39 52.6606 71.0702 53.1203 70.9261L71.4076 65.2747C71.8693 65.1351 72.3674 65.1832 72.7938 65.4085C73.2202 65.6339 73.5406 66.0182 73.6855 66.4782C73.8259 66.9394 73.7781 67.4374 73.5526 67.8635C73.3271 68.2896 72.9422 68.6092 72.4819 68.7525Z" fill="#12733C"/>
</g>
<g opacity="0.28">
<path d="M45.8099 76.9939L41.0279 78.4706C40.5667 78.6122 40.0682 78.5655 39.6413 78.3406C39.2145 78.1158 38.894 77.731 38.7501 77.2706C38.6085 76.8089 38.6558 76.31 38.8813 75.883C39.1069 75.4561 39.4925 75.136 39.9536 74.9927L44.7357 73.5161C45.1969 73.3754 45.695 73.4226 46.1215 73.6473C46.5481 73.872 46.8687 74.2562 47.0135 74.7161C47.153 75.1777 47.1049 75.6758 46.8796 76.1022C46.6543 76.5287 46.2699 76.849 45.8099 76.9939Z" fill="#12733C"/>
</g>
<g opacity="0.28">
<path d="M74.6159 75.6535L43.1573 85.372C42.6961 85.5124 42.1981 85.4647 41.772 85.2392C41.3459 85.0137 41.0263 84.6287 40.8831 84.1684C40.7415 83.7077 40.7883 83.2097 41.0132 82.7834C41.2382 82.3571 41.6229 82.0374 42.0831 81.8942L73.5417 72.1756C74.0024 72.0351 74.5 72.0823 74.926 72.3071C75.352 72.5319 75.6719 72.916 75.8159 73.3756C75.9576 73.8368 75.9109 74.3353 75.686 74.7622C75.4611 75.189 75.0764 75.5095 74.6159 75.6535Z" fill="#12733C"/>
</g>
<g opacity="0.28">
<path d="M64.6069 86.3027L45.2884 92.2703C44.8277 92.4109 44.3301 92.3636 43.904 92.1388C43.478 91.9141 43.1581 91.53 43.0141 91.0703C42.8735 90.6092 42.9206 90.1111 43.1454 89.6845C43.3701 89.2579 43.7542 88.9373 44.2141 88.7925L63.5327 82.8248C63.9943 82.6843 64.4928 82.732 64.9195 82.9575C65.3462 83.1829 65.6664 83.5679 65.8105 84.0284C65.9519 84.4896 65.9046 84.9881 65.6789 85.4144C65.4533 85.8408 65.0678 86.1602 64.6069 86.3027Z" fill="#12733C"/>
</g>
<g opacity="0.28">
<path d="M76.747 82.5552L71.5913 84.1468C71.1297 84.2874 70.6312 84.2397 70.2045 84.0143C69.7778 83.7888 69.4576 83.4038 69.3135 82.9433C69.1731 82.4821 69.2209 81.9841 69.4464 81.558C69.6719 81.1319 70.0568 80.8123 70.5171 80.669L75.6728 79.0774C76.1335 78.9359 76.6315 78.9827 77.0578 79.2076C77.4841 79.4325 77.8038 79.8172 77.947 80.2774C78.0887 80.7386 78.042 81.2371 77.8171 81.664C77.5922 82.0908 77.2075 82.4112 76.747 82.5552Z" fill="#12733C"/>
</g>
<g opacity="0.28">
<path d="M78.8777 89.4614L47.4262 99.162C46.9645 99.3035 46.4656 99.2562 46.0387 99.0307C45.6118 98.8051 45.2916 98.4195 45.1484 97.9584C45.007 97.4972 45.0543 96.9987 45.2799 96.5724C45.5056 96.146 45.8911 95.8266 46.352 95.6841L77.807 85.9656C78.2687 85.826 78.7667 85.8741 79.1932 86.0995C79.6196 86.3248 79.94 86.7091 80.0848 87.1692C80.157 87.3989 80.183 87.6407 80.1613 87.8805C80.1396 88.1203 80.0707 88.3535 79.9585 88.5666C79.8462 88.7797 79.693 88.9684 79.5075 89.122C79.322 89.2756 79.1079 89.3909 78.8777 89.4614Z" fill="#12733C"/>
</g>
<path d="M79.5524 20.0511L88.9584 41.0116C89.2026 41.5587 89.2202 42.1803 89.0075 42.7404C88.7947 43.3006 88.3689 43.7537 87.823 44.0008L47.9213 61.9109C47.3743 62.1561 46.7523 62.1743 46.1919 61.9614C45.6315 61.7486 45.1785 61.3221 44.9321 60.7756L35.5225 39.8152C35.2762 39.2677 35.2575 38.6449 35.4704 38.0836C35.6833 37.5224 36.1105 37.0687 36.6579 36.8224L76.5596 18.9122C77.1077 18.6681 77.7302 18.6509 78.2909 18.8643C78.8517 19.0777 79.3052 19.5044 79.5524 20.0511Z" fill="#12733C"/>
<path opacity="0.3" d="M79.5524 20.0511L88.9584 41.0116C89.2026 41.5587 89.2202 42.1803 89.0075 42.7404C88.7947 43.3006 88.3689 43.7537 87.823 44.0008L47.9213 61.9109C47.3743 62.1561 46.7523 62.1743 46.1919 61.9614C45.6315 61.7486 45.1785 61.3221 44.9321 60.7756L35.5225 39.8152C35.2762 39.2677 35.2575 38.6449 35.4704 38.0836C35.6833 37.5224 36.1105 37.0687 36.6579 36.8224L76.5596 18.9122C77.1077 18.6681 77.7302 18.6509 78.2909 18.8643C78.8517 19.0777 79.3052 19.5044 79.5524 20.0511Z" fill="black"/>
<path d="M73.2644 19.0159L71.9893 19.5879L72.1363 19.9157L73.4115 19.3437L73.2644 19.0159Z" fill="#12733C"/>
<path d="M70.2029 20.3867L66.2266 22.1704L66.3736 22.4982L70.3499 20.7145L70.2029 20.3867Z" fill="#12733C"/>
<path d="M35.4869 41.9275L35.1592 42.0747L36.2482 44.5001L36.5759 44.353L35.4869 41.9275Z" fill="#12733C"/>
<path opacity="0.6" d="M78.2159 18.8371L67.9261 38.9927C66.9713 40.8609 65.4076 42.3473 63.4935 43.2064C61.5794 44.0654 59.4295 44.2457 57.3991 43.7173L35.501 38.0083C35.7256 37.4829 36.1381 37.0601 36.6579 36.8227L76.5596 18.9125C77.0823 18.6788 77.6741 18.6518 78.2159 18.8371Z" fill="#12733C"/>
<path d="M92.3608 44.6338L61.3979 46.5452C60.8509 46.5777 60.3157 46.7177 59.8229 46.9573C59.3301 47.197 58.8893 47.5314 58.5259 47.9415C58.1625 48.3517 57.8835 48.8294 57.705 49.3475C57.5264 49.8656 57.4518 50.4138 57.4854 50.9607L61.0171 108.187C61.05 108.734 61.1907 109.27 61.4309 109.763C61.6712 110.256 62.0063 110.696 62.4172 111.059C62.8281 111.422 63.3066 111.701 63.8252 111.879C64.3439 112.057 64.8926 112.13 65.4398 112.096L105.069 109.649C105.615 109.616 106.149 109.476 106.641 109.236C107.133 108.996 107.573 108.661 107.936 108.251C108.298 107.841 108.576 107.363 108.754 106.846C108.931 106.328 109.005 105.78 108.97 105.234L105.988 56.6697L92.3608 44.6338Z" fill="#12733C"/>
<path opacity="0.8" d="M92.3608 44.6338L61.3979 46.5452C60.8509 46.5777 60.3157 46.7177 59.8229 46.9573C59.3301 47.197 58.8893 47.5314 58.5259 47.9415C58.1625 48.3517 57.8835 48.8294 57.705 49.3475C57.5264 49.8656 57.4518 50.4138 57.4854 50.9607L61.0171 108.187C61.05 108.734 61.1907 109.27 61.4309 109.763C61.6712 110.256 62.0063 110.696 62.4172 111.059C62.8281 111.422 63.3066 111.701 63.8252 111.879C64.3439 112.057 64.8926 112.13 65.4398 112.096L105.069 109.649C105.615 109.616 106.149 109.476 106.641 109.236C107.133 108.996 107.573 108.661 107.936 108.251C108.298 107.841 108.576 107.363 108.754 106.846C108.931 106.328 109.005 105.78 108.97 105.234L105.988 56.6697L92.3608 44.6338Z" fill="white"/>
<g opacity="0.22">
<path d="M94.2318 104.551L68.4678 106.142C67.9865 106.17 67.5138 106.006 67.153 105.686C66.7922 105.366 66.5726 104.917 66.5421 104.436C66.5145 103.955 66.6779 103.482 66.9968 103.121C67.3157 102.759 67.7643 102.539 68.2451 102.506L94.0091 100.918C94.4904 100.89 94.9635 101.053 95.325 101.372C95.6864 101.691 95.907 102.14 95.9384 102.621C95.9669 103.103 95.8034 103.577 95.4835 103.938C95.1637 104.3 94.7136 104.52 94.2318 104.551Z" fill="#12733C"/>
</g>
<g opacity="0.22">
<path d="M78.9847 54.8551L65.3571 55.6886C64.876 55.7162 64.4035 55.5528 64.0422 55.2339C63.681 54.9151 63.4601 54.4664 63.4278 53.9857C63.4002 53.504 63.5641 53.0309 63.8838 52.6695C64.2034 52.3082 64.6529 52.0878 65.1344 52.0563L78.7619 51.2156C79.2429 51.1871 79.7155 51.3503 80.0764 51.6694C80.4374 51.9886 80.6571 52.4378 80.6876 52.9186C80.7182 53.4011 80.556 53.876 80.2367 54.2391C79.9174 54.6022 79.4671 54.8237 78.9847 54.8551Z" fill="#12733C"/>
</g>
<g opacity="0.22">
<path d="M88.3207 61.5161L65.8046 62.9029C65.323 62.9325 64.8495 62.7697 64.4877 62.4504C64.126 62.1312 63.9058 61.6814 63.8753 61.1999C63.8467 60.718 64.0103 60.2445 64.3301 59.8829C64.65 59.5213 65.1001 59.3011 65.5818 59.2706L88.0944 57.8838C88.5759 57.8543 89.0495 58.017 89.4112 58.3363C89.7729 58.6556 89.9932 59.1053 90.0237 59.5868C90.0523 60.0681 89.8892 60.5412 89.5701 60.9027C89.251 61.2641 88.8019 61.4847 88.3207 61.5161Z" fill="#12733C"/>
</g>
<g opacity="0.22">
<path d="M99.1081 68.0876L66.2483 70.114C65.7654 70.1435 65.2905 69.9805 64.9276 69.6606C64.5646 69.3408 64.3432 68.8902 64.3118 68.4074C64.2833 67.9264 64.4464 67.4538 64.7656 67.0929C65.0848 66.7319 65.534 66.5122 66.0148 66.4816L98.8782 64.4517C99.3595 64.4242 99.8322 64.5882 100.193 64.9079C100.554 65.2277 100.773 65.6772 100.804 66.1583C100.833 66.6385 100.67 67.1105 100.353 67.4718C100.035 67.8331 99.588 68.0544 99.1081 68.0876Z" fill="#12733C"/>
</g>
<g opacity="0.22">
<path d="M99.5552 75.2944L80.4523 76.4729C79.971 76.5014 79.4979 76.3383 79.1364 76.0193C78.7749 75.7002 78.5544 75.251 78.5229 74.7699C78.4934 74.2883 78.6562 73.8147 78.9754 73.453C79.2947 73.0913 79.7444 72.871 80.2259 72.8405L99.3289 71.6621C99.8104 71.6326 100.284 71.7953 100.646 72.1146C101.007 72.4339 101.228 72.8836 101.258 73.3651C101.287 73.8464 101.124 74.3195 100.805 74.681C100.486 75.0425 100.036 75.263 99.5552 75.2944Z" fill="#12733C"/>
</g>
<g opacity="0.22">
<path d="M71.6883 77.0118L66.6907 77.3208C66.2097 77.3493 65.737 77.1861 65.3761 76.8669C65.0152 76.5478 64.7954 76.0986 64.7649 75.6178C64.7364 75.1365 64.8995 74.6634 65.2185 74.3019C65.5376 73.9404 65.9868 73.7199 66.4679 73.6884L71.4655 73.3795C71.9472 73.3519 72.4202 73.5158 72.7816 73.8354C73.143 74.1551 73.3634 74.6046 73.3948 75.086C73.4224 75.5673 73.2584 76.04 72.9386 76.4008C72.6189 76.7616 72.1694 76.9813 71.6883 77.0118Z" fill="#12733C"/>
</g>
<g opacity="0.22">
<path d="M99.9998 82.5022L67.1364 84.5286C66.6551 84.5571 66.182 84.394 65.8205 84.075C65.4591 83.7559 65.2385 83.3067 65.2071 82.8256C65.1795 82.3439 65.3434 81.8708 65.6631 81.5095C65.9827 81.1481 66.4322 80.9277 66.9137 80.8962L99.7735 78.8699C100.255 78.8414 100.729 79.0049 101.091 79.3248C101.452 79.6446 101.672 80.0947 101.703 80.5765C101.731 81.0574 101.568 81.5301 101.249 81.891C100.93 82.2519 100.481 82.4717 99.9998 82.5022Z" fill="#12733C"/>
</g>
<g opacity="0.22">
<path d="M87.7625 90.4918L67.5817 91.7385C67.1001 91.766 66.627 91.6021 66.2656 91.2825C65.9043 90.9628 65.6838 90.5133 65.6524 90.0319C65.6249 89.5506 65.7889 89.0779 66.1086 88.7171C66.4284 88.3563 66.8779 88.1367 67.359 88.1061L87.5398 86.8594C88.0211 86.8319 88.4937 86.9959 88.8545 87.3156C89.2154 87.6354 89.435 88.0849 89.4655 88.566C89.495 89.0472 89.3322 89.5204 89.0128 89.8815C88.6934 90.2427 88.2437 90.4622 87.7625 90.4918Z" fill="#12733C"/>
</g>
<g opacity="0.22">
<path d="M100.442 89.7124L95.0532 90.0429C94.5722 90.0715 94.0996 89.9083 93.7386 89.5891C93.3777 89.2699 93.158 88.8208 93.1274 88.34C93.0979 87.8584 93.2607 87.3848 93.5799 87.0231C93.8992 86.6614 94.3489 86.4411 94.8304 86.4106L100.22 86.0801C100.701 86.0506 101.175 86.2133 101.536 86.5326C101.898 86.8518 102.118 87.3016 102.149 87.7831C102.177 88.2647 102.013 88.7378 101.693 89.0992C101.373 89.4605 100.924 89.681 100.442 89.7124Z" fill="#12733C"/>
</g>
<g opacity="0.22">
<path d="M100.887 96.9197L68.0273 98.946C67.5459 98.9746 67.0729 98.8115 66.7114 98.4925C66.3499 98.1734 66.1294 97.7242 66.0979 97.2431C66.0694 96.7617 66.2325 96.2887 66.5515 95.9272C66.8706 95.5657 67.3198 95.3452 67.8009 95.3137L100.664 93.2874C101.145 93.2589 101.618 93.422 101.979 93.7412C102.34 94.0604 102.56 94.5095 102.59 94.9904C102.62 95.4719 102.457 95.9455 102.138 96.3072C101.818 96.6689 101.369 96.8892 100.887 96.9197Z" fill="#12733C"/>
</g>
<path opacity="0.22" d="M92.3613 44.6338L92.8967 53.2996C92.9301 53.846 93.0708 54.3805 93.3108 54.8725C93.5508 55.3645 93.8854 55.8044 94.2954 56.167C94.7055 56.5297 95.1829 56.808 95.7006 56.9861C96.2182 57.1642 96.7658 57.2386 97.3122 57.205L105.989 56.6697L92.3613 44.6338Z" fill="#12733C"/>
<path opacity="0.5" d="M82.2211 66.2513C82.2157 65.836 82.1271 65.426 81.9605 65.0456C81.794 64.6651 81.5529 64.3219 81.2514 64.0362C80.95 63.7505 80.5944 63.5281 80.2055 63.3822C79.8167 63.2363 79.4026 63.1698 78.9876 63.1866H50.2092C48.0284 63.1866 45.8978 64.9579 45.4882 67.1387L34.1314 125.324C33.7074 127.505 35.1302 129.276 37.311 129.276H128.568C130.749 129.276 132.862 127.509 133.289 125.324L142.656 77.3603C143.08 75.1758 141.657 73.4082 139.476 73.4082H89.8199C85.5085 73.4082 82.3684 70.4405 82.2211 66.2513Z" fill="#12733C"/>
</svg>
