<svg width="165" height="184" viewBox="0 0 165 184" fill="none" xmlns="http://www.w3.org/2000/svg">
<path fill-rule="evenodd" clip-rule="evenodd" d="M147.474 51.2961L148.087 113.965C148.09 114.299 148.083 114.631 148.066 114.96C148.431 118.772 147.437 122.726 144.968 126.039C139.69 133.121 129.669 134.583 122.587 129.304L67.7223 88.4119L27.2434 128.471C20.9652 134.685 10.8388 134.632 4.62564 128.354C-1.58757 122.075 -1.53485 111.949 4.74339 105.736L54.917 56.0821C60.8259 50.2344 70.1435 49.937 76.3992 55.1564C77.0059 55.4956 77.5975 55.8782 78.1699 56.3048L115.809 84.3583L115.481 50.796C111.474 50.7557 107.477 49.2185 104.401 46.1791C98.1186 39.9703 98.0587 29.844 104.268 23.5614L121.062 6.56744C121.68 5.94211 122.336 5.37844 123.024 4.87645C123.664 4.21688 124.368 3.60349 125.138 3.04583C132.289 -2.13858 142.289 -0.544027 147.474 6.60735L161.497 25.9512C166.681 33.1026 165.087 43.1027 157.935 48.2871C154.783 50.5725 151.077 51.5405 147.474 51.2961ZM164.554 166.791C164.46 157.959 157.224 150.875 148.392 150.968L98.5816 151.495C89.7492 151.589 82.6649 158.825 82.7584 167.657C82.8519 176.489 90.0878 183.574 98.9202 183.48L148.73 182.953C157.563 182.86 164.647 175.624 164.554 166.791Z" fill="#1D1D1D"/>
</svg>
