<svg width="377" height="281" viewBox="0 0 377 281" fill="none" xmlns="http://www.w3.org/2000/svg">
<path d="M377 246.518H0V246.707H377V246.518Z" fill="#EBEBEB"/>
<path d="M339.224 258.65H314.252V258.838H339.224V258.65Z" fill="#EBEBEB"/>
<path d="M249.74 260.701H243.188V260.889H249.74V260.701Z" fill="#EBEBEB"/>
<path d="M313.498 251.652H299.028V251.841H313.498V251.652Z" fill="#EBEBEB"/>
<path d="M72.1199 252.919H39.5547V253.107H72.1199V252.919Z" fill="#EBEBEB"/>
<path d="M83.6107 252.919H78.8379V253.107H83.6107V252.919Z" fill="#EBEBEB"/>
<path d="M169.763 256.102H99.1279V256.29H169.763V256.102Z" fill="#EBEBEB"/>
<path d="M335.846 46.5415H153.167V222.631H335.846V46.5415Z" fill="#E0E0E0"/>
<path d="M335.847 49.7383H156.101V219.554H335.847V49.7383Z" fill="#F5F5F5"/>
<path d="M157.428 178.431V127.348H162.728V120.599L174.672 115.02V108.113H176.662V127.348H178.653V178.431H181.307V151.89H187.278V137.964H189.269V178.431H193.906V163.17H197.224V159.189H204.522V145.263H208.504V135.974H213.148V122.04H215.139V135.974H219.783V145.263H223.757V159.189H231.056V163.17H234.373V178.431H238.354V159.189H245.653V116.739H247.644V112.094H263.561V116.739H266.878V147.253H280.149V150.563H284.786V152.554H280.149V164.497H294.075V124.694H296.729V116.739H303.364V86.2246H305.355V116.739H310V124.694H335.847V219.554H156.101V178.431H157.428Z" fill="#E6E6E6"/>
<path d="M322.033 126.774H320.155V128.652H322.033V126.774Z" fill="#F0F0F0"/>
<path d="M322.033 129.927H320.155V131.804H322.033V129.927Z" fill="#F0F0F0"/>
<path d="M322.033 142.533H320.155V144.411H322.033V142.533Z" fill="#F0F0F0"/>
<path d="M322.033 145.677H320.155V147.555H322.033V145.677Z" fill="#F0F0F0"/>
<path d="M322.033 148.83H320.155V150.707H322.033V148.83Z" fill="#F0F0F0"/>
<path d="M322.033 158.285H320.155V160.163H322.033V158.285Z" fill="#F0F0F0"/>
<path d="M322.033 161.436H320.155V163.313H322.033V161.436Z" fill="#F0F0F0"/>
<path d="M319.048 139.382H317.171V141.259H319.048V139.382Z" fill="#F0F0F0"/>
<path d="M319.048 142.533H317.171V144.411H319.048V142.533Z" fill="#F0F0F0"/>
<path d="M319.048 145.677H317.171V147.555H319.048V145.677Z" fill="#F0F0F0"/>
<path d="M319.048 148.83H317.171V150.707H319.048V148.83Z" fill="#F0F0F0"/>
<path d="M319.048 151.981H317.171V153.858H319.048V151.981Z" fill="#F0F0F0"/>
<path d="M319.048 158.285H317.171V160.163H319.048V158.285Z" fill="#F0F0F0"/>
<path d="M319.048 161.436H317.171V163.313H319.048V161.436Z" fill="#F0F0F0"/>
<path d="M316.062 126.774H314.185V128.652H316.062V126.774Z" fill="#F0F0F0"/>
<path d="M316.062 129.927H314.185V131.804H316.062V129.927Z" fill="#F0F0F0"/>
<path d="M316.062 133.078H314.185V134.956H316.062V133.078Z" fill="#F0F0F0"/>
<path d="M316.062 136.229H314.185V138.107H316.062V136.229Z" fill="#F0F0F0"/>
<path d="M316.062 139.382H314.185V141.259H316.062V139.382Z" fill="#F0F0F0"/>
<path d="M316.062 142.533H314.185V144.411H316.062V142.533Z" fill="#F0F0F0"/>
<path d="M316.062 145.677H314.185V147.555H316.062V145.677Z" fill="#F0F0F0"/>
<path d="M316.062 148.83H314.185V150.707H316.062V148.83Z" fill="#F0F0F0"/>
<path d="M316.062 151.981H314.185V153.858H316.062V151.981Z" fill="#F0F0F0"/>
<path d="M316.062 155.133H314.185V157.011H316.062V155.133Z" fill="#F0F0F0"/>
<path d="M316.062 161.436H314.185V163.313H316.062V161.436Z" fill="#F0F0F0"/>
<path d="M313.077 126.774H311.199V128.652H313.077V126.774Z" fill="#F0F0F0"/>
<path d="M313.077 129.927H311.199V131.804H313.077V129.927Z" fill="#F0F0F0"/>
<path d="M313.077 133.078H311.199V134.956H313.077V133.078Z" fill="#F0F0F0"/>
<path d="M313.077 136.229H311.199V138.107H313.077V136.229Z" fill="#F0F0F0"/>
<path d="M313.077 139.382H311.199V141.259H313.077V139.382Z" fill="#F0F0F0"/>
<path d="M313.077 142.533H311.199V144.411H313.077V142.533Z" fill="#F0F0F0"/>
<path d="M313.077 145.677H311.199V147.555H313.077V145.677Z" fill="#F0F0F0"/>
<path d="M313.077 174.043H311.199V175.921H313.077V174.043Z" fill="#F0F0F0"/>
<path d="M310.09 126.774H308.213V128.652H310.09V126.774Z" fill="#F0F0F0"/>
<path d="M310.09 129.927H308.213V131.804H310.09V129.927Z" fill="#F0F0F0"/>
<path d="M310.09 133.078H308.213V134.956H310.09V133.078Z" fill="#F0F0F0"/>
<path d="M310.09 136.229H308.213V138.107H310.09V136.229Z" fill="#F0F0F0"/>
<path d="M310.09 139.382H308.213V141.259H310.09V139.382Z" fill="#F0F0F0"/>
<path d="M310.09 142.533H308.213V144.411H310.09V142.533Z" fill="#F0F0F0"/>
<path d="M310.09 145.677H308.213V147.555H310.09V145.677Z" fill="#F0F0F0"/>
<path d="M310.09 148.83H308.213V150.707H310.09V148.83Z" fill="#F0F0F0"/>
<path d="M310.09 167.74H308.213V169.617H310.09V167.74Z" fill="#F0F0F0"/>
<path d="M310.09 170.892H308.213V172.77H310.09V170.892Z" fill="#F0F0F0"/>
<path d="M310.09 174.043H308.213V175.921H310.09V174.043Z" fill="#F0F0F0"/>
<path d="M310.09 177.188H308.213V179.065H310.09V177.188Z" fill="#F0F0F0"/>
<path d="M310.09 189.794H308.213V191.671H310.09V189.794Z" fill="#F0F0F0"/>
<path d="M307.103 126.774H305.226V128.652H307.103V126.774Z" fill="#F0F0F0"/>
<path d="M307.103 129.927H305.226V131.804H307.103V129.927Z" fill="#F0F0F0"/>
<path d="M307.103 133.078H305.226V134.956H307.103V133.078Z" fill="#F0F0F0"/>
<path d="M307.103 136.229H305.226V138.107H307.103V136.229Z" fill="#F0F0F0"/>
<path d="M307.103 139.382H305.226V141.259H307.103V139.382Z" fill="#F0F0F0"/>
<path d="M307.103 142.533H305.226V144.411H307.103V142.533Z" fill="#F0F0F0"/>
<path d="M307.103 145.677H305.226V147.555H307.103V145.677Z" fill="#F0F0F0"/>
<path d="M307.103 148.83H305.226V150.707H307.103V148.83Z" fill="#F0F0F0"/>
<path d="M307.103 151.981H305.226V153.858H307.103V151.981Z" fill="#F0F0F0"/>
<path d="M307.103 155.133H305.226V157.011H307.103V155.133Z" fill="#F0F0F0"/>
<path d="M307.103 164.588H305.226V166.466H307.103V164.588Z" fill="#F0F0F0"/>
<path d="M307.103 167.74H305.226V169.617H307.103V167.74Z" fill="#F0F0F0"/>
<path d="M307.103 170.892H305.226V172.77H307.103V170.892Z" fill="#F0F0F0"/>
<path d="M307.103 174.043H305.226V175.921H307.103V174.043Z" fill="#F0F0F0"/>
<path d="M307.103 177.188H305.226V179.065H307.103V177.188Z" fill="#F0F0F0"/>
<path d="M307.103 189.794H305.226V191.671H307.103V189.794Z" fill="#F0F0F0"/>
<path d="M304.118 126.774H302.24V128.652H304.118V126.774Z" fill="#F0F0F0"/>
<path d="M304.118 129.927H302.24V131.804H304.118V129.927Z" fill="#F0F0F0"/>
<path d="M304.118 133.078H302.24V134.956H304.118V133.078Z" fill="#F0F0F0"/>
<path d="M304.118 136.229H302.24V138.107H304.118V136.229Z" fill="#F0F0F0"/>
<path d="M304.118 139.382H302.24V141.259H304.118V139.382Z" fill="#F0F0F0"/>
<path d="M304.118 142.533H302.24V144.411H304.118V142.533Z" fill="#F0F0F0"/>
<path d="M304.118 145.677H302.24V147.555H304.118V145.677Z" fill="#F0F0F0"/>
<path d="M304.118 148.83H302.24V150.707H304.118V148.83Z" fill="#F0F0F0"/>
<path d="M304.118 151.981H302.24V153.858H304.118V151.981Z" fill="#F0F0F0"/>
<path d="M304.118 155.133H302.24V157.011H304.118V155.133Z" fill="#F0F0F0"/>
<path d="M304.118 158.285H302.24V160.163H304.118V158.285Z" fill="#F0F0F0"/>
<path d="M304.118 161.436H302.24V163.313H304.118V161.436Z" fill="#F0F0F0"/>
<path d="M304.118 164.588H302.24V166.466H304.118V164.588Z" fill="#F0F0F0"/>
<path d="M304.118 167.74H302.24V169.617H304.118V167.74Z" fill="#F0F0F0"/>
<path d="M304.118 170.892H302.24V172.77H304.118V170.892Z" fill="#F0F0F0"/>
<path d="M304.118 174.043H302.24V175.921H304.118V174.043Z" fill="#F0F0F0"/>
<path d="M304.118 177.188H302.24V179.065H304.118V177.188Z" fill="#F0F0F0"/>
<path d="M304.118 180.339H302.24V182.217H304.118V180.339Z" fill="#F0F0F0"/>
<path d="M301.131 126.774H299.254V128.652H301.131V126.774Z" fill="#F0F0F0"/>
<path d="M301.131 129.927H299.254V131.804H301.131V129.927Z" fill="#F0F0F0"/>
<path d="M301.131 133.078H299.254V134.956H301.131V133.078Z" fill="#F0F0F0"/>
<path d="M301.131 136.229H299.254V138.107H301.131V136.229Z" fill="#F0F0F0"/>
<path d="M301.131 139.382H299.254V141.259H301.131V139.382Z" fill="#F0F0F0"/>
<path d="M301.131 142.533H299.254V144.411H301.131V142.533Z" fill="#F0F0F0"/>
<path d="M301.131 145.677H299.254V147.555H301.131V145.677Z" fill="#F0F0F0"/>
<path d="M301.131 148.83H299.254V150.707H301.131V148.83Z" fill="#F0F0F0"/>
<path d="M301.131 151.981H299.254V153.858H301.131V151.981Z" fill="#F0F0F0"/>
<path d="M301.131 155.133H299.254V157.011H301.131V155.133Z" fill="#F0F0F0"/>
<path d="M301.131 164.588H299.254V166.466H301.131V164.588Z" fill="#F0F0F0"/>
<path d="M301.131 167.74H299.254V169.617H301.131V167.74Z" fill="#F0F0F0"/>
<path d="M301.131 170.892H299.254V172.77H301.131V170.892Z" fill="#F0F0F0"/>
<path d="M301.131 174.043H299.254V175.921H301.131V174.043Z" fill="#F0F0F0"/>
<path d="M298.155 126.774H296.277V128.652H298.155V126.774Z" fill="#F0F0F0"/>
<path d="M298.155 129.927H296.277V131.804H298.155V129.927Z" fill="#F0F0F0"/>
<path d="M298.155 133.078H296.277V134.956H298.155V133.078Z" fill="#F0F0F0"/>
<path d="M298.155 136.229H296.277V138.107H298.155V136.229Z" fill="#F0F0F0"/>
<path d="M298.155 139.382H296.277V141.259H298.155V139.382Z" fill="#F0F0F0"/>
<path d="M298.155 142.533H296.277V144.411H298.155V142.533Z" fill="#F0F0F0"/>
<path d="M298.155 145.677H296.277V147.555H298.155V145.677Z" fill="#F0F0F0"/>
<path d="M298.155 148.83H296.277V150.707H298.155V148.83Z" fill="#F0F0F0"/>
<path d="M298.155 151.981H296.277V153.858H298.155V151.981Z" fill="#F0F0F0"/>
<path d="M298.155 155.133H296.277V157.011H298.155V155.133Z" fill="#F0F0F0"/>
<path d="M298.155 164.588H296.277V166.466H298.155V164.588Z" fill="#F0F0F0"/>
<path d="M298.155 167.74H296.277V169.617H298.155V167.74Z" fill="#F0F0F0"/>
<path d="M298.155 170.892H296.277V172.77H298.155V170.892Z" fill="#F0F0F0"/>
<path d="M264.54 118.594H262.662V120.472H264.54V118.594Z" fill="#F0F0F0"/>
<path d="M264.54 121.746H262.662V123.623H264.54V121.746Z" fill="#F0F0F0"/>
<path d="M264.54 124.897H262.662V126.775H264.54V124.897Z" fill="#F0F0F0"/>
<path d="M264.54 128.049H262.662V129.927H264.54V128.049Z" fill="#F0F0F0"/>
<path d="M264.54 131.201H262.662V133.078H264.54V131.201Z" fill="#F0F0F0"/>
<path d="M264.54 134.353H262.662V136.23H264.54V134.353Z" fill="#F0F0F0"/>
<path d="M264.54 137.497H262.662V139.374H264.54V137.497Z" fill="#F0F0F0"/>
<path d="M264.54 140.648H262.662V142.526H264.54V140.648Z" fill="#F0F0F0"/>
<path d="M264.54 150.104H262.662V151.981H264.54V150.104Z" fill="#F0F0F0"/>
<path d="M264.54 153.255H262.662V155.133H264.54V153.255Z" fill="#F0F0F0"/>
<path d="M261.555 118.594H259.678V120.472H261.555V118.594Z" fill="#F0F0F0"/>
<path d="M261.555 121.746H259.678V123.623H261.555V121.746Z" fill="#F0F0F0"/>
<path d="M261.555 124.897H259.678V126.775H261.555V124.897Z" fill="#F0F0F0"/>
<path d="M261.555 128.049H259.678V129.927H261.555V128.049Z" fill="#F0F0F0"/>
<path d="M261.555 131.201H259.678V133.078H261.555V131.201Z" fill="#F0F0F0"/>
<path d="M261.555 134.353H259.678V136.23H261.555V134.353Z" fill="#F0F0F0"/>
<path d="M261.555 137.497H259.678V139.374H261.555V137.497Z" fill="#F0F0F0"/>
<path d="M261.555 140.648H259.678V142.526H261.555V140.648Z" fill="#F0F0F0"/>
<path d="M261.555 153.255H259.678V155.133H261.555V153.255Z" fill="#F0F0F0"/>
<path d="M258.569 118.594H256.691V120.472H258.569V118.594Z" fill="#F0F0F0"/>
<path d="M258.569 121.746H256.691V123.623H258.569V121.746Z" fill="#F0F0F0"/>
<path d="M258.569 124.897H256.691V126.775H258.569V124.897Z" fill="#F0F0F0"/>
<path d="M258.569 128.049H256.691V129.927H258.569V128.049Z" fill="#F0F0F0"/>
<path d="M258.569 131.201H256.691V133.078H258.569V131.201Z" fill="#F0F0F0"/>
<path d="M258.569 134.353H256.691V136.23H258.569V134.353Z" fill="#F0F0F0"/>
<path d="M258.569 137.497H256.691V139.374H258.569V137.497Z" fill="#F0F0F0"/>
<path d="M258.569 140.648H256.691V142.526H258.569V140.648Z" fill="#F0F0F0"/>
<path d="M255.584 118.594H253.706V120.472H255.584V118.594Z" fill="#F0F0F0"/>
<path d="M255.584 121.746H253.706V123.623H255.584V121.746Z" fill="#F0F0F0"/>
<path d="M255.584 124.897H253.706V126.775H255.584V124.897Z" fill="#F0F0F0"/>
<path d="M255.584 128.049H253.706V129.927H255.584V128.049Z" fill="#F0F0F0"/>
<path d="M255.584 131.201H253.706V133.078H255.584V131.201Z" fill="#F0F0F0"/>
<path d="M255.584 134.353H253.706V136.23H255.584V134.353Z" fill="#F0F0F0"/>
<path d="M255.584 140.648H253.706V142.526H255.584V140.648Z" fill="#F0F0F0"/>
<path d="M255.584 143.8H253.706V145.678H255.584V143.8Z" fill="#F0F0F0"/>
<path d="M255.584 153.255H253.706V155.133H255.584V153.255Z" fill="#F0F0F0"/>
<path d="M255.584 156.407H253.706V158.284H255.584V156.407Z" fill="#F0F0F0"/>
<path d="M255.584 159.559H253.706V161.437H255.584V159.559Z" fill="#F0F0F0"/>
<path d="M255.584 162.71H253.706V164.588H255.584V162.71Z" fill="#F0F0F0"/>
<path d="M255.584 165.863H253.706V167.74H255.584V165.863Z" fill="#F0F0F0"/>
<path d="M255.584 169.006H253.706V170.884H255.584V169.006Z" fill="#F0F0F0"/>
<path d="M255.584 172.158H253.706V174.036H255.584V172.158Z" fill="#F0F0F0"/>
<path d="M252.597 118.594H250.72V120.472H252.597V118.594Z" fill="#F0F0F0"/>
<path d="M252.597 121.746H250.72V123.623H252.597V121.746Z" fill="#F0F0F0"/>
<path d="M252.597 124.897H250.72V126.775H252.597V124.897Z" fill="#F0F0F0"/>
<path d="M252.597 128.049H250.72V129.927H252.597V128.049Z" fill="#F0F0F0"/>
<path d="M252.597 131.201H250.72V133.078H252.597V131.201Z" fill="#F0F0F0"/>
<path d="M252.597 134.353H250.72V136.23H252.597V134.353Z" fill="#F0F0F0"/>
<path d="M252.597 143.8H250.72V145.678H252.597V143.8Z" fill="#F0F0F0"/>
<path d="M252.597 146.952H250.72V148.83H252.597V146.952Z" fill="#F0F0F0"/>
<path d="M252.597 150.104H250.72V151.981H252.597V150.104Z" fill="#F0F0F0"/>
<path d="M252.597 153.255H250.72V155.133H252.597V153.255Z" fill="#F0F0F0"/>
<path d="M252.597 156.407H250.72V158.284H252.597V156.407Z" fill="#F0F0F0"/>
<path d="M252.597 159.559H250.72V161.437H252.597V159.559Z" fill="#F0F0F0"/>
<path d="M252.597 162.71H250.72V164.588H252.597V162.71Z" fill="#F0F0F0"/>
<path d="M252.597 165.863H250.72V167.74H252.597V165.863Z" fill="#F0F0F0"/>
<path d="M252.597 169.006H250.72V170.884H252.597V169.006Z" fill="#F0F0F0"/>
<path d="M252.597 172.158H250.72V174.036H252.597V172.158Z" fill="#F0F0F0"/>
<path d="M252.597 175.311H250.72V177.188H252.597V175.311Z" fill="#F0F0F0"/>
<path d="M252.597 181.613H250.72V183.49H252.597V181.613Z" fill="#F0F0F0"/>
<path d="M249.612 118.594H247.734V120.472H249.612V118.594Z" fill="#F0F0F0"/>
<path d="M249.612 121.746H247.734V123.623H249.612V121.746Z" fill="#F0F0F0"/>
<path d="M249.612 124.897H247.734V126.775H249.612V124.897Z" fill="#F0F0F0"/>
<path d="M249.612 128.049H247.734V129.927H249.612V128.049Z" fill="#F0F0F0"/>
<path d="M249.612 131.201H247.734V133.078H249.612V131.201Z" fill="#F0F0F0"/>
<path d="M249.612 134.353H247.734V136.23H249.612V134.353Z" fill="#F0F0F0"/>
<path d="M249.612 143.8H247.734V145.678H249.612V143.8Z" fill="#F0F0F0"/>
<path d="M249.612 146.952H247.734V148.83H249.612V146.952Z" fill="#F0F0F0"/>
<path d="M249.612 150.104H247.734V151.981H249.612V150.104Z" fill="#F0F0F0"/>
<path d="M249.612 153.255H247.734V155.133H249.612V153.255Z" fill="#F0F0F0"/>
<path d="M249.612 162.71H247.734V164.588H249.612V162.71Z" fill="#F0F0F0"/>
<path d="M249.612 165.863H247.734V167.74H249.612V165.863Z" fill="#F0F0F0"/>
<path d="M249.612 169.006H247.734V170.884H249.612V169.006Z" fill="#F0F0F0"/>
<path d="M249.612 172.158H247.734V174.036H249.612V172.158Z" fill="#F0F0F0"/>
<path d="M249.612 175.311H247.734V177.188H249.612V175.311Z" fill="#F0F0F0"/>
<path d="M249.612 181.613H247.734V183.49H249.612V181.613Z" fill="#F0F0F0"/>
<path d="M249.612 184.765H247.734V186.643H249.612V184.765Z" fill="#F0F0F0"/>
<path d="M222.528 147.895H220.65V149.772H222.528V147.895Z" fill="#F0F0F0"/>
<path d="M222.528 151.046H220.65V152.924H222.528V151.046Z" fill="#F0F0F0"/>
<path d="M222.528 154.198H220.65V156.075H222.528V154.198Z" fill="#F0F0F0"/>
<path d="M222.528 157.342H220.65V159.22H222.528V157.342Z" fill="#F0F0F0"/>
<path d="M222.528 160.494H220.65V162.372H222.528V160.494Z" fill="#F0F0F0"/>
<path d="M222.528 163.645H220.65V165.522H222.528V163.645Z" fill="#F0F0F0"/>
<path d="M222.528 166.797H220.65V168.675H222.528V166.797Z" fill="#F0F0F0"/>
<path d="M222.528 176.252H220.65V178.13H222.528V176.252Z" fill="#F0F0F0"/>
<path d="M222.528 179.404H220.65V181.282H222.528V179.404Z" fill="#F0F0F0"/>
<path d="M222.528 182.556H220.65V184.433H222.528V182.556Z" fill="#F0F0F0"/>
<path d="M219.542 147.895H217.664V149.772H219.542V147.895Z" fill="#F0F0F0"/>
<path d="M219.542 151.046H217.664V152.924H219.542V151.046Z" fill="#F0F0F0"/>
<path d="M219.542 154.198H217.664V156.075H219.542V154.198Z" fill="#F0F0F0"/>
<path d="M219.542 157.342H217.664V159.22H219.542V157.342Z" fill="#F0F0F0"/>
<path d="M219.542 160.494H217.664V162.372H219.542V160.494Z" fill="#F0F0F0"/>
<path d="M219.542 163.645H217.664V165.522H219.542V163.645Z" fill="#F0F0F0"/>
<path d="M219.542 166.797H217.664V168.675H219.542V166.797Z" fill="#F0F0F0"/>
<path d="M216.557 147.895H214.68V149.772H216.557V147.895Z" fill="#F0F0F0"/>
<path d="M216.557 151.046H214.68V152.924H216.557V151.046Z" fill="#F0F0F0"/>
<path d="M216.557 154.198H214.68V156.075H216.557V154.198Z" fill="#F0F0F0"/>
<path d="M216.557 157.342H214.68V159.22H216.557V157.342Z" fill="#F0F0F0"/>
<path d="M216.557 160.494H214.68V162.372H216.557V160.494Z" fill="#F0F0F0"/>
<path d="M216.557 163.645H214.68V165.522H216.557V163.645Z" fill="#F0F0F0"/>
<path d="M216.557 166.797H214.68V168.675H216.557V166.797Z" fill="#F0F0F0"/>
<path d="M213.571 147.895H211.693V149.772H213.571V147.895Z" fill="#F0F0F0"/>
<path d="M213.571 151.046H211.693V152.924H213.571V151.046Z" fill="#F0F0F0"/>
<path d="M213.571 154.198H211.693V156.075H213.571V154.198Z" fill="#F0F0F0"/>
<path d="M213.571 157.342H211.693V159.22H213.571V157.342Z" fill="#F0F0F0"/>
<path d="M213.571 160.494H211.693V162.372H213.571V160.494Z" fill="#F0F0F0"/>
<path d="M213.571 163.645H211.693V165.522H213.571V163.645Z" fill="#F0F0F0"/>
<path d="M213.571 166.797H211.693V168.675H213.571V166.797Z" fill="#F0F0F0"/>
<path d="M213.571 169.949H211.693V171.826H213.571V169.949Z" fill="#F0F0F0"/>
<path d="M213.571 173.101H211.693V174.979H213.571V173.101Z" fill="#F0F0F0"/>
<path d="M213.571 176.252H211.693V178.13H213.571V176.252Z" fill="#F0F0F0"/>
<path d="M213.571 179.404H211.693V181.282H213.571V179.404Z" fill="#F0F0F0"/>
<path d="M210.585 147.895H208.707V149.772H210.585V147.895Z" fill="#F0F0F0"/>
<path d="M210.585 151.046H208.707V152.924H210.585V151.046Z" fill="#F0F0F0"/>
<path d="M210.585 154.198H208.707V156.075H210.585V154.198Z" fill="#F0F0F0"/>
<path d="M210.585 157.342H208.707V159.22H210.585V157.342Z" fill="#F0F0F0"/>
<path d="M210.585 160.494H208.707V162.372H210.585V160.494Z" fill="#F0F0F0"/>
<path d="M210.585 163.645H208.707V165.522H210.585V163.645Z" fill="#F0F0F0"/>
<path d="M210.585 166.797H208.707V168.675H210.585V166.797Z" fill="#F0F0F0"/>
<path d="M210.585 169.949H208.707V171.826H210.585V169.949Z" fill="#F0F0F0"/>
<path d="M210.585 173.101H208.707V174.979H210.585V173.101Z" fill="#F0F0F0"/>
<path d="M210.585 176.252H208.707V178.13H210.585V176.252Z" fill="#F0F0F0"/>
<path d="M210.585 179.404H208.707V181.282H210.585V179.404Z" fill="#F0F0F0"/>
<path d="M210.585 182.556H208.707V184.433H210.585V182.556Z" fill="#F0F0F0"/>
<path d="M210.585 192.003H208.707V193.881H210.585V192.003Z" fill="#F0F0F0"/>
<path d="M210.585 195.155H208.707V197.032H210.585V195.155Z" fill="#F0F0F0"/>
<path d="M207.599 147.895H205.722V149.772H207.599V147.895Z" fill="#F0F0F0"/>
<path d="M207.599 151.046H205.722V152.924H207.599V151.046Z" fill="#F0F0F0"/>
<path d="M207.599 154.198H205.722V156.075H207.599V154.198Z" fill="#F0F0F0"/>
<path d="M207.599 163.645H205.722V165.522H207.599V163.645Z" fill="#F0F0F0"/>
<path d="M207.599 166.797H205.722V168.675H207.599V166.797Z" fill="#F0F0F0"/>
<path d="M207.599 169.949H205.722V171.826H207.599V169.949Z" fill="#F0F0F0"/>
<path d="M207.599 173.101H205.722V174.979H207.599V173.101Z" fill="#F0F0F0"/>
<path d="M207.599 176.252H205.722V178.13H207.599V176.252Z" fill="#F0F0F0"/>
<path d="M207.599 179.404H205.722V181.282H207.599V179.404Z" fill="#F0F0F0"/>
<path d="M207.599 182.556H205.722V184.433H207.599V182.556Z" fill="#F0F0F0"/>
<path d="M207.599 192.003H205.722V193.881H207.599V192.003Z" fill="#F0F0F0"/>
<path d="M207.599 195.155H205.722V197.032H207.599V195.155Z" fill="#F0F0F0"/>
<path d="M207.599 198.307H205.722V200.185H207.599V198.307Z" fill="#F0F0F0"/>
<path d="M176.316 128.984H174.438V130.861H176.316V128.984Z" fill="#F0F0F0"/>
<path d="M176.316 132.136H174.438V134.014H176.316V132.136Z" fill="#F0F0F0"/>
<path d="M176.316 135.288H174.438V137.165H176.316V135.288Z" fill="#F0F0F0"/>
<path d="M176.316 138.439H174.438V140.317H176.316V138.439Z" fill="#F0F0F0"/>
<path d="M176.316 141.591H174.438V143.469H176.316V141.591Z" fill="#F0F0F0"/>
<path d="M176.316 144.743H174.438V146.621H176.316V144.743Z" fill="#F0F0F0"/>
<path d="M176.316 147.895H174.438V149.772H176.316V147.895Z" fill="#F0F0F0"/>
<path d="M176.316 151.046H174.438V152.924H176.316V151.046Z" fill="#F0F0F0"/>
<path d="M176.316 154.198H174.438V156.075H176.316V154.198Z" fill="#F0F0F0"/>
<path d="M176.316 157.342H174.438V159.22H176.316V157.342Z" fill="#F0F0F0"/>
<path d="M176.316 160.494H174.438V162.372H176.316V160.494Z" fill="#F0F0F0"/>
<path d="M176.316 163.645H174.438V165.522H176.316V163.645Z" fill="#F0F0F0"/>
<path d="M176.316 166.797H174.438V168.675H176.316V166.797Z" fill="#F0F0F0"/>
<path d="M176.316 169.949H174.438V171.826H176.316V169.949Z" fill="#F0F0F0"/>
<path d="M176.316 173.101H174.438V174.979H176.316V173.101Z" fill="#F0F0F0"/>
<path d="M176.316 176.252H174.438V178.13H176.316V176.252Z" fill="#F0F0F0"/>
<path d="M176.316 179.404H174.438V181.282H176.316V179.404Z" fill="#F0F0F0"/>
<path d="M176.316 182.556H174.438V184.433H176.316V182.556Z" fill="#F0F0F0"/>
<path d="M176.316 185.708H174.438V187.585H176.316V185.708Z" fill="#F0F0F0"/>
<path d="M176.316 188.853H174.438V190.73H176.316V188.853Z" fill="#F0F0F0"/>
<path d="M176.316 192.003H174.438V193.881H176.316V192.003Z" fill="#F0F0F0"/>
<path d="M176.316 195.155H174.438V197.032H176.316V195.155Z" fill="#F0F0F0"/>
<path d="M176.316 198.307H174.438V200.185H176.316V198.307Z" fill="#F0F0F0"/>
<path d="M173.331 128.984H171.453V130.861H173.331V128.984Z" fill="#F0F0F0"/>
<path d="M173.331 132.136H171.453V134.014H173.331V132.136Z" fill="#F0F0F0"/>
<path d="M173.331 135.288H171.453V137.165H173.331V135.288Z" fill="#F0F0F0"/>
<path d="M173.331 138.439H171.453V140.317H173.331V138.439Z" fill="#F0F0F0"/>
<path d="M173.331 141.591H171.453V143.469H173.331V141.591Z" fill="#F0F0F0"/>
<path d="M173.331 144.743H171.453V146.621H173.331V144.743Z" fill="#F0F0F0"/>
<path d="M173.331 147.895H171.453V149.772H173.331V147.895Z" fill="#F0F0F0"/>
<path d="M173.331 151.046H171.453V152.924H173.331V151.046Z" fill="#F0F0F0"/>
<path d="M173.331 154.198H171.453V156.075H173.331V154.198Z" fill="#F0F0F0"/>
<path d="M173.331 157.342H171.453V159.22H173.331V157.342Z" fill="#F0F0F0"/>
<path d="M173.331 160.494H171.453V162.372H173.331V160.494Z" fill="#F0F0F0"/>
<path d="M173.331 163.645H171.453V165.522H173.331V163.645Z" fill="#F0F0F0"/>
<path d="M173.331 166.797H171.453V168.675H173.331V166.797Z" fill="#F0F0F0"/>
<path d="M173.331 169.949H171.453V171.826H173.331V169.949Z" fill="#F0F0F0"/>
<path d="M173.331 173.101H171.453V174.979H173.331V173.101Z" fill="#F0F0F0"/>
<path d="M173.331 176.252H171.453V178.13H173.331V176.252Z" fill="#F0F0F0"/>
<path d="M173.331 179.404H171.453V181.282H173.331V179.404Z" fill="#F0F0F0"/>
<path d="M173.331 182.556H171.453V184.433H173.331V182.556Z" fill="#F0F0F0"/>
<path d="M173.331 185.708H171.453V187.585H173.331V185.708Z" fill="#F0F0F0"/>
<path d="M170.342 128.984H168.465V130.861H170.342V128.984Z" fill="#F0F0F0"/>
<path d="M170.342 132.136H168.465V134.014H170.342V132.136Z" fill="#F0F0F0"/>
<path d="M170.342 135.288H168.465V137.165H170.342V135.288Z" fill="#F0F0F0"/>
<path d="M170.342 138.439H168.465V140.317H170.342V138.439Z" fill="#F0F0F0"/>
<path d="M170.342 141.591H168.465V143.469H170.342V141.591Z" fill="#F0F0F0"/>
<path d="M170.342 144.743H168.465V146.621H170.342V144.743Z" fill="#F0F0F0"/>
<path d="M170.342 147.895H168.465V149.772H170.342V147.895Z" fill="#F0F0F0"/>
<path d="M170.342 151.046H168.465V152.924H170.342V151.046Z" fill="#F0F0F0"/>
<path d="M170.342 154.198H168.465V156.075H170.342V154.198Z" fill="#F0F0F0"/>
<path d="M170.342 157.342H168.465V159.22H170.342V157.342Z" fill="#F0F0F0"/>
<path d="M170.342 160.494H168.465V162.372H170.342V160.494Z" fill="#F0F0F0"/>
<path d="M170.342 163.645H168.465V165.522H170.342V163.645Z" fill="#F0F0F0"/>
<path d="M170.342 166.797H168.465V168.675H170.342V166.797Z" fill="#F0F0F0"/>
<path d="M170.342 169.949H168.465V171.826H170.342V169.949Z" fill="#F0F0F0"/>
<path d="M170.342 173.101H168.465V174.979H170.342V173.101Z" fill="#F0F0F0"/>
<path d="M170.342 176.252H168.465V178.13H170.342V176.252Z" fill="#F0F0F0"/>
<path d="M170.342 179.404H168.465V181.282H170.342V179.404Z" fill="#F0F0F0"/>
<path d="M170.342 182.556H168.465V184.433H170.342V182.556Z" fill="#F0F0F0"/>
<path d="M170.342 185.708H168.465V187.585H170.342V185.708Z" fill="#F0F0F0"/>
<path d="M167.357 128.984H165.479V130.861H167.357V128.984Z" fill="#F0F0F0"/>
<path d="M167.357 132.136H165.479V134.014H167.357V132.136Z" fill="#F0F0F0"/>
<path d="M167.357 135.288H165.479V137.165H167.357V135.288Z" fill="#F0F0F0"/>
<path d="M167.357 138.439H165.479V140.317H167.357V138.439Z" fill="#F0F0F0"/>
<path d="M167.357 141.591H165.479V143.469H167.357V141.591Z" fill="#F0F0F0"/>
<path d="M167.357 144.743H165.479V146.621H167.357V144.743Z" fill="#F0F0F0"/>
<path d="M167.357 147.895H165.479V149.772H167.357V147.895Z" fill="#F0F0F0"/>
<path d="M167.357 151.046H165.479V152.924H167.357V151.046Z" fill="#F0F0F0"/>
<path d="M167.357 154.198H165.479V156.075H167.357V154.198Z" fill="#F0F0F0"/>
<path d="M167.357 157.342H165.479V159.22H167.357V157.342Z" fill="#F0F0F0"/>
<path d="M167.357 160.494H165.479V162.372H167.357V160.494Z" fill="#F0F0F0"/>
<path d="M167.357 163.645H165.479V165.522H167.357V163.645Z" fill="#F0F0F0"/>
<path d="M167.357 166.797H165.479V168.675H167.357V166.797Z" fill="#F0F0F0"/>
<path d="M167.357 169.949H165.479V171.826H167.357V169.949Z" fill="#F0F0F0"/>
<path d="M167.357 173.101H165.479V174.979H167.357V173.101Z" fill="#F0F0F0"/>
<path d="M164.372 128.984H162.494V130.861H164.372V128.984Z" fill="#F0F0F0"/>
<path d="M164.372 132.136H162.494V134.014H164.372V132.136Z" fill="#F0F0F0"/>
<path d="M164.372 135.288H162.494V137.165H164.372V135.288Z" fill="#F0F0F0"/>
<path d="M164.372 138.439H162.494V140.317H164.372V138.439Z" fill="#F0F0F0"/>
<path d="M164.372 141.591H162.494V143.469H164.372V141.591Z" fill="#F0F0F0"/>
<path d="M164.372 144.743H162.494V146.621H164.372V144.743Z" fill="#F0F0F0"/>
<path d="M164.372 147.895H162.494V149.772H164.372V147.895Z" fill="#F0F0F0"/>
<path d="M164.372 151.046H162.494V152.924H164.372V151.046Z" fill="#F0F0F0"/>
<path d="M164.372 154.198H162.494V156.075H164.372V154.198Z" fill="#F0F0F0"/>
<path d="M164.372 157.342H162.494V159.22H164.372V157.342Z" fill="#F0F0F0"/>
<path d="M164.372 160.494H162.494V162.372H164.372V160.494Z" fill="#F0F0F0"/>
<path d="M164.372 163.645H162.494V165.522H164.372V163.645Z" fill="#F0F0F0"/>
<path d="M164.372 166.797H162.494V168.675H164.372V166.797Z" fill="#F0F0F0"/>
<path d="M161.385 128.984H159.508V130.861H161.385V128.984Z" fill="#F0F0F0"/>
<path d="M161.385 132.136H159.508V134.014H161.385V132.136Z" fill="#F0F0F0"/>
<path d="M161.385 135.288H159.508V137.165H161.385V135.288Z" fill="#F0F0F0"/>
<path d="M161.385 138.439H159.508V140.317H161.385V138.439Z" fill="#F0F0F0"/>
<path d="M161.385 141.591H159.508V143.469H161.385V141.591Z" fill="#F0F0F0"/>
<path d="M161.385 144.743H159.508V146.621H161.385V144.743Z" fill="#F0F0F0"/>
<path d="M161.385 147.895H159.508V149.772H161.385V147.895Z" fill="#F0F0F0"/>
<path d="M161.385 151.046H159.508V152.924H161.385V151.046Z" fill="#F0F0F0"/>
<path d="M161.385 154.198H159.508V156.075H161.385V154.198Z" fill="#F0F0F0"/>
<path d="M161.385 157.342H159.508V159.22H161.385V157.342Z" fill="#F0F0F0"/>
<path d="M161.385 160.494H159.508V162.372H161.385V160.494Z" fill="#F0F0F0"/>
<path d="M161.385 163.645H159.508V165.522H161.385V163.645Z" fill="#F0F0F0"/>
<path d="M335.628 128.049H333.751V129.927H335.628V128.049Z" fill="#F0F0F0"/>
<path d="M335.628 131.201H333.751V133.078H335.628V131.201Z" fill="#F0F0F0"/>
<path d="M335.628 134.353H333.751V136.23H335.628V134.353Z" fill="#F0F0F0"/>
<path d="M335.628 137.497H333.751V139.374H335.628V137.497Z" fill="#F0F0F0"/>
<path d="M335.628 140.648H333.751V142.526H335.628V140.648Z" fill="#F0F0F0"/>
<path d="M335.628 143.8H333.751V145.678H335.628V143.8Z" fill="#F0F0F0"/>
<path d="M335.628 146.952H333.751V148.83H335.628V146.952Z" fill="#F0F0F0"/>
<path d="M335.628 150.104H333.751V151.981H335.628V150.104Z" fill="#F0F0F0"/>
<path d="M335.628 153.255H333.751V155.133H335.628V153.255Z" fill="#F0F0F0"/>
<path d="M335.628 156.407H333.751V158.284H335.628V156.407Z" fill="#F0F0F0"/>
<path d="M335.628 159.559H333.751V161.437H335.628V159.559Z" fill="#F0F0F0"/>
<path d="M335.628 162.71H333.751V164.588H335.628V162.71Z" fill="#F0F0F0"/>
<path d="M335.628 165.863H333.751V167.74H335.628V165.863Z" fill="#F0F0F0"/>
<path d="M335.628 169.006H333.751V170.884H335.628V169.006Z" fill="#F0F0F0"/>
<path d="M335.628 172.158H333.751V174.036H335.628V172.158Z" fill="#F0F0F0"/>
<path d="M335.628 175.311H333.751V177.188H335.628V175.311Z" fill="#F0F0F0"/>
<path d="M335.628 178.462H333.751V180.339H335.628V178.462Z" fill="#F0F0F0"/>
<path d="M335.628 184.765H333.751V186.643H335.628V184.765Z" fill="#F0F0F0"/>
<path d="M335.628 187.917H333.751V189.794H335.628V187.917Z" fill="#F0F0F0"/>
<path d="M335.628 191.069H333.751V192.946H335.628V191.069Z" fill="#F0F0F0"/>
<path d="M335.628 194.22H333.751V196.098H335.628V194.22Z" fill="#F0F0F0"/>
<path d="M335.628 197.364H333.751V199.242H335.628V197.364Z" fill="#F0F0F0"/>
<path d="M332.643 128.049H330.766V129.927H332.643V128.049Z" fill="#F0F0F0"/>
<path d="M332.643 131.201H330.766V133.078H332.643V131.201Z" fill="#F0F0F0"/>
<path d="M332.643 134.353H330.766V136.23H332.643V134.353Z" fill="#F0F0F0"/>
<path d="M332.643 137.497H330.766V139.374H332.643V137.497Z" fill="#F0F0F0"/>
<path d="M332.643 140.648H330.766V142.526H332.643V140.648Z" fill="#F0F0F0"/>
<path d="M332.643 143.8H330.766V145.678H332.643V143.8Z" fill="#F0F0F0"/>
<path d="M332.643 146.952H330.766V148.83H332.643V146.952Z" fill="#F0F0F0"/>
<path d="M332.643 150.104H330.766V151.981H332.643V150.104Z" fill="#F0F0F0"/>
<path d="M332.643 153.255H330.766V155.133H332.643V153.255Z" fill="#F0F0F0"/>
<path d="M332.643 156.407H330.766V158.284H332.643V156.407Z" fill="#F0F0F0"/>
<path d="M332.643 159.559H330.766V161.437H332.643V159.559Z" fill="#F0F0F0"/>
<path d="M332.643 162.71H330.766V164.588H332.643V162.71Z" fill="#F0F0F0"/>
<path d="M332.643 165.863H330.766V167.74H332.643V165.863Z" fill="#F0F0F0"/>
<path d="M332.643 169.006H330.766V170.884H332.643V169.006Z" fill="#F0F0F0"/>
<path d="M332.643 172.158H330.766V174.036H332.643V172.158Z" fill="#F0F0F0"/>
<path d="M332.643 175.311H330.766V177.188H332.643V175.311Z" fill="#F0F0F0"/>
<path d="M332.643 194.22H330.766V196.098H332.643V194.22Z" fill="#F0F0F0"/>
<path d="M332.643 197.364H330.766V199.242H332.643V197.364Z" fill="#F0F0F0"/>
<path d="M329.664 128.049H327.786V129.927H329.664V128.049Z" fill="#F0F0F0"/>
<path d="M329.664 131.201H327.786V133.078H329.664V131.201Z" fill="#F0F0F0"/>
<path d="M329.664 134.353H327.786V136.23H329.664V134.353Z" fill="#F0F0F0"/>
<path d="M329.664 137.497H327.786V139.374H329.664V137.497Z" fill="#F0F0F0"/>
<path d="M329.664 140.648H327.786V142.526H329.664V140.648Z" fill="#F0F0F0"/>
<path d="M329.664 143.8H327.786V145.678H329.664V143.8Z" fill="#F0F0F0"/>
<path d="M329.664 146.952H327.786V148.83H329.664V146.952Z" fill="#F0F0F0"/>
<path d="M329.664 150.104H327.786V151.981H329.664V150.104Z" fill="#F0F0F0"/>
<path d="M329.664 153.255H327.786V155.133H329.664V153.255Z" fill="#F0F0F0"/>
<path d="M329.664 156.407H327.786V158.284H329.664V156.407Z" fill="#F0F0F0"/>
<path d="M329.664 159.559H327.786V161.437H329.664V159.559Z" fill="#F0F0F0"/>
<path d="M329.664 162.71H327.786V164.588H329.664V162.71Z" fill="#F0F0F0"/>
<path d="M329.664 165.863H327.786V167.74H329.664V165.863Z" fill="#F0F0F0"/>
<path d="M329.664 169.006H327.786V170.884H329.664V169.006Z" fill="#F0F0F0"/>
<path d="M329.664 172.158H327.786V174.036H329.664V172.158Z" fill="#F0F0F0"/>
<path d="M329.664 175.311H327.786V177.188H329.664V175.311Z" fill="#F0F0F0"/>
<path d="M329.664 181.613H327.786V183.49H329.664V181.613Z" fill="#F0F0F0"/>
<path d="M329.664 184.765H327.786V186.643H329.664V184.765Z" fill="#F0F0F0"/>
<path d="M329.664 187.917H327.786V189.794H329.664V187.917Z" fill="#F0F0F0"/>
<path d="M329.664 191.069H327.786V192.946H329.664V191.069Z" fill="#F0F0F0"/>
<path d="M329.664 197.364H327.786V199.242H329.664V197.364Z" fill="#F0F0F0"/>
<path d="M277.584 150.104H275.707V151.981H277.584V150.104Z" fill="#F0F0F0"/>
<path d="M277.584 153.255H275.707V155.133H277.584V153.255Z" fill="#F0F0F0"/>
<path d="M277.584 156.407H275.707V158.284H277.584V156.407Z" fill="#F0F0F0"/>
<path d="M277.584 159.559H275.707V161.437H277.584V159.559Z" fill="#F0F0F0"/>
<path d="M277.584 162.71H275.707V164.588H277.584V162.71Z" fill="#F0F0F0"/>
<path d="M277.584 165.863H275.707V167.74H277.584V165.863Z" fill="#F0F0F0"/>
<path d="M277.584 169.006H275.707V170.884H277.584V169.006Z" fill="#F0F0F0"/>
<path d="M277.584 172.158H275.707V174.036H277.584V172.158Z" fill="#F0F0F0"/>
<path d="M277.584 175.311H275.707V177.188H277.584V175.311Z" fill="#F0F0F0"/>
<path d="M277.584 178.462H275.707V180.339H277.584V178.462Z" fill="#F0F0F0"/>
<path d="M277.584 181.613H275.707V183.49H277.584V181.613Z" fill="#F0F0F0"/>
<path d="M277.584 184.765H275.707V186.643H277.584V184.765Z" fill="#F0F0F0"/>
<path d="M277.584 187.917H275.707V189.794H277.584V187.917Z" fill="#F0F0F0"/>
<path d="M277.584 194.22H275.707V196.098H277.584V194.22Z" fill="#F0F0F0"/>
<path d="M277.584 197.364H275.707V199.242H277.584V197.364Z" fill="#F0F0F0"/>
<path d="M277.584 200.516H275.707V202.394H277.584V200.516Z" fill="#F0F0F0"/>
<path d="M277.584 203.668H275.707V205.545H277.584V203.668Z" fill="#F0F0F0"/>
<path d="M277.584 209.971H275.707V211.849H277.584V209.971Z" fill="#F0F0F0"/>
<path d="M277.584 213.123H275.707V215H277.584V213.123Z" fill="#F0F0F0"/>
<path d="M277.584 216.275H275.707V218.152H277.584V216.275Z" fill="#F0F0F0"/>
<path d="M274.598 150.104H272.721V151.981H274.598V150.104Z" fill="#F0F0F0"/>
<path d="M274.598 153.255H272.721V155.133H274.598V153.255Z" fill="#F0F0F0"/>
<path d="M274.598 156.407H272.721V158.284H274.598V156.407Z" fill="#F0F0F0"/>
<path d="M274.598 159.559H272.721V161.437H274.598V159.559Z" fill="#F0F0F0"/>
<path d="M274.598 162.71H272.721V164.588H274.598V162.71Z" fill="#F0F0F0"/>
<path d="M274.598 165.863H272.721V167.74H274.598V165.863Z" fill="#F0F0F0"/>
<path d="M274.598 169.006H272.721V170.884H274.598V169.006Z" fill="#F0F0F0"/>
<path d="M274.598 172.158H272.721V174.036H274.598V172.158Z" fill="#F0F0F0"/>
<path d="M274.598 175.311H272.721V177.188H274.598V175.311Z" fill="#F0F0F0"/>
<path d="M274.598 178.462H272.721V180.339H274.598V178.462Z" fill="#F0F0F0"/>
<path d="M274.598 181.613H272.721V183.49H274.598V181.613Z" fill="#F0F0F0"/>
<path d="M274.598 184.765H272.721V186.643H274.598V184.765Z" fill="#F0F0F0"/>
<path d="M274.598 187.917H272.721V189.794H274.598V187.917Z" fill="#F0F0F0"/>
<path d="M274.598 197.364H272.721V199.242H274.598V197.364Z" fill="#F0F0F0"/>
<path d="M274.598 200.516H272.721V202.394H274.598V200.516Z" fill="#F0F0F0"/>
<path d="M274.598 206.819H272.721V208.697H274.598V206.819Z" fill="#F0F0F0"/>
<path d="M274.598 209.971H272.721V211.849H274.598V209.971Z" fill="#F0F0F0"/>
<path d="M274.598 213.123H272.721V215H274.598V213.123Z" fill="#F0F0F0"/>
<path d="M274.598 216.275H272.721V218.152H274.598V216.275Z" fill="#F0F0F0"/>
<path d="M271.613 150.104H269.735V151.981H271.613V150.104Z" fill="#F0F0F0"/>
<path d="M271.613 153.255H269.735V155.133H271.613V153.255Z" fill="#F0F0F0"/>
<path d="M271.613 156.407H269.735V158.284H271.613V156.407Z" fill="#F0F0F0"/>
<path d="M271.613 159.559H269.735V161.437H271.613V159.559Z" fill="#F0F0F0"/>
<path d="M271.613 162.71H269.735V164.588H271.613V162.71Z" fill="#F0F0F0"/>
<path d="M271.613 165.863H269.735V167.74H271.613V165.863Z" fill="#F0F0F0"/>
<path d="M271.613 169.006H269.735V170.884H271.613V169.006Z" fill="#F0F0F0"/>
<path d="M271.613 172.158H269.735V174.036H271.613V172.158Z" fill="#F0F0F0"/>
<path d="M271.613 175.311H269.735V177.188H271.613V175.311Z" fill="#F0F0F0"/>
<path d="M271.613 178.462H269.735V180.339H271.613V178.462Z" fill="#F0F0F0"/>
<path d="M271.613 181.613H269.735V183.49H271.613V181.613Z" fill="#F0F0F0"/>
<path d="M271.613 184.765H269.735V186.643H271.613V184.765Z" fill="#F0F0F0"/>
<path d="M271.613 187.917H269.735V189.794H271.613V187.917Z" fill="#F0F0F0"/>
<path d="M271.613 191.069H269.735V192.946H271.613V191.069Z" fill="#F0F0F0"/>
<path d="M271.613 197.364H269.735V199.242H271.613V197.364Z" fill="#F0F0F0"/>
<path d="M271.613 203.668H269.735V205.545H271.613V203.668Z" fill="#F0F0F0"/>
<path d="M271.613 206.819H269.735V208.697H271.613V206.819Z" fill="#F0F0F0"/>
<path d="M271.613 209.971H269.735V211.849H271.613V209.971Z" fill="#F0F0F0"/>
<path d="M271.613 213.123H269.735V215H271.613V213.123Z" fill="#F0F0F0"/>
<path d="M271.613 216.275H269.735V218.152H271.613V216.275Z" fill="#F0F0F0"/>
<path d="M289.747 168.072H287.869V169.949H289.747V168.072Z" fill="#F0F0F0"/>
<path d="M289.747 171.223H287.869V173.1H289.747V171.223Z" fill="#F0F0F0"/>
<path d="M289.747 174.375H287.869V176.252H289.747V174.375Z" fill="#F0F0F0"/>
<path d="M289.747 177.52H287.869V179.397H289.747V177.52Z" fill="#F0F0F0"/>
<path d="M289.747 180.671H287.869V182.548H289.747V180.671Z" fill="#F0F0F0"/>
<path d="M289.747 183.822H287.869V185.7H289.747V183.822Z" fill="#F0F0F0"/>
<path d="M289.747 193.278H287.869V195.155H289.747V193.278Z" fill="#F0F0F0"/>
<path d="M289.747 196.43H287.869V198.307H289.747V196.43Z" fill="#F0F0F0"/>
<path d="M289.747 199.581H287.869V201.458H289.747V199.581Z" fill="#F0F0F0"/>
<path d="M289.747 202.733H287.869V204.61H289.747V202.733Z" fill="#F0F0F0"/>
<path d="M289.747 205.884H287.869V207.762H289.747V205.884Z" fill="#F0F0F0"/>
<path d="M289.747 209.03H287.869V210.907H289.747V209.03Z" fill="#F0F0F0"/>
<path d="M289.747 212.18H287.869V214.058H289.747V212.18Z" fill="#F0F0F0"/>
<path d="M286.761 168.072H284.884V169.949H286.761V168.072Z" fill="#F0F0F0"/>
<path d="M286.761 171.223H284.884V173.1H286.761V171.223Z" fill="#F0F0F0"/>
<path d="M286.761 174.375H284.884V176.252H286.761V174.375Z" fill="#F0F0F0"/>
<path d="M286.761 177.52H284.884V179.397H286.761V177.52Z" fill="#F0F0F0"/>
<path d="M286.761 180.671H284.884V182.548H286.761V180.671Z" fill="#F0F0F0"/>
<path d="M286.761 183.822H284.884V185.7H286.761V183.822Z" fill="#F0F0F0"/>
<path d="M286.761 193.278H284.884V195.155H286.761V193.278Z" fill="#F0F0F0"/>
<path d="M286.761 196.43H284.884V198.307H286.761V196.43Z" fill="#F0F0F0"/>
<path d="M286.761 199.581H284.884V201.458H286.761V199.581Z" fill="#F0F0F0"/>
<path d="M286.761 202.733H284.884V204.61H286.761V202.733Z" fill="#F0F0F0"/>
<path d="M286.761 205.884H284.884V207.762H286.761V205.884Z" fill="#F0F0F0"/>
<path d="M286.761 209.03H284.884V210.907H286.761V209.03Z" fill="#F0F0F0"/>
<path d="M286.761 215.332H284.884V217.209H286.761V215.332Z" fill="#F0F0F0"/>
<path d="M187.587 154.198H185.71V156.075H187.587V154.198Z" fill="#F0F0F0"/>
<path d="M187.587 157.342H185.71V159.22H187.587V157.342Z" fill="#F0F0F0"/>
<path d="M187.587 160.494H185.71V162.372H187.587V160.494Z" fill="#F0F0F0"/>
<path d="M187.587 163.645H185.71V165.522H187.587V163.645Z" fill="#F0F0F0"/>
<path d="M187.587 166.797H185.71V168.675H187.587V166.797Z" fill="#F0F0F0"/>
<path d="M187.587 169.949H185.71V171.826H187.587V169.949Z" fill="#F0F0F0"/>
<path d="M187.587 173.101H185.71V174.979H187.587V173.101Z" fill="#F0F0F0"/>
<path d="M187.587 176.252H185.71V178.13H187.587V176.252Z" fill="#F0F0F0"/>
<path d="M187.587 179.404H185.71V181.282H187.587V179.404Z" fill="#F0F0F0"/>
<path d="M187.587 182.556H185.71V184.433H187.587V182.556Z" fill="#F0F0F0"/>
<path d="M187.587 185.708H185.71V187.585H187.587V185.708Z" fill="#F0F0F0"/>
<path d="M187.587 192.003H185.71V193.881H187.587V192.003Z" fill="#F0F0F0"/>
<path d="M187.587 195.155H185.71V197.032H187.587V195.155Z" fill="#F0F0F0"/>
<path d="M187.587 198.307H185.71V200.185H187.587V198.307Z" fill="#F0F0F0"/>
<path d="M187.587 201.459H185.71V203.336H187.587V201.459Z" fill="#F0F0F0"/>
<path d="M187.587 204.61H185.71V206.487H187.587V204.61Z" fill="#F0F0F0"/>
<path d="M187.587 207.762H185.71V209.639H187.587V207.762Z" fill="#F0F0F0"/>
<path d="M187.587 210.914H185.71V212.791H187.587V210.914Z" fill="#F0F0F0"/>
<path d="M187.587 214.065H185.71V215.943H187.587V214.065Z" fill="#F0F0F0"/>
<path d="M184.609 154.198H182.731V156.075H184.609V154.198Z" fill="#F0F0F0"/>
<path d="M184.609 157.342H182.731V159.22H184.609V157.342Z" fill="#F0F0F0"/>
<path d="M184.609 160.494H182.731V162.372H184.609V160.494Z" fill="#F0F0F0"/>
<path d="M184.609 163.645H182.731V165.522H184.609V163.645Z" fill="#F0F0F0"/>
<path d="M184.609 166.797H182.731V168.675H184.609V166.797Z" fill="#F0F0F0"/>
<path d="M184.609 169.949H182.731V171.826H184.609V169.949Z" fill="#F0F0F0"/>
<path d="M184.609 173.101H182.731V174.979H184.609V173.101Z" fill="#F0F0F0"/>
<path d="M184.609 176.252H182.731V178.13H184.609V176.252Z" fill="#F0F0F0"/>
<path d="M184.609 179.404H182.731V181.282H184.609V179.404Z" fill="#F0F0F0"/>
<path d="M184.609 182.556H182.731V184.433H184.609V182.556Z" fill="#F0F0F0"/>
<path d="M184.609 185.708H182.731V187.585H184.609V185.708Z" fill="#F0F0F0"/>
<path d="M184.609 188.853H182.731V190.73H184.609V188.853Z" fill="#F0F0F0"/>
<path d="M184.609 192.003H182.731V193.881H184.609V192.003Z" fill="#F0F0F0"/>
<path d="M184.609 195.155H182.731V197.032H184.609V195.155Z" fill="#F0F0F0"/>
<path d="M184.609 198.307H182.731V200.185H184.609V198.307Z" fill="#F0F0F0"/>
<path d="M184.609 201.459H182.731V203.336H184.609V201.459Z" fill="#F0F0F0"/>
<path d="M184.609 204.61H182.731V206.487H184.609V204.61Z" fill="#F0F0F0"/>
<path d="M184.609 207.762H182.731V209.639H184.609V207.762Z" fill="#F0F0F0"/>
<path d="M184.609 210.914H182.731V212.791H184.609V210.914Z" fill="#F0F0F0"/>
<path d="M184.609 214.065H182.731V215.943H184.609V214.065Z" fill="#F0F0F0"/>
<path d="M202.297 166.466H200.42V168.343H202.297V166.466Z" fill="#F0F0F0"/>
<path d="M202.297 169.618H200.42V171.495H202.297V169.618Z" fill="#F0F0F0"/>
<path d="M202.297 172.769H200.42V174.646H202.297V172.769Z" fill="#F0F0F0"/>
<path d="M202.297 175.921H200.42V177.799H202.297V175.921Z" fill="#F0F0F0"/>
<path d="M202.297 179.073H200.42V180.95H202.297V179.073Z" fill="#F0F0F0"/>
<path d="M202.297 182.225H200.42V184.102H202.297V182.225Z" fill="#F0F0F0"/>
<path d="M202.297 185.375H200.42V187.253H202.297V185.375Z" fill="#F0F0F0"/>
<path d="M202.297 188.52H200.42V190.397H202.297V188.52Z" fill="#F0F0F0"/>
<path d="M202.297 191.671H200.42V193.549H202.297V191.671Z" fill="#F0F0F0"/>
<path d="M202.297 194.824H200.42V196.701H202.297V194.824Z" fill="#F0F0F0"/>
<path d="M199.313 166.466H197.436V168.343H199.313V166.466Z" fill="#F0F0F0"/>
<path d="M199.313 169.618H197.436V171.495H199.313V169.618Z" fill="#F0F0F0"/>
<path d="M199.313 172.769H197.436V174.646H199.313V172.769Z" fill="#F0F0F0"/>
<path d="M199.313 175.921H197.436V177.799H199.313V175.921Z" fill="#F0F0F0"/>
<path d="M199.313 179.073H197.436V180.95H199.313V179.073Z" fill="#F0F0F0"/>
<path d="M199.313 182.225H197.436V184.102H199.313V182.225Z" fill="#F0F0F0"/>
<path d="M199.313 185.375H197.436V187.253H199.313V185.375Z" fill="#F0F0F0"/>
<path d="M199.313 188.52H197.436V190.397H199.313V188.52Z" fill="#F0F0F0"/>
<path d="M199.313 191.671H197.436V193.549H199.313V191.671Z" fill="#F0F0F0"/>
<path d="M217.069 46.8882H213.917V222.63H217.069V46.8882Z" fill="#E0E0E0"/>
<path d="M276.417 46.8882H273.266V222.63H276.417V46.8882Z" fill="#E0E0E0"/>
<path d="M335.757 46.8882H332.605V222.63H335.757V46.8882Z" fill="#E0E0E0"/>
<path d="M111.456 205.5H130.895C131.776 205.5 132.622 205.851 133.246 206.474C133.869 207.098 134.22 207.944 134.22 208.826V246.397H108.139V208.856C108.135 208.417 108.218 207.982 108.382 207.576C108.547 207.169 108.791 206.8 109.099 206.488C109.408 206.176 109.775 205.928 110.179 205.759C110.584 205.589 111.018 205.501 111.456 205.5Z" fill="#F0F0F0"/>
<path d="M134.22 211.064H108.139V213.998H134.22V211.064Z" fill="#E6E6E6"/>
<path d="M122.97 241.474H129.47C129.944 241.474 130.398 241.662 130.733 241.997C131.068 242.332 131.257 242.787 131.257 243.261V246.427H121.176V243.261C121.176 243.025 121.222 242.792 121.313 242.575C121.403 242.358 121.535 242.16 121.702 241.994C121.869 241.828 122.066 241.697 122.284 241.607C122.502 241.518 122.735 241.473 122.97 241.474Z" fill="#E0E0E0"/>
<path d="M131.286 246.428H124.063C123.755 246.428 123.459 246.305 123.241 246.087C123.024 245.87 122.901 245.574 122.901 245.266C122.903 244.96 123.027 244.666 123.244 244.45C123.462 244.234 123.756 244.113 124.063 244.113H131.286C131.592 244.113 131.887 244.234 132.104 244.45C132.322 244.666 132.445 244.96 132.447 245.266C132.447 245.574 132.325 245.87 132.107 246.087C131.889 246.305 131.594 246.428 131.286 246.428Z" fill="#E6E6E6"/>
<path d="M247.097 38.6426C256.641 36.3899 262.553 26.8263 260.3 17.2818C258.047 7.73728 248.484 1.82612 238.939 4.07882C229.395 6.33153 223.483 15.8951 225.736 25.4396C227.989 34.9841 237.552 40.8953 247.097 38.6426Z" fill="#E0E0E0"/>
<path d="M245.433 36.2472C253.666 34.9108 259.257 27.1531 257.92 18.9199C256.584 10.6867 248.826 5.09579 240.593 6.43222C232.36 7.76866 226.769 15.5264 228.105 23.7595C229.442 31.9927 237.2 37.5837 245.433 36.2472Z" fill="#F0F0F0"/>
<path d="M243.73 10.9902V21.5462L250.72 17.5877" fill="#F0F0F0"/>
<path d="M243.731 22.2774C243.595 22.2773 243.462 22.2409 243.346 22.1718C243.233 22.1051 243.14 22.0102 243.075 21.8965C243.011 21.7828 242.977 21.6542 242.977 21.5234V10.9674C242.977 10.7674 243.056 10.5756 243.197 10.4342C243.339 10.2928 243.531 10.2134 243.731 10.2134C243.931 10.2134 244.122 10.2928 244.264 10.4342C244.405 10.5756 244.485 10.7674 244.485 10.9674V20.2491L250.351 16.9315C250.525 16.8338 250.73 16.8091 250.923 16.8629C251.115 16.9166 251.278 17.0443 251.376 17.218C251.474 17.3912 251.5 17.5962 251.448 17.7883C251.396 17.9804 251.27 18.144 251.097 18.2435L244.1 22.202C243.984 22.2554 243.858 22.2812 243.731 22.2774Z" fill="#E0E0E0"/>
<path d="M188.499 280.568C269.239 280.568 334.692 276.747 334.692 272.033C334.692 267.319 269.239 263.498 188.499 263.498C107.759 263.498 42.3057 267.319 42.3057 272.033C42.3057 276.747 107.759 280.568 188.499 280.568Z" fill="#F5F5F5"/>
<path d="M309.479 248.267C309.592 247.513 312.231 229.289 306.945 223.001C306.419 222.338 305.753 221.8 304.994 221.426C304.235 221.052 303.403 220.851 302.557 220.837C291.88 220.588 290.425 229.131 290.41 229.244L291.669 229.44C291.715 229.131 292.981 221.9 302.527 222.111C303.192 222.121 303.846 222.278 304.443 222.573C305.039 222.868 305.562 223.292 305.973 223.815C310.889 229.674 308.235 247.89 308.235 248.079L309.479 248.267Z" fill="#12733C"/>
<path d="M310.12 247.437L311.395 247.392C311.395 247.226 310.972 230.615 319.153 227.185C327.176 223.829 330.787 230.736 330.931 231.03L332.069 230.457C332.032 230.374 327.794 222.163 318.663 226.016C309.675 229.778 310.098 246.713 310.12 247.437Z" fill="#12733C"/>
<path d="M310.083 248.743C310.083 248.479 310.166 222.209 315.286 214.526C320.202 207.144 328.104 210.62 328.473 210.756L328.993 209.595C328.903 209.557 319.749 205.516 314.223 213.802C308.892 221.802 308.816 247.627 308.816 248.727L310.083 248.743Z" fill="#12733C"/>
<path d="M301.027 221.47C301.027 221.47 305.687 223.189 304.3 227.238C302.912 231.287 288.187 237.967 288.187 237.967C288.187 237.967 282.011 232.312 287.682 223.113C293.352 213.914 300.899 218.567 301.027 221.47Z" fill="#12733C"/>
<path d="M315.511 213.138C315.511 213.138 312.209 212.784 312.495 210.771C312.782 208.757 325.358 203.57 332.785 211.954C332.785 211.954 328.028 220.128 321.151 220.248C314.275 220.369 315.511 213.138 315.511 213.138Z" fill="#12733C"/>
<path d="M318.942 226.612C318.942 226.612 316.68 224.773 319.123 223.875C321.566 222.978 333.675 223.227 333.795 235.185C333.795 235.185 319.718 237.53 317.961 232.969C316.205 228.407 318.942 226.612 318.942 226.612Z" fill="#12733C"/>
<path opacity="0.2" d="M301.027 221.47C301.027 221.47 305.687 223.189 304.3 227.238C302.912 231.287 288.187 237.967 288.187 237.967C288.187 237.967 282.011 232.312 287.682 223.113C293.352 213.914 300.899 218.567 301.027 221.47Z" fill="black"/>
<path opacity="0.2" d="M315.511 213.138C315.511 213.138 312.209 212.784 312.495 210.771C312.782 208.757 325.358 203.57 332.785 211.954C332.785 211.954 328.028 220.128 321.151 220.248C314.275 220.369 315.511 213.138 315.511 213.138Z" fill="black"/>
<path opacity="0.2" d="M318.942 226.612C318.942 226.612 316.68 224.773 319.123 223.875C321.566 222.978 333.675 223.227 333.795 235.185C333.795 235.185 319.718 237.53 317.961 232.969C316.205 228.407 318.942 226.612 318.942 226.612Z" fill="black"/>
<path d="M298.524 272.659H320.375L322.728 248.742H296.172L298.524 272.659Z" fill="#12733C"/>
<path opacity="0.5" d="M298.524 272.659H320.375L322.728 248.742H296.172L298.524 272.659Z" fill="white"/>
<path d="M295.002 251.373H323.896V246.095H295.002V251.373Z" fill="#12733C"/>
<path opacity="0.2" d="M295.002 251.373H323.896V246.095H295.002V251.373Z" fill="white"/>
<path d="M273.792 255.514L252.069 253.38V222.843H243.459V253.365L221.676 255.514C220.631 255.616 219.662 256.104 218.957 256.882C218.252 257.659 217.861 258.671 217.86 259.721V262.986H277.637V259.721C277.638 258.666 277.243 257.649 276.532 256.87C275.82 256.092 274.843 255.608 273.792 255.514Z" fill="#263238"/>
<path opacity="0.2" d="M273.792 255.514L252.069 253.38V222.843H243.459V253.365L221.676 255.514C220.631 255.616 219.662 256.104 218.957 256.882C218.252 257.659 217.861 258.671 217.86 259.721V262.986H277.637V259.721C277.638 258.666 277.243 257.649 276.532 256.87C275.82 256.092 274.843 255.608 273.792 255.514Z" fill="white"/>
<path d="M220.129 272.667C223.24 272.667 225.762 270.145 225.762 267.035C225.762 263.924 223.24 261.402 220.129 261.402C217.019 261.402 214.497 263.924 214.497 267.035C214.497 270.145 217.019 272.667 220.129 272.667Z" fill="#263238"/>
<path d="M275.316 272.667C278.427 272.667 280.948 270.145 280.948 267.035C280.948 263.924 278.427 261.402 275.316 261.402C272.205 261.402 269.684 263.924 269.684 267.035C269.684 270.145 272.205 272.667 275.316 272.667Z" fill="#263238"/>
<path d="M241.979 202.213H253.553V226.288C253.553 227.114 253.225 227.906 252.641 228.49C252.057 229.074 251.265 229.402 250.439 229.402H245.094C244.268 229.402 243.476 229.074 242.892 228.49C242.308 227.906 241.979 227.114 241.979 226.288V202.213Z" fill="#263238"/>
<path opacity="0.3" d="M241.979 202.213H253.553V226.288C253.553 227.114 253.225 227.906 252.641 228.49C252.057 229.074 251.265 229.402 250.439 229.402H245.094C244.268 229.402 243.476 229.074 242.892 228.49C242.308 227.906 241.979 227.114 241.979 226.288V202.213Z" fill="white"/>
<path d="M268.348 154.492C268.348 154.492 269.992 195.208 258.651 202.213H271.598C271.598 202.213 281.626 188.347 278.791 154.492H268.348Z" fill="#263238"/>
<path opacity="0.3" d="M268.348 154.492C268.348 154.492 269.992 195.208 258.651 202.213H271.598C271.598 202.213 281.626 188.347 278.791 154.492H268.348Z" fill="white"/>
<path d="M276.001 205.335H218.003V200.291C218.003 199.291 218.4 198.332 219.108 197.625C219.815 196.918 220.773 196.521 221.773 196.521H272.231C273.231 196.521 274.19 196.918 274.897 197.625C275.604 198.332 276.001 199.291 276.001 200.291V205.335Z" fill="#263238"/>
<path d="M217.099 205.335H276.899C277.736 205.335 278.414 204.656 278.414 203.819V202.447C278.414 201.61 277.736 200.932 276.899 200.932H217.099C216.262 200.932 215.583 201.61 215.583 202.447V203.819C215.583 204.656 216.262 205.335 217.099 205.335Z" fill="#263238"/>
<path opacity="0.6" d="M217.099 205.335H276.899C277.736 205.335 278.414 204.656 278.414 203.819V202.447C278.414 201.61 277.736 200.932 276.899 200.932H217.099C216.262 200.932 215.583 201.61 215.583 202.447V203.819C215.583 204.656 216.262 205.335 217.099 205.335Z" fill="white"/>
<path d="M281.966 132.664H261.231C255.159 132.664 250.237 137.586 250.237 143.657V151.77C250.237 157.842 255.159 162.764 261.231 162.764H281.966C288.037 162.764 292.959 157.842 292.959 151.77V143.657C292.959 137.586 288.037 132.664 281.966 132.664Z" fill="#263238"/>
<path d="M198.34 99.3974L194.201 88.487C194.201 88.487 195.98 86.8433 194.759 85.177C193.537 83.5106 185.907 78.8283 184.52 79.6501C183.132 80.472 180.033 83.5785 181.707 85.3051C183.381 87.0318 190.755 89.9045 190.755 89.9045L194.42 104.231L198.34 99.3974Z" fill="#E4897B"/>
<path d="M227.241 120.14C227.241 120.14 208.391 116.272 206.378 115.344C204.365 114.417 196.795 92.2266 196.795 92.2266L190.981 94.941C190.981 94.941 195.656 117.214 200.437 122.507C205.217 127.8 225.62 132.309 225.62 132.309L227.241 120.14Z" fill="#12733C"/>
<path opacity="0.2" d="M225.575 132.287L225.228 132.204C224.202 131.97 220.983 131.216 217.16 130.092C210.955 128.29 203.128 125.568 200.399 122.515C195.626 117.237 190.943 94.941 190.943 94.941L196.749 92.2266C196.749 92.2266 204.327 114.424 206.378 115.344C208.429 116.264 227.241 120.14 227.241 120.14L225.575 132.287Z" fill="black"/>
<path d="M196.847 91.7896L198.046 94.1043L190.581 96.6755L190.868 93.848L196.847 91.7896Z" fill="#12733C"/>
<path opacity="0.2" d="M225.717 131.978C224.676 131.827 221.412 131.322 217.506 130.47C219.73 126.624 226.245 124.649 226.245 124.649L225.717 131.978Z" fill="black"/>
<path d="M253.782 104.773C253.782 104.773 254.89 115.201 251.03 117.765C247.169 120.328 228.161 117.327 226.004 113.128C223.848 108.928 231.961 97.5425 231.961 97.5425L253.782 104.773Z" fill="#263238"/>
<path d="M176.881 241.985L181.842 243.184L184.353 236.338L186.63 230.11L180.983 227.705L178.811 235.26L176.881 241.985Z" fill="#E4897B"/>
<path opacity="0.2" d="M178.812 235.26L184.353 236.338L186.631 230.11L180.983 227.705L178.812 235.26Z" fill="black"/>
<path d="M179.31 231.649L186.186 234.205C186.186 234.205 204.531 188.34 208.301 188.211C212.071 188.083 250.457 205.697 260.078 195.91C269.699 186.123 255.788 162.523 255.788 162.523C255.788 162.523 232.648 159.22 230.906 164.445C230.477 165.986 230.15 167.552 229.926 169.135C229.662 170.734 229.481 172.076 229.481 172.076C228.764 171.895 205.534 165.901 196.38 172.076C187.068 178.357 179.31 231.649 179.31 231.649Z" fill="#12733C"/>
<path opacity="0.6" d="M179.31 231.649L186.186 234.205C186.186 234.205 204.531 188.34 208.301 188.211C212.071 188.083 250.457 205.697 260.078 195.91C269.699 186.123 255.788 162.523 255.788 162.523C255.788 162.523 232.648 159.22 230.906 164.445C230.477 165.986 230.15 167.552 229.926 169.135C229.662 170.734 229.481 172.076 229.481 172.076C228.764 171.895 205.534 165.901 196.38 172.076C187.068 178.357 179.31 231.649 179.31 231.649Z" fill="white"/>
<path d="M218.864 261.552L223.803 260.293L222.853 253.198L221.971 246.698L215.863 247.249L217.447 254.826L218.864 261.552Z" fill="#E4897B"/>
<path opacity="0.2" d="M217.485 254.978L222.883 253.334L221.986 246.767L215.871 247.287L217.485 254.978Z" fill="black"/>
<path d="M189.027 231.656L179.006 228.256L178.576 232.358L186.176 235.042L189.027 231.656Z" fill="#12733C"/>
<path d="M243.459 198.232C243.459 198.232 241.891 198.269 217.62 197.138C217.62 197.138 221.247 227.479 223.23 250.197L215.969 251.434C215.969 251.434 198.627 202.793 198.815 195.065C199.004 187.336 207.863 185.074 207.863 185.074C207.863 185.074 225.152 195.065 243.459 198.232Z" fill="#12733C"/>
<path opacity="0.6" d="M243.459 198.232C243.459 198.232 241.891 198.269 217.62 197.138C217.62 197.138 221.247 227.479 223.23 250.197L215.969 251.434C215.969 251.434 198.627 202.793 198.815 195.065C199.004 187.336 207.863 185.074 207.863 185.074C207.863 185.074 225.152 195.065 243.459 198.232Z" fill="white"/>
<path opacity="0.1" d="M243.459 198.232C243.459 198.232 241.891 198.269 217.62 197.138C217.62 197.138 221.247 227.479 223.23 250.197L215.969 251.434C215.969 251.434 198.627 202.793 198.815 195.065C199.004 187.336 207.863 185.074 207.863 185.074C207.863 185.074 225.152 195.065 243.459 198.232Z" fill="black"/>
<path d="M224.285 247.995L214.31 249.133L216.24 253.039L224.315 252.006L224.285 247.995Z" fill="#12733C"/>
<path opacity="0.1" d="M229.48 172.075L243.015 174.895C243.015 174.895 235.535 170.763 229.925 169.134C229.661 170.733 229.48 172.075 229.48 172.075Z" fill="black"/>
<path d="M255.229 158.925L255.787 162.522L230.905 164.445L230.249 160.184L255.229 158.925Z" fill="#263238"/>
<path opacity="0.2" d="M255.229 158.925L255.787 162.522L230.905 164.445L230.249 160.184L255.229 158.925Z" fill="black"/>
<path d="M247.381 164.951L248.611 164.825L247.967 158.562L246.737 158.688L247.381 164.951Z" fill="#12733C"/>
<path d="M236.327 164.326L241.774 163.976L241.509 159.845L236.061 160.195L236.327 164.326Z" fill="white"/>
<path d="M232.116 165.609L233.346 165.483L232.702 159.22L231.472 159.347L232.116 165.609Z" fill="#12733C"/>
<path opacity="0.6" d="M247.381 164.951L248.611 164.825L247.967 158.562L246.737 158.688L247.381 164.951Z" fill="white"/>
<path opacity="0.6" d="M232.116 165.609L233.346 165.483L232.702 159.22L231.472 159.347L232.116 165.609Z" fill="white"/>
<path d="M226.788 119.8C231.449 121.088 236.285 121.62 241.114 121.376C249.107 120.969 258.622 124.822 258.622 124.822L255.199 158.903L230.211 160.162C230.211 160.162 221.849 131.729 226.788 119.8Z" fill="#12733C"/>
<path d="M230.808 100.551C230.808 100.551 232.21 84.0084 246.038 89.9951C263.38 97.5351 249.597 117.697 241.115 113.565C232.632 109.433 230.808 100.551 230.808 100.551Z" fill="#263238"/>
<path opacity="0.2" d="M234.683 122.303L235.082 131.653L238.181 127.257C238.181 127.257 237.073 137.595 237.721 143.227C237.721 143.227 238.317 133.131 239.719 127.257L243.014 131.653L247.742 122.364C247.742 122.364 240.089 119.612 234.683 122.303Z" fill="black"/>
<path d="M238.965 124.068L246.12 122.047C241.71 119.031 243.934 112.245 243.934 112.245L236.846 114.733C237.172 115.718 237.424 116.727 237.6 117.749C238.354 122.168 236.349 122.522 236.349 122.522L238.965 124.068Z" fill="#E4897B"/>
<path opacity="0.2" d="M236.846 114.696C237.172 115.681 237.424 116.689 237.6 117.712C240.993 116.347 243.926 112.193 243.926 112.193L236.846 114.696Z" fill="black"/>
<path d="M241.477 93.4934C235.196 92.106 232.429 95.0014 230.544 101.38C228.184 109.335 228.704 115.472 236.93 115.488C248.105 115.503 251.897 95.8006 241.477 93.4934Z" fill="#E4897B"/>
<path d="M234.675 101.931C233.968 102.757 233.163 103.494 232.277 104.125C232.404 104.427 232.612 104.688 232.878 104.878C233.145 105.068 233.459 105.181 233.785 105.203L234.675 101.931Z" fill="#DE5753"/>
<path d="M238.634 102.263C238.506 102.775 238.679 103.265 239.026 103.348C239.373 103.431 239.742 103.084 239.871 102.594C239.999 102.104 239.825 101.599 239.478 101.509C239.132 101.418 238.762 101.75 238.634 102.263Z" fill="#263238"/>
<path d="M239.613 101.546L238.61 100.837C238.61 100.837 238.935 101.915 239.613 101.546Z" fill="#263238"/>
<path d="M232.285 100.588C232.157 101.1 232.331 101.591 232.677 101.673C233.024 101.756 233.431 101.41 233.522 100.919C233.612 100.429 233.477 99.9242 233.13 99.8337C232.783 99.7432 232.414 100.075 232.285 100.588Z" fill="#263238"/>
<path d="M233.265 99.8717L232.232 99.1855C232.232 99.1855 232.587 100.234 233.265 99.8717Z" fill="#263238"/>
<path d="M242.17 99.7666C242.12 99.7675 242.07 99.7547 242.026 99.7294C241.982 99.7042 241.946 99.6675 241.922 99.6233C241.673 99.2355 241.341 98.9082 240.95 98.6655C240.558 98.4229 240.117 98.2709 239.66 98.2209C239.588 98.2115 239.522 98.1751 239.476 98.1191C239.429 98.0632 239.406 97.9917 239.411 97.9193C239.418 97.8466 239.454 97.7797 239.511 97.7332C239.567 97.6867 239.639 97.6642 239.712 97.6705C240.268 97.7242 240.804 97.9061 241.277 98.2017C241.751 98.4974 242.149 98.8988 242.442 99.3745C242.459 99.4066 242.469 99.4417 242.472 99.4778C242.475 99.5139 242.471 99.5503 242.459 99.5847C242.448 99.6191 242.43 99.6509 242.406 99.6783C242.383 99.7057 242.354 99.728 242.321 99.744C242.273 99.7629 242.222 99.7706 242.17 99.7666Z" fill="#263238"/>
<path d="M235.15 96.9242C235.099 96.9233 235.049 96.9076 235.007 96.8789C234.636 96.7011 234.23 96.6087 233.819 96.6087C233.408 96.6087 233.002 96.7011 232.631 96.8789C232.599 96.8923 232.564 96.899 232.529 96.8986C232.493 96.8982 232.459 96.8908 232.426 96.8767C232.394 96.8627 232.365 96.8423 232.34 96.8168C232.316 96.7912 232.297 96.7611 232.285 96.7281C232.271 96.695 232.264 96.6595 232.265 96.6237C232.265 96.5879 232.272 96.5525 232.286 96.5196C232.3 96.4866 232.321 96.4568 232.346 96.4318C232.372 96.4068 232.402 96.387 232.435 96.3738C232.886 96.1641 233.378 96.0606 233.875 96.071C234.372 96.0815 234.859 96.2057 235.301 96.4341C235.331 96.4533 235.357 96.4783 235.378 96.5076C235.399 96.537 235.413 96.5702 235.421 96.6053C235.429 96.6403 235.429 96.6766 235.423 96.7119C235.416 96.7472 235.403 96.7809 235.384 96.8111C235.357 96.8475 235.321 96.8768 235.281 96.8965C235.24 96.9162 235.195 96.9257 235.15 96.9242Z" fill="#263238"/>
<path d="M245.993 105.587C245.993 105.587 244.199 99.7815 245.526 95.8984C245.526 95.8984 234.216 88.0643 230.808 100.551C230.808 100.551 232.067 89.0747 242.917 91.216C253.767 93.3574 250.216 109.124 243.603 112.592C243.603 112.592 247.094 109.214 245.993 105.587Z" fill="#263238"/>
<path d="M244.674 106.726C244.895 106.012 245.389 105.416 246.05 105.066C246.71 104.717 247.481 104.644 248.195 104.863C250.095 105.504 250.133 109.704 245.089 109.591C244.357 109.538 244.116 108.777 244.674 106.726Z" fill="#E4897B"/>
<path d="M232.648 107.586C232.816 108.356 232.927 109.137 232.98 109.923H233.387C235.265 110.082 236.185 109.531 236.637 108.883C236.853 108.56 236.988 108.19 237.029 107.804C237.061 107.587 237.061 107.366 237.029 107.148C235.819 107.565 234.533 107.717 233.259 107.593C232.897 107.616 232.648 107.586 232.648 107.586Z" fill="#263238"/>
<path d="M233.287 107.631L233.4 108.317C235.165 108.46 236.416 108.317 237.027 107.842C237.059 107.625 237.059 107.404 237.027 107.186C235.826 107.599 234.551 107.75 233.287 107.631Z" fill="white"/>
<path d="M233.386 109.96C235.263 110.119 236.183 109.568 236.635 108.92C235.923 108.873 235.209 108.952 234.524 109.153C234.069 109.296 233.671 109.578 233.386 109.96Z" fill="#DE5753"/>
<path d="M241.5 93.9981C241.5 93.9981 241.741 104.878 248.286 106.19C254.83 107.502 247.682 92.196 247.682 92.196C247.682 92.196 237.956 85.8473 231.471 90.3261C224.987 94.8048 230.823 100.55 230.823 100.55C230.823 100.55 232.173 92.4674 241.5 93.9981Z" fill="#263238"/>
<path d="M243.995 103.959C243.951 103.958 243.908 103.942 243.874 103.913C239.23 100.264 241.522 93.2819 241.544 93.2141C241.561 93.1669 241.596 93.1281 241.641 93.1057C241.686 93.0832 241.738 93.0788 241.786 93.0934C241.833 93.1105 241.871 93.1454 241.892 93.1907C241.913 93.2359 241.916 93.2877 241.899 93.3347C241.899 93.4026 239.674 100.121 244.108 103.619C244.126 103.636 244.14 103.657 244.15 103.679C244.16 103.702 244.165 103.726 244.165 103.751C244.165 103.776 244.16 103.8 244.15 103.823C244.14 103.846 244.126 103.866 244.108 103.883C244.095 103.903 244.079 103.92 244.059 103.933C244.04 103.946 244.018 103.955 243.995 103.959Z" fill="#263238"/>
<path d="M250.178 108.423C249.349 110.639 247.215 111.884 245.413 111.212C243.611 110.541 242.826 108.196 243.656 105.98C244.485 103.763 246.619 102.519 248.421 103.197C250.223 103.876 251.007 106.213 250.178 108.423Z" fill="#12733C"/>
<path opacity="0.4" d="M250.178 108.423C249.349 110.639 247.215 111.884 245.413 111.212C243.611 110.541 242.826 108.196 243.656 105.98C244.485 103.763 246.619 102.519 248.421 103.197C250.223 103.876 251.007 106.213 250.178 108.423Z" fill="black"/>
<path d="M248.065 104.796C248.065 104.796 250.772 92.6787 244.702 89.5044C245.393 89.5948 246.078 89.7283 246.753 89.904C247.507 90.1302 252.385 95.0463 249.935 105.934L248.065 104.796Z" fill="#12733C"/>
<path opacity="0.2" d="M248.065 104.796C248.065 104.796 250.772 92.6787 244.702 89.5044C245.393 89.5948 246.078 89.7283 246.753 89.904C247.507 90.1302 252.385 95.0463 249.935 105.934L248.065 104.796Z" fill="black"/>
<path d="M236.757 111.732L236.305 111.665L236.425 110.911C239.755 111.423 243.158 110.701 245.994 108.882L246.438 109.486C243.587 111.375 240.149 112.173 236.757 111.732Z" fill="#12733C"/>
<g opacity="0.2">
<path d="M236.756 111.732L236.304 111.664L236.424 110.91C239.754 111.422 243.157 110.701 245.993 108.882L246.437 109.485C243.586 111.375 240.148 112.172 236.756 111.732Z" fill="black"/>
</g>
<path d="M249.92 108.12C249.377 109.583 247.96 110.382 246.776 109.96C245.592 109.538 245.064 107.969 245.615 106.506C246.165 105.044 247.575 104.244 248.759 104.667C249.943 105.089 250.471 106.657 249.92 108.12Z" fill="#12733C"/>
<path d="M236.047 112.004L235.437 111.921C235.33 111.907 235.227 111.872 235.134 111.818C235.041 111.764 234.959 111.693 234.894 111.607C234.829 111.522 234.781 111.424 234.754 111.32C234.727 111.216 234.72 111.108 234.735 111.001C234.748 110.894 234.783 110.79 234.836 110.696C234.889 110.602 234.961 110.52 235.047 110.454C235.132 110.388 235.23 110.34 235.335 110.312C235.439 110.284 235.548 110.278 235.655 110.292L236.258 110.375C236.473 110.405 236.668 110.518 236.801 110.69C236.933 110.862 236.993 111.08 236.967 111.295C236.937 111.51 236.824 111.705 236.652 111.837C236.48 111.97 236.263 112.03 236.047 112.004Z" fill="#12733C"/>
<path opacity="0.4" d="M236.047 112.004L235.437 111.921C235.33 111.907 235.227 111.872 235.134 111.818C235.041 111.764 234.959 111.693 234.894 111.607C234.829 111.522 234.781 111.424 234.754 111.32C234.727 111.216 234.72 111.108 234.735 111.001C234.748 110.894 234.783 110.79 234.836 110.696C234.889 110.602 234.961 110.52 235.047 110.454C235.132 110.388 235.23 110.34 235.335 110.312C235.439 110.284 235.548 110.278 235.655 110.292L236.258 110.375C236.473 110.405 236.668 110.518 236.801 110.69C236.933 110.862 236.993 111.08 236.967 111.295C236.937 111.51 236.824 111.705 236.652 111.837C236.48 111.97 236.263 112.03 236.047 112.004Z" fill="black"/>
<path d="M244.198 119.431L239.72 123.827L241.514 129.226L247.742 122.364L244.198 119.431Z" fill="#12733C"/>
<path d="M237.721 120.351L238.445 123.737L236.13 128.524L234.683 122.304L237.721 120.351Z" fill="#12733C"/>
<path d="M243.241 123.246L245.842 113.723C245.842 113.723 244.583 111.355 244.855 110.857C245.126 110.36 246.483 103.966 247.449 103.272C248.414 102.578 252.387 103.762 252.787 104.411C253.186 105.059 248.979 113.723 248.979 113.723L247.471 124.045L243.241 123.246Z" fill="#E4897B"/>
<path d="M258.621 124.822C265.784 132.15 251.436 148.754 243.21 148.045C234.983 147.336 243.421 117.236 243.421 117.236L248.699 118.103C248.699 118.103 246.851 131.133 247.432 132.15C248.013 133.168 256.246 122.386 258.621 124.822Z" fill="#12733C"/>
<path opacity="0.2" d="M258.621 124.822C265.784 132.15 251.436 148.754 243.21 148.045C234.983 147.336 243.421 117.236 243.421 117.236L248.699 118.103C248.699 118.103 246.851 131.133 247.432 132.15C248.013 133.168 256.246 122.386 258.621 124.822Z" fill="black"/>
<path d="M243.015 116.294L242.238 118.783L249.575 119.431V117.26L243.015 116.294Z" fill="#12733C"/>
<path opacity="0.6" d="M231.893 135.98H228.922C228.593 135.98 228.326 136.247 228.326 136.576V142.186C228.326 142.515 228.593 142.782 228.922 142.782H231.893C232.222 142.782 232.488 142.515 232.488 142.186V136.576C232.488 136.247 232.222 135.98 231.893 135.98Z" fill="white"/>
<path opacity="0.2" d="M231.953 136.433H228.575V141.055H231.953V136.433Z" fill="black"/>
<path d="M230.716 134.345H229.97V137.067H230.716V134.345Z" fill="#263238"/>
<path d="M168.677 251.622C169.429 251.272 170.24 251.065 171.067 251.011C171.067 251.011 173.933 249.33 176.768 242.778H179.957C180.498 242.782 181.024 242.952 181.464 243.267C181.904 243.581 182.236 244.024 182.415 244.535C182.468 244.675 182.499 244.822 182.506 244.972C182.468 245.743 182.385 246.511 182.257 247.272C181.79 249.821 181.168 252.339 180.394 254.812L179.852 254.676L180.832 249.911C181.164 248.297 179.459 249.858 178.675 251.487C177.891 253.115 176.677 254.766 173.148 253.96C169.039 252.949 167.388 252.361 168.677 251.622Z" fill="#12733C"/>
<path d="M177.348 241.066C177.348 241.066 173.36 249.405 171.067 251.011C171.067 251.011 174.144 252.843 177.348 248.749C181.488 243.471 182.506 244.941 182.506 244.941C182.419 244.031 182.25 243.13 182 242.25C181.382 240.561 177.348 241.066 177.348 241.066Z" fill="#E4897B"/>
<path d="M212.576 271.491C213.227 270.977 213.965 270.584 214.755 270.329C214.755 270.329 217.137 268.015 218.336 260.98L221.435 260.226C221.961 260.105 222.512 260.148 223.012 260.351C223.512 260.553 223.938 260.904 224.232 261.357C224.317 261.482 224.383 261.619 224.428 261.764C224.579 262.511 224.683 263.266 224.738 264.026C224.882 266.603 224.87 269.187 224.7 271.762H224.142L223.969 266.906C223.901 265.255 222.626 267.178 222.242 268.95C221.857 270.721 221.081 272.599 217.462 272.652C213.247 272.697 211.497 272.516 212.576 271.491Z" fill="#12733C"/>
<path d="M218.495 259.177C218.495 259.177 216.602 268.225 214.725 270.329C214.725 270.329 218.148 271.384 220.289 266.657C223.064 260.549 224.398 261.741 224.398 261.741C224.1 260.876 223.724 260.041 223.275 259.245C222.295 257.737 218.495 259.177 218.495 259.177Z" fill="#E4897B"/>
<path d="M288.602 76.6792H262.28C260.169 76.6792 258.457 78.3907 258.457 80.502V91.7592C258.457 93.8705 260.169 95.582 262.28 95.582H288.602C290.713 95.582 292.425 93.8705 292.425 91.7592V80.502C292.425 78.3907 290.713 76.6792 288.602 76.6792Z" fill="#12733C"/>
<path d="M267.558 93.4258L259.626 104.208L272.421 94.1496L267.558 93.4258Z" fill="#12733C"/>
<path d="M267.852 86.1265C267.853 86.3478 267.789 86.5646 267.667 86.7493C267.545 86.9339 267.371 87.0781 267.167 87.1635C266.962 87.2489 266.737 87.2716 266.52 87.2288C266.303 87.186 266.103 87.0796 265.947 86.9231C265.79 86.7665 265.684 86.567 265.641 86.3498C265.598 86.1327 265.621 85.9077 265.706 85.7035C265.792 85.4993 265.936 85.3251 266.121 85.203C266.305 85.081 266.522 85.0166 266.744 85.0181C267.038 85.0181 267.319 85.1349 267.527 85.3427C267.735 85.5506 267.852 85.8325 267.852 86.1265Z" fill="white"/>
<path d="M273.651 86.1265C273.652 86.3478 273.588 86.5646 273.466 86.7493C273.344 86.9339 273.17 87.0781 272.965 87.1635C272.761 87.2489 272.536 87.2716 272.319 87.2288C272.102 87.186 271.902 87.0796 271.746 86.9231C271.589 86.7665 271.483 86.567 271.44 86.3498C271.397 86.1327 271.42 85.9077 271.505 85.7035C271.591 85.4993 271.735 85.3251 271.92 85.203C272.104 85.081 272.321 85.0166 272.542 85.0181C272.836 85.0181 273.118 85.1349 273.326 85.3427C273.534 85.5506 273.651 85.8325 273.651 86.1265Z" fill="white"/>
<path d="M279.449 86.1265C279.45 86.3478 279.386 86.5646 279.264 86.7493C279.142 86.9339 278.967 87.0781 278.763 87.1635C278.559 87.2489 278.334 87.2716 278.117 87.2288C277.9 87.186 277.7 87.0796 277.544 86.9231C277.387 86.7665 277.281 86.567 277.238 86.3498C277.195 86.1327 277.218 85.9077 277.303 85.7035C277.389 85.4993 277.533 85.3251 277.717 85.203C277.902 85.081 278.119 85.0166 278.34 85.0181C278.634 85.0181 278.916 85.1349 279.124 85.3427C279.332 85.5506 279.449 85.8325 279.449 86.1265Z" fill="white"/>
<path d="M285.245 86.1265C285.247 86.3478 285.183 86.5646 285.061 86.7493C284.939 86.9339 284.764 87.0781 284.56 87.1635C284.356 87.2489 284.131 87.2716 283.914 87.2288C283.697 87.186 283.497 87.0796 283.341 86.9231C283.184 86.7665 283.078 86.567 283.035 86.3498C282.992 86.1327 283.015 85.9077 283.1 85.7035C283.185 85.4993 283.33 85.3251 283.514 85.203C283.699 85.081 283.916 85.0166 284.137 85.0181C284.431 85.0181 284.713 85.1349 284.921 85.3427C285.129 85.5506 285.245 85.8325 285.245 86.1265Z" fill="white"/>
<path d="M135.577 145.965H106.955V151.831H135.577V145.965Z" fill="white"/>
<path opacity="0.1" d="M135.577 145.965H106.955V151.831H135.577V145.965Z" fill="black"/>
<path opacity="0.1" d="M119.012 145.965H106.955V151.831H119.012V145.965Z" fill="black"/>
<path opacity="0.1" d="M106.955 146.81H132.433L106.955 147.533V146.81Z" fill="black"/>
<path opacity="0.1" d="M135.578 147.827L113.493 148.378H135.578V147.827Z" fill="black"/>
<path opacity="0.1" d="M108.123 149.471L119.011 149.026L135.018 149.471L119.011 149.72L108.123 149.471Z" fill="black"/>
<path opacity="0.1" d="M106.955 150.716H125.82L106.955 151.161V150.716Z" fill="black"/>
<path opacity="0.1" d="M135.532 151.16L122.933 151.393H135.577L135.532 151.16Z" fill="black"/>
<path d="M131.596 140.099H102.975V145.965H131.596V140.099Z" fill="white"/>
<path opacity="0.1" d="M131.596 140.099H102.975V145.965H131.596V140.099Z" fill="black"/>
<path opacity="0.1" d="M115.031 140.099H102.975V145.965H115.031V140.099Z" fill="black"/>
<path opacity="0.1" d="M102.975 140.943H128.452L102.975 141.66V140.943Z" fill="black"/>
<path opacity="0.1" d="M131.595 141.961L109.511 142.512H131.595V141.961Z" fill="black"/>
<path opacity="0.1" d="M104.135 143.605L115.023 143.152L131.03 143.605L115.023 143.854L104.135 143.605Z" fill="black"/>
<path opacity="0.1" d="M102.975 144.841H121.84L102.975 145.294V144.841Z" fill="black"/>
<path opacity="0.1" d="M131.551 145.294L118.951 145.528H131.596L131.551 145.294Z" fill="black"/>
<path d="M134.86 134.226H106.238V140.092H134.86V134.226Z" fill="white"/>
<path opacity="0.1" d="M134.86 134.226H106.238V140.092H134.86V134.226Z" fill="black"/>
<path opacity="0.1" d="M118.295 134.226H106.238V140.092H118.295V134.226Z" fill="black"/>
<path opacity="0.1" d="M106.238 135.069H131.716L106.238 135.793V135.069Z" fill="black"/>
<path opacity="0.1" d="M134.86 136.087L112.775 136.638H134.86V136.087Z" fill="black"/>
<path opacity="0.1" d="M107.407 137.732L118.295 137.287L134.302 137.732L118.295 137.981L107.407 137.732Z" fill="black"/>
<path opacity="0.1" d="M106.238 138.976H125.103L106.238 139.421V138.976Z" fill="black"/>
<path opacity="0.1" d="M134.823 139.42L122.224 139.654H134.861L134.823 139.42Z" fill="black"/>
<path d="M153.93 151.711L154.669 148.898H185.251L199.328 150.308L199.863 151.711H153.93Z" fill="#263238"/>
<path opacity="0.4" d="M185.251 148.898V151.711H153.93L154.669 148.898H185.251Z" fill="black"/>
<path d="M179.106 135.439C179.146 135.78 179.114 136.126 179.01 136.453C178.906 136.781 178.734 137.082 178.503 137.337C178.273 137.592 177.992 137.795 177.677 137.932C177.362 138.069 177.021 138.137 176.678 138.131H129.839C129.107 138.115 128.405 137.833 127.865 137.338C127.326 136.842 126.985 136.167 126.906 135.439L124.124 105.452C124.094 105.16 124.114 104.864 124.184 104.578C124.314 104.051 124.619 103.585 125.049 103.254C125.48 102.924 126.009 102.75 126.552 102.761H173.42C174.153 102.777 174.854 103.059 175.394 103.554C175.934 104.049 176.275 104.724 176.353 105.452L179.106 135.439Z" fill="#263238"/>
<path opacity="0.4" d="M176.512 138.131H129.839C129.107 138.115 128.405 137.833 127.865 137.337C127.326 136.842 126.985 136.167 126.906 135.439L124.124 105.452C124.094 105.159 124.114 104.864 124.184 104.578H170.857C171.589 104.594 172.291 104.876 172.831 105.371C173.37 105.866 173.711 106.541 173.79 107.269L176.572 137.256C176.602 137.549 176.582 137.845 176.512 138.131Z" fill="black"/>
<path d="M144.331 119.741H154.02L151.441 147.481L166.762 149.781V151.711H134.491V149.781L141.104 147.481L144.331 119.741Z" fill="#263238"/>
<path opacity="0.1" d="M154.021 119.741L146.842 151.273L141.104 151.1L144.332 119.741H154.021Z" fill="white"/>
<path d="M153.974 272.66H149.359L141.058 157.109H147.188L153.974 272.66Z" fill="#263238"/>
<path opacity="0.4" d="M153.981 272.66H149.359L141.465 162.855L141.058 157.298H147.188L147.519 162.855L153.981 272.66Z" fill="white"/>
<path opacity="0.2" d="M147.519 162.576H141.465L141.058 157.298H147.188L147.519 162.576Z" fill="black"/>
<path d="M187.875 272.66H183.261L182.507 157.109H188.629L187.875 272.66Z" fill="#263238"/>
<path opacity="0.5" d="M188.637 157.298L188.516 175.945L187.883 272.66H183.261L182.627 175.945L182.507 157.298H188.637Z" fill="white"/>
<path opacity="0.2" d="M188.637 157.298L188.516 176.148H182.627L182.507 157.298H188.637Z" fill="black"/>
<path d="M236.915 272.66H232.301L223.999 157.109H230.129L236.915 272.66Z" fill="#263238"/>
<path opacity="0.5" d="M236.923 272.66H232.301L224.406 162.855L223.999 157.298H230.129L230.461 162.855L236.923 272.66Z" fill="white"/>
<path opacity="0.2" d="M230.461 162.576H224.406L223.999 157.298H230.129L230.461 162.576Z" fill="black"/>
<path d="M101.135 272.66H96.5205L103.307 157.109H109.437L101.135 272.66Z" fill="#263238"/>
<path opacity="0.5" d="M109.437 157.298L109.029 162.855L101.135 272.66H96.5205L102.975 162.855L103.307 157.298H109.437Z" fill="white"/>
<path opacity="0.2" d="M103.306 157.298H109.436L109.029 162.576H102.975L103.306 157.298Z" fill="black"/>
<path d="M98.4502 154.229H234.985V158.384C234.985 158.597 234.942 158.809 234.861 159.007C234.779 159.204 234.659 159.384 234.508 159.535C234.356 159.686 234.177 159.806 233.979 159.888C233.782 159.97 233.57 160.012 233.356 160.012H100.079C99.6469 160.012 99.2326 159.841 98.9272 159.535C98.6218 159.23 98.4502 158.815 98.4502 158.384V154.229Z" fill="#12733C"/>
<path opacity="0.6" d="M98.4502 154.229H234.985V158.384C234.985 158.597 234.942 158.809 234.861 159.007C234.779 159.204 234.659 159.384 234.508 159.535C234.356 159.686 234.177 159.806 233.979 159.888C233.782 159.97 233.57 160.012 233.356 160.012H100.079C99.6469 160.012 99.2326 159.841 98.9272 159.535C98.6218 159.23 98.4502 158.815 98.4502 158.384V154.229Z" fill="white"/>
<path opacity="0.2" d="M234.985 154.222H98.4502V157.118H234.985V154.222Z" fill="black"/>
<path d="M237.849 154.983H95.5847C95.1527 154.983 94.7385 154.811 94.4331 154.506C94.1276 154.201 93.9561 153.786 93.9561 153.354C93.9561 152.922 94.1274 152.507 94.4326 152.2C94.7378 151.894 95.1521 151.72 95.5847 151.718H237.849C238.282 151.72 238.696 151.894 239.001 152.2C239.307 152.507 239.478 152.922 239.478 153.354C239.478 153.786 239.306 154.201 239.001 154.506C238.696 154.811 238.281 154.983 237.849 154.983Z" fill="#12733C"/>
<path opacity="0.6" d="M237.849 154.983H95.5847C95.1527 154.983 94.7385 154.811 94.4331 154.506C94.1276 154.201 93.9561 153.786 93.9561 153.354C93.9561 152.922 94.1274 152.507 94.4326 152.2C94.7378 151.894 95.1521 151.72 95.5847 151.718H237.849C238.282 151.72 238.696 151.894 239.001 152.2C239.307 152.507 239.478 152.922 239.478 153.354C239.478 153.786 239.306 154.201 239.001 154.506C238.696 154.811 238.281 154.983 237.849 154.983Z" fill="white"/>
<path d="M204.191 146.689L205.941 144.065C206.113 143.807 206.346 143.596 206.62 143.45C206.894 143.304 207.199 143.228 207.509 143.228H209.726C209.91 143.229 210.093 143.257 210.269 143.311L218.178 145.709C218.628 145.843 219.01 146.142 219.249 146.546L220.387 148.453L204.191 146.689Z" fill="#12733C"/>
<path opacity="0.2" d="M220.387 148.453L208.858 147.202L204.176 146.689L205.925 144.065C206.097 143.807 206.331 143.596 206.604 143.45C206.878 143.304 207.183 143.228 207.493 143.228H209.71C209.897 143.229 210.082 143.257 210.261 143.311L210.434 143.364L218.162 145.709C218.614 145.842 219 146.141 219.241 146.546L220.387 148.453Z" fill="black"/>
<path opacity="0.2" d="M220.387 148.454L208.858 147.202L210.434 143.364L218.163 145.709C218.615 145.842 219 146.141 219.241 146.546L220.387 148.454Z" fill="black"/>
<path d="M225.862 151.462V151.711H201.417L202.322 148.175C202.489 147.525 202.869 146.95 203.4 146.54C203.931 146.131 204.584 145.91 205.255 145.913H216.097C216.458 145.911 216.815 145.975 217.153 146.101L218.51 146.606L223.894 148.612C224.475 148.827 224.975 149.216 225.328 149.726C225.68 150.236 225.866 150.842 225.862 151.462Z" fill="#12733C"/>
<path opacity="0.2" d="M225.86 151.462V151.71H215.824L216.36 147.888C216.394 147.651 216.481 147.424 216.614 147.225C216.748 147.026 216.924 146.859 217.13 146.737C217.336 146.615 217.566 146.541 217.805 146.519C218.044 146.498 218.284 146.53 218.508 146.613L223.892 148.619C224.472 148.834 224.972 149.222 225.324 149.73C225.676 150.239 225.863 150.843 225.86 151.462Z" fill="black"/>
<path d="M217.386 149.117L220.583 139.534C220.614 139.436 220.666 139.346 220.736 139.271C220.805 139.196 220.89 139.136 220.985 139.098C221.08 139.059 221.182 139.041 221.285 139.046C221.387 139.051 221.487 139.079 221.578 139.126C221.717 139.206 221.827 139.328 221.892 139.474C221.957 139.621 221.974 139.784 221.94 139.941L219.248 150.165C219.248 150.165 217.461 150.889 217.386 149.117Z" fill="#263238"/>
<path opacity="0.2" d="M204.191 150.919H202.773L203.045 149.524H204.462L204.191 150.919Z" fill="black"/>
<path opacity="0.2" d="M206.303 150.866H204.886L205.157 149.471H206.575L206.303 150.866Z" fill="black"/>
</svg>
