<svg width="177" height="177" viewBox="0 0 177 177" fill="none" xmlns="http://www.w3.org/2000/svg">
<path d="M49.1667 0H9.83333C4.40253 0 0 4.40253 0 9.83333V49.1667C0 54.5975 4.40253 59 9.83333 59H49.1667C54.5975 59 59 54.5975 59 49.1667V9.83333C59 4.40253 54.5975 0 49.1667 0Z" fill="#1D1D1D"/>
<path d="M158 19L19 158" stroke="#1D1D1D" stroke-width="5"/>
<path d="M167.167 118H127.833C122.403 118 118 122.403 118 127.833V167.167C118 172.597 122.403 177 127.833 177H167.167C172.597 177 177 172.597 177 167.167V127.833C177 122.403 172.597 118 167.167 118Z" fill="#1D1D1D"/>
</svg>
