<svg width="150" height="158" viewBox="0 0 150 158" fill="none" xmlns="http://www.w3.org/2000/svg">
<path d="M14.395 131.901C19.649 131.901 23.9082 129.442 23.9082 126.408C23.9082 123.375 19.649 120.916 14.395 120.916C9.14104 120.916 4.88184 123.375 4.88184 126.408C4.88184 129.442 9.14104 131.901 14.395 131.901Z" fill="#E6E6E6"/>
<path d="M87.6581 96.965L25.133 133.067C24.8915 133.201 24.6902 133.397 24.55 133.634C24.4099 133.872 24.3359 134.143 24.3359 134.419C24.3359 134.695 24.4099 134.966 24.55 135.204C24.6902 135.441 24.8915 135.637 25.133 135.771L61.8802 156.987C62.8038 157.521 63.8515 157.801 64.918 157.801C65.9845 157.801 67.0322 157.521 67.9558 156.987L130.481 120.889C130.722 120.755 130.924 120.559 131.064 120.322C131.204 120.084 131.278 119.813 131.278 119.537C131.278 119.261 131.204 118.99 131.064 118.752C130.924 118.515 130.722 118.319 130.481 118.185L93.7376 96.965C92.8135 96.431 91.7651 96.1499 90.6979 96.1499C89.6306 96.1499 88.5822 96.431 87.6581 96.965Z" fill="#E6E6E6"/>
<path d="M68.8827 97.3166L43.8541 111.77C43.3511 112.059 42.9332 112.476 42.6427 112.979C42.3522 113.481 42.1992 114.051 42.1992 114.632C42.1992 115.212 42.3522 115.782 42.6427 116.285C42.9332 116.787 43.3511 117.204 43.8541 117.494L56.4572 124.771C57.2914 125.251 58.237 125.504 59.1996 125.504C60.1621 125.504 61.1077 125.251 61.9419 124.771L86.9744 110.318C87.4764 110.027 87.8932 109.61 88.183 109.108C88.4728 108.605 88.6254 108.035 88.6254 107.455C88.6254 106.876 88.4728 106.306 88.183 105.803C87.8932 105.301 87.4764 104.884 86.9744 104.593L74.3674 97.3166C73.5338 96.8344 72.5879 96.5806 71.625 96.5806C70.6621 96.5806 69.7162 96.8344 68.8827 97.3166Z" fill="#E6E6E6"/>
<path d="M14.897 112.21C14.897 112.21 9.01832 106.466 12.3632 96.8488C14.2365 91.4607 20.4511 87.5017 23.9891 87.1309C22.8178 88.5226 21.8834 90.0976 21.2236 91.7928L16.7664 94.7553L20.8644 93.473L19.9915 96.9801C19.9915 96.9801 16.1831 99.2975 15.6192 99.7842L19.725 98.6911C19.725 98.6911 19.4083 108.625 14.897 112.21Z" fill="#12733C"/>
<path opacity="0.4" d="M14.897 112.21C14.897 112.21 9.01832 106.466 12.3632 96.8488C14.2365 91.4607 20.4511 87.5017 23.9891 87.1309C22.8178 88.5226 21.8834 90.0976 21.2236 91.7928L16.7664 94.7553L20.8644 93.473L19.9915 96.9801C19.9915 96.9801 16.1831 99.2975 15.6192 99.7842L19.725 98.6911C19.725 98.6911 19.4083 108.625 14.897 112.21Z" fill="black"/>
<path d="M14.8974 112.21C14.8974 112.21 11.8538 100.194 16.3574 93.187C16.3574 93.1716 11.0813 99.3554 14.8974 112.21Z" fill="white"/>
<path d="M21.6253 113.82L14.4296 113.728H14.3562L7.16432 113.82C7.16432 113.82 7.08321 122.681 9.81395 126.284C10.5864 127.246 12.3361 127.918 14.3948 127.918C16.4535 127.918 18.2263 127.242 18.9795 126.28C21.7025 122.673 21.6253 113.82 21.6253 113.82Z" fill="#37474F"/>
<path d="M14.3945 117.701C18.3878 117.701 21.625 115.964 21.625 113.82C21.625 111.676 18.3878 109.938 14.3945 109.938C10.4013 109.938 7.16406 111.676 7.16406 113.82C7.16406 115.964 10.4013 117.701 14.3945 117.701Z" fill="#455A64"/>
<path d="M14.3951 112.789C16.8825 112.789 18.9875 113.588 19.7291 114.693C19.9121 114.438 20.0131 114.134 20.0188 113.82C20.0188 112.275 17.5005 111.043 14.3951 111.043C11.2897 111.043 8.76367 112.287 8.76367 113.82C8.77015 114.133 8.86965 114.437 9.04949 114.693C9.7988 113.588 11.9077 112.789 14.3951 112.789Z" fill="#263238"/>
<path d="M14.3956 116.597C17.3415 116.597 19.7296 115.745 19.7296 114.693C19.7296 113.642 17.3415 112.789 14.3956 112.789C11.4497 112.789 9.06152 113.642 9.06152 114.693C9.06152 115.745 11.4497 116.597 14.3956 116.597Z" fill="#E0E0E0"/>
<path d="M14.4841 115.172C14.4841 115.172 11.6955 115.064 9.30848 111.364C8.3197 109.838 7.84461 109.046 7.84461 109.046L11.7071 108.756L7.35795 107.671L5.30313 104.527L8.91451 104.257C8.91451 104.257 6.2108 103.314 4.30662 103.303C4.30662 103.303 0.973335 97.4202 0 96.582C2.51885 96.7368 4.98113 97.3948 7.24134 98.5173C9.50156 99.6398 11.5139 101.204 13.1593 103.117C18.6517 109.579 15.2953 115.338 14.4841 115.172Z" fill="#12733C"/>
<path d="M14.4835 115.172C14.4835 115.172 16.2254 104.674 5.10547 98.3628C5.10547 98.3628 16.6464 103.905 14.4835 115.172Z" fill="white"/>
<path d="M14.4843 115.172C14.4843 115.172 17.0065 115.335 19.5055 112.221C20.5368 110.939 21.0505 110.259 21.0505 110.259L17.5743 109.634L21.5989 109.062L23.7503 106.416L20.5175 105.833C20.5175 105.833 23.0319 105.238 24.7661 105.408C24.7661 105.408 28.3273 100.41 29.2852 99.7457C26.9979 99.6491 24.7144 100.012 22.5696 100.813C20.4249 101.613 18.4623 102.836 16.7979 104.408C11.2476 109.734 13.735 115.246 14.4843 115.172Z" fill="#12733C"/>
<path opacity="0.2" d="M14.4843 115.172C14.4843 115.172 17.0065 115.335 19.5055 112.221C20.5368 110.939 21.0505 110.259 21.0505 110.259L17.5743 109.634L21.5989 109.062L23.7503 106.416L20.5175 105.833C20.5175 105.833 23.0319 105.238 24.7661 105.408C24.7661 105.408 28.3273 100.41 29.2852 99.7457C26.9979 99.6491 24.7144 100.012 22.5696 100.813C20.4249 101.613 18.4623 102.836 16.7979 104.408C11.2476 109.734 13.735 115.246 14.4843 115.172Z" fill="black"/>
<path d="M14.4844 115.172C14.4844 115.172 13.8973 105.539 24.5267 100.881C24.5267 100.889 13.5922 104.805 14.4844 115.172Z" fill="white"/>
<path d="M27.2705 29.7085V48.8971L10.6504 58.4914V39.3028L27.2705 29.7085Z" fill="#FAFAFA"/>
<path d="M25.4703 30.7474V47.858L10.6501 56.4133V39.3027L25.4703 30.7474ZM26.3702 29.2025L9.76172 38.7968V57.9854L10.6617 58.5068L27.2702 48.9125V29.7084L26.3702 29.187V29.2025Z" fill="#E0E0E0"/>
<path d="M26.3707 31.2651V48.3757L11.5505 56.931V39.8204L26.3707 31.2651ZM27.2706 29.7201L10.6621 39.3144V58.503L27.2706 48.9087V29.7085V29.7201Z" fill="#EBEBEB"/>
<path d="M24.8281 44.5054L12.2559 51.763L15.9715 42.103L18.5439 45.1543L21.1742 41.4116L24.8281 44.5054Z" fill="#E0E0E0"/>
<path d="M20.4679 38.476C20.4452 38.8754 20.3284 39.2638 20.127 39.6095C19.9256 39.9552 19.6454 40.2484 19.3091 40.4651C18.6757 40.8282 18.1504 40.5346 18.1504 39.8008C18.1737 39.402 18.2907 39.0144 18.4921 38.6694C18.6934 38.3244 18.9734 38.0318 19.3091 37.8155C19.9657 37.4485 20.4679 37.746 20.4679 38.476Z" fill="#E0E0E0"/>
<path d="M32.8128 5.81885V21.1025L19.5762 28.7463V13.4588L32.8128 5.81885Z" fill="#FAFAFA"/>
<path d="M31.3795 6.64556V20.2838L19.5797 27.0933V13.4589L31.3833 6.64556M32.1017 5.40186L18.8574 13.0456V28.3332L19.5758 28.7464L32.8124 21.1027V5.81514L32.0979 5.40186H32.1017Z" fill="#E0E0E0"/>
<path d="M32.0982 7.05865V20.6892L20.2908 27.5064V13.872L32.0982 7.05865ZM32.8128 5.81494L19.5801 13.4587V28.7462L32.8167 21.1025V5.81494H32.8128Z" fill="#EBEBEB"/>
<path d="M30.8708 17.6068L20.8555 23.3888L23.8141 15.691L25.8651 18.1243L27.9585 15.1387L30.8708 17.6068Z" fill="#E0E0E0"/>
<path d="M27.3982 12.8023C27.3813 13.1197 27.2895 13.4286 27.1304 13.7039C26.9714 13.9791 26.7494 14.2128 26.4828 14.3859C25.9768 14.6794 25.5713 14.44 25.5713 13.8606C25.5875 13.5434 25.6785 13.2346 25.837 12.9594C25.9954 12.6841 26.2167 12.4503 26.4828 12.277C26.9888 11.9834 27.3982 12.2229 27.3982 12.8023Z" fill="#E0E0E0"/>
<path d="M60.9658 94.1838L66.3385 126.972C66.3779 127.212 66.5014 127.43 66.6868 127.587C66.8722 127.744 67.1074 127.83 67.3504 127.829C67.4942 127.829 67.6362 127.799 67.7674 127.74C67.8986 127.681 68.0159 127.595 68.1117 127.488C68.2075 127.381 68.2797 127.255 68.3236 127.118C68.3674 126.981 68.382 126.837 68.3663 126.694L64.5965 92.8667L60.9658 94.1838Z" fill="#263238"/>
<path d="M79.5137 83.1564L84.8902 115.945C84.9288 116.184 85.0515 116.402 85.2362 116.559C85.421 116.716 85.6557 116.803 85.8983 116.802C86.0424 116.802 86.1848 116.771 86.3163 116.712C86.4477 116.653 86.5653 116.567 86.6611 116.46C86.757 116.352 86.8291 116.226 86.8727 116.088C86.9163 115.951 86.9304 115.806 86.9141 115.663L83.1444 81.8394L79.5137 83.1564Z" fill="#263238"/>
<path d="M52.7205 86.5166L47.4173 114.77C47.3818 114.968 47.2775 115.148 47.1227 115.276C46.9679 115.405 46.7727 115.475 46.5715 115.473C46.4476 115.473 46.3253 115.446 46.2128 115.394C46.1003 115.343 46.0002 115.267 45.9193 115.173C45.8383 115.08 45.7785 114.97 45.7437 114.851C45.709 114.732 45.7002 114.607 45.7179 114.485L49.6344 88.2972L52.7205 86.5166Z" fill="#263238"/>
<path d="M71.4761 75.9766L66.2039 104.057C66.1684 104.255 66.064 104.434 65.9093 104.562C65.7545 104.691 65.5593 104.761 65.358 104.759C65.2346 104.759 65.1126 104.732 65.0004 104.681C64.8882 104.629 64.7883 104.554 64.7075 104.461C64.6266 104.368 64.5667 104.258 64.5316 104.14C64.4966 104.021 64.4873 103.897 64.5044 103.775L68.39 77.7533L71.4761 75.9766Z" fill="#263238"/>
<path d="M69.9461 73.8366C68.7304 73.2986 67.6791 72.4478 66.8994 71.371C66.1198 70.2942 65.6397 69.0298 65.5082 67.7069C64.6546 59.1014 61.6225 41.3728 51.3562 47.2746C38.6796 54.5592 43.218 75.7137 45.0604 82.4962C45.47 84.0242 46.2684 85.4201 47.3779 86.5479C49.6683 88.8653 54.4075 92.8282 62.4723 96.204C63.4616 96.6173 64.5619 96.6827 65.5931 96.3894C69.5985 95.25 80.0618 91.7544 85.2916 85.0724C85.5876 84.6936 85.7221 84.2132 85.6656 83.7358C85.6092 83.2584 85.3665 82.8226 84.9903 82.5232C82.8775 80.8469 78.0997 77.475 69.9461 73.8366Z" fill="#12733C"/>
<path opacity="0.5" d="M69.9461 73.8366C68.7304 73.2986 67.6791 72.4478 66.8994 71.371C66.1198 70.2942 65.6397 69.0298 65.5082 67.7069C64.6546 59.1014 61.6225 41.3728 51.3562 47.2746C38.6796 54.5592 43.218 75.7137 45.0604 82.4962C45.47 84.0242 46.2684 85.4201 47.3779 86.5479C49.6683 88.8653 54.4075 92.8282 62.4723 96.204C63.4616 96.6173 64.5619 96.6827 65.5931 96.3894C69.5985 95.25 80.0618 91.7544 85.2916 85.0724C85.5876 84.6936 85.7221 84.2132 85.6656 83.7358C85.6092 83.2584 85.3665 82.8226 84.9903 82.5232C82.8775 80.8469 78.0997 77.475 69.9461 73.8366Z" fill="black"/>
<path d="M85.6706 83.8634C85.6932 84.3011 85.5559 84.7321 85.2844 85.0762C85.0063 85.4354 84.7089 85.7792 84.4038 86.1191C84.2338 86.3045 84.0639 86.486 83.8862 86.6637C83.7124 86.8413 83.5347 87.0152 83.3532 87.189L82.8047 87.6988C82.6155 87.8649 82.4185 88.031 82.2292 88.1932C79.2667 90.6767 75.6631 92.5693 72.4688 93.9328L71.874 94.1838L71.8122 94.207L71.2638 94.431L71.1672 94.4658L70.6574 94.6666L70.5415 94.713L70.0664 94.8907L69.9273 94.9409L69.487 95.1031L69.3287 95.161L68.9231 95.304L68.757 95.3619L68.3708 95.4893L68.1893 95.5511L67.8494 95.6632L67.6562 95.7288L67.3511 95.8254L67.1425 95.891L66.8799 95.976L66.6559 96.0417L66.4357 96.1112L66.1615 96.1923L66.0224 96.2309C65.8911 96.2734 65.7598 96.3082 65.6362 96.343C64.6049 96.6362 63.5046 96.5709 62.5153 96.1576C54.4506 92.7779 49.7113 88.8189 47.4209 86.5014C46.3114 85.3737 45.513 83.9778 45.1034 82.4497C43.2611 75.6673 38.7227 54.5127 51.3992 47.2282C51.6232 47.102 51.8434 46.9861 52.0597 46.8805L52.2026 46.811C52.4189 46.7106 52.6275 46.6179 52.8361 46.5368L52.8978 46.5136C53.0948 46.4402 53.2841 46.3746 53.4849 46.3205L53.5738 46.2935C53.7823 46.2355 53.9871 46.1892 54.1879 46.1505H54.242C54.6421 46.079 55.0486 46.0505 55.4548 46.0656H55.478C55.8697 46.0802 56.2585 46.1398 56.6367 46.2432C54.6128 45.351 52.1408 45.3896 49.6843 46.7994C37.0078 54.084 41.5461 75.2386 43.3885 82.021L43.7014 83.1797C44.33 85.5338 45.7208 87.6133 47.6565 89.0931L50.9473 91.6076C54.4819 94.3023 58.3492 96.5299 62.4535 98.2355C63.4455 98.6535 64.5502 98.7216 65.586 98.4287C69.5875 97.2892 80.0585 93.7937 85.2844 87.1117C85.5101 86.8273 85.6448 86.4813 85.6706 86.1191V83.8595V83.8634Z" fill="#12733C"/>
<path opacity="0.6" d="M85.6706 83.8634C85.6932 84.3011 85.5559 84.7321 85.2844 85.0762C85.0063 85.4354 84.7089 85.7792 84.4038 86.1191C84.2338 86.3045 84.0639 86.486 83.8862 86.6637C83.7124 86.8413 83.5347 87.0152 83.3532 87.189L82.8047 87.6988C82.6155 87.8649 82.4185 88.031 82.2292 88.1932C79.2667 90.6767 75.6631 92.5693 72.4688 93.9328L71.874 94.1838L71.8122 94.207L71.2638 94.431L71.1672 94.4658L70.6574 94.6666L70.5415 94.713L70.0664 94.8907L69.9273 94.9409L69.487 95.1031L69.3287 95.161L68.9231 95.304L68.757 95.3619L68.3708 95.4893L68.1893 95.5511L67.8494 95.6632L67.6562 95.7288L67.3511 95.8254L67.1425 95.891L66.8799 95.976L66.6559 96.0417L66.4357 96.1112L66.1615 96.1923L66.0224 96.2309C65.8911 96.2734 65.7598 96.3082 65.6362 96.343C64.6049 96.6362 63.5046 96.5709 62.5153 96.1576C54.4506 92.7779 49.7113 88.8189 47.4209 86.5014C46.3114 85.3737 45.513 83.9778 45.1034 82.4497C43.2611 75.6673 38.7227 54.5127 51.3992 47.2282C51.6232 47.102 51.8434 46.9861 52.0597 46.8805L52.2026 46.811C52.4189 46.7106 52.6275 46.6179 52.8361 46.5368L52.8978 46.5136C53.0948 46.4402 53.2841 46.3746 53.4849 46.3205L53.5738 46.2935C53.7823 46.2355 53.9871 46.1892 54.1879 46.1505H54.242C54.6421 46.079 55.0486 46.0505 55.4548 46.0656H55.478C55.8697 46.0802 56.2585 46.1398 56.6367 46.2432C54.6128 45.351 52.1408 45.3896 49.6843 46.7994C37.0078 54.084 41.5461 75.2386 43.3885 82.021L43.7014 83.1797C44.33 85.5338 45.7208 87.6133 47.6565 89.0931L50.9473 91.6076C54.4819 94.3023 58.3492 96.5299 62.4535 98.2355C63.4455 98.6535 64.5502 98.7216 65.586 98.4287C69.5875 97.2892 80.0585 93.7937 85.2844 87.1117C85.5101 86.8273 85.6448 86.4813 85.6706 86.1191V83.8595V83.8634Z" fill="black"/>
<path d="M92.6616 108.07C91.7964 102.55 90.6879 93.7283 90.0545 88.514C90.0133 88.1715 89.9553 87.8316 89.8806 87.4943C89.5472 86.0551 88.9225 84.6995 88.0449 83.5111C87.1674 82.3227 86.0557 81.3266 84.7784 80.5844L71.7774 72.8595L62.9517 68.2246C62.9517 68.2246 60.6034 75.0302 63.338 79.1939C65.6091 82.6701 75.636 86.9497 78.6178 88.3981C81.5996 89.8465 81.6614 90.2367 81.5996 92.1717C81.5378 94.1068 81.5339 96.5711 85.1955 104.288C86.25 106.505 86.9838 108.151 87.4937 109.437C89.3213 109.578 91.1429 109.096 92.6616 108.07Z" fill="#12733C"/>
<path opacity="0.7" d="M92.6616 108.069C91.7964 102.55 90.6879 93.7281 90.0545 88.5138C89.9924 88.0016 89.8943 87.4943 89.7609 86.9959C89.0005 84.2989 87.2205 82.0036 84.7977 80.5958L71.7774 72.8439L62.9517 68.209C62.9517 68.209 60.6034 75.0146 63.338 79.1783C65.6091 82.6545 75.636 86.9341 78.6178 88.3825C81.5996 89.8309 81.6614 90.221 81.5996 92.1561C81.5378 94.0912 81.5339 96.5554 85.1955 104.273C86.25 106.49 86.9838 108.135 87.4937 109.421C89.3195 109.567 91.141 109.091 92.6616 108.069Z" fill="black"/>
<path d="M88.6402 113.913C88.6347 114.142 88.6893 114.369 88.7986 114.57C89.3168 115.445 89.9773 116.229 90.753 116.887C92.5065 118.467 98.3118 124.651 100.351 120.811C100.351 120.811 94.3528 115.068 93.561 112.7C93.1684 111.175 92.8679 109.627 92.661 108.065C91.1373 109.086 89.3129 109.559 87.4854 109.41C88.6093 112.21 88.6595 113.118 88.6402 113.913Z" fill="#FFA8A7"/>
<path d="M94.8977 113.535L94.7316 113.037C94.6648 112.854 94.5314 112.703 94.3581 112.614C94.1848 112.525 93.9843 112.505 93.7969 112.558L91.3674 113.307C91.2148 113.354 91.0815 113.449 90.9869 113.578C90.8924 113.706 90.8416 113.862 90.8421 114.021V114.265C90.8411 114.38 90.7946 114.49 90.7129 114.571C90.6312 114.652 90.5207 114.697 90.4056 114.697C89.8912 114.698 89.3927 114.519 88.9958 114.191L88.6559 113.913V113.064C88.4369 113.207 88.2591 113.405 88.1405 113.638C88.0219 113.871 87.9666 114.131 87.98 114.392C88.0109 114.968 88.038 115.671 88.0148 115.937C87.9762 116.447 87.5011 118.571 88.0689 119.201C88.6366 119.831 89.9112 119.904 91.4871 119.734C93.063 119.564 94.7856 121.113 96.2456 121.688C97.7056 122.264 103.754 123.5 103.739 119.634C103.739 118.649 102.762 118.247 101.808 117.899C100.854 117.552 97.4005 116.335 96.516 115.605C96.1606 115.309 95.8311 114.984 95.5311 114.632C95.2495 114.312 95.0342 113.939 94.8977 113.535Z" fill="#455A64"/>
<path d="M96.2303 121.7C94.7703 121.124 93.0477 119.576 91.4718 119.746C89.8959 119.916 88.6213 119.842 88.0535 119.213C87.8716 118.951 87.7769 118.639 87.7832 118.32C87.7561 118.915 87.8025 119.479 88.0535 119.765C88.6213 120.394 89.8959 120.468 91.4718 120.298C93.0477 120.128 94.7703 121.681 96.2303 122.252C97.6903 122.824 103.739 124.064 103.723 120.197C103.72 120.142 103.712 120.086 103.7 120.031C103.322 123.411 97.6401 122.252 96.2303 121.7Z" fill="#263238"/>
<path d="M80.8544 114.767C79.9853 109.252 78.8807 100.43 78.2434 95.2117C77.9104 92.4698 76.5561 89.9541 74.4504 88.1666L58.8501 74.903L50.511 74.7446C50.511 74.7446 48.7923 81.697 51.5191 85.8569C53.7941 89.3331 63.8172 93.6165 66.799 95.0611C69.7808 96.5056 69.8426 96.9034 69.7808 98.8347C69.719 100.766 69.7151 103.234 73.3805 110.951C74.4311 113.172 75.165 114.814 75.6748 116.1C77.5022 116.252 79.3274 115.783 80.8544 114.767Z" fill="#12733C"/>
<path opacity="0.7" d="M80.8544 114.767C79.9853 109.252 78.8807 100.43 78.2434 95.2117C77.9104 92.4698 76.5561 89.9541 74.4504 88.1666L58.8501 74.903L50.511 74.7446C50.511 74.7446 48.7923 81.697 51.5191 85.8569C53.7941 89.3331 63.8172 93.6165 66.799 95.0611C69.7808 96.5056 69.8426 96.9034 69.7808 98.8347C69.719 100.766 69.7151 103.234 73.3805 110.951C74.4311 113.172 75.165 114.814 75.6748 116.1C77.5022 116.252 79.3274 115.783 80.8544 114.767Z" fill="black"/>
<path d="M76.8248 120.113C76.8248 120.344 76.6665 121.028 76.9871 121.271C77.3965 121.577 77.7866 122.554 78.9453 123.589C80.695 125.169 82.5451 121.766 81.7494 119.406C81.3591 117.88 81.0599 116.332 80.8534 114.771C79.3279 115.79 77.5025 116.264 75.6738 116.115C76.8017 118.904 76.848 119.321 76.8248 120.113Z" fill="#FFA8A7"/>
<path d="M66.5156 45.9768C67.7091 45.7872 68.931 46.0271 69.9643 46.6537C70.9975 47.2803 71.7751 48.253 72.1586 49.3989C72.7096 51.0536 73.0635 52.7675 73.2131 54.5051C73.665 59.8545 73.7886 62.5273 73.7886 62.5273L79.1613 64.9645C79.1613 64.9645 76.2606 65.1036 76.4575 69.2132L69.7639 67.5253L66.5156 45.9768Z" fill="#FFA8A7"/>
<path d="M73.9856 59.2941C73.1938 53.5005 72.8809 50.4684 72.2011 49.0316C71.7346 47.9576 70.9199 47.072 69.8884 46.5177C68.8569 45.9634 67.6688 45.7727 66.5156 45.9764L68.5395 61.8897L68.7983 61.8665C70.5906 61.6897 72.2789 60.9424 73.6148 59.7344L73.9856 59.2941Z" fill="#12733C"/>
<path opacity="0.2" d="M73.9856 59.2941C73.1938 53.5005 72.8809 50.4684 72.2011 49.0316C71.7346 47.9576 70.9199 47.072 69.8884 46.5177C68.8569 45.9634 67.6688 45.7727 66.5156 45.9764L68.5395 61.8897L68.7983 61.8665C70.5906 61.6897 72.2789 60.9424 73.6148 59.7344L73.9856 59.2941Z" fill="black"/>
<path d="M73.7886 62.5274C73.185 62.713 72.6387 63.0493 72.2012 63.5046C72.2012 63.5046 72.8501 62.2725 73.7461 61.8901L73.7886 62.5274Z" fill="#F28F8F"/>
<path d="M53.6074 50.6699L59.6173 47.7576L64.569 46.0466C64.569 46.0466 68.5396 44.7835 69.5515 50.0712C70.3897 54.4165 70.4978 70.9284 70.4978 70.9284L70.409 72.7321C70.409 72.7321 68.1185 79.1515 59.934 79.6845C51.7495 80.2175 50.1543 76.7645 50.1543 76.7645C50.1543 76.7645 49.3201 54.9147 53.6074 50.6699Z" fill="#12733C"/>
<path d="M72.5456 33.0298C72.5456 33.0298 74.4034 37.7922 71.8388 39.8895C69.2741 41.9868 70.1779 33.5435 70.1779 33.5435L72.5456 33.0298Z" fill="#263238"/>
<path d="M88.6444 60.2563L31.5537 93.2184V100.36V135.064C31.5564 135.202 31.5986 135.336 31.6753 135.45C31.752 135.564 31.86 135.654 31.9863 135.709C32.3128 135.876 32.6741 135.963 33.0408 135.963C33.4074 135.963 33.7687 135.876 34.0952 135.709C34.2208 135.654 34.3279 135.564 34.4039 135.449C34.4799 135.335 34.5216 135.201 34.5239 135.064V102.079L65.4775 119.935V154.979C65.481 155.116 65.5235 155.249 65.6002 155.363C65.6768 155.476 65.7844 155.566 65.9101 155.62C66.2366 155.787 66.5979 155.874 66.9646 155.874C67.3312 155.874 67.6925 155.787 68.019 155.62C68.1448 155.566 68.2523 155.476 68.3289 155.363C68.4056 155.249 68.4482 155.116 68.4516 154.979V119.935L121.07 89.5568V122.774C121.074 122.911 121.118 123.044 121.196 123.157C121.274 123.27 121.383 123.358 121.51 123.411C121.836 123.578 122.198 123.665 122.564 123.665C122.931 123.665 123.292 123.578 123.619 123.411C123.745 123.357 123.853 123.268 123.929 123.154C124.006 123.04 124.048 122.907 124.051 122.77V80.7041L88.6444 60.2563Z" fill="#455A64"/>
<path d="M68.018 155.628C67.6915 155.794 67.3302 155.881 66.9635 155.881C66.5969 155.881 66.2356 155.794 65.9091 155.628C65.3259 155.292 65.3259 154.747 65.9091 154.411C66.2356 154.244 66.5969 154.157 66.9635 154.157C67.3302 154.157 67.6915 154.244 68.018 154.411C68.6012 154.747 68.6012 155.292 68.018 155.628Z" fill="#455A64"/>
<path d="M68.4593 119.081H65.4775V154.986H68.4593V119.081Z" fill="#37474F"/>
<path d="M33.0485 135.964C33.8719 135.964 34.5394 135.578 34.5394 135.103C34.5394 134.627 33.8719 134.241 33.0485 134.241C32.2251 134.241 31.5576 134.627 31.5576 135.103C31.5576 135.578 32.2251 135.964 33.0485 135.964Z" fill="#455A64"/>
<path d="M34.5394 99.1665H31.5576V135.072H34.5394V99.1665Z" fill="#263238"/>
<path d="M123.62 123.411C123.293 123.578 122.932 123.665 122.565 123.665C122.199 123.665 121.837 123.578 121.511 123.411C120.927 123.075 120.927 122.53 121.511 122.194C121.837 122.027 122.199 121.94 122.565 121.94C122.932 121.94 123.293 122.027 123.62 122.194C124.203 122.534 124.203 123.079 123.62 123.411Z" fill="#455A64"/>
<path d="M124.058 86.8687H121.076V122.774H124.058V86.8687Z" fill="#37474F"/>
<path d="M87.1723 96.2429C86.879 96.3916 86.5548 96.469 86.226 96.469C85.8972 96.469 85.573 96.3916 85.2797 96.2429C84.7583 95.9417 84.7583 95.4705 85.2797 95.1537C85.5725 95.0033 85.8969 94.9248 86.226 94.9248C86.5552 94.9248 86.8796 95.0033 87.1723 95.1537C87.6783 95.455 87.6783 95.9417 87.1723 96.2429Z" fill="#455A64"/>
<path d="M87.5507 65.7061H84.874V95.6709H87.5507V65.7061Z" fill="#455A64"/>
<path d="M31.5537 93.2183V100.36L66.9684 120.808V113.662L31.5537 93.2183Z" fill="#263238"/>
<path d="M124.059 80.7041L66.9688 113.662V120.808L124.059 87.8458V80.7041Z" fill="#37474F"/>
<path d="M88.6444 60.2563L31.5537 93.2184L66.9684 113.662L124.059 80.7041L88.6444 60.2563Z" fill="#455A64"/>
<path d="M60.0039 82.5002L72.9894 89.9972L94.5766 77.5099L81.5949 69.8623L60.0039 82.5002Z" fill="#EBEBEB"/>
<path d="M71.5914 80.3641L76.4619 77.5523L73.4106 75.791L68.54 78.6029L71.5914 80.3641Z" fill="#E0E0E0"/>
<path d="M73.5428 88.1235L66.9805 84.2611L79.8038 76.4976L73.5428 88.1235Z" fill="#E0E0E0"/>
<path d="M77.216 64.0376L82.411 66.4748C83.9631 66.8664 85.4934 67.3395 86.9957 67.8923C86.9957 67.8923 90.6109 69.3678 90.777 70.3372C90.9431 71.3067 88.0733 73.6435 85.5357 72.5079C84.8726 72.1525 84.1626 71.8925 83.4268 71.7354C82.7509 71.6621 80.7231 71.3492 79.2747 69.9549L73.2145 68.379C73.2145 68.379 72.9132 64.6401 77.216 64.0376Z" fill="#FFA8A7"/>
<path d="M80.5797 71.2683C81.1783 71.9133 82.8971 73.5394 83.2834 74.0106C83.6696 74.4818 84.5425 73.2729 82.9937 71.4691C81.6529 70.9781 80.3918 70.2923 79.251 69.4336C79.6463 70.0782 80.0905 70.6916 80.5797 71.2683Z" fill="#FFA8A7"/>
<path d="M65.7816 40.2954H59.6172V47.7576H65.7816V40.2954Z" fill="#FFA8A7"/>
<path d="M65.7865 47.7576C64.5292 47.2883 63.3801 46.5689 62.4089 45.6428C61.4376 44.7166 60.6643 43.6031 60.1357 42.3695V40.2954H65.8019L65.7865 47.7576Z" fill="#F28F8F"/>
<path d="M67.8599 30.4425C67.8599 30.4425 73.4682 31.1184 72.182 40.7011C71.5872 45.1313 70.4014 47.3715 66.987 46.993C63.1246 46.5604 57.7674 43.5555 58.5978 35.9619C59.4282 28.3683 67.8599 30.4425 67.8599 30.4425Z" fill="#FFA8A7"/>
<path d="M68.1745 38.9858L67.9736 42.296L69.9473 41.8209L68.1745 38.9858Z" fill="#F28F8F"/>
<path d="M65.2386 38.6883C65.2304 38.8218 65.262 38.9547 65.3294 39.0703C65.3968 39.1858 65.497 39.2787 65.6172 39.3373C65.7374 39.3959 65.8724 39.4175 66.0049 39.3993C66.1374 39.3812 66.2615 39.3242 66.3616 39.2354C66.4617 39.1467 66.5332 39.0303 66.5671 38.9009C66.601 38.7715 66.5957 38.635 66.552 38.5086C66.5083 38.3822 66.428 38.2716 66.3214 38.1909C66.2148 38.1101 66.0866 38.0628 65.9531 38.0549C65.7744 38.0443 65.5988 38.1051 65.4648 38.2238C65.3309 38.3426 65.2495 38.5096 65.2386 38.6883Z" fill="#263238"/>
<path d="M69.6995 38.4913C69.6914 38.6246 69.7229 38.7574 69.7902 38.8728C69.8575 38.9882 69.9574 39.081 70.0774 39.1397C70.1974 39.1983 70.3322 39.2201 70.4645 39.2022C70.5969 39.1844 70.721 39.1277 70.8212 39.0394C70.9214 38.951 70.9932 38.835 71.0274 38.7059C71.0617 38.5768 71.057 38.4404 71.0139 38.314C70.9707 38.1876 70.8911 38.0768 70.785 37.9956C70.6789 37.9144 70.5512 37.8665 70.4179 37.8579C70.3291 37.8521 70.24 37.8639 70.1558 37.8927C70.0716 37.9214 69.9939 37.9665 69.9271 38.0254C69.8604 38.0842 69.8059 38.1557 69.7669 38.2356C69.7278 38.3156 69.7049 38.4025 69.6995 38.4913Z" fill="#263238"/>
<path d="M71.2825 37.1778L70.0117 36.3126C70.0117 36.3126 70.5486 35.8182 71.0353 36.1659C71.1736 36.29 71.2711 36.4531 71.3152 36.6336C71.3593 36.8142 71.3479 37.0039 71.2825 37.1778Z" fill="#263238"/>
<path d="M65.7053 37.0276L64.3341 37.7151C64.3341 37.7151 64.1642 37.0044 64.7011 36.7533C64.8766 36.6922 65.0665 36.6857 65.2457 36.7346C65.425 36.7836 65.5852 36.8857 65.7053 37.0276Z" fill="#263238"/>
<path d="M68.0685 43.6403C67.2966 43.6479 66.5445 43.3963 65.9325 42.9258C65.9325 42.9258 65.7162 44.0613 66.6587 44.3356C67.6011 44.6098 68.0685 43.6403 68.0685 43.6403Z" fill="#F28F8F"/>
<path d="M59.5519 38.9086C59.5519 38.9086 60.4132 40.7046 60.9463 40.6428C61.4793 40.581 60.9463 33.7638 62.0509 33.7213C63.1556 33.6788 68.3699 36.2667 72.9778 32.9257C74.7506 31.6433 75.1021 28.368 74.0399 28.677C72.9778 28.986 71.5448 29.9168 69.6097 29.7855C67.6746 29.6542 60.8999 26.5102 59.2197 30.9442C59.2197 30.9442 55.4732 30.6391 56.8791 38.0782C57.2306 39.9283 58.3352 44.5091 59.6176 44.961L59.5519 38.9086Z" fill="#263238"/>
<path d="M59.8572 40.5464C59.8784 39.9846 59.7742 39.4251 59.552 38.9087C59.4408 38.5907 59.2396 38.3119 58.9728 38.1062C58.7061 37.9005 58.3853 37.7767 58.0495 37.75C56.3192 37.7036 56.0836 39.3722 56.1183 39.9631C56.1801 41.5081 57.4431 43.2076 59.7915 43.2733L59.8572 40.5464Z" fill="#FFA8A7"/>
<path d="M60.3898 73.937L64.8084 77.448C65.5639 77.5193 66.3129 77.6484 67.0486 77.8342C67.8945 78.0853 70.1115 78.9003 70.6986 79.0277C71.2857 79.1552 70.5287 80.1865 68.9914 79.8002C68.9914 79.8002 72.2127 82.0057 72.1702 82.9867C72.1277 83.9678 68.8215 85.6441 66.589 83.9987C66.0137 83.518 65.3757 83.1178 64.6925 82.8091C64.0436 82.5966 62.1395 81.8589 61.0078 80.1903L57.1453 78.178C57.1453 78.178 56.0561 73.6165 60.3898 73.937Z" fill="#FFA8A7"/>
<path d="M55.5696 49.7192C55.5696 49.7192 58.1459 51.7161 56.5623 57.9231C54.9787 64.13 54.1328 69.4795 54.1328 69.4795L60.39 73.9367C59.5333 74.3118 58.7861 74.8985 58.2186 75.6417C57.6511 76.3849 57.2818 77.2603 57.1455 78.1854C57.1455 78.1854 47.2808 74.323 47.08 71.8163C46.8791 69.3095 49.1387 58.5488 49.4824 56.5673C49.8262 54.5859 51.5797 50.6578 55.5696 49.7192Z" fill="#FFA8A7"/>
<path d="M54.1334 69.4796C53.3534 69.3267 52.5503 69.3345 51.7734 69.5028C52.5139 69.1008 53.3449 68.8947 54.1875 68.9041L54.1334 69.4796Z" fill="#F28F8F"/>
<path d="M97.6011 63.2072L95.3416 77.9811C95.3448 77.9898 95.3448 77.9994 95.3416 78.0081L72.8815 91.0129C72.8759 91.0157 72.8696 91.017 72.8634 91.0166C72.8572 91.0161 72.8512 91.014 72.846 91.0105C72.8409 91.0069 72.8368 91.002 72.8342 90.9963C72.8316 90.9907 72.8306 90.9844 72.8313 90.9782L75.0213 76.6485C75.0677 76.343 75.1803 76.0514 75.3511 75.7939C75.5218 75.5364 75.7467 75.3193 76.01 75.1576L96.5814 62.5429C96.6894 62.4721 96.8156 62.4343 96.9447 62.4341C97.0738 62.4339 97.2002 62.4713 97.3084 62.5418C97.4165 62.6123 97.5018 62.7127 97.5538 62.8309C97.6058 62.9491 97.6222 63.0799 97.6011 63.2072Z" fill="#FAFAFA"/>
<path d="M72.8822 91.0131L60.9087 84.0607C60.6327 83.9005 60.4036 83.6706 60.2443 83.3941C60.085 83.1175 60.0011 82.804 60.001 82.4849L72.9865 89.9819L72.8822 91.0131Z" fill="#E0E0E0"/>
<path d="M84.6113 77.4484C84.6113 78.5067 85.3529 78.9315 86.2645 78.4062C86.7465 78.0925 87.1478 77.6694 87.4357 77.1715C87.7236 76.6735 87.89 76.1147 87.9214 75.5403C87.9214 74.482 87.1798 74.0571 86.2645 74.5824C85.7835 74.8971 85.3833 75.3204 85.0961 75.8183C84.809 76.3161 84.6429 76.8745 84.6113 77.4484Z" fill="#E0E0E0"/>
<path d="M59.8153 33.1113C59.8153 33.1113 58.7956 31.605 59.4291 31.1183C60.0625 30.6316 60.5221 32.1805 59.8153 33.1113Z" fill="#263238"/>
<path d="M59.9847 33.4165C59.9847 33.4165 58.1848 33.1925 58.2273 32.4046C58.2698 31.6166 59.7491 32.281 59.9847 33.4165Z" fill="#263238"/>
<path d="M59.6172 47.7573C59.6172 47.7573 60.942 51.2335 63.9933 50.8009C67.0447 50.3683 65.7855 47.7573 65.7855 47.7573H59.6172Z" fill="#FFA8A7"/>
<path d="M55.5694 49.7192C55.5694 49.7192 57.5778 50.681 57.2688 54.7211C56.9599 58.7612 55.3647 66.9032 55.3647 66.9032C55.3647 66.9032 48.1767 69.8155 47.4891 65.7097C47.3153 64.6476 49.1268 54.8254 50.6757 52.7474C51.2443 51.938 51.9711 51.2524 52.8122 50.7319C53.6534 50.2114 54.5913 49.8669 55.5694 49.7192Z" fill="#12733C"/>
<path opacity="0.2" d="M55.5694 49.7192C55.5694 49.7192 57.5778 50.681 57.2688 54.7211C56.9599 58.7612 55.3647 66.9032 55.3647 66.9032C55.3647 66.9032 48.1767 69.8155 47.4891 65.7097C47.3153 64.6476 49.1268 54.8254 50.6757 52.7474C51.2443 51.938 51.9711 51.2524 52.8122 50.7319C53.6534 50.2114 54.5913 49.8669 55.5694 49.7192Z" fill="black"/>
<path d="M76.9873 120.321C77.257 120.729 77.6706 121.022 78.146 121.139C78.5824 121.209 77.7018 120.077 78.7524 119.622C79.803 119.166 82.2093 118.544 82.4256 119.448L82.6921 120.576C82.9433 121.642 83.4526 122.63 84.1753 123.453C84.8766 124.302 85.6751 125.065 86.5545 125.728C87.9295 126.613 90.1891 128.756 87.2884 130.583C84.3877 132.41 80.8265 130.865 80.1274 128.791C79.4283 126.717 78.6906 126.114 78.3198 125.771C77.5385 125.222 76.9817 124.41 76.7516 123.484C76.5632 122.566 76.4342 121.637 76.3654 120.703C76.3509 120.514 76.3877 120.325 76.4721 120.156C76.5564 119.987 76.6851 119.843 76.8443 119.741L76.9873 120.321Z" fill="#455A64"/>
<path d="M87.3037 130.576C84.403 132.399 80.8419 130.858 80.1428 128.784C79.4437 126.71 78.7059 126.107 78.3351 125.763C77.6803 125.29 77.1771 124.636 76.8867 123.882C76.8867 123.936 76.8867 123.998 76.8867 124.052C76.9987 125.848 78.0995 126.269 78.4703 126.617C78.8411 126.965 79.4514 127.528 80.1505 129.606C80.8496 131.684 84.5266 132.975 87.4235 131.151C88.8332 130.267 89.0225 129.305 88.6903 128.448C88.7599 129.147 88.4045 129.885 87.3037 130.576Z" fill="#263238"/>
<path d="M73.3684 103.001L64.1294 108.347L52.4648 101.611L61.7347 96.2654C61.8561 96.197 61.9932 96.1611 62.1325 96.1611C62.2719 96.1611 62.4089 96.197 62.5304 96.2654L73.38 102.53C73.4202 102.556 73.4532 102.591 73.4756 102.633C73.4981 102.675 73.5093 102.722 73.5081 102.769C73.507 102.817 73.4935 102.863 73.469 102.904C73.4445 102.945 73.4098 102.978 73.3684 103.001Z" fill="#12733C"/>
<path opacity="0.7" d="M73.3684 103.001L64.1294 108.347L52.4648 101.611L61.7347 96.2654C61.8561 96.197 61.9932 96.1611 62.1325 96.1611C62.2719 96.1611 62.4089 96.197 62.5304 96.2654L73.38 102.53C73.4202 102.556 73.4532 102.591 73.4756 102.633C73.4981 102.675 73.5093 102.722 73.5081 102.769C73.507 102.817 73.4935 102.863 73.469 102.904C73.4445 102.945 73.4098 102.978 73.3684 103.001Z" fill="black"/>
<path d="M72.7266 102.809L64.1288 107.772L53.2715 101.507L61.8886 96.5324C62.0002 96.4661 62.1276 96.4312 62.2575 96.4312C62.3873 96.4312 62.5147 96.4661 62.6263 96.5324L72.7266 102.361C72.7659 102.384 72.7985 102.416 72.8212 102.456C72.8439 102.495 72.8558 102.539 72.8558 102.585C72.8558 102.63 72.8439 102.675 72.8212 102.714C72.7985 102.754 72.7659 102.786 72.7266 102.809Z" fill="white"/>
<path d="M64.1299 107.772V106.803L72.859 101.766V102.589L64.1299 107.772Z" fill="white"/>
<path d="M64.1288 107.772V106.802L53.2715 100.538V101.507L64.1288 107.772Z" fill="#E0E0E0"/>
<path d="M73.3684 101.469L64.1294 106.803L52.4648 100.07L61.7347 94.7249C61.8561 94.6565 61.9932 94.6206 62.1325 94.6206C62.2719 94.6206 62.4089 94.6565 62.5304 94.7249L73.3684 101.009C73.4066 101.034 73.4381 101.068 73.4598 101.108C73.4816 101.148 73.493 101.193 73.493 101.239C73.493 101.285 73.4816 101.329 73.4598 101.37C73.4381 101.41 73.4066 101.444 73.3684 101.469Z" fill="#12733C"/>
<path opacity="0.5" d="M73.3684 101.469L64.1294 106.803L52.4648 100.07L61.7347 94.7249C61.8561 94.6565 61.9932 94.6206 62.1325 94.6206C62.2719 94.6206 62.4089 94.6565 62.5304 94.7249L73.3684 101.009C73.4066 101.034 73.4381 101.068 73.4598 101.108C73.4816 101.148 73.493 101.193 73.493 101.239C73.493 101.285 73.4816 101.329 73.4598 101.37C73.4381 101.41 73.4066 101.444 73.3684 101.469Z" fill="black"/>
<path d="M62.9204 107.641C62.8941 107.654 62.865 107.661 62.8354 107.661C62.8059 107.661 62.7768 107.654 62.7505 107.641C62.7169 107.623 62.6888 107.596 62.6691 107.563C62.6494 107.531 62.6388 107.493 62.6385 107.455V106.571C62.6403 106.373 62.6928 106.179 62.7908 106.007C62.8889 105.836 63.0292 105.692 63.1985 105.59L63.2333 105.566C63.2493 105.558 63.2673 105.553 63.2855 105.554C63.3037 105.554 63.3215 105.559 63.3372 105.568C63.3528 105.578 63.3657 105.591 63.3746 105.607C63.3834 105.623 63.388 105.641 63.3878 105.659C63.3878 105.707 63.4069 105.753 63.4409 105.788C63.475 105.822 63.5212 105.841 63.5693 105.841C63.6175 105.841 63.6636 105.822 63.6977 105.788C63.7317 105.753 63.7508 105.707 63.7508 105.659C63.7516 105.577 63.7301 105.495 63.6887 105.424C63.6472 105.353 63.5873 105.294 63.5152 105.254C63.4447 105.211 63.3639 105.188 63.2816 105.188C63.1992 105.188 63.1184 105.211 63.0479 105.254L63.0131 105.273C62.7886 105.406 62.6025 105.595 62.4731 105.822C62.3438 106.049 62.2757 106.306 62.2754 106.567V107.444C62.2754 107.547 62.3034 107.649 62.3564 107.738C62.4094 107.827 62.4855 107.9 62.5767 107.95C62.6598 107.994 62.7528 108.016 62.847 108.015C62.9612 108.016 63.0729 107.982 63.1676 107.919C63.2024 107.895 63.2272 107.859 63.2371 107.818L62.9204 107.641Z" fill="white"/>
<path d="M61.1948 106.644C61.1685 106.658 61.1394 106.665 61.1099 106.665C61.0803 106.665 61.0512 106.658 61.0249 106.644C60.9913 106.626 60.9632 106.6 60.9435 106.567C60.9238 106.535 60.9132 106.497 60.9129 106.459V105.582C60.9141 105.384 60.9662 105.189 61.0643 105.017C61.1624 104.844 61.3031 104.7 61.4729 104.597H61.5077C61.5237 104.589 61.5416 104.584 61.5598 104.584C61.5781 104.584 61.596 104.589 61.612 104.597C61.6273 104.607 61.6399 104.62 61.6487 104.635C61.6575 104.651 61.6621 104.668 61.6622 104.686C61.6622 104.734 61.6813 104.781 61.7154 104.815C61.7494 104.849 61.7956 104.868 61.8437 104.868C61.8919 104.868 61.938 104.849 61.9721 104.815C62.0061 104.781 62.0253 104.734 62.0253 104.686C62.0226 104.607 61.9996 104.53 61.9583 104.462C61.917 104.394 61.8589 104.339 61.7896 104.3C61.7191 104.257 61.6383 104.235 61.556 104.235C61.4736 104.235 61.3928 104.257 61.3223 104.3L61.2875 104.319C61.063 104.453 60.8769 104.642 60.7476 104.869C60.6182 105.096 60.5501 105.352 60.5498 105.613V106.49C60.5498 106.594 60.5778 106.695 60.6308 106.784C60.6838 106.873 60.7599 106.947 60.8511 106.996C60.9342 107.04 61.0272 107.063 61.1214 107.062C61.2356 107.062 61.3473 107.029 61.442 106.965C61.4768 106.941 61.5016 106.906 61.5115 106.865L61.1948 106.644Z" fill="white"/>
<path d="M59.4673 105.644C59.4407 105.656 59.4117 105.663 59.3823 105.663C59.353 105.663 59.3239 105.656 59.2973 105.644C59.2638 105.626 59.2356 105.599 59.2159 105.566C59.1962 105.534 59.1857 105.496 59.1853 105.458V104.582C59.1866 104.383 59.2387 104.188 59.3368 104.016C59.4348 103.844 59.5755 103.699 59.7454 103.597L59.7801 103.577C59.7961 103.569 59.8141 103.564 59.8323 103.564C59.8505 103.564 59.8685 103.569 59.8844 103.577C59.8997 103.587 59.9124 103.6 59.9211 103.615C59.9299 103.631 59.9346 103.648 59.9346 103.666C59.9346 103.714 59.9538 103.761 59.9878 103.795C60.0219 103.829 60.068 103.848 60.1162 103.848C60.1643 103.848 60.2105 103.829 60.2445 103.795C60.2786 103.761 60.2977 103.714 60.2977 103.666C60.2951 103.587 60.272 103.51 60.2307 103.442C60.1894 103.374 60.1314 103.319 60.0621 103.28C59.9916 103.237 59.9108 103.215 59.8284 103.215C59.7461 103.215 59.6653 103.237 59.5948 103.28L59.56 103.299C59.3354 103.433 59.1493 103.622 59.02 103.849C58.8907 104.076 58.8225 104.332 58.8223 104.593V105.47C58.8223 105.574 58.8503 105.675 58.9033 105.764C58.9563 105.853 59.0324 105.927 59.1235 105.976C59.2067 106.02 59.2997 106.043 59.3939 106.042C59.508 106.042 59.6198 106.009 59.7145 105.945C59.7493 105.921 59.7741 105.886 59.784 105.845L59.4673 105.644Z" fill="white"/>
<path d="M57.7407 104.652C57.7141 104.664 57.6851 104.67 57.6558 104.67C57.6264 104.67 57.5974 104.664 57.5708 104.652C57.5372 104.634 57.5091 104.607 57.4894 104.574C57.4697 104.542 57.4591 104.504 57.4588 104.466V103.589C57.46 103.391 57.5121 103.196 57.6102 103.024C57.7083 102.851 57.849 102.707 58.0188 102.604L58.0536 102.585C58.0696 102.576 58.0875 102.572 58.1057 102.572C58.124 102.572 58.1419 102.576 58.1579 102.585C58.1732 102.594 58.1858 102.607 58.1946 102.623C58.2034 102.639 58.208 102.656 58.2081 102.674C58.2081 102.722 58.2272 102.768 58.2613 102.802C58.2953 102.836 58.3415 102.856 58.3896 102.856C58.4378 102.856 58.4839 102.836 58.518 102.802C58.552 102.768 58.5712 102.722 58.5712 102.674C58.5685 102.595 58.5454 102.518 58.5042 102.45C58.4629 102.382 58.4048 102.326 58.3355 102.288C58.265 102.245 58.1842 102.223 58.1019 102.223C58.0195 102.223 57.9387 102.245 57.8682 102.288L57.8334 102.307C57.6089 102.44 57.4228 102.63 57.2935 102.856C57.1641 103.083 57.096 103.34 57.0957 103.601V104.478C57.0957 104.581 57.1237 104.683 57.1767 104.772C57.2297 104.861 57.3058 104.934 57.397 104.984C57.4801 105.028 57.5731 105.051 57.6673 105.049C57.7815 105.05 57.8932 105.017 57.9879 104.953C58.0227 104.929 58.0475 104.893 58.0574 104.852L57.7407 104.652Z" fill="white"/>
<path d="M56.0142 103.655C55.9876 103.667 55.9586 103.674 55.9292 103.674C55.8998 103.674 55.8708 103.667 55.8442 103.655C55.8106 103.637 55.7825 103.61 55.7628 103.577C55.7431 103.545 55.7325 103.507 55.7322 103.469V102.593C55.7334 102.394 55.7856 102.199 55.8836 102.027C55.9817 101.855 56.1224 101.71 56.2923 101.608H56.327C56.343 101.599 56.3609 101.594 56.3792 101.594C56.3974 101.594 56.4153 101.599 56.4313 101.608C56.4466 101.617 56.4592 101.63 56.468 101.645C56.4768 101.661 56.4815 101.679 56.4815 101.696C56.4815 101.745 56.5006 101.791 56.5347 101.825C56.5687 101.859 56.6149 101.878 56.6631 101.878C56.7112 101.878 56.7574 101.859 56.7914 101.825C56.8255 101.791 56.8446 101.745 56.8446 101.696C56.842 101.617 56.8189 101.54 56.7776 101.472C56.7363 101.405 56.6782 101.349 56.609 101.31C56.5385 101.268 56.4577 101.245 56.3753 101.245C56.2929 101.245 56.2121 101.268 56.1416 101.31L56.1069 101.33C55.8823 101.463 55.6962 101.652 55.5669 101.879C55.4376 102.106 55.3694 102.362 55.3691 102.623V103.5C55.3691 103.604 55.3971 103.706 55.4502 103.795C55.5032 103.884 55.5793 103.957 55.6704 104.006C55.7542 104.049 55.8468 104.071 55.9408 104.072C56.0549 104.073 56.1666 104.039 56.2614 103.975C56.2962 103.952 56.321 103.916 56.3309 103.875L56.0142 103.655Z" fill="white"/>
<path d="M54.2876 102.658C54.261 102.67 54.232 102.677 54.2026 102.677C54.1733 102.677 54.1443 102.67 54.1177 102.658C54.0841 102.64 54.056 102.613 54.0362 102.581C54.0165 102.548 54.006 102.511 54.0056 102.473V101.588C54.0069 101.39 54.059 101.195 54.1571 101.022C54.2551 100.85 54.3958 100.706 54.5657 100.603L54.6005 100.584C54.6164 100.575 54.6344 100.57 54.6526 100.57C54.6708 100.57 54.6888 100.575 54.7047 100.584C54.7206 100.592 54.7337 100.605 54.7425 100.621C54.7514 100.637 54.7557 100.655 54.755 100.673C54.755 100.721 54.7741 100.767 54.8081 100.801C54.8422 100.835 54.8883 100.854 54.9365 100.854C54.9846 100.854 55.0308 100.835 55.0649 100.801C55.0989 100.767 55.118 100.721 55.118 100.673C55.114 100.592 55.0895 100.514 55.0468 100.446C55.0042 100.378 54.9448 100.322 54.8743 100.283C54.8039 100.245 54.7247 100.225 54.6443 100.225C54.5639 100.226 54.485 100.247 54.4151 100.286L54.3803 100.31C54.1557 100.443 53.9697 100.632 53.8403 100.859C53.711 101.086 53.6429 101.342 53.6426 101.603V102.48C53.6426 102.584 53.6706 102.686 53.7236 102.775C53.7766 102.864 53.8527 102.937 53.9438 102.986C54.0277 103.029 54.1202 103.051 54.2142 103.052C54.3284 103.053 54.4401 103.019 54.5348 102.955C54.5696 102.932 54.5944 102.896 54.6043 102.855L54.2876 102.658Z" fill="white"/>
<path d="M74.5576 99.0584L64.5693 104.825L51.5684 97.3203L61.5605 91.5537L74.5576 99.0584Z" fill="#E6E6E6"/>
<path d="M75.1334 98.8691L64.6971 103.782L52.3682 95.2114L62.8083 90.3022L75.1334 98.8691Z" fill="#FAFAFA"/>
<path d="M51.8316 83.5312H43.3535L44.126 92.5037C44.1761 92.788 44.2944 93.056 44.4706 93.2847C44.6468 93.5134 44.8758 93.696 45.138 93.8169C45.9013 94.2053 46.7457 94.4077 47.6022 94.4077C48.4587 94.4077 49.3031 94.2053 50.0664 93.8169C50.328 93.6952 50.5565 93.5123 50.7326 93.2838C50.9087 93.0552 51.0273 92.7877 51.0784 92.5037L51.8316 83.5312Z" fill="#12733C"/>
<path d="M52.372 83.0405V82.3298H52.206C51.9319 81.8011 51.5017 81.3696 50.9738 81.0939C49.1083 80.0162 46.0801 80.0162 44.2146 81.0939C43.6858 81.3684 43.2553 81.8002 42.9824 82.3298H42.8125V83.0483C42.8125 83.7512 43.2799 84.458 44.2146 84.9988C46.0801 86.0764 49.1083 86.0764 50.9738 84.9988C51.9085 84.458 52.3759 83.7474 52.372 83.0405Z" fill="#E0E0E0"/>
<path d="M50.9743 84.323C49.1088 85.4007 46.0806 85.4007 44.2151 84.323C42.3495 83.2454 42.3456 81.4996 44.2151 80.422C46.0845 79.3443 49.1088 79.3405 50.9743 80.422C52.8399 81.5035 52.8399 83.2415 50.9743 84.323Z" fill="#EBEBEB"/>
<path d="M51.4259 82.0831V81.5154H51.2907C51.0708 81.0918 50.7254 80.7465 50.3019 80.5266C49.464 80.1014 48.5377 79.8799 47.5982 79.8799C46.6586 79.8799 45.7323 80.1014 44.8945 80.5266C44.4697 80.7448 44.1239 81.0906 43.9057 81.5154H43.7705V82.0831C43.7705 82.6509 44.1567 83.2187 44.8945 83.6474C45.7323 84.0726 46.6586 84.2941 47.5982 84.2941C48.5377 84.2941 49.464 84.0726 50.3019 83.6474C51.0512 83.211 51.4259 82.6432 51.4259 82.0831Z" fill="#E0E0E0"/>
<path d="M50.3019 83.1025C49.464 83.5276 48.5377 83.7492 47.5982 83.7492C46.6586 83.7492 45.7323 83.5276 44.8945 83.1025C43.3959 82.2411 43.3959 80.8391 44.8945 79.9777C45.7323 79.5526 46.6586 79.3311 47.5982 79.3311C48.5377 79.3311 49.464 79.5526 50.3019 79.9777C51.7967 80.8391 51.7967 82.2411 50.3019 83.1025Z" fill="#F5F5F5"/>
<path d="M49.6759 82.647C49.0301 82.9745 48.3162 83.1451 47.5921 83.1451C46.868 83.1451 46.1542 82.9745 45.5083 82.647C44.3921 82.0059 44.3496 80.9784 45.3925 80.3296C45.4293 80.3024 45.468 80.2778 45.5083 80.2562C45.7612 80.1123 46.0311 80.0007 46.3117 79.924C47.4349 79.6072 48.6363 79.7259 49.6759 80.2562C50.8308 80.9244 50.8308 81.9827 49.6759 82.647Z" fill="#F0F0F0"/>
<path d="M45.508 80.5842C46.154 80.2549 46.8687 80.0832 47.5938 80.0832C48.3188 80.0832 49.0335 80.2549 49.6795 80.5842C49.8886 80.682 50.0731 80.8254 50.2194 81.0038C50.3658 81.1823 50.4703 81.3913 50.5254 81.6155C50.6142 81.1249 50.3284 80.6151 49.6795 80.2404C49.0325 79.9144 48.3182 79.7446 47.5938 79.7446C46.8693 79.7446 46.155 79.9144 45.508 80.2404C44.8553 80.6267 44.5733 81.1249 44.6583 81.6155C44.7137 81.3909 44.8188 81.1817 44.9659 81.0032C45.113 80.8247 45.2983 80.6815 45.508 80.5842Z" fill="#E0E0E0"/>
<path d="M47.0844 80.6961L46.2308 81.2407L45.3965 80.6421V80.3138C45.4333 80.2866 45.472 80.262 45.5124 80.2404C45.7652 80.0965 46.0351 79.9849 46.3157 79.9082V80.1515L47.0844 80.6961Z" fill="#E0E0E0"/>
<path d="M147.757 28.0085L99.6772 0.229866C99.4747 0.0805548 99.2297 0 98.9781 0C98.7265 0 98.4815 0.0805548 98.279 0.229866L96.6143 1.3886L97.7498 2.79452V41.5541C97.7498 42.9755 98.615 44.6441 99.681 45.2389L147.286 72.724L147.374 74.2342L149.128 73.033C149.329 72.8438 149.485 72.6111 149.582 72.3527C149.68 72.0944 149.718 71.8171 149.692 71.5421V31.674C149.688 30.2526 148.823 28.6033 147.757 28.0085Z" fill="#12733C"/>
<path opacity="0.3" d="M147.757 28.0085L99.6772 0.229866C99.4747 0.0805548 99.2297 0 98.9781 0C98.7265 0 98.4815 0.0805548 98.279 0.229866L96.6143 1.3886L97.7498 2.79452V41.5541C97.7498 42.9755 98.615 44.6441 99.681 45.2389L147.286 72.724L147.374 74.2342L149.128 73.033C149.329 72.8438 149.485 72.6111 149.582 72.3527C149.68 72.0944 149.718 71.8171 149.692 71.5421V31.674C149.688 30.2526 148.823 28.6033 147.757 28.0085Z" fill="black"/>
<path d="M146.12 74.1258L98.0406 46.3665C96.9784 45.7523 96.1094 44.1031 96.1094 42.6817V2.8136C96.1094 1.39609 96.9746 0.743334 98.0406 1.35746L146.12 29.1168C147.186 29.7309 148.051 31.3802 148.051 32.8016V72.6658C148.051 74.0872 147.186 74.7438 146.12 74.1258Z" fill="#12733C"/>
<path d="M146.12 74.1258L98.0406 46.3665C96.9784 45.7523 96.1094 44.1031 96.1094 42.6817V2.8136C96.1094 1.39609 96.9746 0.743334 98.0406 1.35746L146.12 29.1168C147.186 29.7309 148.051 31.3802 148.051 32.8016V72.6658C148.051 74.0872 147.186 74.7438 146.12 74.1258Z" fill="#12733C"/>
<path d="M146.12 29.1168L98.0406 1.35746C96.9784 0.743334 96.1094 1.39609 96.1094 2.8136V4.74482L148.048 34.7289V32.7977C148.051 31.3802 147.186 29.7309 146.12 29.1168Z" fill="#455A64"/>
<path d="M97.2749 1.51222C97.4775 1.52175 97.6743 1.58291 97.8465 1.68989L145.926 29.4492C146.869 29.9939 147.664 31.5272 147.664 32.8018V72.6661C147.664 73.4386 147.359 73.9716 146.892 73.9716C146.687 73.9619 146.489 73.8993 146.316 73.7901L98.2328 46.0307C97.2942 45.49 96.4985 43.9527 96.4985 42.682V2.81386C96.4985 2.02206 96.8037 1.51222 97.271 1.51222M97.271 1.12598C96.5874 1.12598 96.1123 1.75555 96.1123 2.81386V42.6858C96.1123 44.1072 96.9775 45.7565 98.0435 46.3706L146.119 74.1261C146.352 74.2704 146.618 74.3503 146.892 74.3578C147.575 74.3578 148.051 73.7244 148.051 72.6661V32.8018C148.051 31.3805 147.185 29.7119 146.119 29.1171L98.0397 1.35772C97.8077 1.21241 97.5408 1.13235 97.2672 1.12598H97.271Z" fill="#12733C"/>
<path d="M118.404 22.2151C118.332 22.2165 118.261 22.1978 118.199 22.161L99.8948 11.6089C99.809 11.5508 99.7484 11.4623 99.7252 11.3613C99.702 11.2603 99.718 11.1542 99.77 11.0646C99.8219 10.9749 99.906 10.9082 100.005 10.8781C100.104 10.8479 100.211 10.8565 100.304 10.902L118.608 21.4697C118.691 21.5125 118.756 21.5823 118.794 21.6674C118.832 21.7525 118.839 21.848 118.815 21.9379C118.792 22.0279 118.738 22.1071 118.663 22.1624C118.588 22.2177 118.497 22.2458 118.404 22.2422V22.2151Z" fill="white"/>
<path d="M144.154 37.1008C144.081 37.1011 144.011 37.081 143.949 37.0429L130.392 29.2176C130.298 29.1633 130.229 29.0738 130.201 28.9688C130.172 28.8637 130.187 28.7518 130.241 28.6575C130.296 28.5633 130.385 28.4945 130.49 28.4662C130.595 28.438 130.707 28.4526 130.801 28.5069L144.358 36.3361C144.441 36.3789 144.507 36.4487 144.544 36.5338C144.582 36.6189 144.589 36.7144 144.566 36.8043C144.542 36.8943 144.488 36.9735 144.413 37.0288C144.338 37.0841 144.247 37.1122 144.154 37.1085V37.1008Z" fill="white"/>
<path d="M127.658 27.5759C127.586 27.5749 127.516 27.5564 127.453 27.5218L121.934 24.3392C121.883 24.3145 121.838 24.2797 121.802 24.2369C121.765 24.1941 121.738 24.1443 121.722 24.0906C121.705 24.0368 121.7 23.9803 121.707 23.9245C121.713 23.8687 121.731 23.8148 121.759 23.7662C121.787 23.7176 121.825 23.6753 121.87 23.642C121.916 23.6086 121.967 23.5849 122.022 23.5724C122.077 23.5598 122.133 23.5587 122.189 23.569C122.244 23.5793 122.296 23.6009 122.343 23.6323L127.851 26.8111C127.933 26.854 127.999 26.9238 128.037 27.0089C128.074 27.094 128.082 27.1894 128.058 27.2794C128.034 27.3694 127.98 27.4485 127.905 27.5038C127.831 27.5591 127.739 27.5873 127.646 27.5836L127.658 27.5759Z" fill="white"/>
<path d="M118.404 47.8653C118.332 47.8649 118.261 47.8463 118.199 47.8113L99.8948 37.2436C99.809 37.1855 99.7484 37.0971 99.7252 36.9961C99.702 36.8951 99.718 36.789 99.77 36.6993C99.8219 36.6096 99.906 36.543 100.005 36.5128C100.104 36.4827 100.211 36.4912 100.304 36.5368L118.608 47.1006C118.702 47.1554 118.77 47.2452 118.798 47.3502C118.825 47.4552 118.81 47.5669 118.755 47.6606C118.721 47.7241 118.671 47.7768 118.609 47.813C118.546 47.8492 118.475 47.8673 118.404 47.8653Z" fill="white"/>
<path d="M144.154 62.7322C144.082 62.7336 144.011 62.7149 143.949 62.6781L130.392 54.8528C130.298 54.7985 130.229 54.709 130.201 54.604C130.172 54.499 130.187 54.387 130.241 54.2928C130.296 54.1985 130.385 54.1297 130.49 54.1015C130.595 54.0732 130.707 54.0879 130.801 54.1421L144.358 61.9713C144.452 62.0255 144.52 62.1143 144.548 62.2184C144.576 62.3226 144.562 62.4337 144.509 62.5275C144.473 62.5896 144.421 62.6411 144.359 62.677C144.296 62.7129 144.226 62.732 144.154 62.7322Z" fill="white"/>
<path d="M127.658 53.2073C127.586 53.2087 127.515 53.19 127.453 53.1532L121.934 49.9744C121.883 49.9497 121.838 49.9149 121.802 49.8722C121.765 49.8294 121.738 49.7796 121.722 49.7258C121.705 49.6721 121.7 49.6156 121.707 49.5598C121.713 49.504 121.731 49.4501 121.759 49.4015C121.787 49.3529 121.825 49.3106 121.87 49.2772C121.916 49.2439 121.967 49.2202 122.022 49.2076C122.077 49.1951 122.133 49.1939 122.189 49.2042C122.244 49.2145 122.296 49.2361 122.343 49.2676L127.851 52.4464C127.944 52.5005 128.012 52.5893 128.041 52.6935C128.069 52.7976 128.055 52.9087 128.001 53.0026C127.966 53.063 127.916 53.1135 127.856 53.1493C127.796 53.1851 127.728 53.2051 127.658 53.2073Z" fill="white"/>
<path d="M118.404 53.8862C118.332 53.8876 118.261 53.8689 118.199 53.8321L99.8948 43.2684C99.8006 43.2141 99.7318 43.1246 99.7035 43.0195C99.6753 42.9145 99.6899 42.8026 99.7442 42.7083C99.7985 42.6141 99.888 42.5453 99.993 42.517C100.098 42.4888 100.21 42.5034 100.304 42.5577L118.608 53.1137C118.691 53.1566 118.757 53.2264 118.794 53.3115C118.832 53.3966 118.839 53.492 118.815 53.582C118.792 53.672 118.738 53.7511 118.663 53.8064C118.588 53.8617 118.497 53.8899 118.404 53.8862Z" fill="white"/>
<path d="M138.383 65.4277C138.311 65.4291 138.24 65.4104 138.178 65.3736L130.392 60.8777C130.341 60.8531 130.296 60.8182 130.26 60.7755C130.223 60.7327 130.196 60.6829 130.18 60.6292C130.163 60.5754 130.158 60.5189 130.165 60.4631C130.171 60.4073 130.189 60.3534 130.217 60.3048C130.245 60.2562 130.283 60.2139 130.328 60.1805C130.374 60.1472 130.425 60.1235 130.48 60.1109C130.535 60.0984 130.591 60.0972 130.647 60.1075C130.702 60.1179 130.754 60.1394 130.801 60.1709L138.588 64.6668C138.634 64.6932 138.675 64.7287 138.708 64.771C138.741 64.8133 138.765 64.8618 138.779 64.9135C138.793 64.9652 138.797 65.0192 138.79 65.0723C138.783 65.1254 138.765 65.1766 138.738 65.223C138.702 65.2851 138.65 65.3366 138.588 65.3725C138.525 65.4084 138.455 65.4274 138.383 65.4277Z" fill="white"/>
<path d="M127.658 59.2361C127.586 59.2351 127.516 59.2166 127.453 59.182L121.934 56.0032C121.84 55.9489 121.771 55.8594 121.743 55.7544C121.714 55.6494 121.729 55.5374 121.783 55.4432C121.838 55.3489 121.927 55.2801 122.032 55.2519C122.137 55.2236 122.249 55.2382 122.343 55.2925L127.851 58.4713C127.934 58.5142 127.999 58.584 128.037 58.6691C128.075 58.7542 128.082 58.8496 128.058 58.9396C128.034 59.0296 127.981 59.1087 127.906 59.164C127.831 59.2193 127.739 59.2475 127.646 59.2438L127.658 59.2361Z" fill="white"/>
<path d="M109.276 20.1483C109.203 20.1486 109.132 20.1285 109.071 20.0904L99.8937 14.795C99.8229 14.7318 99.7762 14.646 99.7617 14.5522C99.7471 14.4585 99.7656 14.3625 99.814 14.2809C99.8623 14.1992 99.9375 14.1369 100.027 14.1046C100.116 14.0722 100.214 14.0719 100.303 14.1036L109.48 19.399C109.574 19.4538 109.642 19.5436 109.67 19.6487C109.697 19.7537 109.682 19.8654 109.627 19.9591C109.591 20.0197 109.54 20.0693 109.478 20.1026C109.416 20.136 109.346 20.1518 109.276 20.1483Z" fill="white"/>
<path d="M135.707 35.4089C135.635 35.408 135.565 35.3894 135.502 35.3549L121.934 27.5257C121.883 27.501 121.838 27.4662 121.802 27.4234C121.765 27.3807 121.738 27.3309 121.722 27.2771C121.705 27.2234 121.7 27.1668 121.707 27.111C121.713 27.0552 121.731 27.0014 121.759 26.9527C121.787 26.9041 121.825 26.8618 121.87 26.8285C121.916 26.7951 121.967 26.7715 122.022 26.7589C122.077 26.7463 122.133 26.7452 122.189 26.7555C122.244 26.7658 122.296 26.7874 122.343 26.8189L135.9 34.6442C135.983 34.687 136.048 34.7568 136.086 34.8419C136.124 34.927 136.131 35.0225 136.107 35.1124C136.083 35.2024 136.03 35.2816 135.955 35.3369C135.88 35.3922 135.788 35.4203 135.695 35.4167L135.707 35.4089Z" fill="white"/>
<path d="M118.53 25.4905C118.458 25.4919 118.387 25.4732 118.326 25.4364L112.818 22.2576C112.723 22.2033 112.655 22.1138 112.626 22.0088C112.598 21.9038 112.613 21.7918 112.667 21.6976C112.721 21.6033 112.811 21.5345 112.916 21.5063C113.021 21.478 113.133 21.4926 113.227 21.5469L118.735 24.7257C118.829 24.7805 118.897 24.8703 118.924 24.9754C118.952 25.0804 118.937 25.192 118.882 25.2858C118.848 25.3492 118.797 25.402 118.735 25.4381C118.673 25.4743 118.602 25.4924 118.53 25.4905Z" fill="white"/>
<path d="M118.404 28.6034C118.332 28.6036 118.261 28.5835 118.2 28.5454L99.8955 17.9662C99.8219 17.9038 99.7728 17.8174 99.7567 17.7223C99.7406 17.6272 99.7586 17.5294 99.8076 17.4463C99.8566 17.3632 99.9333 17.3 100.024 17.2679C100.115 17.2358 100.215 17.2369 100.305 17.271L118.609 27.8386C118.703 27.8934 118.771 27.9832 118.798 28.0883C118.826 28.1933 118.811 28.3049 118.756 28.3987C118.722 28.4621 118.671 28.5149 118.609 28.551C118.547 28.5872 118.476 28.6053 118.404 28.6034Z" fill="white"/>
<path d="M134.208 37.726C134.136 37.7274 134.065 37.7087 134.003 37.672L130.392 35.5862C130.341 35.5615 130.296 35.5267 130.26 35.484C130.223 35.4412 130.196 35.3914 130.18 35.3377C130.163 35.2839 130.158 35.2274 130.165 35.1716C130.171 35.1158 130.189 35.0619 130.217 35.0133C130.245 34.9647 130.283 34.9224 130.328 34.889C130.374 34.8557 130.425 34.832 130.48 34.8194C130.535 34.8069 130.591 34.8057 130.647 34.816C130.702 34.8264 130.754 34.8479 130.801 34.8794L134.412 36.9651C134.506 37.0193 134.574 37.1081 134.602 37.2122C134.63 37.3164 134.616 37.4275 134.563 37.5213C134.527 37.5834 134.475 37.635 134.412 37.6709C134.35 37.7068 134.28 37.7258 134.208 37.726Z" fill="white"/>
<path d="M111.08 27.5605C111.008 27.5596 110.938 27.541 110.875 27.5064L107.256 25.4207C107.21 25.3938 107.169 25.358 107.136 25.3153C107.103 25.2726 107.079 25.2239 107.065 25.1719C107.051 25.1199 107.047 25.0656 107.054 25.0122C107.061 24.9588 107.079 24.9073 107.106 24.8607C107.132 24.814 107.168 24.7731 107.211 24.7403C107.254 24.7074 107.302 24.6833 107.354 24.6693C107.406 24.6554 107.461 24.6518 107.514 24.6587C107.567 24.6657 107.619 24.6831 107.666 24.71L111.277 26.7957C111.36 26.8386 111.425 26.9084 111.463 26.9935C111.5 27.0786 111.508 27.174 111.484 27.264C111.46 27.354 111.406 27.4331 111.332 27.4884C111.257 27.5437 111.165 27.5719 111.072 27.5682L111.08 27.5605Z" fill="white"/>
<path d="M127.658 33.9451C127.586 33.9441 127.516 33.9256 127.453 33.891L121.934 30.7122C121.887 30.6853 121.846 30.6495 121.813 30.6068C121.781 30.5641 121.757 30.5154 121.743 30.4634C121.729 30.4114 121.725 30.3571 121.732 30.3037C121.739 30.2503 121.756 30.1988 121.783 30.1522C121.81 30.1055 121.846 30.0646 121.889 30.0318C121.931 29.9989 121.98 29.9748 122.032 29.9609C122.084 29.9469 122.138 29.9433 122.192 29.9502C122.245 29.9572 122.297 29.9746 122.343 30.0015L127.851 33.1803C127.934 33.2232 127.999 33.2929 128.037 33.3781C128.075 33.4632 128.082 33.5586 128.058 33.6486C128.034 33.7385 127.981 33.8177 127.906 33.873C127.831 33.9283 127.739 33.9565 127.646 33.9528L127.658 33.9451Z" fill="white"/>
<path d="M105.967 24.606C105.895 24.6074 105.824 24.5886 105.762 24.5519L99.8948 21.1645C99.809 21.1064 99.7484 21.018 99.7252 20.917C99.702 20.8159 99.718 20.7099 99.77 20.6202C99.8219 20.5305 99.906 20.4639 100.005 20.4337C100.104 20.4036 100.211 20.4121 100.304 20.4577L106.171 23.8451C106.258 23.885 106.328 23.9542 106.369 24.0406C106.409 24.1271 106.418 24.2251 106.394 24.3174C106.369 24.4098 106.313 24.4905 106.235 24.5454C106.157 24.6003 106.062 24.6259 105.967 24.6175V24.606Z" fill="white"/>
<path d="M118.531 31.8707C118.459 31.8721 118.388 31.8534 118.326 31.8167L112.818 28.6263C112.768 28.6016 112.723 28.5668 112.687 28.524C112.65 28.4812 112.623 28.4314 112.607 28.3777C112.59 28.324 112.585 28.2674 112.592 28.2116C112.598 28.1558 112.616 28.1019 112.644 28.0533C112.672 28.0047 112.71 27.9624 112.755 27.9291C112.8 27.8957 112.852 27.872 112.907 27.8595C112.962 27.8469 113.018 27.8458 113.073 27.8561C113.129 27.8664 113.181 27.888 113.228 27.9195L118.736 31.0982C118.818 31.1411 118.884 31.2109 118.921 31.296C118.959 31.3811 118.967 31.4765 118.943 31.5665C118.919 31.6565 118.865 31.7356 118.79 31.7909C118.715 31.8462 118.624 31.8744 118.531 31.8707Z" fill="white"/>
<path d="M118.404 35.2042C118.332 35.2056 118.261 35.1869 118.199 35.1501L99.8948 24.5825C99.809 24.5244 99.7484 24.4359 99.7252 24.3349C99.702 24.2339 99.718 24.1279 99.77 24.0382C99.8219 23.9485 99.906 23.8819 100.005 23.8517C100.104 23.8215 100.211 23.8301 100.304 23.8757L118.608 34.4394C118.702 34.4942 118.77 34.584 118.798 34.6891C118.825 34.7941 118.81 34.9058 118.755 34.9995C118.721 35.0629 118.671 35.1157 118.609 35.1519C118.546 35.188 118.475 35.2062 118.404 35.2042Z" fill="white"/>
<path d="M144.154 50.0707C144.083 50.0744 144.012 50.0584 143.949 50.0243L130.392 42.199C130.298 42.1447 130.229 42.0552 130.201 41.9502C130.172 41.8452 130.187 41.7332 130.241 41.639C130.296 41.5447 130.385 41.4759 130.49 41.4477C130.595 41.4194 130.707 41.434 130.801 41.4883L144.358 49.3175C144.452 49.3717 144.52 49.4605 144.548 49.5646C144.576 49.6688 144.562 49.7798 144.509 49.8737C144.472 49.9344 144.42 49.9844 144.357 50.0189C144.295 50.0534 144.225 50.0712 144.154 50.0707Z" fill="white"/>
<path d="M127.658 40.5457C127.586 40.5471 127.515 40.5283 127.453 40.4916L121.934 37.3128C121.883 37.2881 121.838 37.2533 121.802 37.2105C121.765 37.1678 121.738 37.118 121.722 37.0642C121.705 37.0105 121.7 36.954 121.707 36.8981C121.713 36.8423 121.731 36.7885 121.759 36.7399C121.787 36.6912 121.825 36.649 121.87 36.6156C121.916 36.5823 121.967 36.5586 122.022 36.546C122.077 36.5334 122.133 36.5323 122.189 36.5426C122.244 36.5529 122.296 36.5745 122.343 36.606L127.851 39.7848C127.944 39.8397 128.013 39.9291 128.041 40.0339C128.069 40.1387 128.055 40.2504 128.001 40.3448C127.965 40.4041 127.915 40.4534 127.855 40.4884C127.795 40.5235 127.727 40.5431 127.658 40.5457Z" fill="white"/>
<path d="M109.277 33.1183C109.205 33.1197 109.134 33.101 109.072 33.0643L99.8948 27.7689C99.8006 27.7146 99.7318 27.6251 99.7035 27.52C99.6753 27.415 99.6899 27.303 99.7442 27.2088C99.7985 27.1146 99.888 27.0457 99.993 27.0175C100.098 26.9892 100.21 27.0039 100.304 27.0582L109.481 32.3574C109.564 32.4003 109.63 32.4701 109.667 32.5552C109.705 32.6403 109.712 32.7357 109.689 32.8257C109.665 32.9157 109.611 32.9948 109.536 33.0501C109.461 33.1054 109.37 33.1336 109.277 33.1299V33.1183Z" fill="white"/>
<path d="M135.707 48.3826C135.635 48.3828 135.564 48.3627 135.503 48.3246L121.934 40.4993C121.84 40.445 121.771 40.3555 121.743 40.2505C121.714 40.1455 121.729 40.0335 121.783 39.9393C121.838 39.845 121.927 39.7762 122.032 39.748C122.137 39.7197 122.249 39.7343 122.343 39.7886L135.9 47.6178C135.983 47.6607 136.049 47.7304 136.086 47.8155C136.124 47.9007 136.131 47.9961 136.108 48.0861C136.084 48.176 136.03 48.2552 135.955 48.3105C135.88 48.3658 135.789 48.3939 135.696 48.3903L135.707 48.3826Z" fill="white"/>
<path d="M118.531 38.4636C118.459 38.4626 118.389 38.4441 118.326 38.4095L112.818 35.2269C112.768 35.2022 112.723 35.1674 112.687 35.1246C112.65 35.0818 112.623 35.032 112.607 34.9783C112.59 34.9245 112.585 34.868 112.592 34.8122C112.598 34.7564 112.616 34.7025 112.644 34.6539C112.672 34.6053 112.71 34.563 112.755 34.5297C112.8 34.4963 112.852 34.4726 112.907 34.4601C112.962 34.4475 113.018 34.4464 113.073 34.4567C113.129 34.467 113.181 34.4886 113.228 34.52L118.736 37.6988C118.829 37.7536 118.897 37.8434 118.925 37.9485C118.952 38.0535 118.937 38.1651 118.882 38.2589C118.849 38.3223 118.798 38.3751 118.736 38.4112C118.674 38.4474 118.603 38.4655 118.531 38.4636Z" fill="white"/>
<path d="M118.404 41.5733C118.332 41.5747 118.261 41.556 118.199 41.5193L99.8948 30.9516C99.809 30.8936 99.7484 30.8051 99.7252 30.7041C99.702 30.6031 99.718 30.497 99.77 30.4073C99.8219 30.3177 99.906 30.251 100.005 30.2208C100.104 30.1907 100.211 30.1992 100.304 30.2448L118.608 40.8124C118.691 40.8553 118.756 40.9251 118.794 41.0102C118.832 41.0953 118.839 41.1907 118.815 41.2807C118.792 41.3707 118.738 41.4498 118.663 41.5051C118.588 41.5604 118.497 41.5886 118.404 41.5849V41.5733Z" fill="white"/>
<path d="M134.208 50.7006C134.136 50.6997 134.066 50.6811 134.003 50.6466L130.392 48.5608C130.341 48.5362 130.296 48.5013 130.26 48.4586C130.223 48.4158 130.196 48.366 130.18 48.3123C130.163 48.2585 130.158 48.202 130.165 48.1462C130.171 48.0904 130.189 48.0365 130.217 47.9879C130.245 47.9393 130.283 47.897 130.328 47.8636C130.374 47.8303 130.425 47.8066 130.48 47.7941C130.535 47.7815 130.591 47.7803 130.647 47.7907C130.702 47.801 130.754 47.8225 130.801 47.854L134.412 49.9359C134.495 49.9788 134.561 50.0485 134.598 50.1336C134.636 50.2187 134.643 50.3142 134.619 50.4041C134.596 50.4941 134.542 50.5733 134.467 50.6286C134.392 50.6839 134.301 50.712 134.208 50.7084V50.7006Z" fill="white"/>
<path d="M111.08 40.5341C111.008 40.5344 110.937 40.5143 110.875 40.4762L107.256 38.3943C107.162 38.34 107.093 38.2505 107.065 38.1455C107.037 38.0405 107.051 37.9285 107.106 37.8343C107.16 37.74 107.249 37.6712 107.354 37.643C107.459 37.6147 107.571 37.6294 107.666 37.6837L111.277 39.7694C111.36 39.8122 111.425 39.882 111.463 39.9671C111.5 40.0522 111.508 40.1477 111.484 40.2376C111.46 40.3276 111.406 40.4068 111.332 40.4621C111.257 40.5174 111.165 40.5455 111.072 40.5419L111.08 40.5341Z" fill="white"/>
<path d="M127.658 46.9342C127.586 46.9332 127.516 46.9146 127.453 46.8801L121.934 43.6858C121.84 43.6316 121.771 43.542 121.743 43.437C121.714 43.332 121.729 43.22 121.783 43.1258C121.838 43.0315 121.927 42.9627 122.032 42.9345C122.137 42.9062 122.249 42.9209 122.343 42.9752L127.863 46.1617C127.945 46.2046 128.011 46.2743 128.049 46.3594C128.086 46.4445 128.094 46.54 128.07 46.6299C128.046 46.7199 127.992 46.7991 127.917 46.8544C127.843 46.9097 127.751 46.9378 127.658 46.9342Z" fill="white"/>
<path d="M105.966 37.5795C105.894 37.5809 105.823 37.5622 105.761 37.5254L99.894 34.1381C99.7982 34.0838 99.7279 33.9937 99.6986 33.8875C99.6693 33.7814 99.6833 33.668 99.7376 33.5722C99.7919 33.4764 99.882 33.4062 99.9881 33.3768C100.094 33.3475 100.208 33.3615 100.303 33.4158L106.17 36.7993C106.253 36.8422 106.319 36.9119 106.356 36.997C106.394 37.0822 106.401 37.1776 106.378 37.2676C106.354 37.3575 106.3 37.4367 106.225 37.492C106.15 37.5473 106.059 37.5754 105.966 37.5718V37.5795Z" fill="white"/>
<path d="M118.53 44.8333C118.458 44.8347 118.387 44.8159 118.326 44.7792L112.818 41.6004C112.723 41.5461 112.655 41.4566 112.626 41.3516C112.598 41.2465 112.613 41.1346 112.667 41.0403C112.721 40.9461 112.811 40.8773 112.916 40.849C113.021 40.8208 113.133 40.8354 113.227 40.8897L118.735 44.0724C118.818 44.1152 118.883 44.185 118.921 44.2701C118.958 44.3552 118.966 44.4507 118.942 44.5406C118.918 44.6306 118.864 44.7098 118.79 44.7651C118.715 44.8204 118.623 44.8485 118.53 44.8448V44.8333Z" fill="white"/>
<path d="M111.08 46.6367C111.008 46.6381 110.937 46.6193 110.875 46.5826L107.264 44.4969C107.213 44.4722 107.168 44.4374 107.132 44.3946C107.095 44.3518 107.068 44.302 107.052 44.2483C107.036 44.1946 107.03 44.138 107.037 44.0822C107.043 44.0264 107.061 43.9725 107.089 43.9239C107.117 43.8753 107.155 43.833 107.201 43.7997C107.246 43.7663 107.297 43.7426 107.352 43.7301C107.407 43.7175 107.464 43.7164 107.519 43.7267C107.574 43.737 107.627 43.7586 107.673 43.7901L111.284 45.8758C111.371 45.9157 111.441 45.985 111.482 46.0714C111.523 46.1578 111.531 46.2558 111.507 46.3481C111.483 46.4405 111.426 46.5212 111.348 46.5761C111.27 46.631 111.175 46.6566 111.08 46.6483V46.6367Z" fill="white"/>
<path d="M105.967 43.6864C105.895 43.6854 105.825 43.6668 105.762 43.6323L99.8948 40.2449C99.8006 40.1906 99.7318 40.1011 99.7035 39.9961C99.6753 39.8911 99.6899 39.7791 99.7442 39.6849C99.7985 39.5906 99.888 39.5218 99.993 39.4936C100.098 39.4653 100.21 39.4799 100.304 39.5342L106.171 42.9216C106.254 42.9645 106.319 43.0342 106.357 43.1194C106.395 43.2045 106.402 43.2999 106.378 43.3899C106.355 43.4798 106.301 43.559 106.226 43.6143C106.151 43.6696 106.06 43.6977 105.967 43.6941V43.6864Z" fill="white"/>
<path d="M118.53 50.9397C118.459 50.9388 118.388 50.9202 118.326 50.8856L112.818 47.7068C112.723 47.6525 112.655 47.563 112.626 47.458C112.598 47.353 112.613 47.241 112.667 47.1468C112.721 47.0525 112.811 46.9837 112.916 46.9555C113.021 46.9272 113.133 46.9419 113.227 46.9962L118.735 50.1749C118.829 50.2297 118.897 50.3195 118.924 50.4246C118.952 50.5296 118.937 50.6413 118.882 50.735C118.848 50.7984 118.797 50.8512 118.735 50.8874C118.673 50.9235 118.602 50.9417 118.53 50.9397Z" fill="white"/>
<path d="M103.722 15.5832V30.3918C103.722 30.6312 103.637 30.778 103.501 30.8437L102.934 31.1565V30.6506L102.853 15.4248L103.594 15.0386C103.677 15.2082 103.721 15.3944 103.722 15.5832Z" fill="#263238"/>
<path d="M103.595 15.0502L102.853 15.4364L84.8965 4.89582L84.4678 4.64863L85.0587 4.31646H85.078C85.1331 4.28707 85.1955 4.27401 85.2577 4.2788C85.32 4.28359 85.3796 4.30603 85.4295 4.34349L103.197 14.5751C103.373 14.6909 103.512 14.8562 103.595 15.0502Z" fill="#37474F"/>
<path d="M103.08 15.9033V30.6154C103.088 30.6941 103.077 30.7735 103.047 30.8469C103.018 30.9203 102.971 30.9853 102.91 31.0364H102.876C102.822 31.058 102.764 31.0659 102.707 31.0591C102.649 31.0524 102.594 31.0313 102.547 30.9977L84.896 20.8279C84.7337 20.7123 84.6009 20.5601 84.5083 20.3836C84.4157 20.2071 84.3659 20.0114 84.3629 19.8121V5.12327C84.3549 5.04642 84.3655 4.96879 84.3937 4.89687C84.422 4.82496 84.467 4.76087 84.5252 4.70998C84.5408 4.69603 84.5593 4.6855 84.5792 4.67908C84.6316 4.66032 84.6877 4.65438 84.7428 4.66178C84.7979 4.66917 84.8504 4.68968 84.896 4.72157L102.547 14.8759C102.718 14.9878 102.853 15.1477 102.934 15.3356C103.025 15.5111 103.075 15.7054 103.08 15.9033Z" fill="#455A64"/>
<path d="M87.8433 30.8586L98.5092 32.3106V28.9508L87.8433 18.1432V21.3737L97.456 30.93V29.1209L87.8433 27.628V30.8586ZM100.638 75.484L93.2435 46.8891L90.1288 45.0991L97.5233 73.694L100.638 75.484ZM98.5092 100.988V97.7579L88.8964 88.2016V90.0107L98.5092 91.5036V88.273L87.8433 86.821V90.1808L98.5092 100.988Z" fill="#FAFAFA"/>
<path d="M84.6143 4.69466C84.6719 4.69632 84.728 4.71368 84.7765 4.74487L102.544 14.9765C102.7 15.08 102.823 15.2261 102.899 15.3975C102.981 15.5566 103.024 15.7324 103.027 15.9112V30.7121C103.036 30.7732 103.03 30.8357 103.01 30.8942C102.989 30.9527 102.955 31.0054 102.911 31.0481H102.88C102.854 31.0543 102.828 31.0543 102.803 31.0481C102.745 31.0436 102.69 31.0264 102.64 30.9979L84.8731 20.7624C84.7256 20.6545 84.605 20.514 84.5206 20.3519C84.4362 20.1898 84.3903 20.0104 84.3864 19.8277V5.06545C84.38 5.00347 84.3874 4.94083 84.4081 4.88205C84.4288 4.82327 84.4623 4.76982 84.5061 4.72556H84.5409C84.5638 4.72014 84.5876 4.72014 84.6104 4.72556M84.6104 4.62514C84.5731 4.62498 84.5362 4.63288 84.5023 4.64831L84.4482 4.67921C84.391 4.73146 84.3468 4.79644 84.3193 4.8689C84.2918 4.94136 84.2817 5.01928 84.2899 5.09636V19.8625C84.2934 20.0627 84.3434 20.2593 84.4359 20.4369C84.5284 20.6146 84.6609 20.7683 84.8229 20.886L102.59 31.1176C102.653 31.156 102.725 31.1773 102.799 31.1794C102.84 31.1799 102.88 31.172 102.918 31.1562L102.953 31.1369C103.014 31.0852 103.061 31.0196 103.091 30.9455C103.12 30.8715 103.131 30.7913 103.123 30.7121V15.9112C103.118 15.7178 103.071 15.5279 102.984 15.355C102.901 15.1674 102.767 15.0069 102.598 14.8915L84.8306 4.6599C84.7666 4.62004 84.6935 4.59742 84.6182 4.59424L84.6104 4.62514Z" fill="#37474F"/>
<path d="M100.867 5.07736C100.867 5.49837 100.569 5.66831 100.206 5.4636C100.011 5.33752 99.8498 5.16644 99.7348 4.96478C99.6199 4.76313 99.5551 4.5368 99.5459 4.30487C99.5459 3.88387 99.8394 3.71392 100.206 3.91863C100.4 4.04611 100.561 4.21751 100.675 4.41887C100.79 4.62023 100.856 4.84585 100.867 5.07736Z" fill="white"/>
<path d="M103.325 6.59175C103.325 7.01275 103.027 7.18656 102.66 6.97799C102.466 6.8512 102.305 6.67996 102.19 6.47845C102.075 6.27695 102.01 6.05098 102 5.81926C102 5.39825 102.297 5.22444 102.66 5.43301C102.855 5.55937 103.017 5.73042 103.133 5.93196C103.248 6.13349 103.314 6.35968 103.325 6.59175Z" fill="white"/>
<path d="M105.777 8.1091C105.777 8.5301 105.483 8.70005 105.117 8.49534C104.923 8.36786 104.762 8.19646 104.647 7.9951C104.533 7.79374 104.467 7.56812 104.456 7.33661C104.456 6.9156 104.753 6.74566 105.117 6.95037C105.311 7.07645 105.473 7.24753 105.588 7.44919C105.703 7.65084 105.768 7.87717 105.777 8.1091Z" fill="white"/>
</svg>
