<svg width="116" height="116" viewBox="0 0 116 116" fill="none" xmlns="http://www.w3.org/2000/svg">
<g clip-path="url(#clip0_62_3386)">
<path d="M8.7 0H107.3C112.105 0 116 3.89512 116 8.7V107.3C116 112.105 112.105 116 107.3 116H8.7C3.89512 116 0 112.105 0 107.3V8.7C0 3.89512 3.89512 0 8.7 0Z" fill="#1D1D1D"/>
<path d="M62.35 58.725C63.1508 58.725 63.8 58.0758 63.8 57.275C63.8 56.4742 63.1508 55.825 62.35 55.825C61.5492 55.825 60.9 56.4742 60.9 57.275C60.9 58.0758 61.5492 58.725 62.35 58.725Z" fill="#1D1D1D"/>
<path d="M53.65 58.725C54.4508 58.725 55.1 58.0758 55.1 57.275C55.1 56.4742 54.4508 55.825 53.65 55.825C52.8492 55.825 52.2 56.4742 52.2 57.275C52.2 58.0758 52.8492 58.725 53.65 58.725Z" fill="#1D1D1D"/>
<path d="M32.5 73H20.9C19.2984 73 18 74.2984 18 75.9V87.5C18 89.1016 19.2984 90.4 20.9 90.4H32.5C34.1016 90.4 35.4 89.1016 35.4 87.5V75.9C35.4 74.2984 34.1016 73 32.5 73Z" fill="#ACF300"/>
<path d="M53 60H41.8333C39 60 39 62.2386 39 65V85C39 87.7614 39 90 41.8333 90H53.1667C56 90 56 87.7614 56 85V65C56 62.2386 56.5 60 53 60Z" fill="#ACF300"/>
<path d="M74.1667 46H62.8334C59.5 46 60 49.2832 60 53.3333V82.6667C60 86.7168 60 90 62.8334 90H74.1667C77.5 90 77 86.7168 77 82.6667V53.3333C77 49.2832 77.5 46 74.1667 46Z" fill="#ACF300"/>
<path d="M95.1667 32H83.8334C80.5 32 81 36.3279 81 41.6667V80.3333C81 85.6721 80.5 89.5 83.8334 90H95.1667C98.5 90 98 85.6721 98 80.3333V41.6667C98 36.3279 98.5 32 95.1667 32Z" fill="#ACF300"/>
</g>
<defs>
<clipPath id="clip0_62_3386">
<rect width="116" height="116" fill="white"/>
</clipPath>
</defs>
</svg>
