<svg width="116" height="116" viewBox="0 0 116 116" fill="none" xmlns="http://www.w3.org/2000/svg">
<g clip-path="url(#clip0_62_3367)">
<path d="M8.7 0H107.3C112.105 0 116 3.89512 116 8.7V107.3C116 112.105 112.105 116 107.3 116H8.7C3.89512 116 0 112.105 0 107.3V8.7C0 3.89512 3.89512 0 8.7 0Z" fill="#1D1D1D"/>
<path d="M53.6166 55.8004H62.3862V58.3277H53.6166V55.8004Z" fill="#ACF300"/>
<path d="M63.8 38.425H52.2C50.5984 38.425 49.3 39.7234 49.3 41.325V52.925C49.3 54.5266 50.5984 55.825 52.2 55.825H63.8C65.4016 55.825 66.7 54.5266 66.7 52.925V41.325C66.7 39.7234 65.4016 38.425 63.8 38.425Z" fill="#ACF300"/>
<path d="M55.9497 57.0241C56.4935 56.4805 57.231 56.175 58 56.175C58.769 56.175 59.5065 56.4805 60.0503 57.0241L75.5029 72.4768C77.3299 74.3038 76.0365 77.4271 73.4526 77.4271H42.5473C39.9634 77.4271 38.67 74.3038 40.497 72.4768L55.9497 57.0241Z" fill="#ACF300"/>
<path d="M62.35 58.725C63.1508 58.725 63.8 58.0758 63.8 57.275C63.8 56.4742 63.1508 55.825 62.35 55.825C61.5492 55.825 60.9 56.4742 60.9 57.275C60.9 58.0758 61.5492 58.725 62.35 58.725Z" fill="#1D1D1D"/>
<path d="M53.65 58.725C54.4508 58.725 55.1 58.0758 55.1 57.275C55.1 56.4742 54.4508 55.825 53.65 55.825C52.8492 55.825 52.2 56.4742 52.2 57.275C52.2 58.0758 52.8492 58.725 53.65 58.725Z" fill="#1D1D1D"/>
</g>
<defs>
<clipPath id="clip0_62_3367">
<rect width="116" height="116" fill="white"/>
</clipPath>
</defs>
</svg>
