<svg width="153" height="116" viewBox="0 0 153 116" fill="none" xmlns="http://www.w3.org/2000/svg">
<path d="M105.686 82.5656C104.894 82.5763 104.109 82.4252 103.377 82.1215C102.646 81.8179 101.984 81.3681 101.432 80.7997C94.8247 74.1996 85.8675 70.4923 76.5284 70.4923C67.1893 70.4923 58.2322 74.1996 51.6248 80.7997C50.4965 81.9334 48.964 82.5723 47.3646 82.5761C45.7652 82.5798 44.2298 81.9481 43.0962 80.8198C41.9626 79.6915 41.3235 78.1591 41.3198 76.5596C41.316 74.9602 41.9478 73.4248 43.0761 72.2911C47.4664 67.9006 52.6785 64.4177 58.4149 62.0416C64.1512 59.6654 70.2994 58.4424 76.5084 58.4424C82.7174 58.4424 88.8656 59.6654 94.6019 62.0416C100.338 64.4177 105.55 67.9006 109.941 72.2911C111.058 73.4251 111.685 74.9533 111.685 76.5454C111.685 78.1376 111.058 79.6658 109.941 80.7997C109.385 81.3625 108.722 81.8086 107.992 82.1118C107.261 82.4151 106.477 82.5694 105.686 82.5656Z" fill="#1D1D1D"/>
<path d="M127.118 61.1335C126.321 61.1403 125.53 60.9876 124.793 60.6844C124.055 60.3811 123.386 59.9334 122.824 59.3676C110.53 47.1035 93.8736 40.2162 76.5084 40.2162C59.1432 40.2162 42.4869 47.1035 30.1928 59.3676C29.0516 60.431 27.5422 61.0099 25.9825 60.9824C24.4229 60.9549 22.9348 60.323 21.8318 59.22C20.7288 58.117 20.097 56.629 20.0695 55.0693C20.042 53.5097 20.6209 52.0002 21.6843 50.859C36.2479 36.3475 55.9692 28.1994 76.5284 28.1994C97.0877 28.1994 116.809 36.3475 131.373 50.859C132.49 51.9929 133.117 53.5211 133.117 55.1133C133.117 56.7054 132.49 58.2336 131.373 59.3676C130.817 59.9303 130.154 60.3765 129.424 60.6797C128.693 60.9829 127.909 61.1372 127.118 61.1335Z" fill="#1D1D1D"/>
<path d="M146.985 41.2668C145.392 41.2525 143.866 40.6193 142.731 39.5009C134.038 30.7975 123.715 23.893 112.352 19.1821C100.989 14.4712 88.8092 12.0465 76.5084 12.0465C64.2076 12.0465 52.0274 14.4712 40.6645 19.1821C29.3015 23.893 18.9786 30.7975 10.286 39.5009C9.15209 40.6186 7.62389 41.2451 6.03173 41.2451C4.43957 41.2451 2.91131 40.6186 1.77739 39.5009C1.21434 38.9447 0.767354 38.2822 0.462246 37.5519C0.157138 36.8216 0 36.038 0 35.2466C0 34.4551 0.157138 33.6715 0.462246 32.9413C0.767354 32.211 1.21434 31.5485 1.77739 30.9923C11.5851 21.1677 23.2339 13.3733 36.0571 8.05531C48.8803 2.7373 62.6262 0 76.5084 0C90.3906 0 104.137 2.7373 116.96 8.05531C129.783 13.3733 141.432 21.1677 151.239 30.9923C152.08 31.8342 152.653 32.9065 152.885 34.0736C153.116 35.2407 152.997 36.4503 152.542 37.5497C152.087 38.6491 151.316 39.589 150.327 40.2505C149.338 40.9121 148.175 41.2658 146.985 41.2668Z" fill="#1D1D1D"/>
<path d="M88.1474 104.359C88.1474 106.661 87.4648 108.911 86.1859 110.825C84.907 112.739 83.0892 114.231 80.9624 115.112C78.8357 115.993 76.4955 116.223 74.2377 115.774C71.9799 115.325 69.906 114.216 68.2783 112.589C66.6505 110.961 65.542 108.887 65.0929 106.629C64.6438 104.372 64.8743 102.031 65.7552 99.9045C66.6362 97.7777 68.128 95.96 70.042 94.681C71.9561 93.4021 74.2064 92.7195 76.5084 92.7195C78.0383 92.7142 79.5542 93.0116 80.9687 93.5947C82.3833 94.1777 83.6685 95.0348 84.7503 96.1167C85.8321 97.1985 86.6892 98.4837 87.2723 99.8982C87.8553 101.313 88.1528 102.829 88.1474 104.359Z" fill="#1D1D1D"/>
</svg>
