<svg width="1170" height="365" viewBox="0 0 1170 365" fill="none" xmlns="http://www.w3.org/2000/svg">
<g clip-path="url(#clip0_214_37)">
<path d="M177 183L127.753 269H29.2472L-20 183L29.2472 97H127.753L177 183Z" stroke="#1D1D1B" stroke-miterlimit="10"/>
<path d="M177 11L127.753 97H29.2472L-20 11L29.2472 -75H127.753L177 11Z" stroke="#1D1D1B" stroke-miterlimit="10"/>
<path d="M177 183.5H276.5L326.5 271" stroke="black" stroke-opacity="0.2"/>
<path d="M277 356L326.5 270" stroke="black" stroke-opacity="0.5"/>
<circle cx="326" cy="270" r="5" fill="black"/>
<path d="M999 -13L1048.25 73H1146.75L1196 -13L1146.75 -99H1048.25L999 -13Z" stroke="#1D1D1B" stroke-miterlimit="10"/>
<path d="M999 159L1048.25 245H1146.75L1196 159L1146.75 73H1048.25L999 159Z" stroke="#1D1D1B" stroke-opacity="0.5" stroke-miterlimit="10"/>
<circle cx="1047" cy="73" r="5" fill="black"/>
<circle cx="1146" cy="72" r="5" fill="black"/>
<circle cx="999" cy="159" r="5" fill="black"/>
<circle cx="1048" cy="244" r="5" fill="black"/>
<path d="M998.5 330.5L1048 244.5" stroke="black" stroke-opacity="0.5"/>
<path d="M850 416L899.497 502H998.491L1048 416L998.491 330H899.497L850 416Z" stroke="#1D1D1B" stroke-opacity="0.2" stroke-miterlimit="10"/>
<circle cx="899" cy="331" r="5" fill="black"/>
</g>
<defs>
<clipPath id="clip0_214_37">
<rect width="1170" height="365" fill="white"/>
</clipPath>
</defs>
</svg>
