<svg width="11" height="11" viewBox="0 0 11 11" fill="none" xmlns="http://www.w3.org/2000/svg">
<path d="M5.43433 9.78179C6.58734 9.78179 7.69314 9.32375 8.50844 8.50844C9.32375 7.69314 9.78179 6.58734 9.78179 5.43433C9.78179 4.28131 9.32375 3.17551 8.50844 2.36021C7.69314 1.5449 6.58734 1.08687 5.43433 1.08687C4.28131 1.08687 3.17551 1.5449 2.36021 2.36021C1.5449 3.17551 1.08687 4.28131 1.08687 5.43433C1.08687 6.58734 1.5449 7.69314 2.36021 8.50844C3.17551 9.32375 4.28131 9.78179 5.43433 9.78179ZM5.43433 10.8687C2.43295 10.8687 0 8.4357 0 5.43433C0 2.43295 2.43295 0 5.43433 0C8.4357 0 10.8687 2.43295 10.8687 5.43433C10.8687 8.4357 8.4357 10.8687 5.43433 10.8687Z" fill="#929292"/>
<path d="M6.85519 3.42572C6.85519 3.42572 7.00791 3.57064 6.85519 3.42572C6.6505 3.19954 6.5377 2.90908 6.53778 2.6084H5.6125V6.2023C5.60537 6.39678 5.52054 6.581 5.37587 6.71615C5.23121 6.8513 5.03801 6.92685 4.83695 6.92688C4.41174 6.92688 4.0584 6.59067 4.0584 6.17332C4.0584 5.67481 4.55547 5.30093 5.06752 5.45454V4.53867C4.03444 4.40535 3.13013 5.1821 3.13013 6.17332C3.13013 7.13845 3.95659 7.82535 4.83395 7.82535C5.7742 7.82535 6.53778 7.08628 6.53778 6.17332V4.35028C6.91298 4.61109 7.36345 4.75101 7.82538 4.75025V3.85467C7.82538 3.85467 7.26243 3.88076 6.85519 3.42572Z" fill="#929292"/>
</svg>
