<svg width="314" height="286" viewBox="0 0 314 286" fill="none" xmlns="http://www.w3.org/2000/svg">
<path d="M225.352 201.684H276.25C282.82 201.684 288.146 196.358 288.146 189.788V171.278C288.146 164.708 282.82 159.382 276.25 159.382H225.352C218.783 159.382 213.457 164.708 213.457 171.278V189.788C213.457 196.358 218.783 201.684 225.352 201.684Z" fill="#F5F5F5"/>
<path d="M225.449 198.542H234.908L235.336 199.584C235.336 199.584 234.038 208.408 222.708 210.23C222.708 210.23 227.644 204.569 225.449 198.542Z" fill="#F5F5F5"/>
<path d="M248.483 175.668V187.854H245.031V183.104H240.336V187.854H236.884V175.668H240.336V180.26H245.031V175.689L248.483 175.668Z" fill="#E0E0E0"/>
<path d="M260.349 183.967H253.494C253.646 184.449 253.96 184.863 254.383 185.138C254.806 185.414 255.312 185.534 255.813 185.479C256.617 185.505 257.399 185.212 257.988 184.664L259.728 186.473C259.209 187.006 258.58 187.419 257.885 187.684C257.19 187.949 256.445 188.059 255.703 188.006C252.348 188.006 250.18 185.935 250.18 183.111C250.18 180.287 252.389 178.278 255.365 178.278C258.126 178.278 260.412 180.052 260.412 183.166C260.405 183.394 260.37 183.712 260.349 183.967ZM253.445 182.227H257.305C257.223 181.775 256.985 181.365 256.633 181.071C256.28 180.776 255.835 180.614 255.375 180.614C254.915 180.614 254.47 180.776 254.117 181.071C253.765 181.365 253.527 181.775 253.445 182.227Z" fill="#E0E0E0"/>
<path d="M259.237 190.892L260.073 188.545C260.384 188.73 260.74 188.825 261.101 188.821C261.674 188.821 262.075 188.441 262.075 187.585V178.416H265.396V187.606C265.396 189.905 264.015 191.382 261.55 191.382C260.751 191.413 259.956 191.244 259.237 190.892ZM261.709 175.613C261.717 175.362 261.777 175.116 261.884 174.889C261.992 174.662 262.145 174.46 262.334 174.295C262.523 174.129 262.744 174.005 262.984 173.929C263.223 173.853 263.475 173.827 263.725 173.853C264.947 173.853 265.748 174.543 265.748 175.558C265.691 176.049 265.457 176.503 265.09 176.834C264.722 177.166 264.247 177.352 263.753 177.359C263.258 177.366 262.778 177.192 262.402 176.871C262.026 176.55 261.78 176.103 261.709 175.613Z" fill="#E0E0E0"/>
<path d="M227.404 32.408L260.827 32.408C267.397 32.408 272.723 27.082 272.723 20.5121V11.8958C272.723 5.3259 267.397 -4.57764e-05 260.827 -4.57764e-05L227.404 -4.57764e-05C220.834 -4.57764e-05 215.508 5.3259 215.508 11.8958V20.5121C215.508 27.082 220.834 32.408 227.404 32.408Z" fill="#F5F5F5"/>
<path d="M224.696 30.0051H231.939L232.27 30.7991C232.27 30.7991 231.269 37.5582 222.605 38.9598C222.591 38.9598 226.374 34.624 224.696 30.0051Z" fill="#F5F5F5"/>
<path d="M215.384 88.4346H226.631L227.141 89.6773C227.141 89.6773 225.602 100.172 212.125 102.339C212.125 102.333 217.994 95.6011 215.384 88.4346Z" fill="#F5F5F5"/>
<path d="M206.974 94.0964L281.255 94.0964C286.422 94.0964 290.61 89.908 290.61 84.7413V64.7263C290.61 59.5596 286.422 55.3712 281.255 55.3712L206.974 55.3712C201.807 55.3712 197.619 59.5596 197.619 64.7263V84.7413C197.619 89.908 201.807 94.0964 206.974 94.0964Z" fill="#F5F5F5"/>
<path d="M223.109 78.2721C223.109 80.2052 221.514 81.3306 218.524 81.3306H212.504V70.1804H218.207C221.134 70.1804 222.57 71.3748 222.57 73.1009C222.578 73.6049 222.441 74.1006 222.176 74.529C221.91 74.9573 221.527 75.3004 221.072 75.5173C221.667 75.6887 222.189 76.0515 222.557 76.5495C222.925 77.0474 223.119 77.6529 223.109 78.2721ZM215.625 72.4588V74.6267H217.792C218.842 74.6267 219.38 74.2608 219.38 73.5427C219.38 72.8247 218.842 72.4726 217.792 72.4726L215.625 72.4588ZM219.926 77.9269C219.926 77.1605 219.353 76.7946 218.269 76.7946H215.625V79.0522H218.269C219.353 79.0522 219.926 78.6863 219.926 77.9269Z" fill="#E0E0E0"/>
<path d="M224.068 77.0017C224.068 74.4057 226.14 72.5554 228.943 72.5554C231.746 72.5554 233.817 74.4057 233.817 77.0017C233.817 79.5976 231.794 81.4756 228.943 81.4756C226.091 81.4756 224.068 79.6114 224.068 77.0017ZM230.758 77.0017C230.79 76.7444 230.767 76.4834 230.69 76.2358C230.614 75.9882 230.485 75.7597 230.313 75.5655C230.142 75.3713 229.931 75.2158 229.694 75.1093C229.458 75.0028 229.202 74.9477 228.943 74.9477C228.683 74.9477 228.427 75.0028 228.191 75.1093C227.955 75.2158 227.744 75.3713 227.572 75.5655C227.4 75.7597 227.272 75.9882 227.195 76.2358C227.118 76.4834 227.095 76.7444 227.127 77.0017C227.127 78.3204 227.921 79.0729 228.943 79.0729C229.964 79.0729 230.758 78.3204 230.758 77.0017Z" fill="#E0E0E0"/>
<path d="M244.408 76.3937V81.3302H241.384V76.8908C241.384 75.6481 240.846 75.1233 239.969 75.1233C239.092 75.1233 238.25 75.724 238.25 77.1601V81.3025H235.219V72.6724H238.105V73.6113C238.465 73.2499 238.897 72.967 239.372 72.7805C239.847 72.594 240.356 72.5078 240.866 72.5274C242.869 72.555 244.408 73.7218 244.408 76.3937Z" fill="#E0E0E0"/>
<path d="M243.842 84.12L244.601 81.9728C244.885 82.1418 245.21 82.2301 245.54 82.2282C246.072 82.2282 246.438 81.8761 246.438 81.096V72.7005H249.462V81.1098C249.462 83.2155 248.171 84.5618 245.941 84.5618C245.215 84.5903 244.494 84.4385 243.842 84.12ZM246.099 70.1322C246.108 69.9024 246.163 69.6768 246.262 69.4693C246.361 69.2619 246.502 69.077 246.675 68.9261C246.849 68.7753 247.051 68.6617 247.271 68.5924C247.49 68.5232 247.721 68.4997 247.95 68.5235C248.176 68.4946 248.405 68.5131 248.623 68.5779C248.842 68.6427 249.044 68.7524 249.218 68.8999C249.391 69.0474 249.532 69.2295 249.631 69.4346C249.73 69.6397 249.785 69.8632 249.793 70.0908C249.737 70.538 249.521 70.9498 249.185 71.2499C248.849 71.55 248.415 71.7182 247.964 71.7233C247.514 71.7283 247.076 71.5699 246.734 71.2774C246.391 70.9849 246.165 70.578 246.099 70.1322Z" fill="#E0E0E0"/>
<path d="M250.898 77.0017C250.898 74.4057 252.97 72.5554 255.773 72.5554C258.576 72.5554 260.647 74.4057 260.647 77.0017C260.647 79.5976 258.624 81.4756 255.773 81.4756C252.921 81.4756 250.898 79.6114 250.898 77.0017ZM257.589 77.0017C257.62 76.7444 257.597 76.4834 257.52 76.2358C257.444 75.9882 257.315 75.7597 257.144 75.5655C256.972 75.3713 256.761 75.2158 256.525 75.1093C256.288 75.0028 256.032 74.9477 255.773 74.9477C255.514 74.9477 255.257 75.0028 255.021 75.1093C254.785 75.2158 254.574 75.3713 254.402 75.5655C254.23 75.7597 254.102 75.9882 254.025 76.2358C253.948 76.4834 253.925 76.7444 253.957 77.0017C253.957 78.3204 254.751 79.0729 255.773 79.0729C256.795 79.0729 257.554 78.3204 257.554 77.0017H257.589Z" fill="#E0E0E0"/>
<path d="M271.092 72.7002V81.3304H268.213V80.4121C267.882 80.7577 267.483 81.0307 267.04 81.2137C266.598 81.3967 266.123 81.4858 265.645 81.4754C263.525 81.4754 261.985 80.2672 261.985 77.5262V72.6933H265.009V77.0222C265.009 78.3616 265.534 78.8863 266.445 78.8863C267.357 78.8863 268.068 78.2995 268.068 76.8151V72.6726L271.092 72.7002Z" fill="#E0E0E0"/>
<path d="M278.825 72.5553V75.317C278.596 75.2854 278.365 75.2692 278.134 75.2687C276.912 75.2687 276.063 75.89 276.063 77.402V81.365H273.039V72.7348H275.925V73.7705C276.282 73.3579 276.729 73.0336 277.232 72.8228C277.735 72.612 278.28 72.5204 278.825 72.5553Z" fill="#E0E0E0"/>
<path d="M82.1267 153.479H71.66L71.1768 154.632C71.1768 154.632 72.6197 164.38 85.1576 166.451C85.1576 166.451 79.6757 160.155 82.1267 153.479Z" fill="#F5F5F5"/>
<path d="M86.0964 120.608H18.2633C13.0966 120.608 8.9082 124.797 8.9082 129.963V147.293C8.9082 152.46 13.0966 156.648 18.2633 156.648H86.0964C91.2631 156.648 95.4515 152.46 95.4515 147.293V129.963C95.4515 124.797 91.2631 120.608 86.0964 120.608Z" fill="#F5F5F5"/>
<path d="M100.105 28.2791H92.4341L92.0889 29.2042C92.0889 29.2042 93.1383 37.0266 102.321 38.6491C102.321 38.6491 98.3164 33.6229 100.105 28.2791Z" fill="#F5F5F5"/>
<path d="M100.505 1.93286H55.8287C50.6621 1.93286 46.4736 6.12128 46.4736 11.288V21.4578C46.4736 26.6244 50.6621 30.8129 55.8287 30.8129H100.505C105.672 30.8129 109.86 26.6244 109.86 21.4578V11.288C109.86 6.12128 105.672 1.93286 100.505 1.93286Z" fill="#F5F5F5"/>
<path d="M32.2024 138.925C32.2024 140.699 30.8216 141.721 28.2257 141.721H23.2754V131.365H27.9288C30.3176 131.365 31.6501 132.373 31.6501 134.043C31.671 134.522 31.5513 134.995 31.3059 135.406C31.0605 135.817 30.7002 136.148 30.2693 136.356C30.8415 136.49 31.3485 136.82 31.7019 137.29C32.0552 137.759 32.2324 138.338 32.2024 138.925ZM24.7598 132.545V135.866H27.7976C29.3096 135.866 30.1726 135.307 30.1726 134.209C30.1726 133.111 29.3096 132.545 27.7976 132.545H24.7598ZM30.7042 138.835C30.7042 137.64 29.8136 137.102 28.1704 137.102H24.7598V140.554H28.1704C29.8136 140.519 30.7042 140.002 30.7042 138.835Z" fill="#E0E0E0"/>
<path d="M33.57 137.793C33.5563 136.981 33.7844 136.184 34.2251 135.503C34.6658 134.822 35.2992 134.288 36.0447 133.968C36.7903 133.648 37.6142 133.557 38.4115 133.707C39.2088 133.856 39.9436 134.24 40.5221 134.809C41.1006 135.378 41.4968 136.106 41.6602 136.9C41.8236 137.695 41.7468 138.52 41.4396 139.271C41.1323 140.022 40.6086 140.665 39.9351 141.117C39.2615 141.569 38.4686 141.811 37.6573 141.811C37.1198 141.836 36.5829 141.749 36.0803 141.557C35.5777 141.365 35.1203 141.071 34.7365 140.694C34.3528 140.317 34.0512 139.864 33.8504 139.365C33.6497 138.866 33.5543 138.33 33.57 137.793ZM40.2947 137.793C40.2717 137.275 40.0971 136.775 39.7926 136.356C39.4881 135.937 39.0671 135.616 38.582 135.434C38.0969 135.252 37.5689 135.217 37.0638 135.332C36.5586 135.448 36.0985 135.709 35.7407 136.084C35.3828 136.458 35.1429 136.93 35.0508 137.44C34.9587 137.95 35.0185 138.476 35.2226 138.952C35.4268 139.428 35.7664 139.834 36.1993 140.119C36.6321 140.404 37.1391 140.555 37.6573 140.554C38.0192 140.568 38.3799 140.505 38.7159 140.37C39.0519 140.234 39.3555 140.03 39.607 139.769C39.8585 139.508 40.0522 139.198 40.1755 138.857C40.2987 138.516 40.3488 138.154 40.3223 137.793H40.2947Z" fill="#E0E0E0"/>
<path d="M51.1615 137.206V141.721H49.7393V137.365C49.7393 135.825 48.9729 135.065 47.6197 135.065C46.1077 135.065 45.1342 135.97 45.1342 137.675V141.721H43.7051V133.871H45.0859V135.052C45.4229 134.631 45.8558 134.297 46.3483 134.079C46.8409 133.86 47.3787 133.763 47.9166 133.795C49.8152 133.795 51.1615 134.893 51.1615 137.206Z" fill="#E0E0E0"/>
<path d="M51.0928 144.214L51.5553 143.116C51.8832 143.373 52.2919 143.505 52.7083 143.489C53.4609 143.489 53.882 143.012 53.882 142.108V133.871H55.3043V142.08C55.3043 143.682 54.4137 144.69 52.7981 144.69C52.1931 144.72 51.5948 144.552 51.0928 144.214ZM53.6266 131.434C53.6275 131.309 53.6533 131.185 53.7026 131.07C53.7519 130.955 53.8237 130.851 53.9138 130.765C54.0038 130.678 54.1103 130.61 54.227 130.565C54.3436 130.52 54.4681 130.498 54.5932 130.502C54.716 130.496 54.8388 130.516 54.9541 130.558C55.0694 130.601 55.175 130.667 55.2645 130.751C55.354 130.835 55.4256 130.937 55.4752 131.049C55.5247 131.162 55.5511 131.283 55.5528 131.406C55.5324 131.648 55.4221 131.873 55.2437 132.036C55.0653 132.2 54.8319 132.291 54.5897 132.291C54.3475 132.291 54.1141 132.2 53.9357 132.036C53.7574 131.873 53.647 131.648 53.6266 131.406V131.434Z" fill="#E0E0E0"/>
<path d="M57.2927 137.792C57.2804 136.983 57.509 136.188 57.9495 135.51C58.39 134.831 59.0224 134.298 59.7664 133.979C60.5105 133.661 61.3324 133.571 62.1278 133.72C62.9231 133.87 63.656 134.253 64.2331 134.821C64.8103 135.388 65.2056 136.114 65.369 136.907C65.5323 137.7 65.4562 138.523 65.1503 139.272C64.8445 140.022 64.3227 140.663 63.6513 141.115C62.9799 141.567 62.1893 141.809 61.3799 141.811C60.8424 141.836 60.3056 141.749 59.803 141.557C59.3004 141.365 58.8429 141.071 58.4592 140.694C58.0755 140.316 57.7738 139.864 57.5731 139.365C57.3724 138.866 57.2769 138.33 57.2927 137.792ZM64.0173 137.792C63.9943 137.275 63.8197 136.775 63.5153 136.356C63.2108 135.937 62.7898 135.616 62.3047 135.434C61.8195 135.252 61.2916 135.216 60.7864 135.332C60.2813 135.447 59.8212 135.709 59.4633 136.083C59.1054 136.458 58.8656 136.93 58.7735 137.44C58.6814 137.95 58.7411 138.475 58.9453 138.952C59.1495 139.428 59.4891 139.834 59.9219 140.119C60.3548 140.403 60.8618 140.555 61.3799 140.554C61.7396 140.564 62.0973 140.498 62.4299 140.361C62.7626 140.224 63.0628 140.018 63.3113 139.758C63.5598 139.498 63.751 139.189 63.8726 138.85C63.9942 138.512 64.0435 138.151 64.0173 137.792Z" fill="#E0E0E0"/>
<path d="M74.7531 133.871V141.721H73.3722V140.541C73.0618 140.951 72.6568 141.281 72.1917 141.503C71.7266 141.724 71.215 141.829 70.7003 141.811C68.6705 141.811 67.3242 140.699 67.3242 138.359V133.844H68.7465V138.2C68.7465 139.74 69.5128 140.513 70.866 140.513C72.3435 140.513 73.2963 139.588 73.2963 137.903V133.844L74.7531 133.871Z" fill="#E0E0E0"/>
<path d="M81.6911 133.795V135.176C81.5831 135.169 81.4747 135.169 81.3667 135.176C79.8408 135.176 78.8881 136.115 78.8881 137.834V141.742H77.4658V133.871H78.8466V135.19C79.3368 134.264 80.3103 133.795 81.6911 133.795Z" fill="#E0E0E0"/>
<path d="M314 285.465C314 285.569 243.702 285.645 157.007 285.645C70.3117 285.645 0 285.569 0 285.465C0 285.362 70.2841 285.286 157.007 285.286C243.73 285.286 314 285.369 314 285.465Z" fill="#263238"/>
<path d="M230.929 284.051H244.109V259.085H230.929V284.051Z" fill="#F5F5F5"/>
<path d="M244.116 285.279H305.97V258.208H244.116V285.279Z" fill="#455A64"/>
<path d="M229.907 285.272H245.787V283.518H229.907C229.791 283.517 229.677 283.539 229.57 283.583C229.462 283.627 229.365 283.691 229.283 283.773C229.201 283.854 229.135 283.951 229.091 284.058C229.046 284.165 229.023 284.279 229.023 284.395C229.023 284.511 229.046 284.625 229.091 284.732C229.135 284.839 229.201 284.936 229.283 285.018C229.365 285.099 229.462 285.164 229.57 285.207C229.677 285.251 229.791 285.273 229.907 285.272Z" fill="#455A64"/>
<path d="M245.808 259.962H229.79C229.589 259.962 229.395 259.882 229.253 259.739C229.111 259.597 229.031 259.404 229.031 259.202V258.967C229.031 258.868 229.05 258.769 229.088 258.677C229.127 258.585 229.182 258.501 229.253 258.43C229.324 258.36 229.407 258.304 229.499 258.266C229.592 258.228 229.69 258.208 229.79 258.208H245.808V259.962Z" fill="#455A64"/>
<path d="M230.936 262.42C230.936 262.461 233.884 262.496 237.522 262.496C241.161 262.496 244.109 262.461 244.109 262.42C244.109 262.378 241.161 262.344 237.522 262.344C233.884 262.344 230.936 262.42 230.936 262.42Z" fill="#E0E0E0"/>
<path d="M230.936 265.63C230.936 265.671 233.884 265.706 237.522 265.706C241.161 265.706 244.109 265.671 244.109 265.63C244.109 265.588 241.161 265.554 237.522 265.554C233.884 265.554 230.936 265.588 230.936 265.63Z" fill="#E0E0E0"/>
<path d="M230.936 268.834C230.936 268.875 233.884 268.909 237.522 268.909C241.161 268.909 244.109 268.909 244.109 268.834C244.109 268.758 241.161 268.758 237.522 268.758C233.884 268.758 230.936 268.792 230.936 268.834Z" fill="#E0E0E0"/>
<path d="M230.936 272.037C230.936 272.078 233.884 272.113 237.522 272.113C241.161 272.113 244.109 272.078 244.109 272.037C244.109 271.995 241.161 271.961 237.522 271.961C233.884 271.961 230.936 271.995 230.936 272.037Z" fill="#E0E0E0"/>
<path d="M230.936 275.241C230.936 275.282 233.884 275.31 237.522 275.31C241.161 275.31 244.109 275.31 244.109 275.241C244.109 275.171 241.161 275.165 237.522 275.165C233.884 275.165 230.936 275.192 230.936 275.241Z" fill="#E0E0E0"/>
<path d="M230.936 278.437C230.936 278.478 233.884 278.513 237.522 278.513C241.161 278.513 244.109 278.478 244.109 278.437C244.109 278.396 241.161 278.361 237.522 278.361C233.884 278.361 230.936 278.396 230.936 278.437Z" fill="#E0E0E0"/>
<path d="M230.936 281.641C230.936 281.682 233.884 281.717 237.522 281.717C241.161 281.717 244.109 281.682 244.109 281.641C244.109 281.599 241.161 281.565 237.522 281.565C233.884 281.565 230.936 281.599 230.936 281.641Z" fill="#E0E0E0"/>
<path d="M302.227 232.256H289.51V247.369H302.227V232.256Z" fill="#F5F5F5"/>
<path d="M289.952 231.275H232.489V248.328H289.952V231.275Z" fill="#12733C"/>
<path d="M302.615 232.732H288.413V231.302H302.615C302.798 231.302 302.974 231.375 303.103 231.505C303.233 231.634 303.305 231.81 303.305 231.993C303.312 232.088 303.299 232.183 303.267 232.272C303.236 232.361 303.186 232.443 303.121 232.513C303.056 232.582 302.978 232.637 302.891 232.675C302.804 232.713 302.71 232.732 302.615 232.732Z" fill="#12733C"/>
<path d="M302.615 248.321H288.413V246.892H302.615C302.798 246.892 302.974 246.965 303.103 247.094C303.233 247.224 303.305 247.399 303.305 247.582C303.312 247.677 303.299 247.772 303.267 247.861C303.236 247.951 303.186 248.033 303.121 248.102C303.056 248.171 302.978 248.227 302.891 248.264C302.804 248.302 302.71 248.321 302.615 248.321Z" fill="#12733C"/>
<g opacity="0.4">
<path d="M285.43 231.275H278.644V248.328H285.43V231.275Z" fill="black"/>
</g>
<g opacity="0.4">
<path d="M244.372 231.275H237.585V248.328H244.372V231.275Z" fill="black"/>
</g>
<path d="M302.228 234.762C302.228 234.803 299.466 234.831 296.083 234.831C292.7 234.831 289.938 234.831 289.938 234.762C289.938 234.693 292.7 234.686 296.083 234.686C299.466 234.686 302.228 234.714 302.228 234.762Z" fill="#E0E0E0"/>
<path d="M302.228 237.026C302.228 237.068 299.466 237.102 296.083 237.102C292.7 237.102 289.938 237.068 289.938 237.026C289.938 236.985 292.7 236.95 296.083 236.95C299.466 236.95 302.228 236.985 302.228 237.026Z" fill="#E0E0E0"/>
<path d="M302.228 239.816C302.228 239.857 299.466 239.892 296.083 239.892C292.7 239.892 289.938 239.857 289.938 239.816C289.938 239.774 292.7 239.74 296.083 239.74C299.466 239.74 302.228 239.774 302.228 239.816Z" fill="#E0E0E0"/>
<path d="M302.228 242.605C302.228 242.646 299.466 242.681 296.083 242.681C292.7 242.681 289.938 242.646 289.938 242.605C289.938 242.563 292.7 242.529 296.083 242.529C299.466 242.529 302.228 242.563 302.228 242.605Z" fill="#E0E0E0"/>
<path d="M302.228 245.401C302.228 245.442 299.466 245.477 296.083 245.477C292.7 245.477 289.938 245.477 289.938 245.401C289.938 245.325 292.7 245.325 296.083 245.325C299.466 245.325 302.228 245.359 302.228 245.401Z" fill="#E0E0E0"/>
<g opacity="0.2">
<path d="M274.991 238.283H249.142V241.355H274.991V238.283Z" fill="black"/>
</g>
<path d="M302.096 248.659H289.186V257.87H302.096V248.659Z" fill="#FAFAFA"/>
<path d="M289.338 248.322H234.395V258.201H289.338V248.322Z" fill="#263238"/>
<path d="M288.931 248.991H302.808C302.852 248.992 302.896 248.984 302.937 248.968C302.978 248.952 303.015 248.928 303.047 248.897C303.078 248.866 303.103 248.829 303.12 248.788C303.137 248.748 303.146 248.704 303.146 248.66C303.146 248.57 303.111 248.484 303.047 248.421C302.984 248.357 302.898 248.322 302.808 248.322H288.931V248.991Z" fill="#263238"/>
<path d="M288.931 257.538H302.849C302.926 257.538 303 257.569 303.054 257.623C303.109 257.678 303.139 257.751 303.139 257.828V257.918C303.139 257.995 303.109 258.069 303.054 258.123C303 258.177 302.926 258.208 302.849 258.208H288.931V257.518V257.538Z" fill="#263238"/>
<path d="M302.097 250.407C302.097 250.448 299.238 250.482 295.717 250.482C292.196 250.482 289.331 250.482 289.331 250.407C289.331 250.331 292.189 250.331 295.717 250.331C299.245 250.331 302.097 250.365 302.097 250.407Z" fill="#E0E0E0"/>
<path d="M302.097 252.153C302.097 252.195 299.238 252.229 295.717 252.229C292.196 252.229 289.331 252.195 289.331 252.153C289.331 252.112 292.189 252.077 295.717 252.077C299.245 252.077 302.097 252.112 302.097 252.153Z" fill="#E0E0E0"/>
<path d="M302.097 253.893C302.097 253.934 299.238 253.969 295.717 253.969C292.196 253.969 289.331 253.934 289.331 253.893C289.331 253.852 292.189 253.817 295.717 253.817C299.245 253.817 302.097 253.852 302.097 253.893Z" fill="#E0E0E0"/>
<path d="M302.097 255.633C302.097 255.682 299.238 255.709 295.717 255.709C292.196 255.709 289.331 255.709 289.331 255.633C289.331 255.557 292.189 255.564 295.717 255.564C299.245 255.564 302.097 255.592 302.097 255.633Z" fill="#E0E0E0"/>
<path d="M251.276 270.014H253.658C255.391 270.014 256.578 271.043 256.578 272.617C256.578 274.191 255.391 275.227 253.658 275.227H251.248L251.276 270.014ZM253.623 274.233C253.844 274.247 254.065 274.216 254.273 274.142C254.481 274.067 254.672 273.951 254.833 273.8C254.994 273.648 255.123 273.466 255.211 273.263C255.299 273.06 255.344 272.842 255.344 272.62C255.344 272.399 255.299 272.181 255.211 271.978C255.123 271.775 254.994 271.592 254.833 271.441C254.672 271.29 254.481 271.174 254.273 271.099C254.065 271.025 253.844 270.994 253.623 271.008H252.505V274.233H253.623Z" fill="white"/>
<path d="M257.53 270.014H258.752V275.227H257.53V270.014Z" fill="white"/>
<path d="M259.678 272.617C259.678 272.248 259.754 271.883 259.9 271.544C260.047 271.206 260.262 270.901 260.531 270.649C260.8 270.396 261.118 270.202 261.465 270.077C261.813 269.953 262.182 269.9 262.55 269.924C262.959 269.907 263.368 269.981 263.745 270.141C264.122 270.301 264.459 270.543 264.732 270.849L263.944 271.54C263.781 271.346 263.577 271.192 263.346 271.087C263.116 270.982 262.865 270.929 262.612 270.932C262.384 270.917 262.155 270.95 261.94 271.027C261.725 271.104 261.528 271.224 261.362 271.381C261.195 271.537 261.062 271.726 260.972 271.935C260.881 272.145 260.834 272.371 260.834 272.599C260.834 272.828 260.881 273.054 260.972 273.263C261.062 273.473 261.195 273.662 261.362 273.818C261.528 273.974 261.725 274.095 261.94 274.172C262.155 274.249 262.384 274.281 262.612 274.267C262.867 274.27 263.119 274.216 263.349 274.108C263.58 274.001 263.783 273.842 263.944 273.645L264.732 274.336C264.459 274.643 264.12 274.886 263.742 275.046C263.363 275.206 262.954 275.279 262.543 275.261C262.179 275.284 261.814 275.234 261.471 275.112C261.127 274.99 260.812 274.8 260.544 274.553C260.276 274.305 260.061 274.006 259.912 273.673C259.763 273.341 259.684 272.981 259.678 272.617Z" fill="white"/>
<path d="M266.603 271.001H264.904V270.014H269.537V271.001H267.839V275.227H266.617L266.603 271.001Z" fill="white"/>
<path d="M270.18 270.014H271.402V275.227H270.18V270.014Z" fill="white"/>
<path d="M272.299 272.617C272.256 272.034 272.389 271.453 272.682 270.947C272.974 270.442 273.412 270.036 273.938 269.783C274.465 269.53 275.055 269.441 275.632 269.529C276.21 269.616 276.748 269.875 277.175 270.273C277.603 270.67 277.902 271.187 278.032 271.757C278.161 272.326 278.117 272.921 277.903 273.465C277.69 274.008 277.318 274.475 276.835 274.804C276.353 275.133 275.783 275.309 275.199 275.309C274.829 275.334 274.458 275.283 274.109 275.159C273.76 275.035 273.44 274.841 273.168 274.588C272.897 274.336 272.679 274.031 272.53 273.692C272.38 273.353 272.302 272.987 272.299 272.617ZM276.856 272.617C276.853 272.29 276.753 271.971 276.57 271.7C276.386 271.429 276.126 271.219 275.823 271.096C275.52 270.972 275.188 270.942 274.867 271.007C274.546 271.073 274.253 271.232 274.022 271.464C273.792 271.696 273.635 271.991 273.573 272.312C273.51 272.633 273.543 272.966 273.669 273.268C273.795 273.57 274.007 273.828 274.28 274.009C274.552 274.191 274.872 274.288 275.199 274.288C275.422 274.299 275.645 274.264 275.854 274.185C276.063 274.105 276.252 273.983 276.411 273.825C276.57 273.668 276.694 273.479 276.775 273.271C276.856 273.063 276.893 272.84 276.883 272.617H276.856Z" fill="white"/>
<path d="M283.904 270.014V275.227H282.896L280.259 272.085V275.247H279.044V270.014H280.059L282.689 273.176V270.014H283.904Z" fill="white"/>
<path d="M288.647 274.108H286.189L285.719 275.227H284.463L286.796 270.014H288.005L290.373 275.227H289.089L288.647 274.108ZM288.26 273.19L287.425 271.202L286.582 273.19H288.26Z" fill="white"/>
<path d="M294.33 275.227L293.309 273.77H292.183V275.227H290.94V270.014H293.233C294.648 270.014 295.532 270.739 295.532 271.906C295.545 272.259 295.448 272.607 295.253 272.901C295.059 273.196 294.777 273.423 294.448 273.549L295.635 275.227H294.33ZM293.177 271.001H292.183V272.81H293.177C293.93 272.81 294.31 272.472 294.31 271.906C294.31 271.34 293.93 271.001 293.177 271.001Z" fill="white"/>
<path d="M298.983 273.376V275.227H297.754V273.363L295.683 270.014H296.981L298.361 272.327L299.777 270.014H300.978L298.983 273.376Z" fill="white"/>
<path d="M251.088 251.497L250.715 253.354H253.028L252.966 253.644H250.66L250.274 255.564H249.956L250.826 251.214H253.733L253.67 251.497H251.088Z" fill="white"/>
<path d="M255.902 252.291L255.846 252.595H255.729C254.997 252.595 254.514 253.03 254.348 253.9L254.01 255.564H253.699L254.348 252.319H254.652L254.514 253.009C254.654 252.771 254.859 252.578 255.105 252.451C255.35 252.324 255.626 252.268 255.902 252.291Z" fill="white"/>
<path d="M256.336 254.01C256.333 254.077 256.333 254.144 256.336 254.21C256.336 254.901 256.744 255.308 257.538 255.308C257.743 255.314 257.947 255.278 258.138 255.204C258.329 255.129 258.503 255.017 258.649 254.873L258.787 255.087C258.619 255.252 258.42 255.382 258.2 255.467C257.98 255.553 257.746 255.593 257.51 255.584C257.318 255.609 257.124 255.591 256.94 255.532C256.756 255.473 256.587 255.374 256.446 255.242C256.305 255.11 256.195 254.948 256.123 254.769C256.052 254.589 256.021 254.396 256.033 254.203C256.016 253.959 256.049 253.714 256.129 253.483C256.21 253.251 256.337 253.039 256.502 252.858C256.667 252.677 256.868 252.532 257.091 252.431C257.314 252.33 257.555 252.275 257.8 252.27C257.986 252.252 258.174 252.275 258.349 252.338C258.525 252.401 258.685 252.502 258.817 252.634C258.949 252.766 259.05 252.926 259.113 253.102C259.176 253.278 259.199 253.465 259.181 253.651C259.177 253.774 259.166 253.896 259.146 254.017L256.336 254.01ZM256.371 253.768H258.87C258.874 253.713 258.874 253.658 258.87 253.603C258.878 253.459 258.855 253.315 258.801 253.181C258.748 253.048 258.666 252.927 258.562 252.828C258.458 252.729 258.333 252.654 258.197 252.607C258.06 252.561 257.916 252.545 257.772 252.56C257.434 252.563 257.106 252.686 256.85 252.907C256.593 253.128 256.423 253.434 256.371 253.768Z" fill="white"/>
<path d="M263.095 253.333C263.093 253.452 263.081 253.569 263.06 253.686L262.687 255.563H262.377L262.749 253.686C262.759 253.582 262.759 253.478 262.749 253.375C262.749 252.871 262.446 252.574 261.838 252.574C261.491 252.561 261.151 252.68 260.888 252.907C260.624 253.133 260.455 253.451 260.416 253.796L260.064 255.563H259.753L260.395 252.319H260.699L260.575 252.933C260.728 252.723 260.932 252.554 261.167 252.442C261.402 252.33 261.661 252.278 261.921 252.291C262.07 252.265 262.222 252.272 262.368 252.313C262.513 252.355 262.647 252.428 262.76 252.528C262.873 252.629 262.962 252.753 263.019 252.893C263.077 253.032 263.103 253.183 263.095 253.333Z" fill="white"/>
<path d="M263.916 254.238C263.901 253.985 263.938 253.732 264.025 253.495C264.113 253.257 264.248 253.04 264.423 252.857C264.598 252.675 264.809 252.53 265.043 252.432C265.276 252.335 265.527 252.287 265.781 252.291C266.022 252.27 266.265 252.316 266.482 252.425C266.699 252.533 266.881 252.7 267.009 252.906L266.754 253.058C266.649 252.894 266.5 252.762 266.325 252.677C266.149 252.591 265.954 252.556 265.76 252.574C265.549 252.575 265.341 252.618 265.148 252.703C264.955 252.787 264.781 252.91 264.637 253.064C264.494 253.218 264.383 253.4 264.313 253.598C264.242 253.796 264.213 254.007 264.227 254.217C264.216 254.371 264.24 254.525 264.296 254.668C264.353 254.811 264.44 254.939 264.553 255.044C264.666 255.148 264.8 255.226 264.947 255.272C265.094 255.318 265.249 255.33 265.401 255.308C265.603 255.312 265.804 255.271 265.989 255.189C266.174 255.107 266.338 254.985 266.471 254.832L266.692 255.011C266.529 255.199 266.325 255.348 266.097 255.447C265.869 255.546 265.622 255.593 265.373 255.584C265.186 255.607 264.996 255.588 264.817 255.529C264.638 255.471 264.473 255.375 264.335 255.247C264.196 255.119 264.087 254.962 264.015 254.788C263.943 254.614 263.909 254.426 263.916 254.238Z" fill="white"/>
<path d="M270.669 253.334C270.667 253.452 270.655 253.569 270.634 253.686L270.261 255.564H269.951L270.324 253.686C270.337 253.583 270.337 253.478 270.324 253.375C270.324 252.871 270.02 252.574 269.412 252.574C269.065 252.561 268.725 252.68 268.462 252.907C268.198 253.133 268.03 253.451 267.99 253.796L267.638 255.564H267.327L268.245 250.952H268.556L268.163 252.919C268.316 252.713 268.518 252.548 268.75 252.439C268.983 252.329 269.238 252.279 269.495 252.291C269.644 252.265 269.796 252.272 269.942 252.314C270.087 252.355 270.221 252.428 270.334 252.528C270.447 252.629 270.536 252.753 270.594 252.893C270.652 253.032 270.677 253.183 270.669 253.334Z" fill="white"/>
<path d="M251.669 237.136H252.477L251.586 241.479H250.778L251.669 237.136Z" fill="white"/>
<path d="M253.802 240.368C253.799 240.416 253.799 240.464 253.802 240.513C253.796 240.564 253.802 240.616 253.82 240.665C253.837 240.714 253.866 240.758 253.903 240.794C253.941 240.83 253.986 240.857 254.035 240.873C254.085 240.889 254.137 240.893 254.189 240.885C254.344 240.887 254.495 240.841 254.624 240.754L254.762 241.327C254.519 241.469 254.241 241.539 253.961 241.527C253.838 241.54 253.713 241.527 253.596 241.488C253.479 241.448 253.371 241.384 253.281 241.3C253.191 241.215 253.12 241.112 253.072 240.998C253.025 240.884 253.003 240.76 253.008 240.637C252.999 240.55 252.999 240.462 253.008 240.375L253.326 238.814H252.787L252.911 238.193H253.45L253.602 237.433H254.375L254.223 238.193H255.114L254.99 238.814H254.092L253.802 240.368Z" fill="white"/>
<path d="M259.125 238.165L258.469 241.479H257.73L257.799 241.141C257.498 241.4 257.112 241.538 256.715 241.528C256.52 241.539 256.326 241.509 256.143 241.439C255.961 241.369 255.796 241.262 255.658 241.123C255.52 240.985 255.414 240.819 255.345 240.636C255.276 240.454 255.246 240.259 255.258 240.064C255.247 239.812 255.287 239.561 255.377 239.326C255.466 239.09 255.602 238.875 255.777 238.694C255.953 238.513 256.163 238.37 256.395 238.273C256.628 238.176 256.878 238.128 257.129 238.131C257.347 238.112 257.565 238.151 257.762 238.243C257.96 238.335 258.13 238.477 258.255 238.656L258.352 238.165H259.125ZM258.062 239.636C258.069 239.521 258.052 239.405 258.01 239.297C257.968 239.189 257.903 239.092 257.819 239.012C257.736 238.933 257.635 238.872 257.526 238.836C257.416 238.799 257.3 238.787 257.185 238.801C257.026 238.801 256.869 238.834 256.724 238.898C256.579 238.962 256.448 239.055 256.341 239.172C256.233 239.289 256.151 239.426 256.099 239.576C256.047 239.726 256.026 239.885 256.039 240.043C256.031 240.159 256.048 240.274 256.09 240.382C256.132 240.49 256.197 240.587 256.281 240.667C256.365 240.747 256.465 240.807 256.575 240.844C256.684 240.88 256.801 240.892 256.915 240.879C257.074 240.878 257.231 240.845 257.376 240.781C257.522 240.717 257.652 240.624 257.76 240.507C257.867 240.391 257.95 240.253 258.002 240.103C258.053 239.953 258.074 239.794 258.062 239.636Z" fill="white"/>
<path d="M260.402 236.874H261.182L260.264 241.479H259.483L260.402 236.874Z" fill="white"/>
<path d="M261.942 238.166H262.723L262.067 241.48H261.252L261.942 238.166ZM262.046 237.185C262.045 237.117 262.058 237.05 262.084 236.987C262.111 236.924 262.15 236.868 262.199 236.821C262.248 236.774 262.307 236.738 262.371 236.716C262.435 236.693 262.503 236.683 262.571 236.688C262.629 236.682 262.688 236.689 262.744 236.707C262.8 236.725 262.851 236.754 262.895 236.793C262.939 236.832 262.975 236.879 263 236.933C263.025 236.986 263.039 237.044 263.04 237.102C263.043 237.172 263.031 237.242 263.006 237.307C262.98 237.372 262.941 237.431 262.89 237.48C262.84 237.529 262.78 237.567 262.714 237.591C262.649 237.615 262.578 237.625 262.509 237.62C262.449 237.624 262.389 237.615 262.333 237.595C262.276 237.575 262.224 237.544 262.181 237.503C262.137 237.463 262.101 237.413 262.077 237.359C262.053 237.304 262.04 237.245 262.039 237.185H262.046Z" fill="white"/>
<path d="M266.976 238.165L266.285 241.479H265.54L265.609 241.141C265.311 241.401 264.927 241.539 264.532 241.527C264.336 241.54 264.141 241.51 263.958 241.441C263.775 241.372 263.608 241.264 263.47 241.126C263.331 240.987 263.224 240.821 263.155 240.638C263.086 240.455 263.056 240.259 263.068 240.064C263.057 239.812 263.097 239.561 263.186 239.325C263.275 239.09 263.412 238.875 263.587 238.694C263.762 238.513 263.972 238.37 264.205 238.273C264.437 238.176 264.687 238.128 264.939 238.131C265.157 238.111 265.377 238.149 265.575 238.242C265.774 238.334 265.945 238.476 266.071 238.655L266.161 238.165H266.976ZM265.906 239.636C265.914 239.52 265.896 239.405 265.854 239.297C265.812 239.189 265.747 239.092 265.663 239.012C265.58 238.932 265.479 238.872 265.37 238.836C265.26 238.799 265.144 238.787 265.029 238.8C264.871 238.802 264.715 238.836 264.57 238.9C264.426 238.964 264.296 239.058 264.189 239.174C264.082 239.291 264.001 239.428 263.949 239.578C263.898 239.727 263.877 239.885 263.89 240.043C263.882 240.158 263.899 240.274 263.941 240.382C263.983 240.49 264.048 240.587 264.132 240.667C264.216 240.746 264.316 240.807 264.426 240.843C264.535 240.88 264.652 240.892 264.766 240.878C264.925 240.877 265.081 240.843 265.225 240.779C265.37 240.715 265.499 240.621 265.606 240.505C265.713 240.388 265.795 240.251 265.846 240.101C265.898 239.952 265.918 239.793 265.906 239.636Z" fill="white"/>
<path d="M271.007 239.249C271.007 239.381 270.993 239.513 270.966 239.642L270.6 241.479H269.827L270.186 239.663C270.192 239.578 270.192 239.493 270.186 239.408C270.186 239.021 269.979 238.807 269.495 238.807C269.227 238.795 268.964 238.888 268.762 239.066C268.56 239.243 268.434 239.492 268.412 239.76L268.059 241.479H267.286L267.942 238.165H268.681L268.605 238.531C268.925 238.261 269.333 238.119 269.751 238.13C269.91 238.102 270.074 238.11 270.23 238.154C270.386 238.198 270.53 238.277 270.651 238.385C270.772 238.492 270.867 238.626 270.929 238.776C270.99 238.925 271.017 239.087 271.007 239.249Z" fill="white"/>
<path d="M221.021 110.529H278.898C280.616 110.529 282.263 111.211 283.478 112.425C284.692 113.64 285.374 115.287 285.374 117.005V135.95C285.374 137.667 284.692 139.314 283.478 140.529C282.263 141.743 280.616 142.426 278.898 142.426H271.159C271.414 146.824 274.438 150.296 274.438 150.296C267.265 149.143 264.082 145.174 262.77 142.426H221.021C219.303 142.426 217.656 141.743 216.442 140.529C215.227 139.314 214.545 137.667 214.545 135.95V116.984C214.55 115.27 215.235 113.628 216.449 112.418C217.663 111.208 219.307 110.529 221.021 110.529Z" fill="#FAFAFA"/>
<path d="M221.021 110.529C220.498 110.566 219.979 110.642 219.467 110.756C218.195 111.075 217.05 111.774 216.186 112.761C215.322 113.749 214.781 114.976 214.634 116.28C214.579 116.873 214.593 117.509 214.593 118.165C214.593 118.82 214.593 119.545 214.593 120.236C214.593 123.073 214.593 126.318 214.593 129.902C214.593 131.71 214.593 133.604 214.593 135.584C214.555 136.583 214.739 137.578 215.132 138.497C215.558 139.462 216.218 140.306 217.052 140.952C217.886 141.598 218.868 142.026 219.909 142.198C220.458 142.277 221.012 142.307 221.566 142.288H230.397H262.694H262.805L262.853 142.384C263.909 144.517 265.521 146.325 267.52 147.618C268.544 148.284 269.642 148.828 270.793 149.24C271.963 149.648 273.167 149.955 274.39 150.158L274.231 150.448C273.322 149.334 272.57 148.1 271.994 146.782C271.383 145.42 271.014 143.962 270.903 142.474V142.281H276.751C277.635 142.281 278.546 142.281 279.402 142.281C280.687 142.169 281.906 141.664 282.894 140.835C283.882 140.007 284.592 138.894 284.925 137.648C285.118 136.823 285.192 135.974 285.146 135.128V132.56C285.146 129.156 285.146 125.807 285.146 122.535V117.667C285.263 116.108 284.82 114.559 283.897 113.297C282.988 112.076 281.669 111.225 280.182 110.901C279.449 110.767 278.704 110.717 277.959 110.75H267.147H251.661L229.237 110.687L251.661 110.632H267.147H275.771H278.014C278.782 110.598 279.551 110.649 280.307 110.784C281.872 111.122 283.261 112.017 284.214 113.304C285.182 114.62 285.652 116.238 285.54 117.868C285.54 119.476 285.54 121.092 285.54 122.735V135.328C285.591 136.205 285.514 137.084 285.312 137.938C284.959 139.252 284.212 140.426 283.172 141.303C282.131 142.179 280.847 142.716 279.492 142.84C278.574 142.895 277.704 142.84 276.806 142.84H271.152L271.331 142.647C271.607 145.502 272.735 148.208 274.569 150.414L274.873 150.793L274.404 150.711C273.158 150.499 271.933 150.187 270.737 149.779C269.564 149.352 268.443 148.793 267.396 148.115C265.343 146.786 263.688 144.928 262.604 142.736L262.763 142.833H230.466H221.642C221.074 142.852 220.506 142.82 219.944 142.736C218.835 142.558 217.791 142.097 216.913 141.397C216.07 140.72 215.403 139.851 214.966 138.863C214.563 137.913 214.376 136.884 214.42 135.853C214.42 133.871 214.42 131.98 214.42 130.171C214.42 126.56 214.42 123.315 214.42 120.505C214.42 119.815 214.42 119.124 214.42 118.434C214.404 117.8 214.422 117.167 214.476 116.535C214.639 115.222 215.199 113.989 216.081 113.002C216.963 112.015 218.125 111.321 219.412 111.012C219.794 110.916 220.185 110.863 220.579 110.853L221.021 110.529Z" fill="#263238"/>
<path d="M226.918 130.896L227.871 128.776C229.055 129.592 230.457 130.035 231.896 130.047C233.567 130.047 234.243 129.487 234.243 128.742C234.243 126.463 227.16 128.051 227.16 123.501C227.16 121.43 228.83 119.711 232.296 119.711C233.776 119.681 235.237 120.054 236.522 120.788L235.652 122.928C234.628 122.323 233.465 121.993 232.276 121.969C230.605 121.969 229.963 122.597 229.963 123.35C229.963 125.593 237.046 124.04 237.046 128.521C237.046 130.558 235.355 132.297 231.875 132.297C230.119 132.344 228.39 131.855 226.918 130.896Z" fill="#12733C"/>
<path d="M247.07 126.761V132.098H244.53V130.938C244.026 131.787 243.052 132.243 241.671 132.243C239.483 132.243 238.178 131.021 238.178 129.405C238.178 127.789 239.345 126.602 242.196 126.602H244.357C244.357 125.435 243.667 124.759 242.196 124.759C241.226 124.752 240.28 125.056 239.496 125.628L238.523 123.73C239.727 122.96 241.133 122.565 242.562 122.598C245.413 122.598 247.07 123.923 247.07 126.761ZM244.357 129.17V128.211H242.493C241.222 128.211 240.822 128.68 240.822 129.308C240.822 129.937 241.395 130.441 242.355 130.441C242.78 130.469 243.203 130.361 243.563 130.132C243.923 129.904 244.201 129.567 244.357 129.17Z" fill="#12733C"/>
<path d="M249.515 119.187H252.228V132.097H249.515V119.187Z" fill="#12733C"/>
<path d="M264.192 122.735V132.097H261.617V130.986C261.253 131.394 260.804 131.717 260.302 131.934C259.8 132.151 259.257 132.256 258.71 132.242C256.363 132.242 254.706 130.917 254.706 128.031V122.735H257.426V127.63C257.426 129.191 258.117 129.888 259.318 129.888C260.519 129.888 261.479 129.087 261.479 127.368V122.735H264.192Z" fill="#12733C"/>
<path d="M272.754 131.648C272.095 132.064 271.324 132.271 270.545 132.242C268.336 132.242 267.051 131.11 267.051 128.88V125.027H265.602V122.956H267.051V120.671H269.765V122.956H272.098V125.027H269.765V128.838C269.743 129 269.757 129.164 269.807 129.32C269.856 129.475 269.94 129.617 270.052 129.736C270.164 129.854 270.301 129.946 270.453 130.005C270.606 130.063 270.769 130.087 270.932 130.074C271.325 130.077 271.709 129.956 272.029 129.729L272.754 131.648Z" fill="#12733C"/>
<path d="M183.035 12.4898H142.784C140.052 12.4898 137.432 13.5751 135.5 15.5069C133.569 17.4387 132.483 20.0588 132.483 22.7908V40.9832C132.483 42.3356 132.75 43.6747 133.268 44.9241C133.785 46.1735 134.544 47.3086 135.501 48.2646C136.458 49.2206 137.593 49.9787 138.843 50.4956C140.093 51.0125 141.432 51.2781 142.784 51.2772H168.737C168.737 56.5382 165.023 60.7842 165.023 60.7842C173.68 59.4034 177.126 54.3634 178.451 51.2772H183.07C184.422 51.2781 185.762 51.0125 187.011 50.4956C188.261 49.9787 189.397 49.2206 190.353 48.2646C191.31 47.3086 192.069 46.1735 192.587 44.9241C193.104 43.6747 193.371 42.3356 193.371 40.9832V22.7563C193.366 21.4035 193.096 20.0649 192.574 18.8169C192.052 17.5688 191.289 16.4358 190.329 15.4825C189.37 14.5291 188.232 13.7742 186.98 13.2607C185.729 12.7472 184.388 12.4853 183.035 12.4898Z" fill="#FAFAFA"/>
<path d="M183.035 12.4895C183.123 12.485 183.21 12.485 183.298 12.4895H184.064C185.058 12.5829 186.034 12.8153 186.964 13.18C188.728 13.8957 190.26 15.0837 191.393 16.6135C192.525 18.1433 193.215 19.9556 193.385 21.8515C193.385 22.1553 193.419 22.466 193.433 22.7767V23.7226C193.433 24.3577 193.433 25.0136 193.433 25.6833C193.433 27.0158 193.433 28.445 193.433 29.8742C193.433 32.7808 193.433 35.9291 193.433 39.2845C193.433 40.1199 193.433 40.9691 193.392 41.8459C193.351 42.2863 193.286 42.7242 193.198 43.1577C193.105 43.5941 192.98 44.0232 192.825 44.4419C192.19 46.2458 191.07 47.8396 189.587 49.0479C188.105 50.2563 186.318 51.0323 184.423 51.2908C183.428 51.3999 182.427 51.4369 181.427 51.4012H178.403L178.548 51.3046C177.42 53.9072 175.583 56.1396 173.245 57.7461C172.031 58.5789 170.722 59.2627 169.344 59.7829C167.933 60.2877 166.48 60.6666 165.002 60.9151L164.546 60.998L164.843 60.6321C165.896 59.3233 166.761 57.8731 167.411 56.3239C168.099 54.7135 168.472 52.9862 168.509 51.2355L168.689 51.415H142.784C142.363 51.415 141.928 51.4151 141.507 51.3322C139.82 51.1253 138.209 50.5116 136.812 49.544C135.445 48.581 134.321 47.3143 133.526 45.8434C132.766 44.3853 132.352 42.7717 132.318 41.1279C132.318 39.5399 132.318 37.9589 132.318 36.3917C132.318 33.271 132.318 30.2171 132.318 27.2299V22.8457C132.309 21.3839 132.61 19.9368 133.201 18.5997C133.765 17.3245 134.577 16.174 135.589 15.2152C136.601 14.2563 137.794 13.5082 139.097 13.0143C140.339 12.5518 141.653 12.3179 142.978 12.3238H146.747H153.824L175.227 12.3791H181.04H182.545C182.89 12.3791 183.063 12.3791 183.063 12.3791L182.545 12.4895H181.04H175.227L153.824 12.5448H146.747H142.978C141.687 12.541 140.407 12.7751 139.201 13.2352C137.939 13.7242 136.788 14.4596 135.813 15.3984C134.839 16.3372 134.061 17.4607 133.526 18.7033C132.297 21.2647 132.78 24.2749 132.683 27.2368C132.587 30.1986 132.683 33.2779 132.683 36.3986C132.683 37.9658 132.683 39.5399 132.683 41.1348C132.716 42.7211 133.115 44.2784 133.85 45.6846C134.618 47.1065 135.705 48.3307 137.026 49.261C138.378 50.191 139.934 50.783 141.562 50.987C141.97 51.0422 142.391 51.0353 142.798 51.0698H168.896V51.2494C168.858 53.0429 168.476 54.8126 167.77 56.462C167.104 58.0462 166.219 59.529 165.14 60.8668L164.981 60.5837C166.437 60.3356 167.869 59.9638 169.262 59.4722C170.613 58.9646 171.897 58.2945 173.086 57.4769C175.378 55.9074 177.181 53.7256 178.292 51.1803L178.334 51.0837H181.482C182.468 51.1122 183.455 51.0776 184.437 50.9801C186.278 50.7316 188.016 49.9811 189.459 48.8108C190.902 47.6405 191.995 46.0955 192.618 44.3452C192.767 43.9348 192.89 43.515 192.984 43.0887C193.06 42.6675 193.136 42.2395 193.177 41.8183C193.24 40.9691 193.219 40.113 193.226 39.2776C193.226 35.9222 193.226 32.7739 193.226 29.8672C193.226 28.4105 193.226 27.0089 193.226 25.6764V23.7226C193.226 23.405 193.226 23.0874 193.226 22.7767L193.184 21.8654C193.022 19.9973 192.351 18.2095 191.245 16.6955C190.138 15.1815 188.639 13.9992 186.909 13.2766C185.674 12.7892 184.363 12.5228 183.035 12.4895Z" fill="#263238"/>
<path d="M156.067 26.0493V36.6057H154.562V31.8971H148.5V36.6057H146.995V26.0493H148.5V30.5853H154.562V26.0493H156.067Z" fill="#12733C"/>
<path d="M158.284 32.6081C158.273 31.7865 158.507 30.9803 158.955 30.2918C159.403 29.6034 160.047 29.0638 160.802 28.7418C161.558 28.4198 162.393 28.3298 163.2 28.4834C164.007 28.6369 164.751 29.027 165.335 29.6041C165.92 30.1812 166.32 30.9192 166.485 31.7242C166.649 32.5292 166.57 33.365 166.258 34.1251C165.947 34.8853 165.416 35.5355 164.733 35.9932C164.051 36.4509 163.248 36.6953 162.426 36.6954C161.881 36.7183 161.337 36.6288 160.827 36.4322C160.318 36.2357 159.855 35.9363 159.466 35.5529C159.077 35.1695 158.772 34.7102 158.568 34.2035C158.365 33.6969 158.268 33.1538 158.284 32.6081ZM165.126 32.6081C165.102 32.0812 164.923 31.5731 164.612 31.1468C164.302 30.7206 163.873 30.3949 163.379 30.2102C162.885 30.0255 162.347 29.99 161.833 30.1081C161.319 30.2262 160.851 30.4926 160.487 30.8743C160.123 31.2561 159.88 31.7363 159.786 32.2554C159.693 32.7745 159.754 33.3096 159.962 33.7942C160.17 34.2789 160.515 34.6918 160.956 34.9818C161.397 35.2717 161.913 35.4258 162.44 35.425C162.807 35.4347 163.171 35.3674 163.51 35.2275C163.849 35.0876 164.155 34.8782 164.408 34.6128C164.661 34.3473 164.856 34.0318 164.98 33.6865C165.103 33.3412 165.153 32.9738 165.126 32.6081Z" fill="#12733C"/>
<path d="M168.591 25.4209H170.041V36.6056H168.591V25.4209Z" fill="#12733C"/>
<path d="M179.127 31.7793V36.6122H177.746V35.5489C177.442 35.9461 177.041 36.2596 176.582 36.46C176.124 36.6604 175.621 36.7413 175.123 36.695C173.314 36.695 172.168 35.7284 172.168 34.3407C172.168 33.0634 173.003 32.0071 175.385 32.0071H177.712V31.7171C177.712 30.4951 177.022 29.7909 175.572 29.7909C174.657 29.7818 173.766 30.0836 173.045 30.647L172.437 29.563C173.392 28.863 174.554 28.5011 175.737 28.5343C177.892 28.5343 179.127 29.5907 179.127 31.7793ZM177.712 34.1612V33.0427H175.482C174.053 33.0427 173.645 33.602 173.645 34.2786C173.645 35.0794 174.336 35.5765 175.406 35.5765C175.89 35.6126 176.374 35.4953 176.788 35.2412C177.201 34.9872 177.525 34.6093 177.712 34.1612Z" fill="#12733C"/>
<path d="M42.1772 172.404H79.0522C80.6892 172.404 82.2591 173.054 83.4166 174.211C84.5742 175.369 85.2245 176.939 85.2245 178.576V194.117C85.2245 194.927 85.0648 195.73 84.7545 196.478C84.4442 197.227 83.9895 197.907 83.4162 198.479C82.843 199.052 82.1625 199.506 81.4137 199.815C80.6649 200.125 79.8624 200.283 79.0522 200.282H53.0857C51.4978 202.92 48.3011 206.13 41.9562 207.187C43.5882 205.192 44.688 202.817 45.1529 200.282H42.1772C41.3669 200.283 40.5645 200.125 39.8157 199.815C39.0669 199.506 38.3864 199.052 37.8131 198.479C37.2399 197.907 36.7851 197.227 36.4749 196.478C36.1646 195.73 36.0049 194.927 36.0049 194.117V178.576C36.0049 176.939 36.6552 175.369 37.8127 174.211C38.9702 173.054 40.5402 172.404 42.1772 172.404Z" fill="#FAFAFA"/>
<path d="M42.1772 172.403C41.2745 172.45 40.3888 172.668 39.5675 173.046C38.5933 173.513 37.758 174.227 37.1441 175.117C36.764 175.686 36.4794 176.313 36.3018 176.974C36.1175 177.728 36.0477 178.505 36.0947 179.28C36.0947 182.594 36.0947 186.619 36.1292 191.231V192.992C36.1292 193.585 36.1292 194.193 36.1775 194.787C36.327 196.057 36.8753 197.247 37.7436 198.186C38.612 199.125 39.7557 199.765 41.0104 200.013C41.6819 200.115 42.3615 200.155 43.0402 200.13H45.3324V200.31C44.8795 202.864 43.7762 205.259 42.1289 207.262L41.977 206.993C44.1349 206.676 46.2185 205.975 48.1286 204.922C50.1123 203.79 51.7754 202.172 52.9615 200.22L53.0098 200.137H78.5068C79.153 200.165 79.8001 200.112 80.433 199.979C81.6707 199.694 82.7855 199.022 83.6159 198.062C84.4464 197.101 84.9493 195.901 85.0519 194.635C85.1071 189.56 85.0519 184.61 85.0864 179.929C85.1842 178.79 85.0599 177.644 84.7205 176.553C84.3491 175.531 83.7072 174.629 82.8634 173.943C82.0195 173.257 81.0054 172.813 79.929 172.659C79.4041 172.601 78.8759 172.578 78.348 172.59H76.7669H65.168L48.3633 172.535L43.7721 172.445H42.5846C42.3153 172.445 42.1841 172.445 42.1841 172.445H42.5846H43.7721L48.3426 172.41L65.1473 172.355H76.7462H78.2928C78.8344 172.335 79.3767 172.356 79.9152 172.417C81.0487 172.577 82.1174 173.042 83.0074 173.762C83.8974 174.482 84.5754 175.43 84.969 176.504C85.1794 177.058 85.3051 177.64 85.3419 178.231C85.3833 178.831 85.3419 179.397 85.3419 179.991C85.3419 184.686 85.3764 189.588 85.3419 194.725C85.2323 196.065 84.6999 197.336 83.8214 198.355C82.9429 199.374 81.7637 200.087 80.4538 200.393C79.7933 200.53 79.1186 200.585 78.4446 200.558H53.0858L53.2307 200.469C52.0115 202.481 50.2948 204.145 48.246 205.302C46.302 206.378 44.1813 207.098 41.9839 207.428L41.5628 207.497L41.832 207.159C43.4576 205.177 44.5422 202.808 44.9803 200.282L45.1322 200.462H43.0195C42.3267 200.492 41.6326 200.45 40.9483 200.338C39.6108 200.058 38.3997 199.354 37.4962 198.328C36.6345 197.366 36.0939 196.16 35.9497 194.876C35.9053 194.268 35.8915 193.657 35.9083 193.047C35.9083 192.453 35.9083 191.866 35.9083 191.286C35.9083 186.674 35.9083 182.649 35.9428 179.335C35.9022 178.545 35.9814 177.754 36.1775 176.988C36.3662 176.313 36.6648 175.674 37.0613 175.096C37.6942 174.197 38.5543 173.483 39.5537 173.025C40.1721 172.744 40.8319 172.564 41.5075 172.493C41.9356 172.397 42.1772 172.403 42.1772 172.403Z" fill="#263238"/>
<path d="M53.4722 182.552V190.617H51.615V187.323H47.9627V190.617H46.1055V182.552H47.9627V185.715H51.615V182.552H53.4722Z" fill="#12733C"/>
<path d="M61.2604 188H56.5932C56.6864 188.385 56.9162 188.723 57.24 188.952C57.5638 189.181 57.9596 189.284 58.3538 189.243C58.6399 189.253 58.9251 189.205 59.1922 189.102C59.4592 188.999 59.7025 188.842 59.9072 188.642L60.86 189.678C60.5341 190.02 60.137 190.286 59.6968 190.458C59.2565 190.63 58.7839 190.703 58.3124 190.672C56.179 190.672 54.7912 189.332 54.7912 187.496C54.786 187.067 54.8686 186.642 55.0337 186.247C55.1989 185.851 55.4433 185.494 55.7518 185.196C56.0602 184.899 56.4263 184.668 56.8275 184.517C57.2287 184.366 57.6565 184.299 58.0845 184.32C58.5109 184.297 58.9373 184.364 59.3362 184.517C59.7351 184.669 60.0976 184.904 60.4001 185.205C60.7027 185.506 60.9387 185.868 61.0929 186.266C61.247 186.664 61.3158 187.09 61.2949 187.517C61.2949 187.655 61.2742 187.855 61.2604 188ZM56.5656 186.957H59.6103C59.5464 186.6 59.3589 186.277 59.0806 186.044C58.8023 185.811 58.4509 185.683 58.088 185.683C57.725 185.683 57.3737 185.811 57.0954 186.044C56.817 186.277 56.6295 186.6 56.5656 186.957Z" fill="#12733C"/>
<path d="M62.4824 182.069H64.2775V190.617H62.4824V182.069Z" fill="#12733C"/>
<path d="M65.9336 182.069H67.7287V190.617H65.9336V182.069Z" fill="#12733C"/>
<path d="M68.931 187.496C68.8867 186.816 69.0477 186.139 69.393 185.552C69.7383 184.965 70.2521 184.496 70.8675 184.204C71.483 183.913 72.1719 183.814 72.8447 183.919C73.5174 184.024 74.1431 184.328 74.6405 184.794C75.1379 185.259 75.4841 185.862 75.6341 186.527C75.7841 187.191 75.7309 187.885 75.4816 188.518C75.2323 189.152 74.7983 189.696 74.236 190.08C73.6736 190.464 73.0088 190.67 72.3279 190.672C71.8926 190.702 71.4557 190.642 71.0445 190.496C70.6333 190.35 70.2566 190.121 69.9379 189.823C69.6192 189.525 69.3653 189.165 69.1921 188.764C69.0188 188.364 68.93 187.932 68.931 187.496ZM73.902 187.496C73.8765 187.19 73.7624 186.898 73.5736 186.655C73.3848 186.413 73.1296 186.231 72.839 186.131C72.5484 186.032 72.2351 186.019 71.9374 186.094C71.6396 186.17 71.3704 186.331 71.1625 186.557C70.9546 186.783 70.8171 187.065 70.7667 187.368C70.7164 187.671 70.7554 187.982 70.879 188.263C71.0026 188.544 71.2055 188.783 71.4628 188.951C71.7201 189.119 72.0207 189.208 72.3279 189.208C72.5473 189.211 72.765 189.168 72.9666 189.081C73.1682 188.994 73.3492 188.865 73.4978 188.704C73.6463 188.542 73.7591 188.351 73.8288 188.143C73.8984 187.935 73.9234 187.714 73.902 187.496Z" fill="#12733C"/>
<path d="M94.7664 52.8374H33.6096C30.4565 52.8374 27.4325 54.09 25.2029 56.3196C22.9733 58.5492 21.7207 61.5732 21.7207 64.7263V84.196C21.7207 87.3498 22.9731 90.3745 25.2025 92.6052C27.4319 94.8359 30.4558 96.09 33.6096 96.0918H84.9488C86.0465 99.3506 89.6781 106.448 100.925 108.271C100.925 108.271 95.9816 102.602 96.7065 95.9192C99.4868 95.4593 102.013 94.0268 103.836 91.8771C105.658 89.7274 106.657 87.0003 106.655 84.1822V64.7125C106.652 61.5618 105.397 58.5413 103.168 56.3147C100.939 54.0881 97.9172 52.8374 94.7664 52.8374Z" fill="#FAFAFA"/>
<path d="M94.7654 52.8376C94.7654 52.8376 95.1037 52.8376 95.7596 52.8376C96.7258 52.9041 97.6795 53.0943 98.5972 53.4038C100.094 53.8962 101.475 54.6878 102.657 55.7305L103.182 56.2069C103.354 56.3795 103.513 56.5659 103.686 56.7523C104.031 57.1362 104.353 57.5396 104.652 57.9605C105.286 58.9047 105.792 59.9285 106.157 61.0052C106.534 62.2176 106.734 63.4779 106.751 64.7473C106.751 66.0729 106.751 67.4537 106.751 68.8897C106.751 71.7803 106.751 74.9056 106.751 78.2656C106.751 79.9433 106.751 81.6693 106.751 83.4575C106.768 84.3697 106.711 85.2818 106.578 86.1846C106.078 89.0733 104.544 91.6815 102.263 93.5237C101.466 94.1559 100.597 94.6912 99.6743 95.1185C98.7195 95.539 97.7183 95.8449 96.6917 96.0299L96.8159 95.8987C96.4017 100.096 98.1346 104.563 101.007 108.133L101.269 108.464L100.862 108.395C97.4307 107.891 94.1549 106.629 91.2719 104.701C89.7893 103.665 88.4718 102.41 87.3642 100.98C86.238 99.5062 85.3568 97.8603 84.7544 96.1058L84.9132 96.2232H44.9659H35.0447C33.9444 96.2563 32.8433 96.2032 31.7514 96.0644C29.5704 95.7447 27.5189 94.8325 25.8207 93.427C24.9991 92.7219 24.2685 91.9171 23.6459 91.0313C23.0402 90.1443 22.555 89.1808 22.203 88.1661C22.0267 87.6646 21.8814 87.1527 21.768 86.6334C21.6708 86.1107 21.6039 85.5828 21.5678 85.0523C21.4849 83.9891 21.5678 82.9811 21.5264 81.9248V69.7942C21.5264 68.8 21.5264 67.8127 21.5264 66.8392C21.5264 65.8657 21.5264 64.8923 21.5678 63.905C21.6895 61.9618 22.2947 60.0799 23.3283 58.43C24.308 56.8128 25.6656 55.4577 27.2844 54.4808C28.8475 53.5156 30.6126 52.9249 32.4418 52.7548C33.3462 52.6927 34.23 52.6926 35.1068 52.6996H37.7097H56.8479L84.5749 52.7548H92.1073L84.5749 52.7893L56.8479 52.8445H37.7097H35.1344C34.2576 52.8445 33.3739 52.8445 32.5039 52.9067C30.7204 53.075 29.0001 53.654 27.4777 54.5982C26.7015 55.0753 25.9812 55.6381 25.3305 56.2759C24.6833 56.9354 24.1114 57.6649 23.6252 58.4507C22.626 60.0566 22.0423 61.8859 21.9268 63.7738C21.8578 64.7197 21.9268 65.7069 21.8854 66.6873V69.7942C21.8854 71.7757 21.8854 73.7779 21.8854 75.8008V81.9386C21.8854 84.0098 21.7818 86.081 22.5758 88.0625C22.9136 89.0394 23.3778 89.9678 23.9566 90.8242C24.5582 91.6871 25.2683 92.469 26.0693 93.1509C27.7034 94.5282 29.6867 95.4266 31.7997 95.7468C32.8727 95.8903 33.9559 95.9435 35.0378 95.9056H85.0651L85.1065 96.023C85.6964 97.7387 86.5565 99.3492 87.6542 100.794C88.7418 102.198 90.0333 103.431 91.486 104.453C94.3259 106.358 97.5548 107.605 100.938 108.105L100.793 108.361C99.3379 106.571 98.1985 104.547 97.4235 102.375C96.6504 100.304 96.3531 98.0861 96.5536 95.8849V95.7813H96.6641C97.6674 95.6056 98.6457 95.3089 99.5776 94.8976C100.481 94.4827 101.332 93.9612 102.111 93.3442C103.613 92.1401 104.798 90.5878 105.563 88.822C105.926 87.9758 106.19 87.0909 106.351 86.1846C106.483 85.2958 106.541 84.3974 106.523 83.4989C106.523 81.7107 106.523 79.9847 106.523 78.307C106.523 74.9516 106.523 71.8263 106.523 68.9312C106.523 67.4905 106.523 66.1097 106.523 64.7887C106.512 63.5385 106.319 62.2965 105.95 61.1019C105.614 60.0281 105.136 59.0041 104.528 58.0572C104.236 57.6385 103.921 57.2373 103.582 56.8558C103.416 56.6763 103.257 56.4899 103.092 56.3173L102.574 55.8409C101.41 54.7994 100.048 54.0034 98.5696 53.5004C97.6578 53.1878 96.7123 52.9838 95.7527 52.8929L94.7654 52.8376Z" fill="#263238"/>
<path d="M39.8711 78.9283L41.0103 76.3876C42.2127 77.1522 43.6037 77.5681 45.0285 77.5889C46.4576 77.5889 47.01 77.1885 47.01 76.5947C47.01 74.6616 40.1058 76.0769 40.1058 71.5478C40.1058 69.373 41.8802 67.5986 45.498 67.5986C47.0393 67.5733 48.5619 67.9391 49.9235 68.6619L48.8603 71.2164C47.8298 70.6291 46.6699 70.3065 45.4842 70.2774C44.0412 70.2774 43.5165 70.7676 43.5165 71.3752C43.5165 73.2393 50.4206 71.8447 50.4206 76.3324C50.4206 78.4588 48.6462 80.2677 45.0216 80.2677C43.2126 80.3172 41.4267 79.8528 39.8711 78.9283Z" fill="#263238"/>
<path d="M60.6667 74.7858V80.0261H57.5805V78.804C57.1111 79.7085 56.1997 80.1848 54.8189 80.1848C52.5612 80.1848 51.3047 78.9145 51.3047 77.2782C51.3047 75.5384 52.575 74.4613 55.5024 74.4613H57.3803C57.3251 73.5016 56.6899 72.9631 55.3781 72.9631C54.4617 72.9632 53.5683 73.2506 52.8236 73.7847L51.7051 71.5409C52.9584 70.8002 54.392 70.4203 55.8476 70.4431C58.9061 70.4362 60.6667 71.7894 60.6667 74.7858ZM57.3596 76.9951V76.1804H55.9305C54.8741 76.1804 54.4875 76.5602 54.4875 77.1332C54.4875 77.7063 54.9432 78.0929 55.7233 78.0929C56.0785 78.1137 56.4307 78.0176 56.7262 77.8194C57.0217 77.6212 57.2441 77.3317 57.3596 76.9951Z" fill="#263238"/>
<path d="M62.751 67.1082H66.0581V80.0258H62.751V67.1082Z" fill="#263238"/>
<path d="M78.1398 70.5884L74.239 80.0263H70.8284L66.9482 70.5884H70.3382L72.6027 76.3533L74.9847 70.5884H78.1398Z" fill="#263238"/>
<path d="M88.3163 76.1458H81.4605C81.6122 76.6261 81.9254 77.039 82.347 77.3146C82.7686 77.5902 83.2726 77.7115 83.7734 77.6578C84.1732 77.6716 84.5719 77.6062 84.9464 77.4652C85.3208 77.3241 85.6636 77.1104 85.9551 76.8362L87.6949 78.652C87.1751 79.1835 86.5458 79.5953 85.8506 79.8588C85.1555 80.1224 84.4113 80.2312 83.6698 80.1778C80.3144 80.1778 78.1465 78.1066 78.1465 75.2897C78.1465 72.4728 80.3558 70.4568 83.3315 70.4568C86.0931 70.4568 88.3784 72.2311 88.3784 75.3449C88.3715 75.5658 88.337 75.8834 88.3163 76.1458ZM81.4121 74.4059H85.2716C85.19 73.9535 84.9521 73.5441 84.5994 73.2492C84.2467 72.9544 83.8016 72.7928 83.3419 72.7928C82.8821 72.7928 82.437 72.9544 82.0843 73.2492C81.7316 73.5441 81.4937 73.9535 81.4121 74.4059Z" fill="#263238"/>
<path d="M194.198 152.16C193.234 152.275 192.257 152.126 191.371 151.73C190.485 151.334 189.722 150.705 189.165 149.91C190.463 150.11 191.865 150.296 193.031 149.696C194.198 149.095 194.868 147.376 193.95 146.437C193.259 145.705 192.051 145.829 191.029 145.746C189.832 145.639 188.691 145.192 187.74 144.458C186.788 143.724 186.066 142.734 185.658 141.604C184.795 139.118 185.589 136.405 185.899 133.788C186.292 129.983 185.663 126.143 184.079 122.661C182.494 119.18 180.01 116.183 176.883 113.98L160.506 104.515C154.562 112.109 152.711 122.369 153.94 131.938C155.169 141.507 159.236 150.503 164.117 158.864C165.455 161.341 167.118 163.627 169.06 165.665C171.018 167.718 173.611 169.051 176.42 169.448C176.779 168.291 176.856 167.066 176.644 165.873C176.433 164.68 175.94 163.556 175.205 162.592C177.427 162.71 179.65 162.379 181.741 161.618C183.833 160.858 185.749 159.684 187.377 158.167L183.863 155.474C185.723 155.712 187.613 155.538 189.399 154.966C191.185 154.393 192.823 153.435 194.198 152.16Z" fill="#263238"/>
<path d="M131.107 125.441C131.397 118.592 135.657 112.862 142.244 110.977L162.784 105.108C171.697 103.886 177.973 114.719 178.822 123.674C179.761 133.629 180.458 144.138 179.512 151.615C177.6 166.645 166.194 168.875 166.194 168.875C166.194 168.875 166.574 182.421 166.691 186.791L156.238 208.664L135.996 180.723L131.059 125.621C131.045 125.365 131.094 125.779 131.107 125.441Z" fill="#FFBF9D"/>
<path d="M172.679 136.764C172.698 137.265 172.521 137.753 172.186 138.126C171.851 138.499 171.383 138.726 170.884 138.76C170.64 138.786 170.394 138.764 170.159 138.694C169.924 138.624 169.706 138.508 169.517 138.352C169.327 138.196 169.171 138.004 169.057 137.787C168.944 137.57 168.874 137.333 168.854 137.089C168.836 136.59 169.013 136.103 169.346 135.731C169.679 135.359 170.144 135.131 170.642 135.093C170.886 135.067 171.133 135.089 171.368 135.159C171.603 135.229 171.822 135.345 172.011 135.501C172.201 135.656 172.358 135.848 172.472 136.065C172.587 136.282 172.657 136.52 172.679 136.764Z" fill="#263238"/>
<path d="M176.746 129.598C176.518 129.86 175.034 128.825 172.969 128.907C170.905 128.99 169.42 130.06 169.193 129.812C169.075 129.701 169.303 129.246 169.952 128.742C170.826 128.097 171.877 127.738 172.962 127.713C174.035 127.674 175.092 127.979 175.979 128.583C176.635 129.039 176.863 129.487 176.746 129.598Z" fill="#263238"/>
<path d="M154.465 136.764C154.484 137.265 154.307 137.753 153.972 138.126C153.637 138.499 153.17 138.726 152.67 138.76C152.426 138.786 152.18 138.764 151.945 138.694C151.71 138.624 151.492 138.508 151.303 138.352C151.114 138.196 150.958 138.004 150.844 137.787C150.73 137.57 150.661 137.333 150.64 137.089C150.621 136.589 150.797 136.102 151.13 135.729C151.464 135.357 151.93 135.129 152.428 135.093C152.672 135.067 152.919 135.089 153.154 135.159C153.389 135.229 153.608 135.345 153.798 135.501C153.988 135.656 154.144 135.848 154.259 136.065C154.373 136.282 154.443 136.52 154.465 136.764Z" fill="#263238"/>
<path d="M157.138 130.157C156.91 130.419 155.418 129.39 153.361 129.466C151.304 129.542 149.812 130.619 149.577 130.371C149.467 130.26 149.695 129.805 150.344 129.301C151.217 128.655 152.268 128.295 153.354 128.272C154.427 128.235 155.483 128.539 156.371 129.142C156.999 129.597 157.255 130.046 157.138 130.157Z" fill="#263238"/>
<path d="M164.054 146.188C164.054 146.078 165.318 145.816 167.389 145.498C167.914 145.429 168.411 145.305 168.487 144.946C168.517 144.4 168.38 143.858 168.093 143.392L166.409 139.429C164.068 133.775 162.356 129.128 162.584 129.032C162.812 128.935 164.897 133.443 167.237 139.091C167.796 140.472 168.342 141.853 168.853 143.088C169.207 143.717 169.327 144.451 169.191 145.16C169.12 145.348 169.007 145.518 168.861 145.656C168.715 145.795 168.54 145.899 168.349 145.96C168.059 146.045 167.76 146.096 167.458 146.112C165.366 146.257 164.068 146.306 164.054 146.188Z" fill="#263238"/>
<path d="M146.193 164.146C146.193 164.146 151.351 174.282 166.284 172.431L166.188 168.91C159.211 169.203 152.289 167.554 146.193 164.146Z" fill="#FF9A6C"/>
<path d="M156.309 123.501C156.122 124.067 154.051 123.867 151.634 124.233C149.218 124.599 147.285 125.317 146.947 124.827C146.795 124.592 147.119 124.054 147.892 123.446C148.927 122.749 150.107 122.296 151.342 122.121C152.578 121.946 153.837 122.055 155.024 122.438C155.894 122.804 156.357 123.232 156.309 123.501Z" fill="#263238"/>
<path d="M175.896 123.301C175.544 123.784 174.108 123.342 172.395 123.37C170.683 123.397 169.247 123.784 168.902 123.301C168.743 123.066 168.957 122.61 169.592 122.127C170.419 121.556 171.404 121.256 172.409 121.271C173.414 121.261 174.397 121.56 175.226 122.127C175.834 122.597 176.048 123.073 175.896 123.301Z" fill="#263238"/>
<path d="M156.309 150.22C156.442 149.604 156.787 149.054 157.284 148.666C157.781 148.279 158.399 148.078 159.029 148.101C159.492 148.141 159.937 148.298 160.323 148.556C160.71 148.814 161.024 149.166 161.239 149.578C161.451 149.99 161.578 150.441 161.613 150.904C161.647 151.367 161.588 151.831 161.439 152.271L161.404 152.464C160.985 152.942 160.428 153.279 159.81 153.427C159.192 153.576 158.543 153.529 157.952 153.292C157.378 153.033 156.906 152.591 156.608 152.036C156.311 151.48 156.206 150.842 156.309 150.22Z" fill="#FF9A6C"/>
<path d="M162.908 152.464C162.908 152.146 160.837 152.305 159.194 150.641C157.551 148.977 157.634 146.734 157.337 146.74C157.206 146.74 156.971 147.265 157.019 148.211C157.099 149.432 157.608 150.586 158.455 151.47C159.268 152.317 160.381 152.813 161.555 152.851C162.432 152.878 162.929 152.602 162.908 152.464Z" fill="#263238"/>
<path d="M138.013 101.608C140.326 97.9353 145.78 94.1035 150.054 93.3233C154.928 92.4741 157.862 93.3233 161.066 96.2299C161.066 96.2299 163.558 98.6326 165.899 99.0883C168.239 99.5439 170.186 99.1573 172.975 100.586C176.779 102.533 178.45 107.622 180.211 111.516C182.406 116.349 185.527 120.809 186.956 125.925C188.385 131.041 187.647 137.33 183.318 140.423C184.056 136.502 184.698 132.187 183.055 128.638C183.266 130.056 183.176 131.503 182.793 132.884C181.985 130.585 181.136 128.21 179.465 126.429C177.891 124.751 175.709 123.75 174.08 122.12C171.698 119.725 170.628 116.072 167.694 114.339C164.676 112.531 160.865 113.428 157.337 113.449C154.376 113.439 151.455 112.767 148.787 111.482C146.119 110.196 143.773 108.33 141.92 106.02L142.79 105.944C141.016 104.713 139.409 103.256 138.013 101.608Z" fill="#263238"/>
<path d="M116.01 138.207C117.391 133.802 119.711 129.777 121.188 125.421C122.624 121.174 123.218 116.638 125.124 112.586C127.692 107.131 132.49 100.069 139.961 100.455L140.471 100.904C143.018 100.598 145.601 100.905 148.004 101.801L148.121 107.629L149.55 108.892C148.95 110.045 148.384 111.163 147.831 112.261C147.405 114.453 146.776 116.6 145.953 118.675C145.132 120.713 143.914 122.567 142.37 124.129C129.494 154.956 141.169 156.903 135.369 174.571L131.724 164.456C128.594 162.647 126.081 159.938 124.509 156.682C124.295 157.746 124.074 158.816 123.86 159.886C120.907 156.755 119.131 152.698 118.834 148.404L117.163 151.477C114.484 147.721 114.671 142.605 116.01 138.207Z" fill="#263238"/>
<path d="M137.978 137.082C137.778 136.578 128.471 133.519 128.63 143.296C128.782 152.81 138.296 150.669 138.337 150.393C138.379 150.117 137.978 137.082 137.978 137.082Z" fill="#FFBF9D"/>
<path d="M135.334 146.858C135.293 146.858 135.168 146.976 134.892 147.114C134.502 147.288 134.059 147.305 133.656 147.162C132.641 146.81 131.765 145.229 131.689 143.517C131.649 142.702 131.791 141.889 132.103 141.135C132.186 140.836 132.341 140.561 132.554 140.335C132.767 140.109 133.031 139.938 133.325 139.837C133.514 139.782 133.717 139.796 133.897 139.876C134.078 139.955 134.225 140.095 134.312 140.272C134.443 140.541 134.388 140.728 134.436 140.748C134.485 140.769 134.644 140.583 134.554 140.189C134.496 139.957 134.362 139.75 134.174 139.602C133.906 139.411 133.575 139.33 133.249 139.374C132.859 139.46 132.498 139.644 132.2 139.909C131.901 140.173 131.676 140.51 131.544 140.886C131.157 141.719 130.979 142.634 131.026 143.551C131.123 145.464 132.137 147.238 133.518 147.611C133.775 147.681 134.045 147.692 134.307 147.643C134.568 147.594 134.816 147.486 135.03 147.328C135.32 147.121 135.369 146.872 135.334 146.858Z" fill="#FF9A6C"/>
<path d="M134.298 148.57C133.825 148.494 133.34 148.601 132.943 148.87C132.545 149.138 132.265 149.548 132.16 150.016C132.054 150.484 132.131 150.974 132.374 151.387C132.617 151.801 133.009 152.106 133.469 152.24C133.93 152.375 134.424 152.329 134.852 152.112C135.279 151.895 135.608 151.523 135.771 151.071C135.934 150.62 135.919 150.124 135.728 149.684C135.538 149.244 135.187 148.892 134.747 148.702" fill="white"/>
<path d="M134.747 148.702C135.165 149.017 135.476 149.453 135.638 149.951C135.713 150.209 135.723 150.482 135.666 150.745C135.61 151.008 135.488 151.252 135.313 151.457C135.108 151.714 134.831 151.905 134.518 152.005C134.204 152.105 133.868 152.11 133.552 152.019C133.236 151.928 132.953 151.746 132.741 151.494C132.528 151.243 132.395 150.934 132.358 150.607C132.319 150.342 132.346 150.071 132.436 149.818C132.526 149.565 132.677 149.338 132.876 149.157C133.279 148.821 133.775 148.616 134.298 148.571C134.298 148.571 134.153 148.474 133.849 148.481C133.419 148.496 133.006 148.654 132.676 148.93C132.421 149.134 132.223 149.401 132.102 149.705C131.981 150.009 131.941 150.339 131.985 150.663C132.038 151.063 132.206 151.439 132.469 151.745C132.732 152.051 133.079 152.274 133.467 152.385C133.855 152.497 134.267 152.493 134.653 152.373C135.039 152.253 135.381 152.024 135.638 151.712C135.847 151.458 135.986 151.153 136.042 150.829C136.098 150.504 136.068 150.171 135.955 149.862C135.822 149.452 135.554 149.099 135.196 148.861C134.906 148.695 134.754 148.674 134.747 148.702Z" fill="#263238"/>
<path d="M148.797 111.274C148.604 111.35 147.727 108.126 145.076 105.136C142.425 102.147 139.394 100.793 139.491 100.621C140.208 100.747 140.892 101.02 141.5 101.422C144.578 103.158 146.968 105.897 148.273 109.182C148.586 109.837 148.765 110.548 148.797 111.274Z" fill="#455A64"/>
<path d="M181.433 180.37C180.529 180.136 191.92 233.456 191.92 233.456L210.561 260.382H228.381L233.504 256.419C233.504 256.419 223.969 237.447 219.468 230.598C214.966 223.749 197.34 184.458 181.433 180.37Z" fill="#455A64"/>
<path d="M181.432 180.371L166.988 177.499C163.536 190.741 145.178 189.574 135.229 177.499L127.262 179.66C116.616 182.794 114.144 183.989 114.144 183.989C106.391 187.02 101.565 195.346 99.6455 201.118L118.653 253.824L113.82 285.583L195.744 285.493L188.295 258.567L189.924 249.902L192.334 242.398C194.736 234.686 191.498 220.539 189.137 212.807L186.569 201.594L181.432 180.371Z" fill="#455A64"/>
<g opacity="0.3">
<path d="M123.859 202.664C123.859 202.664 124.784 213.711 123.859 219.234C122.934 224.757 120.718 251.994 120.718 251.994L148.369 260.224L163.558 254.928L154.714 276.228L138.565 278.54L120.297 258.967L115.574 244.924L118.17 237.33L123.859 202.664Z" fill="black"/>
</g>
<path d="M180.515 268.136L165.795 260.797L168.191 259.416L172.775 260.88C172.775 261.087 177.049 262.951 178.623 262.544C179.635 262.271 180.506 261.625 181.06 260.735C181.281 260.307 175.647 257.428 175.647 257.428L168.55 253.796L160.955 255.792L147.409 264.242L137.253 261.08C136.998 261.501 133.366 277.554 133.366 277.554C133.366 277.554 143.343 280.819 149.073 280.315C152.967 279.991 156.309 277.284 158.249 275.358L159.989 276.29C159.989 276.29 166.354 279.39 169.061 279.514C171.767 279.639 170.013 277.091 170.013 277.091L165.284 274.032L163.358 272.334L166.285 273.377C166.285 273.377 171.249 275.917 172.257 276.2C173.548 276.559 174.57 276.276 175.06 274.474C175.55 272.672 165.394 266.721 165.394 266.721L175.288 270.863C176.206 271.263 177.215 271.408 178.209 271.285C178.628 271.272 179.036 271.149 179.391 270.927C179.747 270.705 180.037 270.392 180.231 270.021C180.963 268.205 180.515 268.136 180.515 268.136Z" fill="#FFBF9D"/>
<path d="M157.44 262.143C157.713 261.791 158.053 261.497 158.442 261.28C159.355 260.699 160.379 260.316 161.45 260.156C162.52 259.995 163.612 260.061 164.655 260.348C165.091 260.437 165.503 260.618 165.863 260.88C165.435 260.808 165.011 260.714 164.593 260.597C162.552 260.187 160.432 260.505 158.6 261.494C158.226 261.732 157.839 261.949 157.44 262.143Z" fill="#FF9A6C"/>
<path d="M167.134 267.708C166.67 267.491 166.233 267.223 165.829 266.907C164.831 266.215 163.744 265.66 162.598 265.257C161.456 264.881 160.228 264.855 159.07 265.181C158.596 265.361 158.135 265.573 157.689 265.816C158.02 265.403 158.467 265.1 158.974 264.946C160.178 264.521 161.49 264.509 162.702 264.912C163.886 265.318 164.993 265.923 165.974 266.7C166.403 266.984 166.793 267.323 167.134 267.708Z" fill="#FF9A6C"/>
<path d="M161.203 269.876C161.203 269.924 160.892 269.745 160.402 269.579C159.773 269.362 159.103 269.287 158.441 269.358C157.777 269.428 157.138 269.648 156.57 270C156.128 270.269 155.88 270.504 155.88 270.463C155.88 270.421 156.018 270.138 156.446 269.772C157.02 269.332 157.704 269.057 158.424 268.978C159.143 268.899 159.87 269.019 160.526 269.323C160.996 269.586 161.231 269.848 161.203 269.876Z" fill="#FF9A6C"/>
<path d="M165.18 274.253C163.834 273.472 162.7 272.372 161.88 271.049C162.503 271.501 163.075 272.02 163.585 272.596C164.178 273.086 164.713 273.642 165.18 274.253Z" fill="#FF9A6C"/>
<path d="M125.323 211.715C129.41 189.974 105.798 183.657 100.144 199.688C100.144 199.688 94.4892 216.03 92.1004 225.13C89.8773 233.601 87.2675 244.462 85.5622 254.983C84.3816 262.247 86.3631 270.863 90.4848 272.61C101.248 277.18 143.95 284.015 143.95 284.015L146.602 262.247L114.953 254.763C114.953 254.763 116.272 251.2 113.835 250.869L121.464 224.446L125.323 211.715Z" fill="#455A64"/>
<path d="M113.835 250.869L114.118 251.007C114.234 251.062 114.343 251.132 114.443 251.214C114.593 251.314 114.727 251.435 114.843 251.573C115.184 251.952 115.373 252.444 115.375 252.954C115.358 253.643 115.145 254.314 114.76 254.887L114.698 254.735C117.273 255.198 120.815 255.971 124.971 256.972L139.042 260.424C141.679 261.052 144.234 261.625 146.637 262.088H146.802V262.247L144.841 277.836C144.586 279.742 144.386 281.288 144.241 282.365C144.165 282.869 144.103 283.27 144.061 283.58C144.05 283.721 144.022 283.86 143.978 283.995C143.969 283.854 143.969 283.714 143.978 283.574C144.013 283.263 144.047 282.883 144.103 282.352C144.22 281.261 144.393 279.721 144.6 277.809C145.062 273.908 145.698 268.474 146.436 262.205L146.574 262.399C144.172 261.943 141.603 261.37 138.98 260.748C133.857 259.526 129.072 258.291 124.923 257.262C120.774 256.233 117.246 255.425 114.684 254.914H114.546L114.622 254.79C114.996 254.253 115.211 253.621 115.243 252.968C115.253 252.488 115.092 252.02 114.788 251.649C114.68 251.513 114.557 251.391 114.422 251.283C114.326 251.196 114.222 251.12 114.111 251.055C114.012 251.005 113.919 250.942 113.835 250.869Z" fill="#263238"/>
<path d="M123.508 218.302C123.506 218.417 123.485 218.532 123.446 218.64L123.169 219.614L122.182 223.121C121.34 226.076 120.152 230.156 118.813 234.651C117.474 239.145 116.252 243.212 115.361 246.153C114.912 247.575 114.539 248.749 114.27 249.605C114.139 249.978 114.035 250.296 113.952 250.544C113.922 250.655 113.878 250.762 113.821 250.862C113.824 250.746 113.844 250.632 113.883 250.523L114.132 249.564C114.381 248.68 114.712 247.493 115.112 246.056C115.962 243.102 117.184 239.021 118.482 234.527C119.78 230.032 121.05 225.965 121.934 223.024C122.382 221.602 122.755 220.428 123.024 219.572C123.149 219.199 123.252 218.882 123.342 218.633C123.432 218.385 123.494 218.295 123.508 218.302Z" fill="#263238"/>
<path d="M124.729 204.715C124.595 203.553 124.39 202.4 124.114 201.263C123.392 198.506 121.908 196.008 119.832 194.054C117.756 192.101 115.173 190.771 112.377 190.216C111.218 190.007 110.047 189.873 108.87 189.816C109.184 189.755 109.503 189.729 109.823 189.74C110.696 189.731 111.568 189.808 112.426 189.968C115.292 190.472 117.948 191.803 120.066 193.798C122.185 195.792 123.674 198.363 124.349 201.194C124.559 202.043 124.686 202.91 124.729 203.783C124.76 204.093 124.76 204.405 124.729 204.715Z" fill="#263238"/>
<path d="M113.834 251.145C113.834 251.2 113.344 251.069 112.571 251.027C111.571 250.963 110.57 251.129 109.644 251.51C108.718 251.892 107.891 252.48 107.227 253.23C106.709 253.81 106.467 254.231 106.419 254.203C106.532 253.783 106.742 253.395 107.033 253.071C107.676 252.233 108.529 251.58 109.505 251.179C110.483 250.778 111.549 250.638 112.598 250.772C113.034 250.793 113.459 250.921 113.834 251.145Z" fill="#263238"/>
<path d="M114.642 254.204C114.642 254.314 113.393 254.425 111.984 255.025C110.576 255.626 109.609 256.447 109.54 256.365C110.171 255.641 110.958 255.07 111.842 254.696C112.726 254.321 113.684 254.153 114.642 254.204Z" fill="#263238"/>
<path d="M185.568 203.493C185.666 203.621 185.75 203.76 185.817 203.907C185.99 204.218 186.204 204.597 186.473 205.122C186.742 205.647 187.101 206.303 187.453 207.083C187.805 207.863 188.254 208.726 188.648 209.72C189.041 210.714 189.524 211.791 189.939 212.993C190.146 213.587 190.387 214.194 190.629 214.836C190.871 215.478 191.036 216.141 191.244 216.825C192.127 219.782 192.78 222.804 193.197 225.862C193.587 228.925 193.716 232.015 193.584 235.1C193.467 236.515 193.398 237.861 193.184 239.118C193.087 239.746 193.018 240.354 192.907 240.927C192.797 241.5 192.666 242.052 192.555 242.584C192.362 243.64 192.051 244.565 191.83 245.387C191.706 245.801 191.609 246.181 191.492 246.533C191.375 246.885 191.25 247.182 191.147 247.472L190.657 248.763C190.609 248.916 190.546 249.064 190.47 249.205C190.493 249.046 190.534 248.891 190.595 248.742C190.698 248.404 190.836 247.969 191.016 247.424C191.112 247.141 191.216 246.823 191.326 246.478C191.437 246.133 191.527 245.746 191.637 245.332C191.844 244.51 192.127 243.585 192.328 242.529C192.431 242.004 192.542 241.452 192.652 240.879C192.762 240.306 192.818 239.705 192.907 239.077C193.108 237.834 193.163 236.494 193.273 235.086C193.385 232.019 193.246 228.948 192.859 225.903C192.44 222.869 191.801 219.87 190.947 216.928C190.746 216.238 190.539 215.596 190.346 214.954C190.153 214.311 189.918 213.704 189.711 213.11C189.31 211.916 188.862 210.832 188.468 209.838C188.075 208.843 187.66 207.96 187.322 207.179C186.984 206.399 186.666 205.737 186.404 205.198C186.141 204.659 185.962 204.273 185.81 203.955C185.717 203.808 185.636 203.653 185.568 203.493Z" fill="#263238"/>
<path d="M186.452 198.722C186.542 198.777 186.059 199.751 185.81 201.056C185.561 202.36 185.631 203.444 185.527 203.451C185.26 202.655 185.236 201.797 185.458 200.986C185.56 200.151 185.906 199.363 186.452 198.722Z" fill="#263238"/>
<g opacity="0.3">
<path d="M195.663 218.723C194.772 215.216 193.101 211.978 191.444 208.767C190.087 206.158 188.731 203.559 187.378 200.973C187.115 200.475 186.791 199.923 186.239 199.813C185.548 199.681 184.954 200.344 184.858 201.021C184.839 201.707 185.009 202.385 185.348 202.982C187.721 208.168 189.782 213.491 191.52 218.923C193.212 224.226 194.427 231.309 193.481 236.791C196.664 231.44 197.182 224.785 195.663 218.723Z" fill="black"/>
</g>
<path d="M170.503 233.077C170.508 233.184 170.494 233.292 170.462 233.394C170.42 233.595 170.379 233.898 170.276 234.285C170.01 235.374 169.659 236.441 169.226 237.475C167.809 240.921 165.61 243.99 162.803 246.439C159.995 248.888 156.656 250.651 153.05 251.587C151.966 251.872 150.863 252.075 149.75 252.194C149.356 252.243 149.059 252.243 148.838 252.257C148.731 252.273 148.621 252.273 148.514 252.257C148.915 252.17 149.321 252.106 149.729 252.063C150.829 251.902 151.917 251.671 152.988 251.373C156.526 250.385 159.8 248.618 162.569 246.203C165.337 243.788 167.532 240.785 168.991 237.413C169.434 236.384 169.81 235.328 170.117 234.251C170.222 233.852 170.351 233.46 170.503 233.077Z" fill="#263238"/>
<path d="M255.624 243.695L253.816 241.707C253.816 241.707 240.58 247.651 236.079 250.171C229.582 253.803 228.754 255.653 228.754 255.653L227.897 259.796L230.956 261.867L255.624 243.695Z" fill="white"/>
<path d="M230.956 261.846L227.891 259.775L228.747 255.633C229.068 255.101 229.485 254.633 229.976 254.252C231.856 252.67 233.9 251.293 236.072 250.144C240.525 247.652 253.678 241.735 253.816 241.673L255.645 243.709L230.956 261.846ZM227.918 259.775L230.949 261.846L255.597 243.73L253.809 241.707C253.353 241.907 240.477 247.707 236.086 250.165C233.916 251.311 231.875 252.686 229.996 254.266C229.513 254.653 229.1 255.12 228.774 255.647L227.918 259.775Z" fill="#263238"/>
<path d="M230.376 261.432C230.376 261.432 229.472 252.63 223.741 250.137C218.011 247.645 200.53 256.593 200.157 256.717C199.784 256.841 164.317 279.797 164.317 279.797L166.285 282.214L198.52 278.299L230.376 261.432Z" fill="white"/>
<path d="M165.498 280.777L200.523 257.994C200.523 257.994 219.095 248.611 224.266 251.621C229.437 254.631 228.878 260.403 228.878 260.403L195.117 279.769L167.148 283.159L165.498 280.777Z" fill="#E0E0E0"/>
<path d="M228.629 257.379C228.629 257.379 225.757 252.657 213.405 254.776C208.741 255.607 204.163 256.864 199.728 258.532L166.236 281.378L167.396 282.759L220.558 262.958L228.905 261.301L229.596 259.837L228.629 257.379Z" fill="white"/>
<path d="M163.53 284.071L194.316 263.338L225.516 258.615L230.231 260.873L256.28 242.404L257.53 243.84L216.14 277.27L207.261 275.137L197.588 281.944L164.317 285.465L163.53 284.071Z" fill="#12733C"/>
<path d="M164.317 285.465L164.109 285.141C163.978 284.899 163.778 284.554 163.502 284.085C166.899 281.751 178.104 274.157 194.232 263.262L225.425 258.512H225.473H225.522L230.244 260.769H230.072L256.114 242.287L256.245 242.197L256.356 242.322L256.694 242.708L257.605 243.758L257.736 243.903L257.578 244.02L231.128 263.483L231.038 263.545L230.942 263.497L225.757 260.735H225.86L195.24 265.72H195.295L172.622 280.218L166.409 284.161L164.793 285.182L164.234 285.514C164.234 285.514 164.413 285.383 164.765 285.148L166.367 284.098L172.519 280.094L195.13 265.478L225.867 260.348H225.922H225.977L231.169 263.11H230.983L257.426 243.633V243.896L256.508 242.846L256.169 242.46H256.411L230.334 261.039L230.251 261.101L230.182 261.039L225.46 258.774H225.556L194.357 263.469H194.412C178.256 274.315 167.002 281.841 163.564 284.105V284.064C163.833 284.547 164.02 284.899 164.151 285.134L164.317 285.465Z" fill="#263238"/>
<path d="M193.964 263.841C194.046 263.786 194.357 264.118 194.654 264.573C194.951 265.029 195.13 265.45 195.048 265.505C194.965 265.561 194.654 265.229 194.357 264.774C194.06 264.318 193.881 263.897 193.964 263.841Z" fill="#263238"/>
<path d="M226.04 260.783C225.963 260.877 225.875 260.96 225.778 261.032C225.557 261.204 225.294 261.425 224.977 261.688L221.987 264.035C219.46 266.01 215.946 268.723 212.052 271.692C210.098 273.169 208.276 274.626 206.529 275.834L201.896 279.052L198.755 281.192L197.892 281.758C197.692 281.889 197.581 281.951 197.574 281.937C197.657 281.849 197.75 281.771 197.85 281.703L198.672 281.081L201.751 278.844L206.336 275.565C208.062 274.336 209.877 272.872 211.859 271.422C215.753 268.454 219.288 265.782 221.856 263.828L224.908 261.57L225.75 260.97C225.838 260.896 225.936 260.833 226.04 260.783Z" fill="#263238"/>
<path d="M237.039 261.991C236.196 263.144 233.821 266.921 233.821 266.921C233.391 269.218 232.768 271.474 231.957 273.666C231.129 275.551 229.834 277.192 228.195 278.437C226.555 279.681 224.626 280.487 222.588 280.778C217.845 281.371 209.933 278.334 209.933 278.334L199.805 274.55C199.805 274.55 197.526 272.596 199.418 271.416C199.418 271.416 197.74 269.524 201.061 268.688C204.382 267.853 213.489 272.141 213.489 272.141C213.489 272.141 209.698 268.944 207.441 268.115C205.183 267.287 206.143 265.354 208.034 265.147C209.926 264.94 211.341 265.616 214.538 266.679C217.735 267.743 220.6 269.89 221.905 269.89C223.21 269.89 222.395 267.777 221.214 266.949C216.416 263.642 218.011 262.544 218.011 262.544C218.011 262.544 218.487 260.887 220.973 261.95C223.313 263.085 225.582 264.363 227.766 265.775C230.528 265.595 231.405 264.912 232.026 263.283C232.409 262.338 233.033 261.509 233.835 260.88L235.043 259.9C235.316 259.677 235.66 259.56 236.012 259.57C236.364 259.581 236.7 259.717 236.96 259.956C237.219 260.194 237.383 260.518 237.423 260.867C237.463 261.217 237.376 261.57 237.177 261.86L237.039 261.991Z" fill="#FFBF9D"/>
<path d="M211.701 277.105C209.53 276.295 207.403 275.373 205.328 274.343C203.204 273.426 201.13 272.398 199.114 271.264C201.284 272.076 203.411 272.998 205.487 274.025C207.611 274.942 209.685 275.97 211.701 277.105Z" fill="#FF9A6C"/>
<path d="M216.589 274.895C215.868 274.556 215.204 274.106 214.621 273.563C213.978 273.112 213.405 272.567 212.923 271.947C213.638 272.293 214.299 272.742 214.884 273.28C215.528 273.731 216.103 274.276 216.589 274.895Z" fill="#FF9A6C"/>
<path d="M228.803 269.786C228.844 269.786 228.962 270.014 228.927 270.435C228.899 270.71 228.814 270.975 228.676 271.214C228.539 271.454 228.353 271.661 228.131 271.824C227.908 271.987 227.654 272.101 227.384 272.159C227.115 272.217 226.836 272.218 226.566 272.161C226.158 272.065 225.965 271.885 225.986 271.851C226.007 271.816 226.234 271.892 226.6 271.906C227.069 271.935 227.534 271.803 227.919 271.533C228.293 271.248 228.558 270.843 228.672 270.387C228.741 270.014 228.72 269.793 228.803 269.786Z" fill="#FF9A6C"/>
<path d="M222.291 275.62C222.326 275.62 222.291 275.841 222.112 276.104C221.859 276.445 221.495 276.689 221.083 276.794C220.676 276.905 220.243 276.876 219.854 276.711C219.564 276.573 219.44 276.407 219.468 276.38C219.966 276.507 220.485 276.531 220.993 276.449C221.829 276.228 222.202 275.572 222.291 275.62Z" fill="#FF9A6C"/>
<path d="M216.375 278.665C216.43 278.741 215.912 279.1 215.194 278.989C214.476 278.879 214.083 278.396 214.159 278.334C214.235 278.271 214.649 278.554 215.243 278.637C215.836 278.72 216.327 278.575 216.375 278.665Z" fill="#FF9A6C"/>
<path d="M231.75 263.8C231.785 263.8 231.75 264.139 231.46 264.574C231.05 265.111 230.479 265.502 229.831 265.692C229.194 265.906 228.511 265.939 227.856 265.789C227.352 265.651 227.111 265.409 227.166 265.381C227.221 265.354 227.463 265.478 227.932 265.54C228.544 265.609 229.164 265.543 229.748 265.347C230.333 265.173 230.863 264.852 231.288 264.415C231.564 264.083 231.688 263.8 231.75 263.8Z" fill="#FF9A6C"/>
<path d="M228.471 257.014C228.437 256.969 228.409 256.921 228.388 256.869C228.34 256.751 228.27 256.613 228.188 256.434C227.94 255.873 227.656 255.329 227.338 254.804C226.841 253.969 226.195 253.232 225.433 252.63C224.947 252.268 224.416 251.973 223.852 251.753C223.211 251.524 222.546 251.369 221.87 251.29C221.119 251.203 220.362 251.175 219.606 251.207C219.219 251.249 218.812 251.249 218.411 251.332C218.011 251.414 217.597 251.47 217.176 251.566C215.398 251.998 213.65 252.545 211.942 253.203C207.967 254.713 204.072 256.427 200.274 258.339L196.422 260.749C187.785 266.175 180.004 271.153 174.411 274.812L167.804 279.176L166.03 280.37L165.56 280.674L165.395 280.764C165.395 280.764 165.436 280.716 165.54 280.64L165.988 280.308L167.742 279.059C169.275 277.988 171.505 276.456 174.287 274.605C179.81 270.884 187.605 265.872 196.242 260.445L200.102 258.035C203.919 256.12 207.837 254.412 211.839 252.919C213.562 252.266 215.326 251.726 217.12 251.304C217.548 251.207 217.97 251.152 218.377 251.069C218.784 250.986 219.205 251 219.606 250.959C220.374 250.932 221.143 250.969 221.905 251.069C222.6 251.152 223.282 251.321 223.935 251.573C224.515 251.803 225.061 252.112 225.557 252.491C226.325 253.12 226.969 253.885 227.456 254.749C227.875 255.465 228.215 256.224 228.471 257.014Z" fill="#263238"/>
<path d="M228.326 258.021C228.246 257.948 228.177 257.864 228.118 257.773C227.952 257.523 227.76 257.292 227.545 257.082C226.759 256.288 225.819 255.661 224.784 255.239C223.256 254.603 221.636 254.218 219.985 254.1C217.95 254.027 215.913 254.131 213.896 254.411C210.231 254.96 206.637 255.912 203.181 257.248C201.855 257.759 200.792 258.215 200.067 258.539L199.225 258.912C199.129 258.96 199.03 258.999 198.928 259.029C199.263 258.784 199.624 258.576 200.005 258.408C200.695 258.049 201.765 257.559 203.091 257.027C206.542 255.606 210.155 254.614 213.848 254.072C215.885 253.786 217.944 253.689 219.999 253.782C221.687 253.915 223.339 254.333 224.887 255.018C225.938 255.476 226.879 256.151 227.649 257C227.854 257.232 228.033 257.487 228.181 257.759C228.284 257.911 228.339 258.015 228.326 258.021Z" fill="#263238"/>
<path d="M200.495 262.33C200.413 262.406 199.805 261.757 199.398 260.818C199.06 260.279 198.89 259.652 198.907 259.016C199.463 260.108 199.992 261.213 200.495 262.33Z" fill="#263238"/>
<path d="M16.5417 234.617L26.9393 285.673H117.211C117.689 285.673 118.147 285.483 118.485 285.145C118.823 284.807 119.013 284.349 119.013 283.871C119.013 283.393 118.823 282.935 118.485 282.597C118.147 282.259 117.689 282.069 117.211 282.069H99.0392L89.3734 234.589C89.2861 234.147 89.0489 233.748 88.7018 233.46C88.3547 233.172 87.9189 233.013 87.4679 233.008L18.4749 232.256C18.1826 232.255 17.8939 232.319 17.6297 232.444C17.3654 232.569 17.1322 232.751 16.9471 232.977C16.762 233.203 16.6296 233.468 16.5595 233.751C16.4893 234.035 16.4833 234.331 16.5417 234.617Z" fill="#E0E0E0"/>
<path d="M16.5425 234.617C16.5392 234.566 16.5392 234.515 16.5425 234.465C16.524 234.311 16.524 234.156 16.5425 234.002C16.5891 233.589 16.7629 233.2 17.0399 232.89C17.317 232.579 17.6835 232.363 18.089 232.269C18.3172 232.232 18.5485 232.219 18.7794 232.228H20.4088H24.4684L50.5522 232.476L68.7377 232.656L78.9282 232.76L84.272 232.815H87.0337C87.2684 232.815 87.4893 232.815 87.7241 232.815C87.9637 232.843 88.197 232.911 88.4145 233.015C88.86 233.232 89.2127 233.602 89.4087 234.058C89.4996 234.279 89.5622 234.511 89.5951 234.748L89.7401 235.438C89.8298 235.894 89.9265 236.357 90.0163 236.819C90.2027 237.744 90.396 238.676 90.5824 239.581C90.9644 241.454 91.3511 243.348 91.7423 245.263C92.5202 249.092 93.3164 253.005 94.1311 257C95.7605 265.009 97.452 273.335 99.1988 281.91L99.0745 281.813H116.942C117.173 281.801 117.405 281.815 117.633 281.855C118.017 281.939 118.367 282.138 118.635 282.426C118.903 282.714 119.077 283.077 119.134 283.467C119.19 283.857 119.126 284.254 118.95 284.606C118.775 284.958 118.496 285.249 118.151 285.438C117.888 285.575 117.598 285.653 117.301 285.666H69.3177H26.9332H26.8572V285.59C23.6813 269.897 21.0923 257.131 19.2627 248.308C18.379 243.882 17.6817 240.444 17.1915 238.103C16.9636 236.937 16.7841 236.032 16.6667 235.445C16.5494 234.858 16.4941 234.534 16.4941 234.534C16.4941 234.534 16.5701 234.845 16.6944 235.438L17.2467 238.096C17.73 240.43 18.4411 243.868 19.3525 248.287C21.1613 257.124 23.778 269.89 26.9884 285.569L26.8918 285.486H69.2762H117.225C117.483 285.472 117.735 285.404 117.964 285.286C118.264 285.121 118.507 284.868 118.66 284.562C118.812 284.255 118.868 283.91 118.819 283.571C118.771 283.232 118.62 282.916 118.387 282.665C118.154 282.414 117.85 282.239 117.515 282.166C117.298 282.133 117.079 282.121 116.86 282.131H98.9088V282.034C97.162 273.453 95.4567 265.126 93.855 257.117C93.0403 253.12 92.2463 249.191 91.4661 245.38C91.0795 243.47 90.6975 241.578 90.32 239.705C90.1267 238.766 89.9403 237.841 89.7539 236.943C89.6572 236.481 89.5675 236.018 89.4708 235.563L89.3328 234.872C89.2982 234.65 89.2403 234.433 89.1602 234.223C88.9823 233.82 88.67 233.49 88.2764 233.291C88.0792 233.195 87.8665 233.134 87.6481 233.112C87.441 233.112 87.1994 233.112 86.9577 233.112L84.1961 233.077L78.8523 233.015L68.6687 232.898L50.4832 232.684L24.4408 232.366L20.3743 232.311H18.7518C18.5208 232.3 18.2894 232.314 18.0614 232.352C17.8562 232.397 17.6586 232.472 17.4745 232.573C17.215 232.727 16.9941 232.938 16.829 233.191C16.6638 233.443 16.5587 233.73 16.5218 234.03C16.5064 234.226 16.5134 234.423 16.5425 234.617Z" fill="#263238"/>
<path d="M58.14 257.987C58.14 258.577 57.9651 259.154 57.6373 259.644C57.3096 260.135 56.8438 260.517 56.2988 260.743C55.7538 260.968 55.1541 261.027 54.5755 260.912C53.997 260.797 53.4655 260.513 53.0484 260.096C52.6313 259.679 52.3472 259.147 52.2321 258.569C52.117 257.99 52.1761 257.391 52.4018 256.846C52.6276 256.301 53.0099 255.835 53.5004 255.507C53.9908 255.179 54.5675 255.004 55.1574 255.004C55.5493 255.003 55.9376 255.08 56.2999 255.23C56.6621 255.379 56.9913 255.599 57.2684 255.876C57.5456 256.153 57.7652 256.482 57.9148 256.845C58.0644 257.207 58.1409 257.595 58.14 257.987Z" fill="white"/>
<path d="M16.625 235.031H21.3612L34.2651 235.093L76.8498 235.39L83.0082 235.438H84.5203C84.779 235.427 85.0382 235.444 85.2935 235.487C85.5548 235.536 85.8036 235.637 86.0254 235.784C86.4755 236.069 86.803 236.512 86.9436 237.026C87.0541 237.523 87.1369 238 87.2405 238.483C87.9999 242.329 88.7387 246.036 89.436 249.571C90.8168 256.641 92.0941 263 93.1504 268.35C94.2068 273.701 95.0422 278.016 95.629 281.019C95.919 282.504 96.1399 283.664 96.3194 284.472C96.3954 284.858 96.4506 285.162 96.4851 285.369C96.5074 285.469 96.5236 285.571 96.5334 285.673C96.5334 285.673 96.5335 285.576 96.4644 285.376C96.3954 285.176 96.3539 284.865 96.2711 284.478C96.1054 283.684 95.8706 282.531 95.5807 281.026C94.9731 278.037 94.0963 273.715 93.0192 268.378L89.2565 249.606C88.5661 246.078 87.8066 242.363 87.0403 238.559C86.9436 238.083 86.8539 237.586 86.7434 237.116C86.6211 236.662 86.3328 236.27 85.9356 236.018C85.7357 235.895 85.5163 235.806 85.2866 235.756C85.0581 235.723 84.8271 235.709 84.5962 235.715H83.0842L76.9257 235.666L34.341 235.293L21.4372 235.155L17.923 235.1H17.0116L16.625 235.031Z" fill="#263238"/>
</svg>
