<svg width="73" height="72" viewBox="0 0 73 72" fill="none" xmlns="http://www.w3.org/2000/svg">
<path fill-rule="evenodd" clip-rule="evenodd" d="M35.7236 33.7929L27.436 54.88H22.8792L0.626953 0H8.82915L27.0563 45.1584H27.36L45.0555 0H49.0047L42.2347 17.2259C43.3297 16.6278 44.5194 16.1371 45.8036 15.7538C47.9047 15.1266 50.1198 14.813 52.4489 14.813C54.6766 14.813 56.8158 15.0874 58.8663 15.6362C60.9169 16.185 62.7522 16.9951 64.3724 18.0666C65.9926 19.1381 67.3343 20.4447 68.3976 21.9866C69.4608 23.5285 70.1443 25.2663 70.4481 27.2002H65.2838C64.8787 24.1165 63.5244 21.8559 61.2207 20.4186C58.917 18.9813 56.1196 18.2626 52.8286 18.2626C50.854 18.2626 49.1072 18.5109 47.5883 19.0074C46.0694 19.5039 44.7909 20.1573 43.753 20.9674C42.7151 21.7775 41.9303 22.7314 41.3987 23.829C40.8671 24.9266 40.6012 26.1026 40.6012 27.357C40.6012 29.6045 41.386 31.4077 42.9556 32.7666C44.5251 34.1255 46.4871 35.3277 48.8414 36.373C51.1957 37.4183 53.7526 38.4114 56.512 39.3522C59.2714 40.293 61.8282 41.4559 64.1826 42.841C66.5369 44.2261 68.4988 45.9509 70.0684 48.0154C71.638 50.0799 72.4227 52.7325 72.4227 55.973C72.4227 58.325 71.9671 60.4679 71.0557 62.4018C70.1443 64.3357 68.8533 65.9821 67.1824 67.341C65.5116 68.6999 63.499 69.7453 61.1447 70.477C58.7904 71.2087 56.1449 71.5746 53.2083 71.5746C50.3224 71.5746 47.6642 71.2218 45.234 70.5162C42.8037 69.8106 40.6898 68.8175 38.8924 67.537C37.0951 66.2565 35.6774 64.7015 34.6395 62.8722C33.6015 61.0429 33.0319 59.0045 32.9307 56.757H38.095C38.1456 57.6455 38.3482 58.7301 38.7026 60.0106C39.057 61.2911 39.7405 62.5325 40.7531 63.7346C41.7657 64.9367 43.234 65.969 45.158 66.8314C47.082 67.6938 49.6388 68.125 52.8286 68.125C56.8284 68.125 60.0308 67.341 62.4358 65.773C64.8408 64.205 66.0432 61.7223 66.0432 58.325C66.0432 55.6071 65.2838 53.4381 63.7649 51.8178C62.2459 50.1975 60.3346 48.8255 58.0309 47.7018C55.7272 46.5781 53.2336 45.5719 50.5502 44.6834C47.8668 43.7949 45.3732 42.7234 43.0695 41.469C40.7658 40.2146 38.8545 38.6466 37.3355 36.765C36.6381 35.901 36.1008 34.9103 35.7236 33.7929Z" fill="url(#paint0_linear_311_11793)"/>
<defs>
<linearGradient id="paint0_linear_311_11793" x1="-6.56023" y1="32.3255" x2="35.5725" y2="79.738" gradientUnits="userSpaceOnUse">
<stop stop-color="#6E9E83"/>
<stop offset="1" stop-color="#6C9C81"/>
</linearGradient>
</defs>
</svg>
