<svg width="30" height="30" viewBox="0 0 30 30" fill="none" xmlns="http://www.w3.org/2000/svg">
<rect width="30" height="30" fill="white"/>
<path d="M4.72363 8.91406H9.47998C10.4097 8.91406 11.2176 9.05241 11.9038 9.3291C12.59 9.60579 13.1185 10.0153 13.4893 10.5576C13.8656 11.0999 14.0537 11.7695 14.0537 12.5664C14.0537 13.2581 13.9458 13.8364 13.73 14.3013C13.5142 14.7661 13.2126 15.1507 12.8252 15.4551C12.4434 15.7539 11.9979 16.0002 11.4888 16.1938L10.5342 16.7334H6.5415L6.5249 14.4839H9.47998C9.85075 14.4839 10.1579 14.4175 10.4014 14.2847C10.6449 14.1519 10.8275 13.9637 10.9492 13.7202C11.0765 13.4712 11.1401 13.1751 11.1401 12.832C11.1401 12.4834 11.0765 12.1846 10.9492 11.9355C10.8219 11.6865 10.6338 11.4956 10.3848 11.3628C10.1413 11.23 9.83968 11.1636 9.47998 11.1636H7.63721V21H4.72363V8.91406ZM11.3394 21L8.6665 15.6543L11.7544 15.6377L14.4604 20.8755V21H11.3394ZM22.3711 8.91406H25.2847V16.8081C25.2847 17.7489 25.0882 18.5457 24.6953 19.1987C24.3024 19.8462 23.7518 20.3359 23.0435 20.668C22.3351 21 21.5023 21.166 20.5449 21.166C19.5986 21.166 18.7658 21 18.0464 20.668C17.3325 20.3359 16.7736 19.8462 16.3696 19.1987C15.9712 18.5457 15.772 17.7489 15.772 16.8081V8.91406H18.6938V16.8081C18.6938 17.3062 18.7658 17.7129 18.9097 18.0283C19.0535 18.3382 19.2638 18.5651 19.5405 18.709C19.8172 18.8529 20.152 18.9248 20.5449 18.9248C20.9434 18.9248 21.2782 18.8529 21.5493 18.709C21.8205 18.5651 22.0252 18.3382 22.1636 18.0283C22.3019 17.7129 22.3711 17.3062 22.3711 16.8081V8.91406Z" fill="black"/>
</svg>
